G04 #@! TF.GenerationSoftware,KiCad,Pcbnew,(5.1.5)-3*
G04 #@! TF.CreationDate,2020-09-27T11:43:03-03:00*
G04 #@! TF.ProjectId,HARDino,48415244-696e-46f2-9e6b-696361645f70,rev?*
G04 #@! TF.SameCoordinates,Original*
G04 #@! TF.FileFunction,Copper,L2,Bot*
G04 #@! TF.FilePolarity,Positive*
%FSLAX46Y46*%
G04 Gerber Fmt 4.6, Leading zero omitted, Abs format (unit mm)*
G04 Created by KiCad (PCBNEW (5.1.5)-3) date 2020-09-27 11:43:03*
%MOMM*%
%LPD*%
G04 APERTURE LIST*
%ADD10R,2.500000X2.500000*%
%ADD11O,2.500000X2.500000*%
%ADD12C,2.600000*%
%ADD13C,0.100000*%
%ADD14O,2.440000X1.120000*%
%ADD15O,1.700000X1.700000*%
%ADD16R,1.700000X1.700000*%
%ADD17O,1.600000X1.600000*%
%ADD18R,1.600000X1.600000*%
%ADD19C,1.800000*%
%ADD20R,1.800000X1.800000*%
%ADD21O,2.184400X4.368800*%
%ADD22O,4.368800X2.184400*%
%ADD23C,2.500000*%
%ADD24R,2.000000X1.905000*%
%ADD25O,2.000000X1.905000*%
%ADD26C,2.000000*%
%ADD27C,1.308000*%
%ADD28R,2.524000X1.524000*%
%ADD29O,2.524000X1.524000*%
%ADD30C,1.500000*%
%ADD31R,1.500000X1.050000*%
%ADD32O,1.500000X1.050000*%
%ADD33O,1.070000X1.800000*%
%ADD34R,1.070000X1.800000*%
%ADD35C,1.600000*%
%ADD36C,0.800000*%
%ADD37C,5.000000*%
%ADD38C,1.000000*%
%ADD39C,0.500000*%
%ADD40C,0.254000*%
G04 APERTURE END LIST*
D10*
X48072040Y-28442920D03*
D11*
X46072040Y-22442920D03*
X33872040Y-22442920D03*
X33872040Y-34442920D03*
X46072040Y-34442920D03*
D12*
X22048480Y-24050600D03*
X22048480Y-29050600D03*
G04 #@! TA.AperFunction,ComponentPad*
D13*
G36*
X23063964Y-32801852D02*
G01*
X23089203Y-32805596D01*
X23113954Y-32811796D01*
X23137978Y-32820391D01*
X23161043Y-32831300D01*
X23182928Y-32844418D01*
X23203422Y-32859617D01*
X23222328Y-32876752D01*
X23239463Y-32895658D01*
X23254662Y-32916152D01*
X23267780Y-32938037D01*
X23278689Y-32961102D01*
X23287284Y-32985126D01*
X23293484Y-33009877D01*
X23297228Y-33035116D01*
X23298480Y-33060600D01*
X23298480Y-35040600D01*
X23297228Y-35066084D01*
X23293484Y-35091323D01*
X23287284Y-35116074D01*
X23278689Y-35140098D01*
X23267780Y-35163163D01*
X23254662Y-35185048D01*
X23239463Y-35205542D01*
X23222328Y-35224448D01*
X23203422Y-35241583D01*
X23182928Y-35256782D01*
X23161043Y-35269900D01*
X23137978Y-35280809D01*
X23113954Y-35289404D01*
X23089203Y-35295604D01*
X23063964Y-35299348D01*
X23038480Y-35300600D01*
X21058480Y-35300600D01*
X21032996Y-35299348D01*
X21007757Y-35295604D01*
X20983006Y-35289404D01*
X20958982Y-35280809D01*
X20935917Y-35269900D01*
X20914032Y-35256782D01*
X20893538Y-35241583D01*
X20874632Y-35224448D01*
X20857497Y-35205542D01*
X20842298Y-35185048D01*
X20829180Y-35163163D01*
X20818271Y-35140098D01*
X20809676Y-35116074D01*
X20803476Y-35091323D01*
X20799732Y-35066084D01*
X20798480Y-35040600D01*
X20798480Y-33060600D01*
X20799732Y-33035116D01*
X20803476Y-33009877D01*
X20809676Y-32985126D01*
X20818271Y-32961102D01*
X20829180Y-32938037D01*
X20842298Y-32916152D01*
X20857497Y-32895658D01*
X20874632Y-32876752D01*
X20893538Y-32859617D01*
X20914032Y-32844418D01*
X20935917Y-32831300D01*
X20958982Y-32820391D01*
X20983006Y-32811796D01*
X21007757Y-32805596D01*
X21032996Y-32801852D01*
X21058480Y-32800600D01*
X23038480Y-32800600D01*
X23063964Y-32801852D01*
G37*
G04 #@! TD.AperFunction*
D14*
X34115080Y-92845920D03*
X41615080Y-85225920D03*
X34115080Y-90305920D03*
X41615080Y-87765920D03*
X34115080Y-87765920D03*
X41615080Y-90305920D03*
X34115080Y-85225920D03*
X41615080Y-92845920D03*
X34116320Y-79725520D03*
X41616320Y-74645520D03*
X34116320Y-77185520D03*
X41616320Y-77185520D03*
X34116320Y-74645520D03*
X41616320Y-79725520D03*
X34101080Y-105831640D03*
X41601080Y-98211640D03*
X34101080Y-103291640D03*
X41601080Y-100751640D03*
X34101080Y-100751640D03*
X41601080Y-103291640D03*
X34101080Y-98211640D03*
X41601080Y-105831640D03*
D15*
X20608320Y-99714080D03*
X23148320Y-99714080D03*
D16*
X25688320Y-99714080D03*
D15*
X20608320Y-97036920D03*
X23148320Y-97036920D03*
D16*
X25688320Y-97036920D03*
D17*
X53079680Y-68980080D03*
X53079680Y-71520080D03*
X53079680Y-74060080D03*
X53079680Y-76600080D03*
X53079680Y-79140080D03*
X53079680Y-81680080D03*
X53079680Y-84220080D03*
X53079680Y-86760080D03*
X53079680Y-89300080D03*
X53079680Y-91840080D03*
X53079680Y-94380080D03*
X53079680Y-96920080D03*
X53079680Y-99460080D03*
X53079680Y-102000080D03*
D18*
X53079680Y-104540080D03*
D17*
X68319680Y-68975000D03*
X68319680Y-71515000D03*
X68319680Y-74055000D03*
X68319680Y-76595000D03*
X68319680Y-79135000D03*
X68319680Y-81675000D03*
X68319680Y-84215000D03*
X68319680Y-86755000D03*
X68319680Y-89295000D03*
X68319680Y-91835000D03*
X68319680Y-94375000D03*
X68319680Y-96915000D03*
X68319680Y-99455000D03*
X68319680Y-101995000D03*
D18*
X68319680Y-104535000D03*
D15*
X75356720Y-104947720D03*
X75356720Y-102407720D03*
X75356720Y-99867720D03*
D16*
X75356720Y-97327720D03*
D19*
X103835200Y-90138240D03*
X103835200Y-95138240D03*
X103835200Y-100138240D03*
X103880920Y-78482200D03*
X103880920Y-73482200D03*
X103880920Y-68482200D03*
X33381920Y-65505360D03*
D20*
X35921920Y-65505360D03*
D17*
X92180440Y-56772840D03*
X74400440Y-49152840D03*
X89640440Y-56772840D03*
X76940440Y-49152840D03*
X87100440Y-56772840D03*
X79480440Y-49152840D03*
X84560440Y-56772840D03*
X82020440Y-49152840D03*
X82020440Y-56772840D03*
X84560440Y-49152840D03*
X79480440Y-56772840D03*
X87100440Y-49152840D03*
X76940440Y-56772840D03*
X89640440Y-49152840D03*
X74400440Y-56772840D03*
D18*
X92180440Y-49152840D03*
D21*
X89820520Y-28629640D03*
X95820520Y-28629640D03*
D22*
X92820520Y-23829640D03*
D23*
X100647520Y-59862160D03*
X100647520Y-54862160D03*
X100647520Y-49862160D03*
X100647520Y-44862160D03*
G04 #@! TA.AperFunction,ComponentPad*
D13*
G36*
X101333781Y-38615170D02*
G01*
X101394451Y-38624169D01*
X101453948Y-38639072D01*
X101511697Y-38659735D01*
X101567143Y-38685959D01*
X101619751Y-38717491D01*
X101669016Y-38754028D01*
X101714462Y-38795218D01*
X101755652Y-38840664D01*
X101792189Y-38889929D01*
X101823721Y-38942537D01*
X101849945Y-38997983D01*
X101870608Y-39055732D01*
X101885511Y-39115229D01*
X101894510Y-39175899D01*
X101897520Y-39237160D01*
X101897520Y-40487160D01*
X101894510Y-40548421D01*
X101885511Y-40609091D01*
X101870608Y-40668588D01*
X101849945Y-40726337D01*
X101823721Y-40781783D01*
X101792189Y-40834391D01*
X101755652Y-40883656D01*
X101714462Y-40929102D01*
X101669016Y-40970292D01*
X101619751Y-41006829D01*
X101567143Y-41038361D01*
X101511697Y-41064585D01*
X101453948Y-41085248D01*
X101394451Y-41100151D01*
X101333781Y-41109150D01*
X101272520Y-41112160D01*
X100022520Y-41112160D01*
X99961259Y-41109150D01*
X99900589Y-41100151D01*
X99841092Y-41085248D01*
X99783343Y-41064585D01*
X99727897Y-41038361D01*
X99675289Y-41006829D01*
X99626024Y-40970292D01*
X99580578Y-40929102D01*
X99539388Y-40883656D01*
X99502851Y-40834391D01*
X99471319Y-40781783D01*
X99445095Y-40726337D01*
X99424432Y-40668588D01*
X99409529Y-40609091D01*
X99400530Y-40548421D01*
X99397520Y-40487160D01*
X99397520Y-39237160D01*
X99400530Y-39175899D01*
X99409529Y-39115229D01*
X99424432Y-39055732D01*
X99445095Y-38997983D01*
X99471319Y-38942537D01*
X99502851Y-38889929D01*
X99539388Y-38840664D01*
X99580578Y-38795218D01*
X99626024Y-38754028D01*
X99675289Y-38717491D01*
X99727897Y-38685959D01*
X99783343Y-38659735D01*
X99841092Y-38639072D01*
X99900589Y-38624169D01*
X99961259Y-38615170D01*
X100022520Y-38612160D01*
X101272520Y-38612160D01*
X101333781Y-38615170D01*
G37*
G04 #@! TD.AperFunction*
D24*
X80648840Y-31276320D03*
D25*
X80648840Y-28736320D03*
X80648840Y-26196320D03*
D26*
X88272760Y-63764160D03*
X88272760Y-68264160D03*
X81772760Y-63764160D03*
X81772760Y-68264160D03*
X88237200Y-78663800D03*
X88237200Y-83163800D03*
X81737200Y-78663800D03*
X81737200Y-83163800D03*
D15*
X80526920Y-41075640D03*
X77986920Y-41075640D03*
X75446920Y-41075640D03*
D16*
X72906920Y-41075640D03*
D27*
X83618000Y-94137480D03*
X90118000Y-94137480D03*
D28*
X40697120Y-51007040D03*
D29*
X40697120Y-48467040D03*
X40697120Y-45927040D03*
X40697120Y-43387040D03*
X40697120Y-40847040D03*
X25457120Y-40847040D03*
X25457120Y-43387040D03*
X25457120Y-45927040D03*
X25457120Y-48467040D03*
X25457120Y-51007040D03*
D30*
X92787680Y-105547160D03*
X89387680Y-105547160D03*
D31*
X55046880Y-28402280D03*
D32*
X55046880Y-25862280D03*
X55046880Y-27132280D03*
D15*
X20603240Y-94354680D03*
X23143240Y-94354680D03*
D16*
X25683240Y-94354680D03*
D15*
X19131280Y-83151980D03*
X19131280Y-80611980D03*
X19131280Y-78071980D03*
D16*
X19131280Y-75531980D03*
D15*
X20598160Y-91758800D03*
X23138160Y-91758800D03*
D16*
X25678160Y-91758800D03*
D19*
X26879520Y-58967400D03*
D20*
X29419520Y-58967400D03*
D19*
X33356520Y-58987720D03*
D20*
X35896520Y-58987720D03*
D19*
X39818280Y-58987720D03*
D20*
X42358280Y-58987720D03*
D19*
X26899840Y-65464720D03*
D20*
X29439840Y-65464720D03*
D33*
X22124640Y-59770040D03*
X20854640Y-59770040D03*
X19584640Y-59770040D03*
D34*
X18314640Y-59770040D03*
D19*
X39818280Y-65485040D03*
D20*
X42358280Y-65485040D03*
D35*
X85129400Y-26809480D03*
D18*
X85129400Y-24809480D03*
D35*
X85195440Y-30602200D03*
D18*
X85195440Y-32602200D03*
D36*
X24051260Y-77396340D03*
D37*
X18500000Y-18500000D03*
X106500000Y-18500000D03*
X106500000Y-106500000D03*
X19141440Y-105918000D03*
D36*
X80543400Y-107325160D03*
X71295260Y-100667820D03*
X24350980Y-67056000D03*
X24498300Y-54505860D03*
X72941180Y-44770040D03*
X44208700Y-93609160D03*
X44041060Y-80309720D03*
X70601840Y-43677840D03*
X58638440Y-54348380D03*
X58656220Y-49563020D03*
X57464960Y-38343840D03*
X49938940Y-51719480D03*
X49946560Y-48435260D03*
X48607980Y-75049380D03*
X41744900Y-53835300D03*
X71102220Y-89839800D03*
X81719420Y-75656440D03*
X55747920Y-60274200D03*
X23812500Y-71932800D03*
X26614120Y-74731880D03*
X86707980Y-100771960D03*
X74972810Y-52596150D03*
X48478440Y-53507640D03*
X45308520Y-72704960D03*
X25359360Y-87569040D03*
X26830020Y-83944460D03*
X26809700Y-87609680D03*
X23390860Y-62461140D03*
X23403560Y-53380640D03*
D38*
X75270360Y-104861360D02*
X75356720Y-104947720D01*
X68319680Y-104535000D02*
X68646040Y-104861360D01*
X68646040Y-104861360D02*
X75270360Y-104861360D01*
X87412800Y-32602200D02*
X85195440Y-32602200D01*
X89820520Y-28629640D02*
X89820520Y-30194480D01*
X89820520Y-30194480D02*
X87412800Y-32602200D01*
X85156040Y-32562800D02*
X85195440Y-32602200D01*
X83525360Y-32562800D02*
X85156040Y-32562800D01*
X82169000Y-31206440D02*
X83525360Y-32562800D01*
X80648840Y-31276320D02*
X82099120Y-31276320D01*
X82099120Y-31276320D02*
X82169000Y-31206440D01*
X85195440Y-40234840D02*
X85195440Y-32602200D01*
X82118200Y-43312080D02*
X85195440Y-40234840D01*
X78303120Y-43312080D02*
X82118200Y-43312080D01*
X74400440Y-49152840D02*
X74400440Y-47214760D01*
X74400440Y-47214760D02*
X78303120Y-43312080D01*
X41615080Y-85225920D02*
X41615080Y-87765920D01*
D39*
X40382160Y-87765920D02*
X41615080Y-87765920D01*
X39766240Y-88381840D02*
X40382160Y-87765920D01*
X48238440Y-102000080D02*
X41894760Y-95656400D01*
X41894760Y-95656400D02*
X40520620Y-95656400D01*
X53079680Y-102000080D02*
X48238440Y-102000080D01*
X39766240Y-94902020D02*
X39766240Y-88381840D01*
X40520620Y-95656400D02*
X39766240Y-94902020D01*
D38*
X95820520Y-24634480D02*
X95820520Y-28629640D01*
X92820520Y-23829640D02*
X95015680Y-23829640D01*
X95015680Y-23829640D02*
X95820520Y-24634480D01*
X106500000Y-18500000D02*
X106483400Y-18516600D01*
X92820520Y-18516600D02*
X92820520Y-23829640D01*
X106483400Y-18516600D02*
X92820520Y-18516600D01*
X18500000Y-18500000D02*
X106500000Y-18500000D01*
X20598160Y-91758800D02*
X20608320Y-99714080D01*
D39*
X19663440Y-83163440D02*
X19695160Y-83195160D01*
D38*
X80568800Y-107350560D02*
X80543400Y-107325160D01*
X96621600Y-107350560D02*
X80568800Y-107350560D01*
X103835200Y-100138240D02*
X103833920Y-100138240D01*
X103833920Y-100138240D02*
X96621600Y-107350560D01*
D39*
X20548600Y-104510840D02*
X19141440Y-105918000D01*
X20608320Y-99714080D02*
X20548600Y-99773800D01*
D38*
X53088600Y-76591160D02*
X53079680Y-76600080D01*
X103904460Y-109095540D02*
X106500000Y-106500000D01*
X19141440Y-105918000D02*
X22318980Y-109095540D01*
X22318980Y-109095540D02*
X103904460Y-109095540D01*
X105284260Y-101587300D02*
X103835200Y-100138240D01*
X106944160Y-101587300D02*
X105284260Y-101587300D01*
X106500000Y-106500000D02*
X106944160Y-106055840D01*
X106944160Y-106055840D02*
X106944160Y-101587300D01*
X105390940Y-101693980D02*
X103835200Y-100138240D01*
X105406820Y-66956300D02*
X107015280Y-68564760D01*
X103880920Y-68482200D02*
X105406820Y-66956300D01*
X107015280Y-68564760D02*
X107015280Y-100284280D01*
X107015280Y-100284280D02*
X105605580Y-101693980D01*
X105605580Y-101693980D02*
X105390940Y-101693980D01*
X19156680Y-105902760D02*
X19141440Y-105918000D01*
X19156680Y-102946200D02*
X19156680Y-105902760D01*
X20608320Y-99714080D02*
X20608320Y-101494560D01*
X20608320Y-101494560D02*
X19156680Y-102946200D01*
X20553680Y-89951560D02*
X20553680Y-91714320D01*
X19695160Y-83195160D02*
X19695160Y-89093040D01*
X20553680Y-91714320D02*
X20598160Y-91758800D01*
X19695160Y-89093040D02*
X20553680Y-89951560D01*
X97382360Y-28629640D02*
X95820520Y-28629640D01*
X107083860Y-38331140D02*
X97382360Y-28629640D01*
X103880920Y-68482200D02*
X107083860Y-65279260D01*
X107083860Y-65279260D02*
X107083860Y-38331140D01*
X86647160Y-65389760D02*
X88272760Y-63764160D01*
X81772760Y-63764160D02*
X83398360Y-65389760D01*
X83398360Y-65389760D02*
X86647160Y-65389760D01*
X102257860Y-66859140D02*
X103880920Y-68482200D01*
X89733260Y-62303660D02*
X99214940Y-62303660D01*
X99214940Y-62303660D02*
X102450900Y-65539620D01*
X102450900Y-65539620D02*
X102257860Y-65732660D01*
X88272760Y-63764160D02*
X89733260Y-62303660D01*
X102257860Y-65732660D02*
X102257860Y-66859140D01*
X79956660Y-65440560D02*
X81582260Y-63814960D01*
X76921360Y-65524380D02*
X79956660Y-65524380D01*
X68319680Y-71515000D02*
X70930740Y-71515000D01*
X79956660Y-65524380D02*
X79956660Y-65440560D01*
X70930740Y-71515000D02*
X76921360Y-65524380D01*
X102457260Y-67058540D02*
X103880920Y-68482200D01*
X89514680Y-71180960D02*
X93637100Y-67058540D01*
X93637100Y-67058540D02*
X102457260Y-67058540D01*
X88237200Y-78663800D02*
X89514680Y-77386320D01*
X89514680Y-77386320D02*
X89514680Y-71180960D01*
X86073120Y-76499720D02*
X88237200Y-78663800D01*
X81737200Y-78663800D02*
X83901280Y-76499720D01*
X83901280Y-76499720D02*
X86073120Y-76499720D01*
X89896320Y-23829640D02*
X92820520Y-23829640D01*
X86552020Y-28232100D02*
X86654640Y-28232100D01*
X85129400Y-26809480D02*
X86552020Y-28232100D01*
X86654640Y-28232100D02*
X87218520Y-27668220D01*
X87218520Y-27668220D02*
X87218520Y-26507440D01*
X87218520Y-26507440D02*
X89896320Y-23829640D01*
X86733380Y-28413460D02*
X85129400Y-26809480D01*
X85195440Y-30602200D02*
X86733380Y-29064260D01*
X86733380Y-29064260D02*
X86733380Y-28413460D01*
X83374200Y-28736320D02*
X80648840Y-28736320D01*
X85129400Y-26809480D02*
X85129400Y-26981120D01*
X85129400Y-26981120D02*
X83374200Y-28736320D01*
X78319600Y-28736320D02*
X80648840Y-28736320D01*
X78089760Y-28966160D02*
X78319600Y-28736320D01*
X77986920Y-41075640D02*
X78089760Y-40972800D01*
X78089760Y-40972800D02*
X78089760Y-28966160D01*
X21013420Y-73571100D02*
X24051260Y-76608940D01*
X17515840Y-74378820D02*
X18323560Y-73571100D01*
X19663440Y-83163440D02*
X18063240Y-83163440D01*
X17515840Y-82616040D02*
X17515840Y-74378820D01*
X24051260Y-76608940D02*
X24051260Y-77348080D01*
X18063240Y-83163440D02*
X17515840Y-82616040D01*
X18323560Y-73571100D02*
X21013420Y-73571100D01*
D39*
X48332420Y-99460080D02*
X53079680Y-99460080D01*
X41615080Y-92845920D02*
X41615080Y-93662220D01*
X41615080Y-93662220D02*
X43180000Y-95227140D01*
X43180000Y-95227140D02*
X44099480Y-95227140D01*
X44099480Y-95227140D02*
X48332420Y-99460080D01*
D38*
X41615080Y-90305920D02*
X41615080Y-92845920D01*
X41601080Y-105831640D02*
X41601080Y-103291640D01*
X80651320Y-26196320D02*
X80648840Y-26196320D01*
X82052160Y-24795480D02*
X80651320Y-26196320D01*
X85129400Y-24809480D02*
X85115400Y-24795480D01*
X85115400Y-24795480D02*
X82052160Y-24795480D01*
X23138160Y-91758800D02*
X23148320Y-99714080D01*
D39*
X92787680Y-105547160D02*
X92787680Y-105017360D01*
D38*
X105709720Y-92012760D02*
X105709720Y-97007680D01*
X103835200Y-90138240D02*
X105709720Y-92012760D01*
X104739440Y-97977960D02*
X95529400Y-97977960D01*
X105709720Y-97007680D02*
X104739440Y-97977960D01*
X92787680Y-100719680D02*
X92787680Y-105547160D01*
X95529400Y-97977960D02*
X92787680Y-100719680D01*
X92787680Y-105547160D02*
X92787680Y-102331520D01*
X75432920Y-102331520D02*
X75356720Y-102407720D01*
X92787680Y-102331520D02*
X75432920Y-102331520D01*
D39*
X103784400Y-90087440D02*
X103835200Y-90138240D01*
X103880920Y-78482200D02*
X103784400Y-78578720D01*
D38*
X103784400Y-78578720D02*
X103784400Y-90087440D01*
D39*
X73025000Y-102407720D02*
X75356720Y-102407720D01*
X71295260Y-100667820D02*
X71295260Y-100677980D01*
X71295260Y-100677980D02*
X73025000Y-102407720D01*
D38*
X78267560Y-102301040D02*
X78160880Y-102407720D01*
X78160880Y-102407720D02*
X75356720Y-102407720D01*
X23154640Y-99720400D02*
X23154640Y-103428800D01*
X23154640Y-103428800D02*
X27228800Y-107502960D01*
X78267560Y-106022140D02*
X78267560Y-102301040D01*
X27228800Y-107502960D02*
X76786740Y-107502960D01*
X23148320Y-99714080D02*
X23154640Y-99720400D01*
X76786740Y-107502960D02*
X78267560Y-106022140D01*
X23126700Y-79006700D02*
X23126700Y-91747340D01*
X23126700Y-91747340D02*
X23138160Y-91758800D01*
X19131280Y-75531980D02*
X19651980Y-75531980D01*
X19651980Y-75531980D02*
X23126700Y-79006700D01*
D39*
X24500840Y-66906140D02*
X24350980Y-67056000D01*
X24498300Y-56761380D02*
X24500840Y-56763920D01*
X24500840Y-56763920D02*
X24500840Y-66906140D01*
X24498300Y-54505860D02*
X24498300Y-56761380D01*
X74419460Y-54465220D02*
X76339700Y-54465220D01*
X72931020Y-52976780D02*
X74419460Y-54465220D01*
X76940440Y-55065960D02*
X76940440Y-56772840D01*
X72931020Y-44780200D02*
X72931020Y-52976780D01*
X72941180Y-44770040D02*
X72931020Y-44780200D01*
X76339700Y-54465220D02*
X76940440Y-55065960D01*
X101777800Y-93080840D02*
X103835200Y-95138240D01*
X79910940Y-85163660D02*
X99212400Y-85163660D01*
X99212400Y-85163660D02*
X101777800Y-87729060D01*
X68319680Y-81675000D02*
X76422280Y-81675000D01*
X76422280Y-81675000D02*
X79910940Y-85163660D01*
X101777800Y-87729060D02*
X101777800Y-93080840D01*
D38*
X41601080Y-98211640D02*
X41601080Y-100751640D01*
D39*
X44089320Y-90987880D02*
X44089320Y-93451680D01*
X53079680Y-89300080D02*
X45777120Y-89300080D01*
X45777120Y-89300080D02*
X44089320Y-90987880D01*
X39818280Y-58987720D02*
X39818280Y-59726800D01*
X44041060Y-63949580D02*
X44041060Y-80309720D01*
X39818280Y-59726800D02*
X44041060Y-63949580D01*
X44041060Y-80309720D02*
X44041060Y-80309720D01*
X71831200Y-54203600D02*
X74400440Y-56772840D01*
X70601840Y-43677840D02*
X71831200Y-44907200D01*
X71831200Y-44907200D02*
X71831200Y-54203600D01*
X44141420Y-84220080D02*
X53079680Y-84220080D01*
X43141900Y-83220560D02*
X44141420Y-84220080D01*
X38267640Y-83220560D02*
X43141900Y-83220560D01*
X36195000Y-81147920D02*
X38267640Y-83220560D01*
X26899840Y-66490820D02*
X28412440Y-68003420D01*
X32969200Y-68003420D02*
X36195000Y-71229220D01*
X26899840Y-65464720D02*
X26899840Y-66490820D01*
X28412440Y-68003420D02*
X32969200Y-68003420D01*
X36195000Y-71229220D02*
X36195000Y-81147920D01*
X58658760Y-54328060D02*
X58638440Y-54348380D01*
X58658760Y-49565560D02*
X58658760Y-54328060D01*
X58656220Y-49563020D02*
X58658760Y-49565560D01*
X59168060Y-89295000D02*
X68319680Y-89295000D01*
X57322720Y-87449660D02*
X59168060Y-89295000D01*
X57464960Y-38343840D02*
X57322720Y-38486080D01*
X57322720Y-38486080D02*
X57322720Y-87449660D01*
X49938940Y-48442880D02*
X49938940Y-51719480D01*
X49946560Y-48435260D02*
X49938940Y-48442880D01*
X33381920Y-66757520D02*
X33381920Y-65505360D01*
X53065740Y-81694020D02*
X39042340Y-81694020D01*
X37426900Y-80078580D02*
X37426900Y-70802500D01*
X53079680Y-81680080D02*
X53065740Y-81694020D01*
X37426900Y-70802500D02*
X33381920Y-66757520D01*
X39042340Y-81694020D02*
X37426900Y-80078580D01*
X49946560Y-48046640D02*
X49946560Y-48435260D01*
X49077880Y-47177960D02*
X49946560Y-48046640D01*
X39049960Y-47177960D02*
X49077880Y-47177960D01*
X37584380Y-48643540D02*
X39049960Y-47177960D01*
X34005520Y-61363860D02*
X36695380Y-61363860D01*
X33381920Y-61987460D02*
X34005520Y-61363860D01*
X33381920Y-65505360D02*
X33381920Y-61987460D01*
X36695380Y-61363860D02*
X37584380Y-60474860D01*
X37584380Y-60474860D02*
X37584380Y-48643540D01*
X38947120Y-65485040D02*
X39818280Y-65485040D01*
X41744900Y-53835300D02*
X41554400Y-54025800D01*
X41554400Y-54096920D02*
X38323520Y-57327800D01*
X38323520Y-64861440D02*
X38947120Y-65485040D01*
X41554400Y-54025800D02*
X41554400Y-54096920D01*
X38323520Y-57327800D02*
X38323520Y-64861440D01*
X50191700Y-79140080D02*
X53079680Y-79140080D01*
X48607980Y-75049380D02*
X48607980Y-77556360D01*
X48607980Y-77556360D02*
X50191700Y-79140080D01*
D38*
X88272760Y-68264160D02*
X81772760Y-68264160D01*
D39*
X71107300Y-89844880D02*
X71107300Y-93223080D01*
X69955380Y-94375000D02*
X68319680Y-94375000D01*
X71102220Y-89839800D02*
X71107300Y-89844880D01*
X71107300Y-93223080D02*
X69955380Y-94375000D01*
X81671160Y-68365760D02*
X81772760Y-68264160D01*
X81671160Y-75608180D02*
X81671160Y-68365760D01*
X81719420Y-75656440D02*
X81671160Y-75608180D01*
D38*
X81737200Y-83163800D02*
X88237200Y-83163800D01*
D39*
X75446920Y-39765000D02*
X75446920Y-41075640D01*
X71996300Y-36314380D02*
X75446920Y-39765000D01*
X52137340Y-71520080D02*
X51249580Y-70632320D01*
X53079680Y-71520080D02*
X52137340Y-71520080D01*
X51249580Y-70632320D02*
X51249580Y-39971980D01*
X51249580Y-39971980D02*
X54907180Y-36314380D01*
X54907180Y-36314380D02*
X71996300Y-36314380D01*
X72906920Y-39676100D02*
X72906920Y-41075640D01*
X70561200Y-37330380D02*
X72906920Y-39676100D01*
X55758080Y-37330380D02*
X70561200Y-37330380D01*
X55747920Y-60274200D02*
X55758080Y-60264040D01*
X55758080Y-60264040D02*
X55758080Y-37330380D01*
X40697120Y-45927040D02*
X25457120Y-45927040D01*
X23812500Y-71932800D02*
X23812500Y-71932800D01*
X16423640Y-47183040D02*
X16423640Y-68061840D01*
X20294600Y-71932800D02*
X20518120Y-71932800D01*
X16423640Y-68061840D02*
X20294600Y-71932800D01*
X20518120Y-71932800D02*
X23812500Y-71932800D01*
X17627600Y-45979080D02*
X16423640Y-47183040D01*
X25405080Y-45979080D02*
X17627600Y-45979080D01*
X25457120Y-45927040D02*
X25405080Y-45979080D01*
X28989020Y-77185520D02*
X34116320Y-77185520D01*
X26621740Y-74818240D02*
X28989020Y-77185520D01*
D38*
X25678160Y-91758800D02*
X25735280Y-91701680D01*
X31548040Y-87765920D02*
X34115080Y-87765920D01*
X25678160Y-91758800D02*
X27555160Y-91758800D01*
X27555160Y-91758800D02*
X31548040Y-87765920D01*
X25683240Y-94354680D02*
X25717560Y-94320360D01*
X25683240Y-94354680D02*
X25692160Y-94345760D01*
X32615240Y-94345760D02*
X34115080Y-92845920D01*
X25692160Y-94345760D02*
X32615240Y-94345760D01*
D39*
X86707980Y-93019880D02*
X86707980Y-100771960D01*
X68319680Y-86755000D02*
X80443100Y-86755000D01*
X80443100Y-86755000D02*
X86707980Y-93019880D01*
D38*
X82020440Y-49152840D02*
X84560440Y-49152840D01*
X82020440Y-49152840D02*
X82020440Y-56772840D01*
X82020440Y-56772840D02*
X84560440Y-56772840D01*
X84560440Y-50039300D02*
X84560440Y-49152840D01*
X85608160Y-51087020D02*
X84560440Y-50039300D01*
X100647520Y-49862160D02*
X99422660Y-51087020D01*
X99422660Y-51087020D02*
X85608160Y-51087020D01*
D39*
X82020440Y-52596150D02*
X74972810Y-52596150D01*
X82020440Y-56772840D02*
X82020440Y-52596150D01*
X47726600Y-70350380D02*
X47726600Y-54259480D01*
X45372020Y-72704960D02*
X47726600Y-70350380D01*
X45308520Y-72704960D02*
X45372020Y-72704960D01*
X47726600Y-54259480D02*
X48478440Y-53507640D01*
D38*
X23656160Y-22442920D02*
X33872040Y-22442920D01*
X22048480Y-24050600D02*
X23656160Y-22442920D01*
X47670720Y-28844240D02*
X48072040Y-28442920D01*
X22048480Y-29050600D02*
X22254840Y-28844240D01*
X22254840Y-28844240D02*
X47670720Y-28844240D01*
X22496160Y-34498280D02*
X22048480Y-34050600D01*
X33872040Y-34442920D02*
X33816680Y-34498280D01*
X33816680Y-34498280D02*
X22496160Y-34498280D01*
X87096600Y-56776680D02*
X87100440Y-56772840D01*
X88681560Y-59837320D02*
X87096600Y-58252360D01*
X87096600Y-58252360D02*
X87096600Y-56776680D01*
X100647520Y-59862160D02*
X100622680Y-59837320D01*
X100622680Y-59837320D02*
X88681560Y-59837320D01*
X92583600Y-39862160D02*
X100647520Y-39862160D01*
X87100440Y-49152840D02*
X87100440Y-45345320D01*
X87100440Y-45345320D02*
X92583600Y-39862160D01*
D39*
X32054800Y-56421020D02*
X33356520Y-57722740D01*
X26438860Y-56421020D02*
X32054800Y-56421020D01*
X25382220Y-57477660D02*
X26438860Y-56421020D01*
X33356520Y-57722740D02*
X33356520Y-58987720D01*
X25382220Y-63113920D02*
X25382220Y-57477660D01*
X25374600Y-63121540D02*
X25382220Y-63113920D01*
X25359360Y-87569040D02*
X25344120Y-87553800D01*
X25344120Y-87553800D02*
X25344120Y-69265800D01*
X25344120Y-69265800D02*
X25374600Y-69235320D01*
X25374600Y-69235320D02*
X25374600Y-63121540D01*
D38*
X25688320Y-97036920D02*
X25816560Y-97165160D01*
X25816560Y-97165160D02*
X26944320Y-97165160D01*
X30561280Y-100751640D02*
X34101080Y-100751640D01*
X27035760Y-97226120D02*
X30561280Y-100751640D01*
X25688320Y-99714080D02*
X25688320Y-100064600D01*
X30017720Y-105831640D02*
X34101080Y-105831640D01*
X25688320Y-99714080D02*
X25688320Y-101502240D01*
X25688320Y-101502240D02*
X30017720Y-105831640D01*
D39*
X26784300Y-83990180D02*
X26830020Y-83944460D01*
X26809700Y-87609680D02*
X26784300Y-87584280D01*
X26784300Y-87584280D02*
X26784300Y-83990180D01*
X23403560Y-53380640D02*
X23390860Y-62461140D01*
D40*
G36*
X19273083Y-72858655D02*
G01*
X19316203Y-72911197D01*
X19525879Y-73083273D01*
X19765095Y-73211137D01*
X20024661Y-73289875D01*
X20226960Y-73309800D01*
X20226962Y-73309800D01*
X20294599Y-73316462D01*
X20362236Y-73309800D01*
X23146628Y-73309800D01*
X23367090Y-73401119D01*
X23662104Y-73459800D01*
X23962896Y-73459800D01*
X23967121Y-73458960D01*
X23967121Y-77546195D01*
X21113733Y-74692808D01*
X21113733Y-74681980D01*
X21091973Y-74461049D01*
X21027530Y-74248609D01*
X20922880Y-74052823D01*
X20782045Y-73881215D01*
X20610437Y-73740380D01*
X20414651Y-73635730D01*
X20202211Y-73571287D01*
X19981280Y-73549527D01*
X18281280Y-73549527D01*
X18060349Y-73571287D01*
X17847909Y-73635730D01*
X17652123Y-73740380D01*
X17480515Y-73881215D01*
X17339680Y-74052823D01*
X17235030Y-74248609D01*
X17170587Y-74461049D01*
X17148827Y-74681980D01*
X17148827Y-76381980D01*
X17170587Y-76602911D01*
X17235030Y-76815351D01*
X17339680Y-77011137D01*
X17407322Y-77093559D01*
X17379285Y-77135519D01*
X17230255Y-77495310D01*
X17154280Y-77877262D01*
X17154280Y-78266698D01*
X17230255Y-78648650D01*
X17379285Y-79008441D01*
X17595644Y-79332244D01*
X17605380Y-79341980D01*
X17595644Y-79351716D01*
X17379285Y-79675519D01*
X17230255Y-80035310D01*
X17154280Y-80417262D01*
X17154280Y-80806698D01*
X17230255Y-81188650D01*
X17379285Y-81548441D01*
X17595644Y-81872244D01*
X17754819Y-82031419D01*
X17738896Y-82047886D01*
X17550252Y-82340741D01*
X17439701Y-82607657D01*
X17610337Y-82878980D01*
X18858280Y-82878980D01*
X18858280Y-82858980D01*
X19404280Y-82858980D01*
X19404280Y-82878980D01*
X20652223Y-82878980D01*
X20822859Y-82607657D01*
X20712308Y-82340741D01*
X20523664Y-82047886D01*
X20507741Y-82031419D01*
X20666916Y-81872244D01*
X20883275Y-81548441D01*
X21032305Y-81188650D01*
X21108280Y-80806698D01*
X21108280Y-80417262D01*
X21032305Y-80035310D01*
X20883275Y-79675519D01*
X20666916Y-79351716D01*
X20657180Y-79341980D01*
X20666916Y-79332244D01*
X20860941Y-79041866D01*
X21499700Y-79680626D01*
X21499701Y-90235940D01*
X21409399Y-90177772D01*
X21142483Y-90067221D01*
X20871160Y-90237857D01*
X20871160Y-91485800D01*
X20891160Y-91485800D01*
X20891160Y-92031800D01*
X20871160Y-92031800D01*
X20871160Y-93279743D01*
X20876240Y-93282938D01*
X20876240Y-94081680D01*
X20896240Y-94081680D01*
X20896240Y-94627680D01*
X20876240Y-94627680D01*
X20876240Y-95875623D01*
X20881320Y-95878818D01*
X20881320Y-96763920D01*
X20901320Y-96763920D01*
X20901320Y-97309920D01*
X20881320Y-97309920D01*
X20881320Y-99441080D01*
X20901320Y-99441080D01*
X20901320Y-99987080D01*
X20881320Y-99987080D01*
X20881320Y-101235023D01*
X21152643Y-101405659D01*
X21419559Y-101295108D01*
X21527640Y-101225487D01*
X21527641Y-103348876D01*
X21519769Y-103428800D01*
X21527641Y-103508725D01*
X21551183Y-103747748D01*
X21564419Y-103791382D01*
X21644216Y-104054438D01*
X21795294Y-104337085D01*
X21947662Y-104522747D01*
X21947666Y-104522751D01*
X21998612Y-104584829D01*
X22060690Y-104635775D01*
X26021825Y-108596911D01*
X26072771Y-108658989D01*
X26134849Y-108709935D01*
X26134852Y-108709938D01*
X26303081Y-108847999D01*
X26305573Y-108850045D01*
X16152000Y-108850293D01*
X16152000Y-100258404D01*
X18916732Y-100258404D01*
X19055428Y-100577957D01*
X19253800Y-100864312D01*
X19504226Y-101106464D01*
X19797081Y-101295108D01*
X20063997Y-101405659D01*
X20335320Y-101235023D01*
X20335320Y-99987080D01*
X19084157Y-99987080D01*
X18916732Y-100258404D01*
X16152000Y-100258404D01*
X16152000Y-97581244D01*
X18916732Y-97581244D01*
X19055428Y-97900797D01*
X19253800Y-98187152D01*
X19448584Y-98375500D01*
X19253800Y-98563848D01*
X19055428Y-98850203D01*
X18916732Y-99169756D01*
X19084157Y-99441080D01*
X20335320Y-99441080D01*
X20335320Y-97309920D01*
X19084157Y-97309920D01*
X18916732Y-97581244D01*
X16152000Y-97581244D01*
X16152000Y-94899004D01*
X18911652Y-94899004D01*
X19050348Y-95218557D01*
X19248720Y-95504912D01*
X19448670Y-95698256D01*
X19253800Y-95886688D01*
X19055428Y-96173043D01*
X18916732Y-96492596D01*
X19084157Y-96763920D01*
X20335320Y-96763920D01*
X20335320Y-95515977D01*
X20330240Y-95512782D01*
X20330240Y-94627680D01*
X19079077Y-94627680D01*
X18911652Y-94899004D01*
X16152000Y-94899004D01*
X16152000Y-92303124D01*
X18906572Y-92303124D01*
X19045268Y-92622677D01*
X19243640Y-92909032D01*
X19398935Y-93059196D01*
X19248720Y-93204448D01*
X19050348Y-93490803D01*
X18911652Y-93810356D01*
X19079077Y-94081680D01*
X20330240Y-94081680D01*
X20330240Y-92833737D01*
X20325160Y-92830542D01*
X20325160Y-92031800D01*
X19073997Y-92031800D01*
X18906572Y-92303124D01*
X16152000Y-92303124D01*
X16152000Y-91214476D01*
X18906572Y-91214476D01*
X19073997Y-91485800D01*
X20325160Y-91485800D01*
X20325160Y-90237857D01*
X20053837Y-90067221D01*
X19786921Y-90177772D01*
X19494066Y-90366416D01*
X19243640Y-90608568D01*
X19045268Y-90894923D01*
X18906572Y-91214476D01*
X16152000Y-91214476D01*
X16152000Y-83696303D01*
X17439701Y-83696303D01*
X17550252Y-83963219D01*
X17738896Y-84256074D01*
X17981048Y-84506500D01*
X18267403Y-84704872D01*
X18586956Y-84843568D01*
X18858280Y-84676143D01*
X18858280Y-83424980D01*
X19404280Y-83424980D01*
X19404280Y-84676143D01*
X19675604Y-84843568D01*
X19995157Y-84704872D01*
X20281512Y-84506500D01*
X20523664Y-84256074D01*
X20712308Y-83963219D01*
X20822859Y-83696303D01*
X20652223Y-83424980D01*
X19404280Y-83424980D01*
X18858280Y-83424980D01*
X17610337Y-83424980D01*
X17439701Y-83696303D01*
X16152000Y-83696303D01*
X16152000Y-69737571D01*
X19273083Y-72858655D01*
G37*
X19273083Y-72858655D02*
X19316203Y-72911197D01*
X19525879Y-73083273D01*
X19765095Y-73211137D01*
X20024661Y-73289875D01*
X20226960Y-73309800D01*
X20226962Y-73309800D01*
X20294599Y-73316462D01*
X20362236Y-73309800D01*
X23146628Y-73309800D01*
X23367090Y-73401119D01*
X23662104Y-73459800D01*
X23962896Y-73459800D01*
X23967121Y-73458960D01*
X23967121Y-77546195D01*
X21113733Y-74692808D01*
X21113733Y-74681980D01*
X21091973Y-74461049D01*
X21027530Y-74248609D01*
X20922880Y-74052823D01*
X20782045Y-73881215D01*
X20610437Y-73740380D01*
X20414651Y-73635730D01*
X20202211Y-73571287D01*
X19981280Y-73549527D01*
X18281280Y-73549527D01*
X18060349Y-73571287D01*
X17847909Y-73635730D01*
X17652123Y-73740380D01*
X17480515Y-73881215D01*
X17339680Y-74052823D01*
X17235030Y-74248609D01*
X17170587Y-74461049D01*
X17148827Y-74681980D01*
X17148827Y-76381980D01*
X17170587Y-76602911D01*
X17235030Y-76815351D01*
X17339680Y-77011137D01*
X17407322Y-77093559D01*
X17379285Y-77135519D01*
X17230255Y-77495310D01*
X17154280Y-77877262D01*
X17154280Y-78266698D01*
X17230255Y-78648650D01*
X17379285Y-79008441D01*
X17595644Y-79332244D01*
X17605380Y-79341980D01*
X17595644Y-79351716D01*
X17379285Y-79675519D01*
X17230255Y-80035310D01*
X17154280Y-80417262D01*
X17154280Y-80806698D01*
X17230255Y-81188650D01*
X17379285Y-81548441D01*
X17595644Y-81872244D01*
X17754819Y-82031419D01*
X17738896Y-82047886D01*
X17550252Y-82340741D01*
X17439701Y-82607657D01*
X17610337Y-82878980D01*
X18858280Y-82878980D01*
X18858280Y-82858980D01*
X19404280Y-82858980D01*
X19404280Y-82878980D01*
X20652223Y-82878980D01*
X20822859Y-82607657D01*
X20712308Y-82340741D01*
X20523664Y-82047886D01*
X20507741Y-82031419D01*
X20666916Y-81872244D01*
X20883275Y-81548441D01*
X21032305Y-81188650D01*
X21108280Y-80806698D01*
X21108280Y-80417262D01*
X21032305Y-80035310D01*
X20883275Y-79675519D01*
X20666916Y-79351716D01*
X20657180Y-79341980D01*
X20666916Y-79332244D01*
X20860941Y-79041866D01*
X21499700Y-79680626D01*
X21499701Y-90235940D01*
X21409399Y-90177772D01*
X21142483Y-90067221D01*
X20871160Y-90237857D01*
X20871160Y-91485800D01*
X20891160Y-91485800D01*
X20891160Y-92031800D01*
X20871160Y-92031800D01*
X20871160Y-93279743D01*
X20876240Y-93282938D01*
X20876240Y-94081680D01*
X20896240Y-94081680D01*
X20896240Y-94627680D01*
X20876240Y-94627680D01*
X20876240Y-95875623D01*
X20881320Y-95878818D01*
X20881320Y-96763920D01*
X20901320Y-96763920D01*
X20901320Y-97309920D01*
X20881320Y-97309920D01*
X20881320Y-99441080D01*
X20901320Y-99441080D01*
X20901320Y-99987080D01*
X20881320Y-99987080D01*
X20881320Y-101235023D01*
X21152643Y-101405659D01*
X21419559Y-101295108D01*
X21527640Y-101225487D01*
X21527641Y-103348876D01*
X21519769Y-103428800D01*
X21527641Y-103508725D01*
X21551183Y-103747748D01*
X21564419Y-103791382D01*
X21644216Y-104054438D01*
X21795294Y-104337085D01*
X21947662Y-104522747D01*
X21947666Y-104522751D01*
X21998612Y-104584829D01*
X22060690Y-104635775D01*
X26021825Y-108596911D01*
X26072771Y-108658989D01*
X26134849Y-108709935D01*
X26134852Y-108709938D01*
X26303081Y-108847999D01*
X26305573Y-108850045D01*
X16152000Y-108850293D01*
X16152000Y-100258404D01*
X18916732Y-100258404D01*
X19055428Y-100577957D01*
X19253800Y-100864312D01*
X19504226Y-101106464D01*
X19797081Y-101295108D01*
X20063997Y-101405659D01*
X20335320Y-101235023D01*
X20335320Y-99987080D01*
X19084157Y-99987080D01*
X18916732Y-100258404D01*
X16152000Y-100258404D01*
X16152000Y-97581244D01*
X18916732Y-97581244D01*
X19055428Y-97900797D01*
X19253800Y-98187152D01*
X19448584Y-98375500D01*
X19253800Y-98563848D01*
X19055428Y-98850203D01*
X18916732Y-99169756D01*
X19084157Y-99441080D01*
X20335320Y-99441080D01*
X20335320Y-97309920D01*
X19084157Y-97309920D01*
X18916732Y-97581244D01*
X16152000Y-97581244D01*
X16152000Y-94899004D01*
X18911652Y-94899004D01*
X19050348Y-95218557D01*
X19248720Y-95504912D01*
X19448670Y-95698256D01*
X19253800Y-95886688D01*
X19055428Y-96173043D01*
X18916732Y-96492596D01*
X19084157Y-96763920D01*
X20335320Y-96763920D01*
X20335320Y-95515977D01*
X20330240Y-95512782D01*
X20330240Y-94627680D01*
X19079077Y-94627680D01*
X18911652Y-94899004D01*
X16152000Y-94899004D01*
X16152000Y-92303124D01*
X18906572Y-92303124D01*
X19045268Y-92622677D01*
X19243640Y-92909032D01*
X19398935Y-93059196D01*
X19248720Y-93204448D01*
X19050348Y-93490803D01*
X18911652Y-93810356D01*
X19079077Y-94081680D01*
X20330240Y-94081680D01*
X20330240Y-92833737D01*
X20325160Y-92830542D01*
X20325160Y-92031800D01*
X19073997Y-92031800D01*
X18906572Y-92303124D01*
X16152000Y-92303124D01*
X16152000Y-91214476D01*
X18906572Y-91214476D01*
X19073997Y-91485800D01*
X20325160Y-91485800D01*
X20325160Y-90237857D01*
X20053837Y-90067221D01*
X19786921Y-90177772D01*
X19494066Y-90366416D01*
X19243640Y-90608568D01*
X19045268Y-90894923D01*
X18906572Y-91214476D01*
X16152000Y-91214476D01*
X16152000Y-83696303D01*
X17439701Y-83696303D01*
X17550252Y-83963219D01*
X17738896Y-84256074D01*
X17981048Y-84506500D01*
X18267403Y-84704872D01*
X18586956Y-84843568D01*
X18858280Y-84676143D01*
X18858280Y-83424980D01*
X19404280Y-83424980D01*
X19404280Y-84676143D01*
X19675604Y-84843568D01*
X19995157Y-84704872D01*
X20281512Y-84506500D01*
X20523664Y-84256074D01*
X20712308Y-83963219D01*
X20822859Y-83696303D01*
X20652223Y-83424980D01*
X19404280Y-83424980D01*
X18858280Y-83424980D01*
X17610337Y-83424980D01*
X17439701Y-83696303D01*
X16152000Y-83696303D01*
X16152000Y-69737571D01*
X19273083Y-72858655D01*
G36*
X108848000Y-108848029D02*
G01*
X77711497Y-108848789D01*
X77942769Y-108658989D01*
X77993719Y-108596906D01*
X79361512Y-107229114D01*
X79423589Y-107178169D01*
X79474535Y-107116091D01*
X79474538Y-107116088D01*
X79626906Y-106930426D01*
X79655292Y-106877320D01*
X79777985Y-106647778D01*
X79871018Y-106341088D01*
X79894560Y-106102065D01*
X79894560Y-106102064D01*
X79902432Y-106022140D01*
X79894560Y-105942215D01*
X79894560Y-103958520D01*
X88386737Y-103958520D01*
X88191162Y-104089199D01*
X87929719Y-104350642D01*
X87724304Y-104658067D01*
X87582812Y-104999659D01*
X87510680Y-105362292D01*
X87510680Y-105732028D01*
X87582812Y-106094661D01*
X87724304Y-106436253D01*
X87929719Y-106743678D01*
X88191162Y-107005121D01*
X88498587Y-107210536D01*
X88840179Y-107352028D01*
X89202812Y-107424160D01*
X89572548Y-107424160D01*
X89935181Y-107352028D01*
X90276773Y-107210536D01*
X90584198Y-107005121D01*
X90845641Y-106743678D01*
X91051056Y-106436253D01*
X91087680Y-106347835D01*
X91124304Y-106436253D01*
X91329719Y-106743678D01*
X91591162Y-107005121D01*
X91898587Y-107210536D01*
X92240179Y-107352028D01*
X92602812Y-107424160D01*
X92972548Y-107424160D01*
X93335181Y-107352028D01*
X93676773Y-107210536D01*
X93984198Y-107005121D01*
X94245641Y-106743678D01*
X94451056Y-106436253D01*
X94592548Y-106094661D01*
X94664680Y-105732028D01*
X94664680Y-105362292D01*
X94592548Y-104999659D01*
X94451056Y-104658067D01*
X94414680Y-104603627D01*
X94414680Y-102411445D01*
X94422552Y-102331520D01*
X94414680Y-102251595D01*
X94414680Y-101448995D01*
X102910525Y-101448995D01*
X102988980Y-101767417D01*
X103323076Y-101901201D01*
X103676853Y-101967237D01*
X104036716Y-101962986D01*
X104388834Y-101888610D01*
X104681420Y-101767417D01*
X104759875Y-101448995D01*
X103835200Y-100524320D01*
X102910525Y-101448995D01*
X94414680Y-101448995D01*
X94414680Y-101393605D01*
X96203325Y-99604960D01*
X102080711Y-99604960D01*
X102072239Y-99626116D01*
X102006203Y-99979893D01*
X102010454Y-100339756D01*
X102084830Y-100691874D01*
X102206023Y-100984460D01*
X102524445Y-101062915D01*
X103449120Y-100138240D01*
X103434978Y-100124098D01*
X103821058Y-99738018D01*
X103835200Y-99752160D01*
X103849343Y-99738018D01*
X104235423Y-100124098D01*
X104221280Y-100138240D01*
X105145955Y-101062915D01*
X105464377Y-100984460D01*
X105598161Y-100650364D01*
X105664197Y-100296587D01*
X105659946Y-99936724D01*
X105585570Y-99584606D01*
X105512970Y-99409335D01*
X105647726Y-99337306D01*
X105895469Y-99133989D01*
X105946420Y-99071905D01*
X106803665Y-98214660D01*
X106865749Y-98163709D01*
X107069066Y-97915966D01*
X107220145Y-97633318D01*
X107313178Y-97326628D01*
X107336720Y-97087605D01*
X107336720Y-97087595D01*
X107344591Y-97007681D01*
X107336720Y-96927766D01*
X107336720Y-92092685D01*
X107344592Y-92012760D01*
X107313178Y-91693812D01*
X107259659Y-91517384D01*
X107220145Y-91387122D01*
X107069066Y-91104474D01*
X106865749Y-90856731D01*
X106803667Y-90805782D01*
X105843755Y-89845870D01*
X105784304Y-89546986D01*
X105631504Y-89178095D01*
X105411400Y-88848686D01*
X105411400Y-79818331D01*
X105455394Y-79774337D01*
X105677224Y-79442345D01*
X105830024Y-79073454D01*
X105907920Y-78681842D01*
X105907920Y-78282558D01*
X105830024Y-77890946D01*
X105677224Y-77522055D01*
X105455394Y-77190063D01*
X105173057Y-76907726D01*
X104841065Y-76685896D01*
X104472174Y-76533096D01*
X104080562Y-76455200D01*
X103681278Y-76455200D01*
X103289666Y-76533096D01*
X102920775Y-76685896D01*
X102588783Y-76907726D01*
X102306446Y-77190063D01*
X102084616Y-77522055D01*
X101931816Y-77890946D01*
X101853920Y-78282558D01*
X101853920Y-78681842D01*
X101931816Y-79073454D01*
X102084616Y-79442345D01*
X102157400Y-79551274D01*
X102157401Y-86161289D01*
X100233921Y-84237810D01*
X100190797Y-84185263D01*
X99981121Y-84013187D01*
X99741905Y-83885323D01*
X99482339Y-83806585D01*
X99280040Y-83786660D01*
X99212400Y-83779998D01*
X99144760Y-83786660D01*
X90281452Y-83786660D01*
X90282461Y-83784223D01*
X90364200Y-83373291D01*
X90364200Y-82954309D01*
X90282461Y-82543377D01*
X90122123Y-82156288D01*
X89889349Y-81807916D01*
X89593084Y-81511651D01*
X89244712Y-81278877D01*
X88857623Y-81118539D01*
X88446691Y-81036800D01*
X88027709Y-81036800D01*
X87616777Y-81118539D01*
X87229688Y-81278877D01*
X86881316Y-81511651D01*
X86856167Y-81536800D01*
X83118233Y-81536800D01*
X83093084Y-81511651D01*
X82744712Y-81278877D01*
X82357623Y-81118539D01*
X81946691Y-81036800D01*
X81527709Y-81036800D01*
X81116777Y-81118539D01*
X80729688Y-81278877D01*
X80381316Y-81511651D01*
X80085051Y-81807916D01*
X79852277Y-82156288D01*
X79691939Y-82543377D01*
X79616631Y-82921979D01*
X77443801Y-80749150D01*
X77400677Y-80696603D01*
X77191001Y-80524527D01*
X76951785Y-80396663D01*
X76692219Y-80317925D01*
X76489920Y-80298000D01*
X76422280Y-80291338D01*
X76354640Y-80298000D01*
X69860172Y-80298000D01*
X70027365Y-80047777D01*
X70027853Y-80046598D01*
X80740483Y-80046598D01*
X80831288Y-80375136D01*
X81182560Y-80518988D01*
X81555146Y-80591546D01*
X81934729Y-80590023D01*
X82306721Y-80514475D01*
X82643112Y-80375136D01*
X82733917Y-80046598D01*
X87240483Y-80046598D01*
X87331288Y-80375136D01*
X87682560Y-80518988D01*
X88055146Y-80591546D01*
X88434729Y-80590023D01*
X88806721Y-80514475D01*
X89143112Y-80375136D01*
X89233917Y-80046598D01*
X88237200Y-79049880D01*
X87240483Y-80046598D01*
X82733917Y-80046598D01*
X81737200Y-79049880D01*
X80740483Y-80046598D01*
X70027853Y-80046598D01*
X70172627Y-79697085D01*
X70246680Y-79324793D01*
X70246680Y-78945207D01*
X70172627Y-78572915D01*
X70134864Y-78481746D01*
X79809454Y-78481746D01*
X79810977Y-78861329D01*
X79886525Y-79233321D01*
X80025864Y-79569712D01*
X80354402Y-79660517D01*
X81351120Y-78663800D01*
X82123280Y-78663800D01*
X83119998Y-79660517D01*
X83448536Y-79569712D01*
X83592388Y-79218440D01*
X83664946Y-78845854D01*
X83663486Y-78481746D01*
X86309454Y-78481746D01*
X86310977Y-78861329D01*
X86386525Y-79233321D01*
X86525864Y-79569712D01*
X86854402Y-79660517D01*
X87851120Y-78663800D01*
X88623280Y-78663800D01*
X89619998Y-79660517D01*
X89948536Y-79569712D01*
X90092388Y-79218440D01*
X90164946Y-78845854D01*
X90163423Y-78466271D01*
X90087875Y-78094279D01*
X89948536Y-77757888D01*
X89619998Y-77667083D01*
X88623280Y-78663800D01*
X87851120Y-78663800D01*
X86854402Y-77667083D01*
X86525864Y-77757888D01*
X86382012Y-78109160D01*
X86309454Y-78481746D01*
X83663486Y-78481746D01*
X83663423Y-78466271D01*
X83587875Y-78094279D01*
X83448536Y-77757888D01*
X83119998Y-77667083D01*
X82123280Y-78663800D01*
X81351120Y-78663800D01*
X80354402Y-77667083D01*
X80025864Y-77757888D01*
X79882012Y-78109160D01*
X79809454Y-78481746D01*
X70134864Y-78481746D01*
X70027365Y-78222223D01*
X69816479Y-77906609D01*
X69774870Y-77865000D01*
X69816479Y-77823391D01*
X70027365Y-77507777D01*
X70172627Y-77157085D01*
X70246680Y-76784793D01*
X70246680Y-76405207D01*
X70172627Y-76032915D01*
X70027365Y-75682223D01*
X69816479Y-75366609D01*
X69774870Y-75325000D01*
X69816479Y-75283391D01*
X70027365Y-74967777D01*
X70172627Y-74617085D01*
X70246680Y-74244793D01*
X70246680Y-73865207D01*
X70172627Y-73492915D01*
X70027365Y-73142223D01*
X69816479Y-72826609D01*
X69625878Y-72636008D01*
X69677706Y-72581924D01*
X69859758Y-72296486D01*
X69961264Y-72051404D01*
X69789797Y-71788000D01*
X68592680Y-71788000D01*
X68592680Y-71808000D01*
X68046680Y-71808000D01*
X68046680Y-71788000D01*
X66849563Y-71788000D01*
X66678096Y-72051404D01*
X66779602Y-72296486D01*
X66961654Y-72581924D01*
X67013482Y-72636008D01*
X66822881Y-72826609D01*
X66611995Y-73142223D01*
X66466733Y-73492915D01*
X66392680Y-73865207D01*
X66392680Y-74244793D01*
X66466733Y-74617085D01*
X66611995Y-74967777D01*
X66822881Y-75283391D01*
X66864490Y-75325000D01*
X66822881Y-75366609D01*
X66611995Y-75682223D01*
X66466733Y-76032915D01*
X66392680Y-76405207D01*
X66392680Y-76784793D01*
X66466733Y-77157085D01*
X66611995Y-77507777D01*
X66822881Y-77823391D01*
X66864490Y-77865000D01*
X66822881Y-77906609D01*
X66611995Y-78222223D01*
X66466733Y-78572915D01*
X66392680Y-78945207D01*
X66392680Y-79324793D01*
X66466733Y-79697085D01*
X66611995Y-80047777D01*
X66822881Y-80363391D01*
X66864490Y-80405000D01*
X66822881Y-80446609D01*
X66611995Y-80762223D01*
X66466733Y-81112915D01*
X66392680Y-81485207D01*
X66392680Y-81864793D01*
X66466733Y-82237085D01*
X66611995Y-82587777D01*
X66822881Y-82903391D01*
X66864490Y-82945000D01*
X66822881Y-82986609D01*
X66611995Y-83302223D01*
X66466733Y-83652915D01*
X66392680Y-84025207D01*
X66392680Y-84404793D01*
X66466733Y-84777085D01*
X66611995Y-85127777D01*
X66822881Y-85443391D01*
X66864490Y-85485000D01*
X66822881Y-85526609D01*
X66611995Y-85842223D01*
X66466733Y-86192915D01*
X66392680Y-86565207D01*
X66392680Y-86944793D01*
X66466733Y-87317085D01*
X66611995Y-87667777D01*
X66779188Y-87918000D01*
X59738432Y-87918000D01*
X58699720Y-86879289D01*
X58699720Y-68785207D01*
X66392680Y-68785207D01*
X66392680Y-69164793D01*
X66466733Y-69537085D01*
X66611995Y-69887777D01*
X66822881Y-70203391D01*
X67013482Y-70393992D01*
X66961654Y-70448076D01*
X66779602Y-70733514D01*
X66678096Y-70978596D01*
X66849563Y-71242000D01*
X68046680Y-71242000D01*
X68046680Y-71222000D01*
X68592680Y-71222000D01*
X68592680Y-71242000D01*
X69789797Y-71242000D01*
X69961264Y-70978596D01*
X69859758Y-70733514D01*
X69677706Y-70448076D01*
X69625878Y-70393992D01*
X69816479Y-70203391D01*
X70027365Y-69887777D01*
X70172627Y-69537085D01*
X70246680Y-69164793D01*
X70246680Y-68785207D01*
X70172627Y-68412915D01*
X70027365Y-68062223D01*
X70022318Y-68054669D01*
X79645760Y-68054669D01*
X79645760Y-68473651D01*
X79727499Y-68884583D01*
X79887837Y-69271672D01*
X80120611Y-69620044D01*
X80294161Y-69793594D01*
X80294160Y-75107077D01*
X80251101Y-75211030D01*
X80192420Y-75506044D01*
X80192420Y-75806836D01*
X80251101Y-76101850D01*
X80366210Y-76379746D01*
X80533321Y-76629846D01*
X80746014Y-76842539D01*
X80880204Y-76932202D01*
X80831288Y-76952464D01*
X80740483Y-77281002D01*
X81737200Y-78277720D01*
X82733917Y-77281002D01*
X87240483Y-77281002D01*
X88237200Y-78277720D01*
X89233917Y-77281002D01*
X89143112Y-76952464D01*
X88791840Y-76808612D01*
X88419254Y-76736054D01*
X88039671Y-76737577D01*
X87667679Y-76813125D01*
X87331288Y-76952464D01*
X87240483Y-77281002D01*
X82733917Y-77281002D01*
X82643112Y-76952464D01*
X82571935Y-76923316D01*
X82692826Y-76842539D01*
X82905519Y-76629846D01*
X83072630Y-76379746D01*
X83187739Y-76101850D01*
X83246420Y-75806836D01*
X83246420Y-75506044D01*
X83187739Y-75211030D01*
X83072630Y-74933134D01*
X83048160Y-74896512D01*
X83048160Y-73282558D01*
X101853920Y-73282558D01*
X101853920Y-73681842D01*
X101931816Y-74073454D01*
X102084616Y-74442345D01*
X102306446Y-74774337D01*
X102588783Y-75056674D01*
X102920775Y-75278504D01*
X103289666Y-75431304D01*
X103681278Y-75509200D01*
X104080562Y-75509200D01*
X104472174Y-75431304D01*
X104841065Y-75278504D01*
X105173057Y-75056674D01*
X105455394Y-74774337D01*
X105677224Y-74442345D01*
X105830024Y-74073454D01*
X105907920Y-73681842D01*
X105907920Y-73282558D01*
X105830024Y-72890946D01*
X105677224Y-72522055D01*
X105455394Y-72190063D01*
X105173057Y-71907726D01*
X104841065Y-71685896D01*
X104472174Y-71533096D01*
X104080562Y-71455200D01*
X103681278Y-71455200D01*
X103289666Y-71533096D01*
X102920775Y-71685896D01*
X102588783Y-71907726D01*
X102306446Y-72190063D01*
X102084616Y-72522055D01*
X101931816Y-72890946D01*
X101853920Y-73282558D01*
X83048160Y-73282558D01*
X83048160Y-69970087D01*
X83128644Y-69916309D01*
X83153793Y-69891160D01*
X86891727Y-69891160D01*
X86916876Y-69916309D01*
X87265248Y-70149083D01*
X87652337Y-70309421D01*
X88063269Y-70391160D01*
X88482251Y-70391160D01*
X88893183Y-70309421D01*
X89280272Y-70149083D01*
X89628644Y-69916309D01*
X89751998Y-69792955D01*
X102956245Y-69792955D01*
X103034700Y-70111377D01*
X103368796Y-70245161D01*
X103722573Y-70311197D01*
X104082436Y-70306946D01*
X104434554Y-70232570D01*
X104727140Y-70111377D01*
X104805595Y-69792955D01*
X103880920Y-68868280D01*
X102956245Y-69792955D01*
X89751998Y-69792955D01*
X89924909Y-69620044D01*
X90157683Y-69271672D01*
X90318021Y-68884583D01*
X90399760Y-68473651D01*
X90399760Y-68323853D01*
X102051923Y-68323853D01*
X102056174Y-68683716D01*
X102130550Y-69035834D01*
X102251743Y-69328420D01*
X102570165Y-69406875D01*
X103494840Y-68482200D01*
X104267000Y-68482200D01*
X105191675Y-69406875D01*
X105510097Y-69328420D01*
X105643881Y-68994324D01*
X105709917Y-68640547D01*
X105705666Y-68280684D01*
X105631290Y-67928566D01*
X105510097Y-67635980D01*
X105191675Y-67557525D01*
X104267000Y-68482200D01*
X103494840Y-68482200D01*
X102570165Y-67557525D01*
X102251743Y-67635980D01*
X102117959Y-67970076D01*
X102051923Y-68323853D01*
X90399760Y-68323853D01*
X90399760Y-68054669D01*
X90318021Y-67643737D01*
X90157683Y-67256648D01*
X90100753Y-67171445D01*
X102956245Y-67171445D01*
X103880920Y-68096120D01*
X104805595Y-67171445D01*
X104727140Y-66853023D01*
X104393044Y-66719239D01*
X104039267Y-66653203D01*
X103679404Y-66657454D01*
X103327286Y-66731830D01*
X103034700Y-66853023D01*
X102956245Y-67171445D01*
X90100753Y-67171445D01*
X89924909Y-66908276D01*
X89628644Y-66612011D01*
X89280272Y-66379237D01*
X88893183Y-66218899D01*
X88482251Y-66137160D01*
X88063269Y-66137160D01*
X87652337Y-66218899D01*
X87265248Y-66379237D01*
X86916876Y-66612011D01*
X86891727Y-66637160D01*
X83153793Y-66637160D01*
X83128644Y-66612011D01*
X82780272Y-66379237D01*
X82393183Y-66218899D01*
X81982251Y-66137160D01*
X81563269Y-66137160D01*
X81152337Y-66218899D01*
X80765248Y-66379237D01*
X80416876Y-66612011D01*
X80120611Y-66908276D01*
X79887837Y-67256648D01*
X79727499Y-67643737D01*
X79645760Y-68054669D01*
X70022318Y-68054669D01*
X69816479Y-67746609D01*
X69548071Y-67478201D01*
X69232457Y-67267315D01*
X68881765Y-67122053D01*
X68509473Y-67048000D01*
X68129887Y-67048000D01*
X67757595Y-67122053D01*
X67406903Y-67267315D01*
X67091289Y-67478201D01*
X66822881Y-67746609D01*
X66611995Y-68062223D01*
X66466733Y-68412915D01*
X66392680Y-68785207D01*
X58699720Y-68785207D01*
X58699720Y-65146958D01*
X80776043Y-65146958D01*
X80866848Y-65475496D01*
X81218120Y-65619348D01*
X81590706Y-65691906D01*
X81970289Y-65690383D01*
X82342281Y-65614835D01*
X82678672Y-65475496D01*
X82769477Y-65146958D01*
X87276043Y-65146958D01*
X87366848Y-65475496D01*
X87718120Y-65619348D01*
X88090706Y-65691906D01*
X88470289Y-65690383D01*
X88842281Y-65614835D01*
X89178672Y-65475496D01*
X89269477Y-65146958D01*
X88272760Y-64150240D01*
X87276043Y-65146958D01*
X82769477Y-65146958D01*
X81772760Y-64150240D01*
X80776043Y-65146958D01*
X58699720Y-65146958D01*
X58699720Y-63582106D01*
X79845014Y-63582106D01*
X79846537Y-63961689D01*
X79922085Y-64333681D01*
X80061424Y-64670072D01*
X80389962Y-64760877D01*
X81386680Y-63764160D01*
X82158840Y-63764160D01*
X83155558Y-64760877D01*
X83484096Y-64670072D01*
X83627948Y-64318800D01*
X83700506Y-63946214D01*
X83699046Y-63582106D01*
X86345014Y-63582106D01*
X86346537Y-63961689D01*
X86422085Y-64333681D01*
X86561424Y-64670072D01*
X86889962Y-64760877D01*
X87886680Y-63764160D01*
X88658840Y-63764160D01*
X89655558Y-64760877D01*
X89984096Y-64670072D01*
X90127948Y-64318800D01*
X90200506Y-63946214D01*
X90198983Y-63566631D01*
X90123435Y-63194639D01*
X89984096Y-62858248D01*
X89655558Y-62767443D01*
X88658840Y-63764160D01*
X87886680Y-63764160D01*
X86889962Y-62767443D01*
X86561424Y-62858248D01*
X86417572Y-63209520D01*
X86345014Y-63582106D01*
X83699046Y-63582106D01*
X83698983Y-63566631D01*
X83623435Y-63194639D01*
X83484096Y-62858248D01*
X83155558Y-62767443D01*
X82158840Y-63764160D01*
X81386680Y-63764160D01*
X80389962Y-62767443D01*
X80061424Y-62858248D01*
X79917572Y-63209520D01*
X79845014Y-63582106D01*
X58699720Y-63582106D01*
X58699720Y-62381362D01*
X80776043Y-62381362D01*
X81772760Y-63378080D01*
X82769477Y-62381362D01*
X87276043Y-62381362D01*
X88272760Y-63378080D01*
X89269477Y-62381362D01*
X89178672Y-62052824D01*
X88827400Y-61908972D01*
X88454814Y-61836414D01*
X88075231Y-61837937D01*
X87703239Y-61913485D01*
X87366848Y-62052824D01*
X87276043Y-62381362D01*
X82769477Y-62381362D01*
X82678672Y-62052824D01*
X82327400Y-61908972D01*
X81954814Y-61836414D01*
X81575231Y-61837937D01*
X81203239Y-61913485D01*
X80866848Y-62052824D01*
X80776043Y-62381362D01*
X58699720Y-62381362D01*
X58699720Y-55875380D01*
X58788836Y-55875380D01*
X59083850Y-55816699D01*
X59361746Y-55701590D01*
X59611846Y-55534479D01*
X59824539Y-55321786D01*
X59991650Y-55071686D01*
X60106759Y-54793790D01*
X60165440Y-54498776D01*
X60165440Y-54197984D01*
X60106759Y-53902970D01*
X60035760Y-53731564D01*
X60035760Y-50222760D01*
X60124539Y-50008430D01*
X60183220Y-49713416D01*
X60183220Y-49412624D01*
X60124539Y-49117610D01*
X60009430Y-48839714D01*
X59842319Y-48589614D01*
X59629626Y-48376921D01*
X59379526Y-48209810D01*
X59101630Y-48094701D01*
X58806616Y-48036020D01*
X58699720Y-48036020D01*
X58699720Y-39244419D01*
X58818170Y-39067146D01*
X58933279Y-38789250D01*
X58949564Y-38707380D01*
X69990829Y-38707380D01*
X71033328Y-39749879D01*
X71010670Y-39792269D01*
X70946227Y-40004709D01*
X70924467Y-40225640D01*
X70924467Y-41925640D01*
X70946227Y-42146571D01*
X70960062Y-42192178D01*
X70752236Y-42150840D01*
X70451444Y-42150840D01*
X70156430Y-42209521D01*
X69878534Y-42324630D01*
X69628434Y-42491741D01*
X69415741Y-42704434D01*
X69248630Y-42954534D01*
X69133521Y-43232430D01*
X69074840Y-43527444D01*
X69074840Y-43828236D01*
X69133521Y-44123250D01*
X69248630Y-44401146D01*
X69415741Y-44651246D01*
X69628434Y-44863939D01*
X69878534Y-45031050D01*
X70098998Y-45122370D01*
X70454200Y-45477572D01*
X70454201Y-54135950D01*
X70447538Y-54203600D01*
X70474125Y-54473539D01*
X70552863Y-54733104D01*
X70669476Y-54951270D01*
X70680728Y-54972321D01*
X70852804Y-55181997D01*
X70905345Y-55225117D01*
X72473440Y-56793212D01*
X72473440Y-56962633D01*
X72547493Y-57334925D01*
X72692755Y-57685617D01*
X72903641Y-58001231D01*
X73172049Y-58269639D01*
X73487663Y-58480525D01*
X73838355Y-58625787D01*
X74210647Y-58699840D01*
X74590233Y-58699840D01*
X74962525Y-58625787D01*
X75313217Y-58480525D01*
X75628831Y-58269639D01*
X75670440Y-58228030D01*
X75712049Y-58269639D01*
X76027663Y-58480525D01*
X76378355Y-58625787D01*
X76750647Y-58699840D01*
X77130233Y-58699840D01*
X77502525Y-58625787D01*
X77853217Y-58480525D01*
X78168831Y-58269639D01*
X78210440Y-58228030D01*
X78252049Y-58269639D01*
X78567663Y-58480525D01*
X78918355Y-58625787D01*
X79290647Y-58699840D01*
X79670233Y-58699840D01*
X80042525Y-58625787D01*
X80393217Y-58480525D01*
X80708831Y-58269639D01*
X80750440Y-58228030D01*
X80792049Y-58269639D01*
X81107663Y-58480525D01*
X81458355Y-58625787D01*
X81830647Y-58699840D01*
X82210233Y-58699840D01*
X82582525Y-58625787D01*
X82933217Y-58480525D01*
X83053971Y-58399840D01*
X83526909Y-58399840D01*
X83647663Y-58480525D01*
X83998355Y-58625787D01*
X84370647Y-58699840D01*
X84750233Y-58699840D01*
X85122525Y-58625787D01*
X85473217Y-58480525D01*
X85483522Y-58473639D01*
X85493142Y-58571307D01*
X85586175Y-58877997D01*
X85737254Y-59160645D01*
X85940571Y-59408389D01*
X86002654Y-59459339D01*
X87474585Y-60931271D01*
X87525531Y-60993349D01*
X87587609Y-61044295D01*
X87587612Y-61044298D01*
X87668234Y-61110462D01*
X87773274Y-61196666D01*
X88055922Y-61347745D01*
X88362612Y-61440778D01*
X88601635Y-61464320D01*
X88601643Y-61464320D01*
X88681560Y-61472191D01*
X88761477Y-61464320D01*
X98888095Y-61464320D01*
X99132271Y-61708496D01*
X99521588Y-61968630D01*
X99954175Y-62147813D01*
X100413406Y-62239160D01*
X100881634Y-62239160D01*
X101340865Y-62147813D01*
X101773452Y-61968630D01*
X102162769Y-61708496D01*
X102493856Y-61377409D01*
X102753990Y-60988092D01*
X102933173Y-60555505D01*
X103024520Y-60096274D01*
X103024520Y-59628046D01*
X102933173Y-59168815D01*
X102753990Y-58736228D01*
X102493856Y-58346911D01*
X102162769Y-58015824D01*
X101773452Y-57755690D01*
X101340865Y-57576507D01*
X100881634Y-57485160D01*
X100413406Y-57485160D01*
X99954175Y-57576507D01*
X99521588Y-57755690D01*
X99132271Y-58015824D01*
X98937775Y-58210320D01*
X93468150Y-58210320D01*
X93677239Y-58001231D01*
X93888125Y-57685617D01*
X94033387Y-57334925D01*
X94107440Y-56962633D01*
X94107440Y-56583047D01*
X94033387Y-56210755D01*
X93888125Y-55860063D01*
X93677239Y-55544449D01*
X93408831Y-55276041D01*
X93093217Y-55065155D01*
X92742525Y-54919893D01*
X92370233Y-54845840D01*
X91990647Y-54845840D01*
X91618355Y-54919893D01*
X91267663Y-55065155D01*
X90952049Y-55276041D01*
X90910440Y-55317650D01*
X90868831Y-55276041D01*
X90553217Y-55065155D01*
X90202525Y-54919893D01*
X89830233Y-54845840D01*
X89450647Y-54845840D01*
X89078355Y-54919893D01*
X88727663Y-55065155D01*
X88412049Y-55276041D01*
X88370440Y-55317650D01*
X88328831Y-55276041D01*
X88013217Y-55065155D01*
X87662525Y-54919893D01*
X87290233Y-54845840D01*
X86910647Y-54845840D01*
X86538355Y-54919893D01*
X86187663Y-55065155D01*
X85872049Y-55276041D01*
X85830440Y-55317650D01*
X85788831Y-55276041D01*
X85473217Y-55065155D01*
X85122525Y-54919893D01*
X84750233Y-54845840D01*
X84370647Y-54845840D01*
X83998355Y-54919893D01*
X83647663Y-55065155D01*
X83647440Y-55065304D01*
X83647440Y-51427225D01*
X84401180Y-52180965D01*
X84452131Y-52243049D01*
X84699874Y-52446366D01*
X84982522Y-52597445D01*
X85289212Y-52690478D01*
X85520499Y-52713258D01*
X85608160Y-52721892D01*
X85688085Y-52714020D01*
X99342746Y-52714020D01*
X99422660Y-52721891D01*
X99502574Y-52714020D01*
X99502585Y-52714020D01*
X99659500Y-52698565D01*
X99521588Y-52755690D01*
X99132271Y-53015824D01*
X98801184Y-53346911D01*
X98541050Y-53736228D01*
X98361867Y-54168815D01*
X98270520Y-54628046D01*
X98270520Y-55096274D01*
X98361867Y-55555505D01*
X98541050Y-55988092D01*
X98801184Y-56377409D01*
X99132271Y-56708496D01*
X99521588Y-56968630D01*
X99954175Y-57147813D01*
X100413406Y-57239160D01*
X100881634Y-57239160D01*
X101340865Y-57147813D01*
X101773452Y-56968630D01*
X102162769Y-56708496D01*
X102493856Y-56377409D01*
X102753990Y-55988092D01*
X102933173Y-55555505D01*
X103024520Y-55096274D01*
X103024520Y-54628046D01*
X102933173Y-54168815D01*
X102753990Y-53736228D01*
X102493856Y-53346911D01*
X102162769Y-53015824D01*
X101773452Y-52755690D01*
X101340865Y-52576507D01*
X100881634Y-52485160D01*
X100413406Y-52485160D01*
X100166475Y-52534278D01*
X100330946Y-52446366D01*
X100578689Y-52243049D01*
X100581881Y-52239160D01*
X100881634Y-52239160D01*
X101340865Y-52147813D01*
X101773452Y-51968630D01*
X102162769Y-51708496D01*
X102493856Y-51377409D01*
X102753990Y-50988092D01*
X102933173Y-50555505D01*
X103024520Y-50096274D01*
X103024520Y-49628046D01*
X102933173Y-49168815D01*
X102753990Y-48736228D01*
X102493856Y-48346911D01*
X102162769Y-48015824D01*
X101773452Y-47755690D01*
X101340865Y-47576507D01*
X100881634Y-47485160D01*
X100413406Y-47485160D01*
X99954175Y-47576507D01*
X99521588Y-47755690D01*
X99132271Y-48015824D01*
X98801184Y-48346911D01*
X98541050Y-48736228D01*
X98361867Y-49168815D01*
X98303943Y-49460020D01*
X94112893Y-49460020D01*
X94112893Y-48352840D01*
X94091133Y-48131909D01*
X94026690Y-47919469D01*
X93922040Y-47723683D01*
X93781205Y-47552075D01*
X93609597Y-47411240D01*
X93413811Y-47306590D01*
X93201371Y-47242147D01*
X92980440Y-47220387D01*
X91380440Y-47220387D01*
X91159509Y-47242147D01*
X90947069Y-47306590D01*
X90751283Y-47411240D01*
X90639615Y-47502884D01*
X90553217Y-47445155D01*
X90202525Y-47299893D01*
X89830233Y-47225840D01*
X89450647Y-47225840D01*
X89078355Y-47299893D01*
X88727663Y-47445155D01*
X88727440Y-47445304D01*
X88727440Y-46019245D01*
X90118639Y-44628046D01*
X98270520Y-44628046D01*
X98270520Y-45096274D01*
X98361867Y-45555505D01*
X98541050Y-45988092D01*
X98801184Y-46377409D01*
X99132271Y-46708496D01*
X99521588Y-46968630D01*
X99954175Y-47147813D01*
X100413406Y-47239160D01*
X100881634Y-47239160D01*
X101340865Y-47147813D01*
X101773452Y-46968630D01*
X102162769Y-46708496D01*
X102493856Y-46377409D01*
X102753990Y-45988092D01*
X102933173Y-45555505D01*
X103024520Y-45096274D01*
X103024520Y-44628046D01*
X102933173Y-44168815D01*
X102753990Y-43736228D01*
X102493856Y-43346911D01*
X102162769Y-43015824D01*
X101773452Y-42755690D01*
X101340865Y-42576507D01*
X100881634Y-42485160D01*
X100413406Y-42485160D01*
X99954175Y-42576507D01*
X99521588Y-42755690D01*
X99132271Y-43015824D01*
X98801184Y-43346911D01*
X98541050Y-43736228D01*
X98361867Y-44168815D01*
X98270520Y-44628046D01*
X90118639Y-44628046D01*
X93257526Y-41489160D01*
X98582269Y-41489160D01*
X98779813Y-41729867D01*
X99046131Y-41948429D01*
X99349972Y-42110835D01*
X99679658Y-42210844D01*
X100022520Y-42244613D01*
X101272520Y-42244613D01*
X101615382Y-42210844D01*
X101945068Y-42110835D01*
X102248909Y-41948429D01*
X102515227Y-41729867D01*
X102733789Y-41463549D01*
X102896195Y-41159708D01*
X102996204Y-40830022D01*
X103029973Y-40487160D01*
X103029973Y-39237160D01*
X102996204Y-38894298D01*
X102896195Y-38564612D01*
X102733789Y-38260771D01*
X102515227Y-37994453D01*
X102248909Y-37775891D01*
X101945068Y-37613485D01*
X101615382Y-37513476D01*
X101272520Y-37479707D01*
X100022520Y-37479707D01*
X99679658Y-37513476D01*
X99349972Y-37613485D01*
X99046131Y-37775891D01*
X98779813Y-37994453D01*
X98582269Y-38235160D01*
X92663514Y-38235160D01*
X92583599Y-38227289D01*
X92503685Y-38235160D01*
X92503675Y-38235160D01*
X92264652Y-38258702D01*
X91957962Y-38351735D01*
X91957960Y-38351736D01*
X91675314Y-38502814D01*
X91489652Y-38655182D01*
X91489649Y-38655185D01*
X91427571Y-38706131D01*
X91376625Y-38768209D01*
X86006490Y-44138345D01*
X85944412Y-44189291D01*
X85893466Y-44251369D01*
X85893462Y-44251373D01*
X85741094Y-44437035D01*
X85627955Y-44648703D01*
X85590016Y-44719682D01*
X85517856Y-44957565D01*
X85496983Y-45026373D01*
X85465569Y-45345320D01*
X85473441Y-45425244D01*
X85473440Y-47445304D01*
X85473217Y-47445155D01*
X85122525Y-47299893D01*
X84750233Y-47225840D01*
X84370647Y-47225840D01*
X83998355Y-47299893D01*
X83647663Y-47445155D01*
X83526909Y-47525840D01*
X83053971Y-47525840D01*
X82933217Y-47445155D01*
X82582525Y-47299893D01*
X82210233Y-47225840D01*
X81830647Y-47225840D01*
X81458355Y-47299893D01*
X81107663Y-47445155D01*
X80792049Y-47656041D01*
X80750440Y-47697650D01*
X80708831Y-47656041D01*
X80393217Y-47445155D01*
X80042525Y-47299893D01*
X79670233Y-47225840D01*
X79290647Y-47225840D01*
X78918355Y-47299893D01*
X78567663Y-47445155D01*
X78252049Y-47656041D01*
X78210440Y-47697650D01*
X78168831Y-47656041D01*
X77853217Y-47445155D01*
X77502525Y-47299893D01*
X77130233Y-47225840D01*
X76750647Y-47225840D01*
X76675297Y-47240828D01*
X78977046Y-44939080D01*
X82038286Y-44939080D01*
X82118200Y-44946951D01*
X82198114Y-44939080D01*
X82198125Y-44939080D01*
X82437148Y-44915538D01*
X82743838Y-44822505D01*
X83026486Y-44671426D01*
X83274229Y-44468109D01*
X83325180Y-44406025D01*
X86289387Y-41441818D01*
X86351469Y-41390869D01*
X86554786Y-41143126D01*
X86705865Y-40860478D01*
X86798898Y-40553788D01*
X86822440Y-40314765D01*
X86822440Y-40314764D01*
X86830312Y-40234840D01*
X86822440Y-40154915D01*
X86822440Y-34229200D01*
X87332886Y-34229200D01*
X87412800Y-34237071D01*
X87492714Y-34229200D01*
X87492725Y-34229200D01*
X87731748Y-34205658D01*
X88038438Y-34112625D01*
X88321086Y-33961546D01*
X88568829Y-33758229D01*
X88619779Y-33696146D01*
X90472938Y-31842988D01*
X90673879Y-31782033D01*
X91059407Y-31575965D01*
X91397324Y-31298644D01*
X91674645Y-30960727D01*
X91880713Y-30575200D01*
X92007609Y-30156879D01*
X92039720Y-29830854D01*
X92039720Y-28902640D01*
X93801320Y-28902640D01*
X93801320Y-29994840D01*
X93893378Y-30383521D01*
X94059495Y-30746774D01*
X94293287Y-31070639D01*
X94585770Y-31342671D01*
X94925704Y-31552415D01*
X95237909Y-31655162D01*
X95547520Y-31488319D01*
X95547520Y-28902640D01*
X96093520Y-28902640D01*
X96093520Y-31488319D01*
X96403131Y-31655162D01*
X96715336Y-31552415D01*
X97055270Y-31342671D01*
X97347753Y-31070639D01*
X97581545Y-30746774D01*
X97747662Y-30383521D01*
X97839720Y-29994840D01*
X97839720Y-28902640D01*
X96093520Y-28902640D01*
X95547520Y-28902640D01*
X93801320Y-28902640D01*
X92039720Y-28902640D01*
X92039720Y-27428426D01*
X92023569Y-27264440D01*
X93801320Y-27264440D01*
X93801320Y-28356640D01*
X95547520Y-28356640D01*
X95547520Y-25770961D01*
X96093520Y-25770961D01*
X96093520Y-28356640D01*
X97839720Y-28356640D01*
X97839720Y-27264440D01*
X97747662Y-26875759D01*
X97581545Y-26512506D01*
X97347753Y-26188641D01*
X97055270Y-25916609D01*
X96715336Y-25706865D01*
X96403131Y-25604118D01*
X96093520Y-25770961D01*
X95547520Y-25770961D01*
X95237909Y-25604118D01*
X94925704Y-25706865D01*
X94585770Y-25916609D01*
X94293287Y-26188641D01*
X94059495Y-26512506D01*
X93893378Y-26875759D01*
X93801320Y-27264440D01*
X92023569Y-27264440D01*
X92007609Y-27102401D01*
X91880713Y-26684080D01*
X91674645Y-26298553D01*
X91397324Y-25960636D01*
X91182309Y-25784178D01*
X91455320Y-25848840D01*
X92547520Y-25848840D01*
X92547520Y-24102640D01*
X93093520Y-24102640D01*
X93093520Y-25848840D01*
X94185720Y-25848840D01*
X94574401Y-25756782D01*
X94937654Y-25590665D01*
X95261519Y-25356873D01*
X95533551Y-25064390D01*
X95743295Y-24724456D01*
X95846042Y-24412251D01*
X95679199Y-24102640D01*
X93093520Y-24102640D01*
X92547520Y-24102640D01*
X89961841Y-24102640D01*
X89794998Y-24412251D01*
X89897745Y-24724456D01*
X90107489Y-25064390D01*
X90379521Y-25356873D01*
X90453783Y-25410482D01*
X90255559Y-25350351D01*
X89820520Y-25307503D01*
X89385482Y-25350351D01*
X88967161Y-25477247D01*
X88581634Y-25683315D01*
X88243717Y-25960636D01*
X87966396Y-26298553D01*
X87760328Y-26684080D01*
X87633431Y-27102401D01*
X87601320Y-27428426D01*
X87601320Y-29830853D01*
X87626596Y-30087479D01*
X86914398Y-30799676D01*
X86925567Y-30736810D01*
X86918584Y-30396692D01*
X86845382Y-30064472D01*
X86742356Y-29815746D01*
X86434019Y-29749701D01*
X85581520Y-30602200D01*
X85595663Y-30616343D01*
X85542258Y-30669747D01*
X84848622Y-30669747D01*
X84795218Y-30616343D01*
X84809360Y-30602200D01*
X83956861Y-29749701D01*
X83648524Y-29815746D01*
X83524818Y-30132646D01*
X83505405Y-30241920D01*
X83375970Y-30112485D01*
X83325028Y-30050412D01*
X83262954Y-29999469D01*
X83262947Y-29999462D01*
X83077285Y-29847094D01*
X82794638Y-29696016D01*
X82524234Y-29613990D01*
X82449605Y-29523055D01*
X82406257Y-29487480D01*
X82460045Y-29363621D01*
X84342941Y-29363621D01*
X85195440Y-30216120D01*
X86047939Y-29363621D01*
X85981894Y-29055284D01*
X85664994Y-28931578D01*
X85330050Y-28872073D01*
X84989932Y-28879056D01*
X84657712Y-28952258D01*
X84408986Y-29055284D01*
X84342941Y-29363621D01*
X82460045Y-29363621D01*
X82482670Y-29311522D01*
X82490306Y-29296859D01*
X82321317Y-29009320D01*
X80921840Y-29009320D01*
X80921840Y-29029320D01*
X80375840Y-29029320D01*
X80375840Y-29009320D01*
X78976363Y-29009320D01*
X78807374Y-29296859D01*
X78815010Y-29311522D01*
X78891423Y-29487480D01*
X78848075Y-29523055D01*
X78707240Y-29694663D01*
X78602590Y-29890449D01*
X78538147Y-30102889D01*
X78516387Y-30323820D01*
X78516387Y-32228820D01*
X78538147Y-32449751D01*
X78602590Y-32662191D01*
X78707240Y-32857977D01*
X78848075Y-33029585D01*
X79019683Y-33170420D01*
X79215469Y-33275070D01*
X79427909Y-33339513D01*
X79648840Y-33361273D01*
X81648840Y-33361273D01*
X81869771Y-33339513D01*
X81970570Y-33308936D01*
X82318385Y-33656751D01*
X82369331Y-33718829D01*
X82431409Y-33769775D01*
X82431412Y-33769778D01*
X82556753Y-33872642D01*
X82617074Y-33922146D01*
X82899722Y-34073225D01*
X83206412Y-34166258D01*
X83525360Y-34197672D01*
X83568441Y-34193429D01*
X83568440Y-39560915D01*
X82461532Y-40667823D01*
X82427945Y-40498970D01*
X82278915Y-40139179D01*
X82062556Y-39815376D01*
X81787184Y-39540004D01*
X81463381Y-39323645D01*
X81103590Y-39174615D01*
X80721638Y-39098640D01*
X80332202Y-39098640D01*
X79950250Y-39174615D01*
X79590459Y-39323645D01*
X79266656Y-39540004D01*
X79107481Y-39699179D01*
X79091014Y-39683256D01*
X78798159Y-39494612D01*
X78531243Y-39384061D01*
X78259920Y-39554697D01*
X78259920Y-40802640D01*
X78279920Y-40802640D01*
X78279920Y-41348640D01*
X78259920Y-41348640D01*
X78259920Y-41368640D01*
X77713920Y-41368640D01*
X77713920Y-41348640D01*
X77693920Y-41348640D01*
X77693920Y-40802640D01*
X77713920Y-40802640D01*
X77713920Y-39554697D01*
X77442597Y-39384061D01*
X77175681Y-39494612D01*
X76882826Y-39683256D01*
X76866359Y-39699179D01*
X76819482Y-39652302D01*
X76803995Y-39495060D01*
X76725762Y-39237160D01*
X76725257Y-39235495D01*
X76597393Y-38996279D01*
X76540541Y-38927005D01*
X76468435Y-38839142D01*
X76468428Y-38839135D01*
X76425316Y-38786603D01*
X76372785Y-38743492D01*
X73017821Y-35388530D01*
X72974697Y-35335983D01*
X72765021Y-35163907D01*
X72525805Y-35036043D01*
X72266239Y-34957305D01*
X72063940Y-34937380D01*
X71996300Y-34930718D01*
X71928660Y-34937380D01*
X54974820Y-34937380D01*
X54907180Y-34930718D01*
X54637240Y-34957305D01*
X54507458Y-34996674D01*
X54377675Y-35036043D01*
X54138459Y-35163907D01*
X53928783Y-35335983D01*
X53885663Y-35388525D01*
X50323726Y-38950463D01*
X50271184Y-38993583D01*
X50189277Y-39093387D01*
X50099108Y-39203259D01*
X49971243Y-39442476D01*
X49892505Y-39702041D01*
X49865918Y-39971980D01*
X49872581Y-40039630D01*
X49872581Y-46048808D01*
X49846601Y-46027487D01*
X49607385Y-45899623D01*
X49347819Y-45820885D01*
X49145520Y-45800960D01*
X49077880Y-45794298D01*
X49010240Y-45800960D01*
X43082842Y-45800960D01*
X43058788Y-45556731D01*
X42950773Y-45200653D01*
X42775366Y-44872490D01*
X42598551Y-44657040D01*
X42775366Y-44441590D01*
X42950773Y-44113427D01*
X43058788Y-43757349D01*
X43095260Y-43387040D01*
X43058788Y-43016731D01*
X42950773Y-42660653D01*
X42775366Y-42332490D01*
X42598551Y-42117040D01*
X42775366Y-41901590D01*
X42950773Y-41573427D01*
X43058788Y-41217349D01*
X43095260Y-40847040D01*
X43058788Y-40476731D01*
X42950773Y-40120653D01*
X42775366Y-39792490D01*
X42539308Y-39504852D01*
X42251670Y-39268794D01*
X41923507Y-39093387D01*
X41567429Y-38985372D01*
X41289921Y-38958040D01*
X40104319Y-38958040D01*
X39826811Y-38985372D01*
X39470733Y-39093387D01*
X39142570Y-39268794D01*
X38854932Y-39504852D01*
X38618874Y-39792490D01*
X38443467Y-40120653D01*
X38335452Y-40476731D01*
X38298980Y-40847040D01*
X38335452Y-41217349D01*
X38443467Y-41573427D01*
X38618874Y-41901590D01*
X38795689Y-42117040D01*
X38618874Y-42332490D01*
X38443467Y-42660653D01*
X38335452Y-43016731D01*
X38298980Y-43387040D01*
X38335452Y-43757349D01*
X38443467Y-44113427D01*
X38618874Y-44441590D01*
X38707876Y-44550040D01*
X27446364Y-44550040D01*
X27535366Y-44441590D01*
X27710773Y-44113427D01*
X27818788Y-43757349D01*
X27855260Y-43387040D01*
X27818788Y-43016731D01*
X27710773Y-42660653D01*
X27535366Y-42332490D01*
X27358551Y-42117040D01*
X27535366Y-41901590D01*
X27710773Y-41573427D01*
X27818788Y-41217349D01*
X27855260Y-40847040D01*
X27818788Y-40476731D01*
X27710773Y-40120653D01*
X27535366Y-39792490D01*
X27299308Y-39504852D01*
X27011670Y-39268794D01*
X26683507Y-39093387D01*
X26327429Y-38985372D01*
X26049921Y-38958040D01*
X24864319Y-38958040D01*
X24586811Y-38985372D01*
X24230733Y-39093387D01*
X23902570Y-39268794D01*
X23614932Y-39504852D01*
X23378874Y-39792490D01*
X23203467Y-40120653D01*
X23095452Y-40476731D01*
X23058980Y-40847040D01*
X23095452Y-41217349D01*
X23203467Y-41573427D01*
X23378874Y-41901590D01*
X23555689Y-42117040D01*
X23378874Y-42332490D01*
X23203467Y-42660653D01*
X23095452Y-43016731D01*
X23058980Y-43387040D01*
X23095452Y-43757349D01*
X23203467Y-44113427D01*
X23378874Y-44441590D01*
X23510585Y-44602080D01*
X17695240Y-44602080D01*
X17627600Y-44595418D01*
X17357660Y-44622005D01*
X17227878Y-44661374D01*
X17098095Y-44700743D01*
X16858879Y-44828607D01*
X16765153Y-44905526D01*
X16701742Y-44957565D01*
X16701739Y-44957568D01*
X16649203Y-45000683D01*
X16606087Y-45053220D01*
X16152000Y-45507308D01*
X16152000Y-33060600D01*
X19666027Y-33060600D01*
X19666027Y-35040600D01*
X19692783Y-35312254D01*
X19772021Y-35573469D01*
X19900698Y-35814205D01*
X20073867Y-36025213D01*
X20284875Y-36198382D01*
X20525611Y-36327059D01*
X20786826Y-36406297D01*
X21058480Y-36433053D01*
X23038480Y-36433053D01*
X23310134Y-36406297D01*
X23571349Y-36327059D01*
X23812085Y-36198382D01*
X23901160Y-36125280D01*
X32192815Y-36125280D01*
X32356791Y-36289256D01*
X32746108Y-36549390D01*
X33178695Y-36728573D01*
X33637926Y-36819920D01*
X34106154Y-36819920D01*
X34565385Y-36728573D01*
X34997972Y-36549390D01*
X35387289Y-36289256D01*
X35718376Y-35958169D01*
X35978510Y-35568852D01*
X36157693Y-35136265D01*
X36249040Y-34677034D01*
X36249040Y-34208806D01*
X43695040Y-34208806D01*
X43695040Y-34677034D01*
X43786387Y-35136265D01*
X43965570Y-35568852D01*
X44225704Y-35958169D01*
X44556791Y-36289256D01*
X44946108Y-36549390D01*
X45378695Y-36728573D01*
X45837926Y-36819920D01*
X46306154Y-36819920D01*
X46765385Y-36728573D01*
X47197972Y-36549390D01*
X47587289Y-36289256D01*
X47918376Y-35958169D01*
X48178510Y-35568852D01*
X48357693Y-35136265D01*
X48449040Y-34677034D01*
X48449040Y-34208806D01*
X48357693Y-33749575D01*
X48178510Y-33316988D01*
X47918376Y-32927671D01*
X47587289Y-32596584D01*
X47197972Y-32336450D01*
X46765385Y-32157267D01*
X46306154Y-32065920D01*
X45837926Y-32065920D01*
X45378695Y-32157267D01*
X44946108Y-32336450D01*
X44556791Y-32596584D01*
X44225704Y-32927671D01*
X43965570Y-33316988D01*
X43786387Y-33749575D01*
X43695040Y-34208806D01*
X36249040Y-34208806D01*
X36157693Y-33749575D01*
X35978510Y-33316988D01*
X35718376Y-32927671D01*
X35387289Y-32596584D01*
X34997972Y-32336450D01*
X34565385Y-32157267D01*
X34106154Y-32065920D01*
X33637926Y-32065920D01*
X33178695Y-32157267D01*
X32746108Y-32336450D01*
X32356791Y-32596584D01*
X32082095Y-32871280D01*
X24412286Y-32871280D01*
X24404177Y-32788946D01*
X24324939Y-32527731D01*
X24196262Y-32286995D01*
X24023093Y-32075987D01*
X23812085Y-31902818D01*
X23571349Y-31774141D01*
X23310134Y-31694903D01*
X23038480Y-31668147D01*
X21058480Y-31668147D01*
X20786826Y-31694903D01*
X20525611Y-31774141D01*
X20284875Y-31902818D01*
X20073867Y-32075987D01*
X19900698Y-32286995D01*
X19772021Y-32527731D01*
X19692783Y-32788946D01*
X19666027Y-33060600D01*
X16152000Y-33060600D01*
X16152000Y-28811561D01*
X19621480Y-28811561D01*
X19621480Y-29289639D01*
X19714748Y-29758530D01*
X19897701Y-30200215D01*
X20163306Y-30597722D01*
X20501358Y-30935774D01*
X20898865Y-31201379D01*
X21340550Y-31384332D01*
X21809441Y-31477600D01*
X22287519Y-31477600D01*
X22756410Y-31384332D01*
X23198095Y-31201379D01*
X23595602Y-30935774D01*
X23933654Y-30597722D01*
X24018166Y-30471240D01*
X46002855Y-30471240D01*
X46021275Y-30493685D01*
X46192883Y-30634520D01*
X46388669Y-30739170D01*
X46601109Y-30803613D01*
X46822040Y-30825373D01*
X49322040Y-30825373D01*
X49542971Y-30803613D01*
X49755411Y-30739170D01*
X49951197Y-30634520D01*
X50122805Y-30493685D01*
X50263640Y-30322077D01*
X50368290Y-30126291D01*
X50432733Y-29913851D01*
X50454493Y-29692920D01*
X50454493Y-27192920D01*
X50448521Y-27132280D01*
X53161887Y-27132280D01*
X53193783Y-27456129D01*
X53220353Y-27543719D01*
X53186187Y-27656349D01*
X53164427Y-27877280D01*
X53164427Y-28927280D01*
X53186187Y-29148211D01*
X53250630Y-29360651D01*
X53355280Y-29556437D01*
X53496115Y-29728045D01*
X53667723Y-29868880D01*
X53863509Y-29973530D01*
X54075949Y-30037973D01*
X54296880Y-30059733D01*
X55796880Y-30059733D01*
X56017811Y-30037973D01*
X56230251Y-29973530D01*
X56426037Y-29868880D01*
X56597645Y-29728045D01*
X56738480Y-29556437D01*
X56843130Y-29360651D01*
X56907573Y-29148211D01*
X56929333Y-28927280D01*
X56929333Y-28452960D01*
X61111840Y-28452960D01*
X61111840Y-29019680D01*
X61222401Y-29575510D01*
X61439275Y-30099091D01*
X61754128Y-30570301D01*
X62154859Y-30971032D01*
X62626069Y-31285885D01*
X63149650Y-31502759D01*
X63705480Y-31613320D01*
X64272200Y-31613320D01*
X64828030Y-31502759D01*
X65351611Y-31285885D01*
X65822821Y-30971032D01*
X66223552Y-30570301D01*
X66538405Y-30099091D01*
X66755279Y-29575510D01*
X66865840Y-29019680D01*
X66865840Y-28452960D01*
X66755279Y-27897130D01*
X66538405Y-27373549D01*
X66223552Y-26902339D01*
X65822821Y-26501608D01*
X65365927Y-26196320D01*
X78511779Y-26196320D01*
X78551929Y-26603973D01*
X78670837Y-26995960D01*
X78863934Y-27357218D01*
X79092124Y-27635269D01*
X78961550Y-27823675D01*
X78815010Y-28161118D01*
X78807374Y-28175781D01*
X78976363Y-28463320D01*
X80375840Y-28463320D01*
X80375840Y-28443320D01*
X80921840Y-28443320D01*
X80921840Y-28463320D01*
X82321317Y-28463320D01*
X82490306Y-28175781D01*
X82482670Y-28161118D01*
X82433573Y-28048059D01*
X84276901Y-28048059D01*
X84342946Y-28356396D01*
X84659846Y-28480102D01*
X84994790Y-28539607D01*
X85334908Y-28532624D01*
X85667128Y-28459422D01*
X85915854Y-28356396D01*
X85981899Y-28048059D01*
X85129400Y-27195560D01*
X84276901Y-28048059D01*
X82433573Y-28048059D01*
X82336130Y-27823675D01*
X82205556Y-27635269D01*
X82433746Y-27357218D01*
X82626843Y-26995960D01*
X82745751Y-26603973D01*
X82763626Y-26422480D01*
X83444112Y-26422480D01*
X83399273Y-26674870D01*
X83406256Y-27014988D01*
X83479458Y-27347208D01*
X83582484Y-27595934D01*
X83890821Y-27661979D01*
X84743320Y-26809480D01*
X84729178Y-26795338D01*
X84782582Y-26741933D01*
X85476218Y-26741933D01*
X85529623Y-26795338D01*
X85515480Y-26809480D01*
X86367979Y-27661979D01*
X86676316Y-27595934D01*
X86800022Y-27279034D01*
X86859527Y-26944090D01*
X86852544Y-26603972D01*
X86792990Y-26333692D01*
X86871000Y-26238637D01*
X86975650Y-26042851D01*
X87040093Y-25830411D01*
X87061853Y-25609480D01*
X87061853Y-24009480D01*
X87040093Y-23788549D01*
X86975650Y-23576109D01*
X86871000Y-23380323D01*
X86761609Y-23247029D01*
X89794998Y-23247029D01*
X89961841Y-23556640D01*
X92547520Y-23556640D01*
X92547520Y-21810440D01*
X93093520Y-21810440D01*
X93093520Y-23556640D01*
X95679199Y-23556640D01*
X95846042Y-23247029D01*
X95743295Y-22934824D01*
X95533551Y-22594890D01*
X95261519Y-22302407D01*
X94937654Y-22068615D01*
X94574401Y-21902498D01*
X94185720Y-21810440D01*
X93093520Y-21810440D01*
X92547520Y-21810440D01*
X91455320Y-21810440D01*
X91066639Y-21902498D01*
X90703386Y-22068615D01*
X90379521Y-22302407D01*
X90107489Y-22594890D01*
X89897745Y-22934824D01*
X89794998Y-23247029D01*
X86761609Y-23247029D01*
X86730165Y-23208715D01*
X86558557Y-23067880D01*
X86362771Y-22963230D01*
X86150331Y-22898787D01*
X85929400Y-22877027D01*
X84329400Y-22877027D01*
X84108469Y-22898787D01*
X83896029Y-22963230D01*
X83700243Y-23067880D01*
X83577662Y-23168480D01*
X82132077Y-23168480D01*
X82052160Y-23160609D01*
X81972243Y-23168480D01*
X81972235Y-23168480D01*
X81733212Y-23192022D01*
X81426522Y-23285055D01*
X81302763Y-23351206D01*
X81143874Y-23436134D01*
X80958212Y-23588502D01*
X80958209Y-23588505D01*
X80896131Y-23639451D01*
X80845185Y-23701529D01*
X80422324Y-24124390D01*
X80193687Y-24146909D01*
X79801700Y-24265817D01*
X79440442Y-24458914D01*
X79123797Y-24718777D01*
X78863934Y-25035422D01*
X78670837Y-25396680D01*
X78551929Y-25788667D01*
X78511779Y-26196320D01*
X65365927Y-26196320D01*
X65351611Y-26186755D01*
X64828030Y-25969881D01*
X64272200Y-25859320D01*
X63705480Y-25859320D01*
X63149650Y-25969881D01*
X62626069Y-26186755D01*
X62154859Y-26501608D01*
X61754128Y-26902339D01*
X61439275Y-27373549D01*
X61222401Y-27897130D01*
X61111840Y-28452960D01*
X56929333Y-28452960D01*
X56929333Y-27877280D01*
X56907573Y-27656349D01*
X56873407Y-27543719D01*
X56899977Y-27456129D01*
X56931873Y-27132280D01*
X56899977Y-26808431D01*
X56805514Y-26497028D01*
X56652114Y-26210037D01*
X56445672Y-25958488D01*
X56194123Y-25752046D01*
X55907132Y-25598646D01*
X55876256Y-25589280D01*
X56461200Y-25589280D01*
X56637721Y-25369549D01*
X56606496Y-25299868D01*
X56471131Y-25050304D01*
X56289679Y-24831944D01*
X56069114Y-24653179D01*
X55817911Y-24520879D01*
X55545725Y-24440128D01*
X55319880Y-24646548D01*
X55319880Y-25480280D01*
X54773880Y-25480280D01*
X54773880Y-24646548D01*
X54548035Y-24440128D01*
X54275849Y-24520879D01*
X54024646Y-24653179D01*
X53804081Y-24831944D01*
X53622629Y-25050304D01*
X53487264Y-25299868D01*
X53456039Y-25369549D01*
X53632560Y-25589280D01*
X54217504Y-25589280D01*
X54186628Y-25598646D01*
X53899637Y-25752046D01*
X53648088Y-25958488D01*
X53441646Y-26210037D01*
X53288246Y-26497028D01*
X53193783Y-26808431D01*
X53161887Y-27132280D01*
X50448521Y-27132280D01*
X50432733Y-26971989D01*
X50368290Y-26759549D01*
X50263640Y-26563763D01*
X50122805Y-26392155D01*
X49951197Y-26251320D01*
X49755411Y-26146670D01*
X49542971Y-26082227D01*
X49322040Y-26060467D01*
X46822040Y-26060467D01*
X46601109Y-26082227D01*
X46388669Y-26146670D01*
X46192883Y-26251320D01*
X46021275Y-26392155D01*
X45880440Y-26563763D01*
X45775790Y-26759549D01*
X45711347Y-26971989D01*
X45689587Y-27192920D01*
X45689587Y-27217240D01*
X23647416Y-27217240D01*
X23595602Y-27165426D01*
X23198095Y-26899821D01*
X22756410Y-26716868D01*
X22287519Y-26623600D01*
X21809441Y-26623600D01*
X21340550Y-26716868D01*
X20898865Y-26899821D01*
X20501358Y-27165426D01*
X20163306Y-27503478D01*
X19897701Y-27900985D01*
X19714748Y-28342670D01*
X19621480Y-28811561D01*
X16152000Y-28811561D01*
X16152000Y-23811561D01*
X19621480Y-23811561D01*
X19621480Y-24289639D01*
X19714748Y-24758530D01*
X19897701Y-25200215D01*
X20163306Y-25597722D01*
X20501358Y-25935774D01*
X20898865Y-26201379D01*
X21340550Y-26384332D01*
X21809441Y-26477600D01*
X22287519Y-26477600D01*
X22756410Y-26384332D01*
X23198095Y-26201379D01*
X23595602Y-25935774D01*
X23933654Y-25597722D01*
X24199259Y-25200215D01*
X24382212Y-24758530D01*
X24475480Y-24289639D01*
X24475480Y-24069920D01*
X32137455Y-24069920D01*
X32356791Y-24289256D01*
X32746108Y-24549390D01*
X33178695Y-24728573D01*
X33637926Y-24819920D01*
X34106154Y-24819920D01*
X34565385Y-24728573D01*
X34997972Y-24549390D01*
X35387289Y-24289256D01*
X35718376Y-23958169D01*
X35978510Y-23568852D01*
X36157693Y-23136265D01*
X36249040Y-22677034D01*
X36249040Y-22208806D01*
X43695040Y-22208806D01*
X43695040Y-22677034D01*
X43786387Y-23136265D01*
X43965570Y-23568852D01*
X44225704Y-23958169D01*
X44556791Y-24289256D01*
X44946108Y-24549390D01*
X45378695Y-24728573D01*
X45837926Y-24819920D01*
X46306154Y-24819920D01*
X46765385Y-24728573D01*
X47197972Y-24549390D01*
X47587289Y-24289256D01*
X47918376Y-23958169D01*
X48178510Y-23568852D01*
X48357693Y-23136265D01*
X48449040Y-22677034D01*
X48449040Y-22208806D01*
X48357693Y-21749575D01*
X48178510Y-21316988D01*
X47918376Y-20927671D01*
X47587289Y-20596584D01*
X47197972Y-20336450D01*
X46765385Y-20157267D01*
X46306154Y-20065920D01*
X45837926Y-20065920D01*
X45378695Y-20157267D01*
X44946108Y-20336450D01*
X44556791Y-20596584D01*
X44225704Y-20927671D01*
X43965570Y-21316988D01*
X43786387Y-21749575D01*
X43695040Y-22208806D01*
X36249040Y-22208806D01*
X36157693Y-21749575D01*
X35978510Y-21316988D01*
X35718376Y-20927671D01*
X35387289Y-20596584D01*
X34997972Y-20336450D01*
X34565385Y-20157267D01*
X34106154Y-20065920D01*
X33637926Y-20065920D01*
X33178695Y-20157267D01*
X32746108Y-20336450D01*
X32356791Y-20596584D01*
X32137455Y-20815920D01*
X23736077Y-20815920D01*
X23656160Y-20808049D01*
X23576243Y-20815920D01*
X23576235Y-20815920D01*
X23337212Y-20839462D01*
X23030522Y-20932495D01*
X22747874Y-21083574D01*
X22562212Y-21235942D01*
X22562209Y-21235945D01*
X22500131Y-21286891D01*
X22449185Y-21348969D01*
X22174554Y-21623600D01*
X21809441Y-21623600D01*
X21340550Y-21716868D01*
X20898865Y-21899821D01*
X20501358Y-22165426D01*
X20163306Y-22503478D01*
X19897701Y-22900985D01*
X19714748Y-23342670D01*
X19621480Y-23811561D01*
X16152000Y-23811561D01*
X16152000Y-16152000D01*
X108848001Y-16152000D01*
X108848000Y-108848029D01*
G37*
X108848000Y-108848029D02*
X77711497Y-108848789D01*
X77942769Y-108658989D01*
X77993719Y-108596906D01*
X79361512Y-107229114D01*
X79423589Y-107178169D01*
X79474535Y-107116091D01*
X79474538Y-107116088D01*
X79626906Y-106930426D01*
X79655292Y-106877320D01*
X79777985Y-106647778D01*
X79871018Y-106341088D01*
X79894560Y-106102065D01*
X79894560Y-106102064D01*
X79902432Y-106022140D01*
X79894560Y-105942215D01*
X79894560Y-103958520D01*
X88386737Y-103958520D01*
X88191162Y-104089199D01*
X87929719Y-104350642D01*
X87724304Y-104658067D01*
X87582812Y-104999659D01*
X87510680Y-105362292D01*
X87510680Y-105732028D01*
X87582812Y-106094661D01*
X87724304Y-106436253D01*
X87929719Y-106743678D01*
X88191162Y-107005121D01*
X88498587Y-107210536D01*
X88840179Y-107352028D01*
X89202812Y-107424160D01*
X89572548Y-107424160D01*
X89935181Y-107352028D01*
X90276773Y-107210536D01*
X90584198Y-107005121D01*
X90845641Y-106743678D01*
X91051056Y-106436253D01*
X91087680Y-106347835D01*
X91124304Y-106436253D01*
X91329719Y-106743678D01*
X91591162Y-107005121D01*
X91898587Y-107210536D01*
X92240179Y-107352028D01*
X92602812Y-107424160D01*
X92972548Y-107424160D01*
X93335181Y-107352028D01*
X93676773Y-107210536D01*
X93984198Y-107005121D01*
X94245641Y-106743678D01*
X94451056Y-106436253D01*
X94592548Y-106094661D01*
X94664680Y-105732028D01*
X94664680Y-105362292D01*
X94592548Y-104999659D01*
X94451056Y-104658067D01*
X94414680Y-104603627D01*
X94414680Y-102411445D01*
X94422552Y-102331520D01*
X94414680Y-102251595D01*
X94414680Y-101448995D01*
X102910525Y-101448995D01*
X102988980Y-101767417D01*
X103323076Y-101901201D01*
X103676853Y-101967237D01*
X104036716Y-101962986D01*
X104388834Y-101888610D01*
X104681420Y-101767417D01*
X104759875Y-101448995D01*
X103835200Y-100524320D01*
X102910525Y-101448995D01*
X94414680Y-101448995D01*
X94414680Y-101393605D01*
X96203325Y-99604960D01*
X102080711Y-99604960D01*
X102072239Y-99626116D01*
X102006203Y-99979893D01*
X102010454Y-100339756D01*
X102084830Y-100691874D01*
X102206023Y-100984460D01*
X102524445Y-101062915D01*
X103449120Y-100138240D01*
X103434978Y-100124098D01*
X103821058Y-99738018D01*
X103835200Y-99752160D01*
X103849343Y-99738018D01*
X104235423Y-100124098D01*
X104221280Y-100138240D01*
X105145955Y-101062915D01*
X105464377Y-100984460D01*
X105598161Y-100650364D01*
X105664197Y-100296587D01*
X105659946Y-99936724D01*
X105585570Y-99584606D01*
X105512970Y-99409335D01*
X105647726Y-99337306D01*
X105895469Y-99133989D01*
X105946420Y-99071905D01*
X106803665Y-98214660D01*
X106865749Y-98163709D01*
X107069066Y-97915966D01*
X107220145Y-97633318D01*
X107313178Y-97326628D01*
X107336720Y-97087605D01*
X107336720Y-97087595D01*
X107344591Y-97007681D01*
X107336720Y-96927766D01*
X107336720Y-92092685D01*
X107344592Y-92012760D01*
X107313178Y-91693812D01*
X107259659Y-91517384D01*
X107220145Y-91387122D01*
X107069066Y-91104474D01*
X106865749Y-90856731D01*
X106803667Y-90805782D01*
X105843755Y-89845870D01*
X105784304Y-89546986D01*
X105631504Y-89178095D01*
X105411400Y-88848686D01*
X105411400Y-79818331D01*
X105455394Y-79774337D01*
X105677224Y-79442345D01*
X105830024Y-79073454D01*
X105907920Y-78681842D01*
X105907920Y-78282558D01*
X105830024Y-77890946D01*
X105677224Y-77522055D01*
X105455394Y-77190063D01*
X105173057Y-76907726D01*
X104841065Y-76685896D01*
X104472174Y-76533096D01*
X104080562Y-76455200D01*
X103681278Y-76455200D01*
X103289666Y-76533096D01*
X102920775Y-76685896D01*
X102588783Y-76907726D01*
X102306446Y-77190063D01*
X102084616Y-77522055D01*
X101931816Y-77890946D01*
X101853920Y-78282558D01*
X101853920Y-78681842D01*
X101931816Y-79073454D01*
X102084616Y-79442345D01*
X102157400Y-79551274D01*
X102157401Y-86161289D01*
X100233921Y-84237810D01*
X100190797Y-84185263D01*
X99981121Y-84013187D01*
X99741905Y-83885323D01*
X99482339Y-83806585D01*
X99280040Y-83786660D01*
X99212400Y-83779998D01*
X99144760Y-83786660D01*
X90281452Y-83786660D01*
X90282461Y-83784223D01*
X90364200Y-83373291D01*
X90364200Y-82954309D01*
X90282461Y-82543377D01*
X90122123Y-82156288D01*
X89889349Y-81807916D01*
X89593084Y-81511651D01*
X89244712Y-81278877D01*
X88857623Y-81118539D01*
X88446691Y-81036800D01*
X88027709Y-81036800D01*
X87616777Y-81118539D01*
X87229688Y-81278877D01*
X86881316Y-81511651D01*
X86856167Y-81536800D01*
X83118233Y-81536800D01*
X83093084Y-81511651D01*
X82744712Y-81278877D01*
X82357623Y-81118539D01*
X81946691Y-81036800D01*
X81527709Y-81036800D01*
X81116777Y-81118539D01*
X80729688Y-81278877D01*
X80381316Y-81511651D01*
X80085051Y-81807916D01*
X79852277Y-82156288D01*
X79691939Y-82543377D01*
X79616631Y-82921979D01*
X77443801Y-80749150D01*
X77400677Y-80696603D01*
X77191001Y-80524527D01*
X76951785Y-80396663D01*
X76692219Y-80317925D01*
X76489920Y-80298000D01*
X76422280Y-80291338D01*
X76354640Y-80298000D01*
X69860172Y-80298000D01*
X70027365Y-80047777D01*
X70027853Y-80046598D01*
X80740483Y-80046598D01*
X80831288Y-80375136D01*
X81182560Y-80518988D01*
X81555146Y-80591546D01*
X81934729Y-80590023D01*
X82306721Y-80514475D01*
X82643112Y-80375136D01*
X82733917Y-80046598D01*
X87240483Y-80046598D01*
X87331288Y-80375136D01*
X87682560Y-80518988D01*
X88055146Y-80591546D01*
X88434729Y-80590023D01*
X88806721Y-80514475D01*
X89143112Y-80375136D01*
X89233917Y-80046598D01*
X88237200Y-79049880D01*
X87240483Y-80046598D01*
X82733917Y-80046598D01*
X81737200Y-79049880D01*
X80740483Y-80046598D01*
X70027853Y-80046598D01*
X70172627Y-79697085D01*
X70246680Y-79324793D01*
X70246680Y-78945207D01*
X70172627Y-78572915D01*
X70134864Y-78481746D01*
X79809454Y-78481746D01*
X79810977Y-78861329D01*
X79886525Y-79233321D01*
X80025864Y-79569712D01*
X80354402Y-79660517D01*
X81351120Y-78663800D01*
X82123280Y-78663800D01*
X83119998Y-79660517D01*
X83448536Y-79569712D01*
X83592388Y-79218440D01*
X83664946Y-78845854D01*
X83663486Y-78481746D01*
X86309454Y-78481746D01*
X86310977Y-78861329D01*
X86386525Y-79233321D01*
X86525864Y-79569712D01*
X86854402Y-79660517D01*
X87851120Y-78663800D01*
X88623280Y-78663800D01*
X89619998Y-79660517D01*
X89948536Y-79569712D01*
X90092388Y-79218440D01*
X90164946Y-78845854D01*
X90163423Y-78466271D01*
X90087875Y-78094279D01*
X89948536Y-77757888D01*
X89619998Y-77667083D01*
X88623280Y-78663800D01*
X87851120Y-78663800D01*
X86854402Y-77667083D01*
X86525864Y-77757888D01*
X86382012Y-78109160D01*
X86309454Y-78481746D01*
X83663486Y-78481746D01*
X83663423Y-78466271D01*
X83587875Y-78094279D01*
X83448536Y-77757888D01*
X83119998Y-77667083D01*
X82123280Y-78663800D01*
X81351120Y-78663800D01*
X80354402Y-77667083D01*
X80025864Y-77757888D01*
X79882012Y-78109160D01*
X79809454Y-78481746D01*
X70134864Y-78481746D01*
X70027365Y-78222223D01*
X69816479Y-77906609D01*
X69774870Y-77865000D01*
X69816479Y-77823391D01*
X70027365Y-77507777D01*
X70172627Y-77157085D01*
X70246680Y-76784793D01*
X70246680Y-76405207D01*
X70172627Y-76032915D01*
X70027365Y-75682223D01*
X69816479Y-75366609D01*
X69774870Y-75325000D01*
X69816479Y-75283391D01*
X70027365Y-74967777D01*
X70172627Y-74617085D01*
X70246680Y-74244793D01*
X70246680Y-73865207D01*
X70172627Y-73492915D01*
X70027365Y-73142223D01*
X69816479Y-72826609D01*
X69625878Y-72636008D01*
X69677706Y-72581924D01*
X69859758Y-72296486D01*
X69961264Y-72051404D01*
X69789797Y-71788000D01*
X68592680Y-71788000D01*
X68592680Y-71808000D01*
X68046680Y-71808000D01*
X68046680Y-71788000D01*
X66849563Y-71788000D01*
X66678096Y-72051404D01*
X66779602Y-72296486D01*
X66961654Y-72581924D01*
X67013482Y-72636008D01*
X66822881Y-72826609D01*
X66611995Y-73142223D01*
X66466733Y-73492915D01*
X66392680Y-73865207D01*
X66392680Y-74244793D01*
X66466733Y-74617085D01*
X66611995Y-74967777D01*
X66822881Y-75283391D01*
X66864490Y-75325000D01*
X66822881Y-75366609D01*
X66611995Y-75682223D01*
X66466733Y-76032915D01*
X66392680Y-76405207D01*
X66392680Y-76784793D01*
X66466733Y-77157085D01*
X66611995Y-77507777D01*
X66822881Y-77823391D01*
X66864490Y-77865000D01*
X66822881Y-77906609D01*
X66611995Y-78222223D01*
X66466733Y-78572915D01*
X66392680Y-78945207D01*
X66392680Y-79324793D01*
X66466733Y-79697085D01*
X66611995Y-80047777D01*
X66822881Y-80363391D01*
X66864490Y-80405000D01*
X66822881Y-80446609D01*
X66611995Y-80762223D01*
X66466733Y-81112915D01*
X66392680Y-81485207D01*
X66392680Y-81864793D01*
X66466733Y-82237085D01*
X66611995Y-82587777D01*
X66822881Y-82903391D01*
X66864490Y-82945000D01*
X66822881Y-82986609D01*
X66611995Y-83302223D01*
X66466733Y-83652915D01*
X66392680Y-84025207D01*
X66392680Y-84404793D01*
X66466733Y-84777085D01*
X66611995Y-85127777D01*
X66822881Y-85443391D01*
X66864490Y-85485000D01*
X66822881Y-85526609D01*
X66611995Y-85842223D01*
X66466733Y-86192915D01*
X66392680Y-86565207D01*
X66392680Y-86944793D01*
X66466733Y-87317085D01*
X66611995Y-87667777D01*
X66779188Y-87918000D01*
X59738432Y-87918000D01*
X58699720Y-86879289D01*
X58699720Y-68785207D01*
X66392680Y-68785207D01*
X66392680Y-69164793D01*
X66466733Y-69537085D01*
X66611995Y-69887777D01*
X66822881Y-70203391D01*
X67013482Y-70393992D01*
X66961654Y-70448076D01*
X66779602Y-70733514D01*
X66678096Y-70978596D01*
X66849563Y-71242000D01*
X68046680Y-71242000D01*
X68046680Y-71222000D01*
X68592680Y-71222000D01*
X68592680Y-71242000D01*
X69789797Y-71242000D01*
X69961264Y-70978596D01*
X69859758Y-70733514D01*
X69677706Y-70448076D01*
X69625878Y-70393992D01*
X69816479Y-70203391D01*
X70027365Y-69887777D01*
X70172627Y-69537085D01*
X70246680Y-69164793D01*
X70246680Y-68785207D01*
X70172627Y-68412915D01*
X70027365Y-68062223D01*
X70022318Y-68054669D01*
X79645760Y-68054669D01*
X79645760Y-68473651D01*
X79727499Y-68884583D01*
X79887837Y-69271672D01*
X80120611Y-69620044D01*
X80294161Y-69793594D01*
X80294160Y-75107077D01*
X80251101Y-75211030D01*
X80192420Y-75506044D01*
X80192420Y-75806836D01*
X80251101Y-76101850D01*
X80366210Y-76379746D01*
X80533321Y-76629846D01*
X80746014Y-76842539D01*
X80880204Y-76932202D01*
X80831288Y-76952464D01*
X80740483Y-77281002D01*
X81737200Y-78277720D01*
X82733917Y-77281002D01*
X87240483Y-77281002D01*
X88237200Y-78277720D01*
X89233917Y-77281002D01*
X89143112Y-76952464D01*
X88791840Y-76808612D01*
X88419254Y-76736054D01*
X88039671Y-76737577D01*
X87667679Y-76813125D01*
X87331288Y-76952464D01*
X87240483Y-77281002D01*
X82733917Y-77281002D01*
X82643112Y-76952464D01*
X82571935Y-76923316D01*
X82692826Y-76842539D01*
X82905519Y-76629846D01*
X83072630Y-76379746D01*
X83187739Y-76101850D01*
X83246420Y-75806836D01*
X83246420Y-75506044D01*
X83187739Y-75211030D01*
X83072630Y-74933134D01*
X83048160Y-74896512D01*
X83048160Y-73282558D01*
X101853920Y-73282558D01*
X101853920Y-73681842D01*
X101931816Y-74073454D01*
X102084616Y-74442345D01*
X102306446Y-74774337D01*
X102588783Y-75056674D01*
X102920775Y-75278504D01*
X103289666Y-75431304D01*
X103681278Y-75509200D01*
X104080562Y-75509200D01*
X104472174Y-75431304D01*
X104841065Y-75278504D01*
X105173057Y-75056674D01*
X105455394Y-74774337D01*
X105677224Y-74442345D01*
X105830024Y-74073454D01*
X105907920Y-73681842D01*
X105907920Y-73282558D01*
X105830024Y-72890946D01*
X105677224Y-72522055D01*
X105455394Y-72190063D01*
X105173057Y-71907726D01*
X104841065Y-71685896D01*
X104472174Y-71533096D01*
X104080562Y-71455200D01*
X103681278Y-71455200D01*
X103289666Y-71533096D01*
X102920775Y-71685896D01*
X102588783Y-71907726D01*
X102306446Y-72190063D01*
X102084616Y-72522055D01*
X101931816Y-72890946D01*
X101853920Y-73282558D01*
X83048160Y-73282558D01*
X83048160Y-69970087D01*
X83128644Y-69916309D01*
X83153793Y-69891160D01*
X86891727Y-69891160D01*
X86916876Y-69916309D01*
X87265248Y-70149083D01*
X87652337Y-70309421D01*
X88063269Y-70391160D01*
X88482251Y-70391160D01*
X88893183Y-70309421D01*
X89280272Y-70149083D01*
X89628644Y-69916309D01*
X89751998Y-69792955D01*
X102956245Y-69792955D01*
X103034700Y-70111377D01*
X103368796Y-70245161D01*
X103722573Y-70311197D01*
X104082436Y-70306946D01*
X104434554Y-70232570D01*
X104727140Y-70111377D01*
X104805595Y-69792955D01*
X103880920Y-68868280D01*
X102956245Y-69792955D01*
X89751998Y-69792955D01*
X89924909Y-69620044D01*
X90157683Y-69271672D01*
X90318021Y-68884583D01*
X90399760Y-68473651D01*
X90399760Y-68323853D01*
X102051923Y-68323853D01*
X102056174Y-68683716D01*
X102130550Y-69035834D01*
X102251743Y-69328420D01*
X102570165Y-69406875D01*
X103494840Y-68482200D01*
X104267000Y-68482200D01*
X105191675Y-69406875D01*
X105510097Y-69328420D01*
X105643881Y-68994324D01*
X105709917Y-68640547D01*
X105705666Y-68280684D01*
X105631290Y-67928566D01*
X105510097Y-67635980D01*
X105191675Y-67557525D01*
X104267000Y-68482200D01*
X103494840Y-68482200D01*
X102570165Y-67557525D01*
X102251743Y-67635980D01*
X102117959Y-67970076D01*
X102051923Y-68323853D01*
X90399760Y-68323853D01*
X90399760Y-68054669D01*
X90318021Y-67643737D01*
X90157683Y-67256648D01*
X90100753Y-67171445D01*
X102956245Y-67171445D01*
X103880920Y-68096120D01*
X104805595Y-67171445D01*
X104727140Y-66853023D01*
X104393044Y-66719239D01*
X104039267Y-66653203D01*
X103679404Y-66657454D01*
X103327286Y-66731830D01*
X103034700Y-66853023D01*
X102956245Y-67171445D01*
X90100753Y-67171445D01*
X89924909Y-66908276D01*
X89628644Y-66612011D01*
X89280272Y-66379237D01*
X88893183Y-66218899D01*
X88482251Y-66137160D01*
X88063269Y-66137160D01*
X87652337Y-66218899D01*
X87265248Y-66379237D01*
X86916876Y-66612011D01*
X86891727Y-66637160D01*
X83153793Y-66637160D01*
X83128644Y-66612011D01*
X82780272Y-66379237D01*
X82393183Y-66218899D01*
X81982251Y-66137160D01*
X81563269Y-66137160D01*
X81152337Y-66218899D01*
X80765248Y-66379237D01*
X80416876Y-66612011D01*
X80120611Y-66908276D01*
X79887837Y-67256648D01*
X79727499Y-67643737D01*
X79645760Y-68054669D01*
X70022318Y-68054669D01*
X69816479Y-67746609D01*
X69548071Y-67478201D01*
X69232457Y-67267315D01*
X68881765Y-67122053D01*
X68509473Y-67048000D01*
X68129887Y-67048000D01*
X67757595Y-67122053D01*
X67406903Y-67267315D01*
X67091289Y-67478201D01*
X66822881Y-67746609D01*
X66611995Y-68062223D01*
X66466733Y-68412915D01*
X66392680Y-68785207D01*
X58699720Y-68785207D01*
X58699720Y-65146958D01*
X80776043Y-65146958D01*
X80866848Y-65475496D01*
X81218120Y-65619348D01*
X81590706Y-65691906D01*
X81970289Y-65690383D01*
X82342281Y-65614835D01*
X82678672Y-65475496D01*
X82769477Y-65146958D01*
X87276043Y-65146958D01*
X87366848Y-65475496D01*
X87718120Y-65619348D01*
X88090706Y-65691906D01*
X88470289Y-65690383D01*
X88842281Y-65614835D01*
X89178672Y-65475496D01*
X89269477Y-65146958D01*
X88272760Y-64150240D01*
X87276043Y-65146958D01*
X82769477Y-65146958D01*
X81772760Y-64150240D01*
X80776043Y-65146958D01*
X58699720Y-65146958D01*
X58699720Y-63582106D01*
X79845014Y-63582106D01*
X79846537Y-63961689D01*
X79922085Y-64333681D01*
X80061424Y-64670072D01*
X80389962Y-64760877D01*
X81386680Y-63764160D01*
X82158840Y-63764160D01*
X83155558Y-64760877D01*
X83484096Y-64670072D01*
X83627948Y-64318800D01*
X83700506Y-63946214D01*
X83699046Y-63582106D01*
X86345014Y-63582106D01*
X86346537Y-63961689D01*
X86422085Y-64333681D01*
X86561424Y-64670072D01*
X86889962Y-64760877D01*
X87886680Y-63764160D01*
X88658840Y-63764160D01*
X89655558Y-64760877D01*
X89984096Y-64670072D01*
X90127948Y-64318800D01*
X90200506Y-63946214D01*
X90198983Y-63566631D01*
X90123435Y-63194639D01*
X89984096Y-62858248D01*
X89655558Y-62767443D01*
X88658840Y-63764160D01*
X87886680Y-63764160D01*
X86889962Y-62767443D01*
X86561424Y-62858248D01*
X86417572Y-63209520D01*
X86345014Y-63582106D01*
X83699046Y-63582106D01*
X83698983Y-63566631D01*
X83623435Y-63194639D01*
X83484096Y-62858248D01*
X83155558Y-62767443D01*
X82158840Y-63764160D01*
X81386680Y-63764160D01*
X80389962Y-62767443D01*
X80061424Y-62858248D01*
X79917572Y-63209520D01*
X79845014Y-63582106D01*
X58699720Y-63582106D01*
X58699720Y-62381362D01*
X80776043Y-62381362D01*
X81772760Y-63378080D01*
X82769477Y-62381362D01*
X87276043Y-62381362D01*
X88272760Y-63378080D01*
X89269477Y-62381362D01*
X89178672Y-62052824D01*
X88827400Y-61908972D01*
X88454814Y-61836414D01*
X88075231Y-61837937D01*
X87703239Y-61913485D01*
X87366848Y-62052824D01*
X87276043Y-62381362D01*
X82769477Y-62381362D01*
X82678672Y-62052824D01*
X82327400Y-61908972D01*
X81954814Y-61836414D01*
X81575231Y-61837937D01*
X81203239Y-61913485D01*
X80866848Y-62052824D01*
X80776043Y-62381362D01*
X58699720Y-62381362D01*
X58699720Y-55875380D01*
X58788836Y-55875380D01*
X59083850Y-55816699D01*
X59361746Y-55701590D01*
X59611846Y-55534479D01*
X59824539Y-55321786D01*
X59991650Y-55071686D01*
X60106759Y-54793790D01*
X60165440Y-54498776D01*
X60165440Y-54197984D01*
X60106759Y-53902970D01*
X60035760Y-53731564D01*
X60035760Y-50222760D01*
X60124539Y-50008430D01*
X60183220Y-49713416D01*
X60183220Y-49412624D01*
X60124539Y-49117610D01*
X60009430Y-48839714D01*
X59842319Y-48589614D01*
X59629626Y-48376921D01*
X59379526Y-48209810D01*
X59101630Y-48094701D01*
X58806616Y-48036020D01*
X58699720Y-48036020D01*
X58699720Y-39244419D01*
X58818170Y-39067146D01*
X58933279Y-38789250D01*
X58949564Y-38707380D01*
X69990829Y-38707380D01*
X71033328Y-39749879D01*
X71010670Y-39792269D01*
X70946227Y-40004709D01*
X70924467Y-40225640D01*
X70924467Y-41925640D01*
X70946227Y-42146571D01*
X70960062Y-42192178D01*
X70752236Y-42150840D01*
X70451444Y-42150840D01*
X70156430Y-42209521D01*
X69878534Y-42324630D01*
X69628434Y-42491741D01*
X69415741Y-42704434D01*
X69248630Y-42954534D01*
X69133521Y-43232430D01*
X69074840Y-43527444D01*
X69074840Y-43828236D01*
X69133521Y-44123250D01*
X69248630Y-44401146D01*
X69415741Y-44651246D01*
X69628434Y-44863939D01*
X69878534Y-45031050D01*
X70098998Y-45122370D01*
X70454200Y-45477572D01*
X70454201Y-54135950D01*
X70447538Y-54203600D01*
X70474125Y-54473539D01*
X70552863Y-54733104D01*
X70669476Y-54951270D01*
X70680728Y-54972321D01*
X70852804Y-55181997D01*
X70905345Y-55225117D01*
X72473440Y-56793212D01*
X72473440Y-56962633D01*
X72547493Y-57334925D01*
X72692755Y-57685617D01*
X72903641Y-58001231D01*
X73172049Y-58269639D01*
X73487663Y-58480525D01*
X73838355Y-58625787D01*
X74210647Y-58699840D01*
X74590233Y-58699840D01*
X74962525Y-58625787D01*
X75313217Y-58480525D01*
X75628831Y-58269639D01*
X75670440Y-58228030D01*
X75712049Y-58269639D01*
X76027663Y-58480525D01*
X76378355Y-58625787D01*
X76750647Y-58699840D01*
X77130233Y-58699840D01*
X77502525Y-58625787D01*
X77853217Y-58480525D01*
X78168831Y-58269639D01*
X78210440Y-58228030D01*
X78252049Y-58269639D01*
X78567663Y-58480525D01*
X78918355Y-58625787D01*
X79290647Y-58699840D01*
X79670233Y-58699840D01*
X80042525Y-58625787D01*
X80393217Y-58480525D01*
X80708831Y-58269639D01*
X80750440Y-58228030D01*
X80792049Y-58269639D01*
X81107663Y-58480525D01*
X81458355Y-58625787D01*
X81830647Y-58699840D01*
X82210233Y-58699840D01*
X82582525Y-58625787D01*
X82933217Y-58480525D01*
X83053971Y-58399840D01*
X83526909Y-58399840D01*
X83647663Y-58480525D01*
X83998355Y-58625787D01*
X84370647Y-58699840D01*
X84750233Y-58699840D01*
X85122525Y-58625787D01*
X85473217Y-58480525D01*
X85483522Y-58473639D01*
X85493142Y-58571307D01*
X85586175Y-58877997D01*
X85737254Y-59160645D01*
X85940571Y-59408389D01*
X86002654Y-59459339D01*
X87474585Y-60931271D01*
X87525531Y-60993349D01*
X87587609Y-61044295D01*
X87587612Y-61044298D01*
X87668234Y-61110462D01*
X87773274Y-61196666D01*
X88055922Y-61347745D01*
X88362612Y-61440778D01*
X88601635Y-61464320D01*
X88601643Y-61464320D01*
X88681560Y-61472191D01*
X88761477Y-61464320D01*
X98888095Y-61464320D01*
X99132271Y-61708496D01*
X99521588Y-61968630D01*
X99954175Y-62147813D01*
X100413406Y-62239160D01*
X100881634Y-62239160D01*
X101340865Y-62147813D01*
X101773452Y-61968630D01*
X102162769Y-61708496D01*
X102493856Y-61377409D01*
X102753990Y-60988092D01*
X102933173Y-60555505D01*
X103024520Y-60096274D01*
X103024520Y-59628046D01*
X102933173Y-59168815D01*
X102753990Y-58736228D01*
X102493856Y-58346911D01*
X102162769Y-58015824D01*
X101773452Y-57755690D01*
X101340865Y-57576507D01*
X100881634Y-57485160D01*
X100413406Y-57485160D01*
X99954175Y-57576507D01*
X99521588Y-57755690D01*
X99132271Y-58015824D01*
X98937775Y-58210320D01*
X93468150Y-58210320D01*
X93677239Y-58001231D01*
X93888125Y-57685617D01*
X94033387Y-57334925D01*
X94107440Y-56962633D01*
X94107440Y-56583047D01*
X94033387Y-56210755D01*
X93888125Y-55860063D01*
X93677239Y-55544449D01*
X93408831Y-55276041D01*
X93093217Y-55065155D01*
X92742525Y-54919893D01*
X92370233Y-54845840D01*
X91990647Y-54845840D01*
X91618355Y-54919893D01*
X91267663Y-55065155D01*
X90952049Y-55276041D01*
X90910440Y-55317650D01*
X90868831Y-55276041D01*
X90553217Y-55065155D01*
X90202525Y-54919893D01*
X89830233Y-54845840D01*
X89450647Y-54845840D01*
X89078355Y-54919893D01*
X88727663Y-55065155D01*
X88412049Y-55276041D01*
X88370440Y-55317650D01*
X88328831Y-55276041D01*
X88013217Y-55065155D01*
X87662525Y-54919893D01*
X87290233Y-54845840D01*
X86910647Y-54845840D01*
X86538355Y-54919893D01*
X86187663Y-55065155D01*
X85872049Y-55276041D01*
X85830440Y-55317650D01*
X85788831Y-55276041D01*
X85473217Y-55065155D01*
X85122525Y-54919893D01*
X84750233Y-54845840D01*
X84370647Y-54845840D01*
X83998355Y-54919893D01*
X83647663Y-55065155D01*
X83647440Y-55065304D01*
X83647440Y-51427225D01*
X84401180Y-52180965D01*
X84452131Y-52243049D01*
X84699874Y-52446366D01*
X84982522Y-52597445D01*
X85289212Y-52690478D01*
X85520499Y-52713258D01*
X85608160Y-52721892D01*
X85688085Y-52714020D01*
X99342746Y-52714020D01*
X99422660Y-52721891D01*
X99502574Y-52714020D01*
X99502585Y-52714020D01*
X99659500Y-52698565D01*
X99521588Y-52755690D01*
X99132271Y-53015824D01*
X98801184Y-53346911D01*
X98541050Y-53736228D01*
X98361867Y-54168815D01*
X98270520Y-54628046D01*
X98270520Y-55096274D01*
X98361867Y-55555505D01*
X98541050Y-55988092D01*
X98801184Y-56377409D01*
X99132271Y-56708496D01*
X99521588Y-56968630D01*
X99954175Y-57147813D01*
X100413406Y-57239160D01*
X100881634Y-57239160D01*
X101340865Y-57147813D01*
X101773452Y-56968630D01*
X102162769Y-56708496D01*
X102493856Y-56377409D01*
X102753990Y-55988092D01*
X102933173Y-55555505D01*
X103024520Y-55096274D01*
X103024520Y-54628046D01*
X102933173Y-54168815D01*
X102753990Y-53736228D01*
X102493856Y-53346911D01*
X102162769Y-53015824D01*
X101773452Y-52755690D01*
X101340865Y-52576507D01*
X100881634Y-52485160D01*
X100413406Y-52485160D01*
X100166475Y-52534278D01*
X100330946Y-52446366D01*
X100578689Y-52243049D01*
X100581881Y-52239160D01*
X100881634Y-52239160D01*
X101340865Y-52147813D01*
X101773452Y-51968630D01*
X102162769Y-51708496D01*
X102493856Y-51377409D01*
X102753990Y-50988092D01*
X102933173Y-50555505D01*
X103024520Y-50096274D01*
X103024520Y-49628046D01*
X102933173Y-49168815D01*
X102753990Y-48736228D01*
X102493856Y-48346911D01*
X102162769Y-48015824D01*
X101773452Y-47755690D01*
X101340865Y-47576507D01*
X100881634Y-47485160D01*
X100413406Y-47485160D01*
X99954175Y-47576507D01*
X99521588Y-47755690D01*
X99132271Y-48015824D01*
X98801184Y-48346911D01*
X98541050Y-48736228D01*
X98361867Y-49168815D01*
X98303943Y-49460020D01*
X94112893Y-49460020D01*
X94112893Y-48352840D01*
X94091133Y-48131909D01*
X94026690Y-47919469D01*
X93922040Y-47723683D01*
X93781205Y-47552075D01*
X93609597Y-47411240D01*
X93413811Y-47306590D01*
X93201371Y-47242147D01*
X92980440Y-47220387D01*
X91380440Y-47220387D01*
X91159509Y-47242147D01*
X90947069Y-47306590D01*
X90751283Y-47411240D01*
X90639615Y-47502884D01*
X90553217Y-47445155D01*
X90202525Y-47299893D01*
X89830233Y-47225840D01*
X89450647Y-47225840D01*
X89078355Y-47299893D01*
X88727663Y-47445155D01*
X88727440Y-47445304D01*
X88727440Y-46019245D01*
X90118639Y-44628046D01*
X98270520Y-44628046D01*
X98270520Y-45096274D01*
X98361867Y-45555505D01*
X98541050Y-45988092D01*
X98801184Y-46377409D01*
X99132271Y-46708496D01*
X99521588Y-46968630D01*
X99954175Y-47147813D01*
X100413406Y-47239160D01*
X100881634Y-47239160D01*
X101340865Y-47147813D01*
X101773452Y-46968630D01*
X102162769Y-46708496D01*
X102493856Y-46377409D01*
X102753990Y-45988092D01*
X102933173Y-45555505D01*
X103024520Y-45096274D01*
X103024520Y-44628046D01*
X102933173Y-44168815D01*
X102753990Y-43736228D01*
X102493856Y-43346911D01*
X102162769Y-43015824D01*
X101773452Y-42755690D01*
X101340865Y-42576507D01*
X100881634Y-42485160D01*
X100413406Y-42485160D01*
X99954175Y-42576507D01*
X99521588Y-42755690D01*
X99132271Y-43015824D01*
X98801184Y-43346911D01*
X98541050Y-43736228D01*
X98361867Y-44168815D01*
X98270520Y-44628046D01*
X90118639Y-44628046D01*
X93257526Y-41489160D01*
X98582269Y-41489160D01*
X98779813Y-41729867D01*
X99046131Y-41948429D01*
X99349972Y-42110835D01*
X99679658Y-42210844D01*
X100022520Y-42244613D01*
X101272520Y-42244613D01*
X101615382Y-42210844D01*
X101945068Y-42110835D01*
X102248909Y-41948429D01*
X102515227Y-41729867D01*
X102733789Y-41463549D01*
X102896195Y-41159708D01*
X102996204Y-40830022D01*
X103029973Y-40487160D01*
X103029973Y-39237160D01*
X102996204Y-38894298D01*
X102896195Y-38564612D01*
X102733789Y-38260771D01*
X102515227Y-37994453D01*
X102248909Y-37775891D01*
X101945068Y-37613485D01*
X101615382Y-37513476D01*
X101272520Y-37479707D01*
X100022520Y-37479707D01*
X99679658Y-37513476D01*
X99349972Y-37613485D01*
X99046131Y-37775891D01*
X98779813Y-37994453D01*
X98582269Y-38235160D01*
X92663514Y-38235160D01*
X92583599Y-38227289D01*
X92503685Y-38235160D01*
X92503675Y-38235160D01*
X92264652Y-38258702D01*
X91957962Y-38351735D01*
X91957960Y-38351736D01*
X91675314Y-38502814D01*
X91489652Y-38655182D01*
X91489649Y-38655185D01*
X91427571Y-38706131D01*
X91376625Y-38768209D01*
X86006490Y-44138345D01*
X85944412Y-44189291D01*
X85893466Y-44251369D01*
X85893462Y-44251373D01*
X85741094Y-44437035D01*
X85627955Y-44648703D01*
X85590016Y-44719682D01*
X85517856Y-44957565D01*
X85496983Y-45026373D01*
X85465569Y-45345320D01*
X85473441Y-45425244D01*
X85473440Y-47445304D01*
X85473217Y-47445155D01*
X85122525Y-47299893D01*
X84750233Y-47225840D01*
X84370647Y-47225840D01*
X83998355Y-47299893D01*
X83647663Y-47445155D01*
X83526909Y-47525840D01*
X83053971Y-47525840D01*
X82933217Y-47445155D01*
X82582525Y-47299893D01*
X82210233Y-47225840D01*
X81830647Y-47225840D01*
X81458355Y-47299893D01*
X81107663Y-47445155D01*
X80792049Y-47656041D01*
X80750440Y-47697650D01*
X80708831Y-47656041D01*
X80393217Y-47445155D01*
X80042525Y-47299893D01*
X79670233Y-47225840D01*
X79290647Y-47225840D01*
X78918355Y-47299893D01*
X78567663Y-47445155D01*
X78252049Y-47656041D01*
X78210440Y-47697650D01*
X78168831Y-47656041D01*
X77853217Y-47445155D01*
X77502525Y-47299893D01*
X77130233Y-47225840D01*
X76750647Y-47225840D01*
X76675297Y-47240828D01*
X78977046Y-44939080D01*
X82038286Y-44939080D01*
X82118200Y-44946951D01*
X82198114Y-44939080D01*
X82198125Y-44939080D01*
X82437148Y-44915538D01*
X82743838Y-44822505D01*
X83026486Y-44671426D01*
X83274229Y-44468109D01*
X83325180Y-44406025D01*
X86289387Y-41441818D01*
X86351469Y-41390869D01*
X86554786Y-41143126D01*
X86705865Y-40860478D01*
X86798898Y-40553788D01*
X86822440Y-40314765D01*
X86822440Y-40314764D01*
X86830312Y-40234840D01*
X86822440Y-40154915D01*
X86822440Y-34229200D01*
X87332886Y-34229200D01*
X87412800Y-34237071D01*
X87492714Y-34229200D01*
X87492725Y-34229200D01*
X87731748Y-34205658D01*
X88038438Y-34112625D01*
X88321086Y-33961546D01*
X88568829Y-33758229D01*
X88619779Y-33696146D01*
X90472938Y-31842988D01*
X90673879Y-31782033D01*
X91059407Y-31575965D01*
X91397324Y-31298644D01*
X91674645Y-30960727D01*
X91880713Y-30575200D01*
X92007609Y-30156879D01*
X92039720Y-29830854D01*
X92039720Y-28902640D01*
X93801320Y-28902640D01*
X93801320Y-29994840D01*
X93893378Y-30383521D01*
X94059495Y-30746774D01*
X94293287Y-31070639D01*
X94585770Y-31342671D01*
X94925704Y-31552415D01*
X95237909Y-31655162D01*
X95547520Y-31488319D01*
X95547520Y-28902640D01*
X96093520Y-28902640D01*
X96093520Y-31488319D01*
X96403131Y-31655162D01*
X96715336Y-31552415D01*
X97055270Y-31342671D01*
X97347753Y-31070639D01*
X97581545Y-30746774D01*
X97747662Y-30383521D01*
X97839720Y-29994840D01*
X97839720Y-28902640D01*
X96093520Y-28902640D01*
X95547520Y-28902640D01*
X93801320Y-28902640D01*
X92039720Y-28902640D01*
X92039720Y-27428426D01*
X92023569Y-27264440D01*
X93801320Y-27264440D01*
X93801320Y-28356640D01*
X95547520Y-28356640D01*
X95547520Y-25770961D01*
X96093520Y-25770961D01*
X96093520Y-28356640D01*
X97839720Y-28356640D01*
X97839720Y-27264440D01*
X97747662Y-26875759D01*
X97581545Y-26512506D01*
X97347753Y-26188641D01*
X97055270Y-25916609D01*
X96715336Y-25706865D01*
X96403131Y-25604118D01*
X96093520Y-25770961D01*
X95547520Y-25770961D01*
X95237909Y-25604118D01*
X94925704Y-25706865D01*
X94585770Y-25916609D01*
X94293287Y-26188641D01*
X94059495Y-26512506D01*
X93893378Y-26875759D01*
X93801320Y-27264440D01*
X92023569Y-27264440D01*
X92007609Y-27102401D01*
X91880713Y-26684080D01*
X91674645Y-26298553D01*
X91397324Y-25960636D01*
X91182309Y-25784178D01*
X91455320Y-25848840D01*
X92547520Y-25848840D01*
X92547520Y-24102640D01*
X93093520Y-24102640D01*
X93093520Y-25848840D01*
X94185720Y-25848840D01*
X94574401Y-25756782D01*
X94937654Y-25590665D01*
X95261519Y-25356873D01*
X95533551Y-25064390D01*
X95743295Y-24724456D01*
X95846042Y-24412251D01*
X95679199Y-24102640D01*
X93093520Y-24102640D01*
X92547520Y-24102640D01*
X89961841Y-24102640D01*
X89794998Y-24412251D01*
X89897745Y-24724456D01*
X90107489Y-25064390D01*
X90379521Y-25356873D01*
X90453783Y-25410482D01*
X90255559Y-25350351D01*
X89820520Y-25307503D01*
X89385482Y-25350351D01*
X88967161Y-25477247D01*
X88581634Y-25683315D01*
X88243717Y-25960636D01*
X87966396Y-26298553D01*
X87760328Y-26684080D01*
X87633431Y-27102401D01*
X87601320Y-27428426D01*
X87601320Y-29830853D01*
X87626596Y-30087479D01*
X86914398Y-30799676D01*
X86925567Y-30736810D01*
X86918584Y-30396692D01*
X86845382Y-30064472D01*
X86742356Y-29815746D01*
X86434019Y-29749701D01*
X85581520Y-30602200D01*
X85595663Y-30616343D01*
X85542258Y-30669747D01*
X84848622Y-30669747D01*
X84795218Y-30616343D01*
X84809360Y-30602200D01*
X83956861Y-29749701D01*
X83648524Y-29815746D01*
X83524818Y-30132646D01*
X83505405Y-30241920D01*
X83375970Y-30112485D01*
X83325028Y-30050412D01*
X83262954Y-29999469D01*
X83262947Y-29999462D01*
X83077285Y-29847094D01*
X82794638Y-29696016D01*
X82524234Y-29613990D01*
X82449605Y-29523055D01*
X82406257Y-29487480D01*
X82460045Y-29363621D01*
X84342941Y-29363621D01*
X85195440Y-30216120D01*
X86047939Y-29363621D01*
X85981894Y-29055284D01*
X85664994Y-28931578D01*
X85330050Y-28872073D01*
X84989932Y-28879056D01*
X84657712Y-28952258D01*
X84408986Y-29055284D01*
X84342941Y-29363621D01*
X82460045Y-29363621D01*
X82482670Y-29311522D01*
X82490306Y-29296859D01*
X82321317Y-29009320D01*
X80921840Y-29009320D01*
X80921840Y-29029320D01*
X80375840Y-29029320D01*
X80375840Y-29009320D01*
X78976363Y-29009320D01*
X78807374Y-29296859D01*
X78815010Y-29311522D01*
X78891423Y-29487480D01*
X78848075Y-29523055D01*
X78707240Y-29694663D01*
X78602590Y-29890449D01*
X78538147Y-30102889D01*
X78516387Y-30323820D01*
X78516387Y-32228820D01*
X78538147Y-32449751D01*
X78602590Y-32662191D01*
X78707240Y-32857977D01*
X78848075Y-33029585D01*
X79019683Y-33170420D01*
X79215469Y-33275070D01*
X79427909Y-33339513D01*
X79648840Y-33361273D01*
X81648840Y-33361273D01*
X81869771Y-33339513D01*
X81970570Y-33308936D01*
X82318385Y-33656751D01*
X82369331Y-33718829D01*
X82431409Y-33769775D01*
X82431412Y-33769778D01*
X82556753Y-33872642D01*
X82617074Y-33922146D01*
X82899722Y-34073225D01*
X83206412Y-34166258D01*
X83525360Y-34197672D01*
X83568441Y-34193429D01*
X83568440Y-39560915D01*
X82461532Y-40667823D01*
X82427945Y-40498970D01*
X82278915Y-40139179D01*
X82062556Y-39815376D01*
X81787184Y-39540004D01*
X81463381Y-39323645D01*
X81103590Y-39174615D01*
X80721638Y-39098640D01*
X80332202Y-39098640D01*
X79950250Y-39174615D01*
X79590459Y-39323645D01*
X79266656Y-39540004D01*
X79107481Y-39699179D01*
X79091014Y-39683256D01*
X78798159Y-39494612D01*
X78531243Y-39384061D01*
X78259920Y-39554697D01*
X78259920Y-40802640D01*
X78279920Y-40802640D01*
X78279920Y-41348640D01*
X78259920Y-41348640D01*
X78259920Y-41368640D01*
X77713920Y-41368640D01*
X77713920Y-41348640D01*
X77693920Y-41348640D01*
X77693920Y-40802640D01*
X77713920Y-40802640D01*
X77713920Y-39554697D01*
X77442597Y-39384061D01*
X77175681Y-39494612D01*
X76882826Y-39683256D01*
X76866359Y-39699179D01*
X76819482Y-39652302D01*
X76803995Y-39495060D01*
X76725762Y-39237160D01*
X76725257Y-39235495D01*
X76597393Y-38996279D01*
X76540541Y-38927005D01*
X76468435Y-38839142D01*
X76468428Y-38839135D01*
X76425316Y-38786603D01*
X76372785Y-38743492D01*
X73017821Y-35388530D01*
X72974697Y-35335983D01*
X72765021Y-35163907D01*
X72525805Y-35036043D01*
X72266239Y-34957305D01*
X72063940Y-34937380D01*
X71996300Y-34930718D01*
X71928660Y-34937380D01*
X54974820Y-34937380D01*
X54907180Y-34930718D01*
X54637240Y-34957305D01*
X54507458Y-34996674D01*
X54377675Y-35036043D01*
X54138459Y-35163907D01*
X53928783Y-35335983D01*
X53885663Y-35388525D01*
X50323726Y-38950463D01*
X50271184Y-38993583D01*
X50189277Y-39093387D01*
X50099108Y-39203259D01*
X49971243Y-39442476D01*
X49892505Y-39702041D01*
X49865918Y-39971980D01*
X49872581Y-40039630D01*
X49872581Y-46048808D01*
X49846601Y-46027487D01*
X49607385Y-45899623D01*
X49347819Y-45820885D01*
X49145520Y-45800960D01*
X49077880Y-45794298D01*
X49010240Y-45800960D01*
X43082842Y-45800960D01*
X43058788Y-45556731D01*
X42950773Y-45200653D01*
X42775366Y-44872490D01*
X42598551Y-44657040D01*
X42775366Y-44441590D01*
X42950773Y-44113427D01*
X43058788Y-43757349D01*
X43095260Y-43387040D01*
X43058788Y-43016731D01*
X42950773Y-42660653D01*
X42775366Y-42332490D01*
X42598551Y-42117040D01*
X42775366Y-41901590D01*
X42950773Y-41573427D01*
X43058788Y-41217349D01*
X43095260Y-40847040D01*
X43058788Y-40476731D01*
X42950773Y-40120653D01*
X42775366Y-39792490D01*
X42539308Y-39504852D01*
X42251670Y-39268794D01*
X41923507Y-39093387D01*
X41567429Y-38985372D01*
X41289921Y-38958040D01*
X40104319Y-38958040D01*
X39826811Y-38985372D01*
X39470733Y-39093387D01*
X39142570Y-39268794D01*
X38854932Y-39504852D01*
X38618874Y-39792490D01*
X38443467Y-40120653D01*
X38335452Y-40476731D01*
X38298980Y-40847040D01*
X38335452Y-41217349D01*
X38443467Y-41573427D01*
X38618874Y-41901590D01*
X38795689Y-42117040D01*
X38618874Y-42332490D01*
X38443467Y-42660653D01*
X38335452Y-43016731D01*
X38298980Y-43387040D01*
X38335452Y-43757349D01*
X38443467Y-44113427D01*
X38618874Y-44441590D01*
X38707876Y-44550040D01*
X27446364Y-44550040D01*
X27535366Y-44441590D01*
X27710773Y-44113427D01*
X27818788Y-43757349D01*
X27855260Y-43387040D01*
X27818788Y-43016731D01*
X27710773Y-42660653D01*
X27535366Y-42332490D01*
X27358551Y-42117040D01*
X27535366Y-41901590D01*
X27710773Y-41573427D01*
X27818788Y-41217349D01*
X27855260Y-40847040D01*
X27818788Y-40476731D01*
X27710773Y-40120653D01*
X27535366Y-39792490D01*
X27299308Y-39504852D01*
X27011670Y-39268794D01*
X26683507Y-39093387D01*
X26327429Y-38985372D01*
X26049921Y-38958040D01*
X24864319Y-38958040D01*
X24586811Y-38985372D01*
X24230733Y-39093387D01*
X23902570Y-39268794D01*
X23614932Y-39504852D01*
X23378874Y-39792490D01*
X23203467Y-40120653D01*
X23095452Y-40476731D01*
X23058980Y-40847040D01*
X23095452Y-41217349D01*
X23203467Y-41573427D01*
X23378874Y-41901590D01*
X23555689Y-42117040D01*
X23378874Y-42332490D01*
X23203467Y-42660653D01*
X23095452Y-43016731D01*
X23058980Y-43387040D01*
X23095452Y-43757349D01*
X23203467Y-44113427D01*
X23378874Y-44441590D01*
X23510585Y-44602080D01*
X17695240Y-44602080D01*
X17627600Y-44595418D01*
X17357660Y-44622005D01*
X17227878Y-44661374D01*
X17098095Y-44700743D01*
X16858879Y-44828607D01*
X16765153Y-44905526D01*
X16701742Y-44957565D01*
X16701739Y-44957568D01*
X16649203Y-45000683D01*
X16606087Y-45053220D01*
X16152000Y-45507308D01*
X16152000Y-33060600D01*
X19666027Y-33060600D01*
X19666027Y-35040600D01*
X19692783Y-35312254D01*
X19772021Y-35573469D01*
X19900698Y-35814205D01*
X20073867Y-36025213D01*
X20284875Y-36198382D01*
X20525611Y-36327059D01*
X20786826Y-36406297D01*
X21058480Y-36433053D01*
X23038480Y-36433053D01*
X23310134Y-36406297D01*
X23571349Y-36327059D01*
X23812085Y-36198382D01*
X23901160Y-36125280D01*
X32192815Y-36125280D01*
X32356791Y-36289256D01*
X32746108Y-36549390D01*
X33178695Y-36728573D01*
X33637926Y-36819920D01*
X34106154Y-36819920D01*
X34565385Y-36728573D01*
X34997972Y-36549390D01*
X35387289Y-36289256D01*
X35718376Y-35958169D01*
X35978510Y-35568852D01*
X36157693Y-35136265D01*
X36249040Y-34677034D01*
X36249040Y-34208806D01*
X43695040Y-34208806D01*
X43695040Y-34677034D01*
X43786387Y-35136265D01*
X43965570Y-35568852D01*
X44225704Y-35958169D01*
X44556791Y-36289256D01*
X44946108Y-36549390D01*
X45378695Y-36728573D01*
X45837926Y-36819920D01*
X46306154Y-36819920D01*
X46765385Y-36728573D01*
X47197972Y-36549390D01*
X47587289Y-36289256D01*
X47918376Y-35958169D01*
X48178510Y-35568852D01*
X48357693Y-35136265D01*
X48449040Y-34677034D01*
X48449040Y-34208806D01*
X48357693Y-33749575D01*
X48178510Y-33316988D01*
X47918376Y-32927671D01*
X47587289Y-32596584D01*
X47197972Y-32336450D01*
X46765385Y-32157267D01*
X46306154Y-32065920D01*
X45837926Y-32065920D01*
X45378695Y-32157267D01*
X44946108Y-32336450D01*
X44556791Y-32596584D01*
X44225704Y-32927671D01*
X43965570Y-33316988D01*
X43786387Y-33749575D01*
X43695040Y-34208806D01*
X36249040Y-34208806D01*
X36157693Y-33749575D01*
X35978510Y-33316988D01*
X35718376Y-32927671D01*
X35387289Y-32596584D01*
X34997972Y-32336450D01*
X34565385Y-32157267D01*
X34106154Y-32065920D01*
X33637926Y-32065920D01*
X33178695Y-32157267D01*
X32746108Y-32336450D01*
X32356791Y-32596584D01*
X32082095Y-32871280D01*
X24412286Y-32871280D01*
X24404177Y-32788946D01*
X24324939Y-32527731D01*
X24196262Y-32286995D01*
X24023093Y-32075987D01*
X23812085Y-31902818D01*
X23571349Y-31774141D01*
X23310134Y-31694903D01*
X23038480Y-31668147D01*
X21058480Y-31668147D01*
X20786826Y-31694903D01*
X20525611Y-31774141D01*
X20284875Y-31902818D01*
X20073867Y-32075987D01*
X19900698Y-32286995D01*
X19772021Y-32527731D01*
X19692783Y-32788946D01*
X19666027Y-33060600D01*
X16152000Y-33060600D01*
X16152000Y-28811561D01*
X19621480Y-28811561D01*
X19621480Y-29289639D01*
X19714748Y-29758530D01*
X19897701Y-30200215D01*
X20163306Y-30597722D01*
X20501358Y-30935774D01*
X20898865Y-31201379D01*
X21340550Y-31384332D01*
X21809441Y-31477600D01*
X22287519Y-31477600D01*
X22756410Y-31384332D01*
X23198095Y-31201379D01*
X23595602Y-30935774D01*
X23933654Y-30597722D01*
X24018166Y-30471240D01*
X46002855Y-30471240D01*
X46021275Y-30493685D01*
X46192883Y-30634520D01*
X46388669Y-30739170D01*
X46601109Y-30803613D01*
X46822040Y-30825373D01*
X49322040Y-30825373D01*
X49542971Y-30803613D01*
X49755411Y-30739170D01*
X49951197Y-30634520D01*
X50122805Y-30493685D01*
X50263640Y-30322077D01*
X50368290Y-30126291D01*
X50432733Y-29913851D01*
X50454493Y-29692920D01*
X50454493Y-27192920D01*
X50448521Y-27132280D01*
X53161887Y-27132280D01*
X53193783Y-27456129D01*
X53220353Y-27543719D01*
X53186187Y-27656349D01*
X53164427Y-27877280D01*
X53164427Y-28927280D01*
X53186187Y-29148211D01*
X53250630Y-29360651D01*
X53355280Y-29556437D01*
X53496115Y-29728045D01*
X53667723Y-29868880D01*
X53863509Y-29973530D01*
X54075949Y-30037973D01*
X54296880Y-30059733D01*
X55796880Y-30059733D01*
X56017811Y-30037973D01*
X56230251Y-29973530D01*
X56426037Y-29868880D01*
X56597645Y-29728045D01*
X56738480Y-29556437D01*
X56843130Y-29360651D01*
X56907573Y-29148211D01*
X56929333Y-28927280D01*
X56929333Y-28452960D01*
X61111840Y-28452960D01*
X61111840Y-29019680D01*
X61222401Y-29575510D01*
X61439275Y-30099091D01*
X61754128Y-30570301D01*
X62154859Y-30971032D01*
X62626069Y-31285885D01*
X63149650Y-31502759D01*
X63705480Y-31613320D01*
X64272200Y-31613320D01*
X64828030Y-31502759D01*
X65351611Y-31285885D01*
X65822821Y-30971032D01*
X66223552Y-30570301D01*
X66538405Y-30099091D01*
X66755279Y-29575510D01*
X66865840Y-29019680D01*
X66865840Y-28452960D01*
X66755279Y-27897130D01*
X66538405Y-27373549D01*
X66223552Y-26902339D01*
X65822821Y-26501608D01*
X65365927Y-26196320D01*
X78511779Y-26196320D01*
X78551929Y-26603973D01*
X78670837Y-26995960D01*
X78863934Y-27357218D01*
X79092124Y-27635269D01*
X78961550Y-27823675D01*
X78815010Y-28161118D01*
X78807374Y-28175781D01*
X78976363Y-28463320D01*
X80375840Y-28463320D01*
X80375840Y-28443320D01*
X80921840Y-28443320D01*
X80921840Y-28463320D01*
X82321317Y-28463320D01*
X82490306Y-28175781D01*
X82482670Y-28161118D01*
X82433573Y-28048059D01*
X84276901Y-28048059D01*
X84342946Y-28356396D01*
X84659846Y-28480102D01*
X84994790Y-28539607D01*
X85334908Y-28532624D01*
X85667128Y-28459422D01*
X85915854Y-28356396D01*
X85981899Y-28048059D01*
X85129400Y-27195560D01*
X84276901Y-28048059D01*
X82433573Y-28048059D01*
X82336130Y-27823675D01*
X82205556Y-27635269D01*
X82433746Y-27357218D01*
X82626843Y-26995960D01*
X82745751Y-26603973D01*
X82763626Y-26422480D01*
X83444112Y-26422480D01*
X83399273Y-26674870D01*
X83406256Y-27014988D01*
X83479458Y-27347208D01*
X83582484Y-27595934D01*
X83890821Y-27661979D01*
X84743320Y-26809480D01*
X84729178Y-26795338D01*
X84782582Y-26741933D01*
X85476218Y-26741933D01*
X85529623Y-26795338D01*
X85515480Y-26809480D01*
X86367979Y-27661979D01*
X86676316Y-27595934D01*
X86800022Y-27279034D01*
X86859527Y-26944090D01*
X86852544Y-26603972D01*
X86792990Y-26333692D01*
X86871000Y-26238637D01*
X86975650Y-26042851D01*
X87040093Y-25830411D01*
X87061853Y-25609480D01*
X87061853Y-24009480D01*
X87040093Y-23788549D01*
X86975650Y-23576109D01*
X86871000Y-23380323D01*
X86761609Y-23247029D01*
X89794998Y-23247029D01*
X89961841Y-23556640D01*
X92547520Y-23556640D01*
X92547520Y-21810440D01*
X93093520Y-21810440D01*
X93093520Y-23556640D01*
X95679199Y-23556640D01*
X95846042Y-23247029D01*
X95743295Y-22934824D01*
X95533551Y-22594890D01*
X95261519Y-22302407D01*
X94937654Y-22068615D01*
X94574401Y-21902498D01*
X94185720Y-21810440D01*
X93093520Y-21810440D01*
X92547520Y-21810440D01*
X91455320Y-21810440D01*
X91066639Y-21902498D01*
X90703386Y-22068615D01*
X90379521Y-22302407D01*
X90107489Y-22594890D01*
X89897745Y-22934824D01*
X89794998Y-23247029D01*
X86761609Y-23247029D01*
X86730165Y-23208715D01*
X86558557Y-23067880D01*
X86362771Y-22963230D01*
X86150331Y-22898787D01*
X85929400Y-22877027D01*
X84329400Y-22877027D01*
X84108469Y-22898787D01*
X83896029Y-22963230D01*
X83700243Y-23067880D01*
X83577662Y-23168480D01*
X82132077Y-23168480D01*
X82052160Y-23160609D01*
X81972243Y-23168480D01*
X81972235Y-23168480D01*
X81733212Y-23192022D01*
X81426522Y-23285055D01*
X81302763Y-23351206D01*
X81143874Y-23436134D01*
X80958212Y-23588502D01*
X80958209Y-23588505D01*
X80896131Y-23639451D01*
X80845185Y-23701529D01*
X80422324Y-24124390D01*
X80193687Y-24146909D01*
X79801700Y-24265817D01*
X79440442Y-24458914D01*
X79123797Y-24718777D01*
X78863934Y-25035422D01*
X78670837Y-25396680D01*
X78551929Y-25788667D01*
X78511779Y-26196320D01*
X65365927Y-26196320D01*
X65351611Y-26186755D01*
X64828030Y-25969881D01*
X64272200Y-25859320D01*
X63705480Y-25859320D01*
X63149650Y-25969881D01*
X62626069Y-26186755D01*
X62154859Y-26501608D01*
X61754128Y-26902339D01*
X61439275Y-27373549D01*
X61222401Y-27897130D01*
X61111840Y-28452960D01*
X56929333Y-28452960D01*
X56929333Y-27877280D01*
X56907573Y-27656349D01*
X56873407Y-27543719D01*
X56899977Y-27456129D01*
X56931873Y-27132280D01*
X56899977Y-26808431D01*
X56805514Y-26497028D01*
X56652114Y-26210037D01*
X56445672Y-25958488D01*
X56194123Y-25752046D01*
X55907132Y-25598646D01*
X55876256Y-25589280D01*
X56461200Y-25589280D01*
X56637721Y-25369549D01*
X56606496Y-25299868D01*
X56471131Y-25050304D01*
X56289679Y-24831944D01*
X56069114Y-24653179D01*
X55817911Y-24520879D01*
X55545725Y-24440128D01*
X55319880Y-24646548D01*
X55319880Y-25480280D01*
X54773880Y-25480280D01*
X54773880Y-24646548D01*
X54548035Y-24440128D01*
X54275849Y-24520879D01*
X54024646Y-24653179D01*
X53804081Y-24831944D01*
X53622629Y-25050304D01*
X53487264Y-25299868D01*
X53456039Y-25369549D01*
X53632560Y-25589280D01*
X54217504Y-25589280D01*
X54186628Y-25598646D01*
X53899637Y-25752046D01*
X53648088Y-25958488D01*
X53441646Y-26210037D01*
X53288246Y-26497028D01*
X53193783Y-26808431D01*
X53161887Y-27132280D01*
X50448521Y-27132280D01*
X50432733Y-26971989D01*
X50368290Y-26759549D01*
X50263640Y-26563763D01*
X50122805Y-26392155D01*
X49951197Y-26251320D01*
X49755411Y-26146670D01*
X49542971Y-26082227D01*
X49322040Y-26060467D01*
X46822040Y-26060467D01*
X46601109Y-26082227D01*
X46388669Y-26146670D01*
X46192883Y-26251320D01*
X46021275Y-26392155D01*
X45880440Y-26563763D01*
X45775790Y-26759549D01*
X45711347Y-26971989D01*
X45689587Y-27192920D01*
X45689587Y-27217240D01*
X23647416Y-27217240D01*
X23595602Y-27165426D01*
X23198095Y-26899821D01*
X22756410Y-26716868D01*
X22287519Y-26623600D01*
X21809441Y-26623600D01*
X21340550Y-26716868D01*
X20898865Y-26899821D01*
X20501358Y-27165426D01*
X20163306Y-27503478D01*
X19897701Y-27900985D01*
X19714748Y-28342670D01*
X19621480Y-28811561D01*
X16152000Y-28811561D01*
X16152000Y-23811561D01*
X19621480Y-23811561D01*
X19621480Y-24289639D01*
X19714748Y-24758530D01*
X19897701Y-25200215D01*
X20163306Y-25597722D01*
X20501358Y-25935774D01*
X20898865Y-26201379D01*
X21340550Y-26384332D01*
X21809441Y-26477600D01*
X22287519Y-26477600D01*
X22756410Y-26384332D01*
X23198095Y-26201379D01*
X23595602Y-25935774D01*
X23933654Y-25597722D01*
X24199259Y-25200215D01*
X24382212Y-24758530D01*
X24475480Y-24289639D01*
X24475480Y-24069920D01*
X32137455Y-24069920D01*
X32356791Y-24289256D01*
X32746108Y-24549390D01*
X33178695Y-24728573D01*
X33637926Y-24819920D01*
X34106154Y-24819920D01*
X34565385Y-24728573D01*
X34997972Y-24549390D01*
X35387289Y-24289256D01*
X35718376Y-23958169D01*
X35978510Y-23568852D01*
X36157693Y-23136265D01*
X36249040Y-22677034D01*
X36249040Y-22208806D01*
X43695040Y-22208806D01*
X43695040Y-22677034D01*
X43786387Y-23136265D01*
X43965570Y-23568852D01*
X44225704Y-23958169D01*
X44556791Y-24289256D01*
X44946108Y-24549390D01*
X45378695Y-24728573D01*
X45837926Y-24819920D01*
X46306154Y-24819920D01*
X46765385Y-24728573D01*
X47197972Y-24549390D01*
X47587289Y-24289256D01*
X47918376Y-23958169D01*
X48178510Y-23568852D01*
X48357693Y-23136265D01*
X48449040Y-22677034D01*
X48449040Y-22208806D01*
X48357693Y-21749575D01*
X48178510Y-21316988D01*
X47918376Y-20927671D01*
X47587289Y-20596584D01*
X47197972Y-20336450D01*
X46765385Y-20157267D01*
X46306154Y-20065920D01*
X45837926Y-20065920D01*
X45378695Y-20157267D01*
X44946108Y-20336450D01*
X44556791Y-20596584D01*
X44225704Y-20927671D01*
X43965570Y-21316988D01*
X43786387Y-21749575D01*
X43695040Y-22208806D01*
X36249040Y-22208806D01*
X36157693Y-21749575D01*
X35978510Y-21316988D01*
X35718376Y-20927671D01*
X35387289Y-20596584D01*
X34997972Y-20336450D01*
X34565385Y-20157267D01*
X34106154Y-20065920D01*
X33637926Y-20065920D01*
X33178695Y-20157267D01*
X32746108Y-20336450D01*
X32356791Y-20596584D01*
X32137455Y-20815920D01*
X23736077Y-20815920D01*
X23656160Y-20808049D01*
X23576243Y-20815920D01*
X23576235Y-20815920D01*
X23337212Y-20839462D01*
X23030522Y-20932495D01*
X22747874Y-21083574D01*
X22562212Y-21235942D01*
X22562209Y-21235945D01*
X22500131Y-21286891D01*
X22449185Y-21348969D01*
X22174554Y-21623600D01*
X21809441Y-21623600D01*
X21340550Y-21716868D01*
X20898865Y-21899821D01*
X20501358Y-22165426D01*
X20163306Y-22503478D01*
X19897701Y-22900985D01*
X19714748Y-23342670D01*
X19621480Y-23811561D01*
X16152000Y-23811561D01*
X16152000Y-16152000D01*
X108848001Y-16152000D01*
X108848000Y-108848029D01*
G36*
X54381080Y-59583799D02*
G01*
X54279601Y-59828790D01*
X54220920Y-60123804D01*
X54220920Y-60424596D01*
X54279601Y-60719610D01*
X54394710Y-60997506D01*
X54561821Y-61247606D01*
X54774514Y-61460299D01*
X55024614Y-61627410D01*
X55302510Y-61742519D01*
X55597524Y-61801200D01*
X55898316Y-61801200D01*
X55945720Y-61791771D01*
X55945721Y-87382010D01*
X55939058Y-87449660D01*
X55965645Y-87719599D01*
X56044383Y-87979164D01*
X56116340Y-88113785D01*
X56172248Y-88218381D01*
X56344324Y-88428057D01*
X56396865Y-88471176D01*
X58146543Y-90220855D01*
X58189663Y-90273397D01*
X58399339Y-90445473D01*
X58586758Y-90545651D01*
X58638555Y-90573337D01*
X58898120Y-90652075D01*
X59168060Y-90678662D01*
X59235700Y-90672000D01*
X66779188Y-90672000D01*
X66611995Y-90922223D01*
X66466733Y-91272915D01*
X66392680Y-91645207D01*
X66392680Y-92024793D01*
X66466733Y-92397085D01*
X66611995Y-92747777D01*
X66822881Y-93063391D01*
X66864490Y-93105000D01*
X66822881Y-93146609D01*
X66611995Y-93462223D01*
X66466733Y-93812915D01*
X66392680Y-94185207D01*
X66392680Y-94564793D01*
X66466733Y-94937085D01*
X66611995Y-95287777D01*
X66822881Y-95603391D01*
X66864490Y-95645000D01*
X66822881Y-95686609D01*
X66611995Y-96002223D01*
X66466733Y-96352915D01*
X66392680Y-96725207D01*
X66392680Y-97104793D01*
X66466733Y-97477085D01*
X66611995Y-97827777D01*
X66822881Y-98143391D01*
X66864490Y-98185000D01*
X66822881Y-98226609D01*
X66611995Y-98542223D01*
X66466733Y-98892915D01*
X66392680Y-99265207D01*
X66392680Y-99644793D01*
X66466733Y-100017085D01*
X66611995Y-100367777D01*
X66822881Y-100683391D01*
X66864490Y-100725000D01*
X66822881Y-100766609D01*
X66611995Y-101082223D01*
X66466733Y-101432915D01*
X66392680Y-101805207D01*
X66392680Y-102184793D01*
X66466733Y-102557085D01*
X66611995Y-102907777D01*
X66669724Y-102994175D01*
X66578080Y-103105843D01*
X66473430Y-103301629D01*
X66408987Y-103514069D01*
X66387227Y-103735000D01*
X66387227Y-105335000D01*
X66408987Y-105555931D01*
X66473430Y-105768371D01*
X66530938Y-105875960D01*
X54871138Y-105875960D01*
X54925930Y-105773451D01*
X54990373Y-105561011D01*
X55012133Y-105340080D01*
X55012133Y-103740080D01*
X54990373Y-103519149D01*
X54925930Y-103306709D01*
X54821280Y-103110923D01*
X54729636Y-102999255D01*
X54787365Y-102912857D01*
X54932627Y-102562165D01*
X55006680Y-102189873D01*
X55006680Y-101810287D01*
X54932627Y-101437995D01*
X54787365Y-101087303D01*
X54576479Y-100771689D01*
X54534870Y-100730080D01*
X54576479Y-100688471D01*
X54787365Y-100372857D01*
X54932627Y-100022165D01*
X55006680Y-99649873D01*
X55006680Y-99270287D01*
X54932627Y-98897995D01*
X54787365Y-98547303D01*
X54576479Y-98231689D01*
X54534870Y-98190080D01*
X54576479Y-98148471D01*
X54787365Y-97832857D01*
X54932627Y-97482165D01*
X55006680Y-97109873D01*
X55006680Y-96730287D01*
X54932627Y-96357995D01*
X54787365Y-96007303D01*
X54576479Y-95691689D01*
X54534870Y-95650080D01*
X54576479Y-95608471D01*
X54787365Y-95292857D01*
X54932627Y-94942165D01*
X55006680Y-94569873D01*
X55006680Y-94190287D01*
X54932627Y-93817995D01*
X54787365Y-93467303D01*
X54576479Y-93151689D01*
X54534870Y-93110080D01*
X54576479Y-93068471D01*
X54787365Y-92752857D01*
X54932627Y-92402165D01*
X55006680Y-92029873D01*
X55006680Y-91650287D01*
X54932627Y-91277995D01*
X54787365Y-90927303D01*
X54576479Y-90611689D01*
X54534870Y-90570080D01*
X54576479Y-90528471D01*
X54787365Y-90212857D01*
X54932627Y-89862165D01*
X55006680Y-89489873D01*
X55006680Y-89110287D01*
X54932627Y-88737995D01*
X54787365Y-88387303D01*
X54576479Y-88071689D01*
X54534870Y-88030080D01*
X54576479Y-87988471D01*
X54787365Y-87672857D01*
X54932627Y-87322165D01*
X55006680Y-86949873D01*
X55006680Y-86570287D01*
X54932627Y-86197995D01*
X54787365Y-85847303D01*
X54576479Y-85531689D01*
X54534870Y-85490080D01*
X54576479Y-85448471D01*
X54787365Y-85132857D01*
X54932627Y-84782165D01*
X55006680Y-84409873D01*
X55006680Y-84030287D01*
X54932627Y-83657995D01*
X54787365Y-83307303D01*
X54576479Y-82991689D01*
X54534870Y-82950080D01*
X54576479Y-82908471D01*
X54787365Y-82592857D01*
X54932627Y-82242165D01*
X55006680Y-81869873D01*
X55006680Y-81490287D01*
X54932627Y-81117995D01*
X54787365Y-80767303D01*
X54576479Y-80451689D01*
X54534870Y-80410080D01*
X54576479Y-80368471D01*
X54787365Y-80052857D01*
X54932627Y-79702165D01*
X55006680Y-79329873D01*
X55006680Y-78950287D01*
X54932627Y-78577995D01*
X54787365Y-78227303D01*
X54576479Y-77911689D01*
X54385878Y-77721088D01*
X54437706Y-77667004D01*
X54619758Y-77381566D01*
X54721264Y-77136484D01*
X54549797Y-76873080D01*
X53352680Y-76873080D01*
X53352680Y-76893080D01*
X52806680Y-76893080D01*
X52806680Y-76873080D01*
X51609563Y-76873080D01*
X51438096Y-77136484D01*
X51539602Y-77381566D01*
X51721654Y-77667004D01*
X51773482Y-77721088D01*
X51731490Y-77763080D01*
X50762072Y-77763080D01*
X49984980Y-76985989D01*
X49984980Y-75715252D01*
X50076299Y-75494790D01*
X50134980Y-75199776D01*
X50134980Y-74898984D01*
X50076299Y-74603970D01*
X49961190Y-74326074D01*
X49794079Y-74075974D01*
X49581386Y-73863281D01*
X49331286Y-73696170D01*
X49053390Y-73581061D01*
X48758376Y-73522380D01*
X48457584Y-73522380D01*
X48162570Y-73581061D01*
X47884674Y-73696170D01*
X47634574Y-73863281D01*
X47421881Y-74075974D01*
X47254770Y-74326074D01*
X47139661Y-74603970D01*
X47080980Y-74898984D01*
X47080980Y-75199776D01*
X47139661Y-75494790D01*
X47230980Y-75715253D01*
X47230981Y-77488711D01*
X47224318Y-77556360D01*
X47250905Y-77826299D01*
X47329643Y-78085864D01*
X47428197Y-78270244D01*
X47457508Y-78325081D01*
X47629584Y-78534757D01*
X47682125Y-78577876D01*
X49170183Y-80065935D01*
X49213303Y-80118477D01*
X49422979Y-80290553D01*
X49472495Y-80317020D01*
X45568060Y-80317020D01*
X45568060Y-80159324D01*
X45509379Y-79864310D01*
X45418060Y-79643848D01*
X45418060Y-74231960D01*
X45458916Y-74231960D01*
X45753930Y-74173279D01*
X46031826Y-74058170D01*
X46281926Y-73891059D01*
X46494619Y-73678366D01*
X46661730Y-73428266D01*
X46708148Y-73316203D01*
X48652460Y-71371892D01*
X48704996Y-71328777D01*
X48877073Y-71119101D01*
X49004937Y-70879885D01*
X49049338Y-70733514D01*
X49083675Y-70620320D01*
X49110262Y-70350380D01*
X49103600Y-70282740D01*
X49103600Y-54901504D01*
X49201746Y-54860850D01*
X49451846Y-54693739D01*
X49664539Y-54481046D01*
X49831650Y-54230946D01*
X49872581Y-54132132D01*
X49872580Y-70564680D01*
X49865918Y-70632320D01*
X49892505Y-70902259D01*
X49971169Y-71161580D01*
X49971243Y-71161824D01*
X50099107Y-71401040D01*
X50271183Y-71610716D01*
X50323726Y-71653837D01*
X51115819Y-72445930D01*
X51158943Y-72498477D01*
X51368619Y-72670553D01*
X51607835Y-72798417D01*
X51614217Y-72800353D01*
X51582881Y-72831689D01*
X51371995Y-73147303D01*
X51226733Y-73497995D01*
X51152680Y-73870287D01*
X51152680Y-74249873D01*
X51226733Y-74622165D01*
X51371995Y-74972857D01*
X51582881Y-75288471D01*
X51773482Y-75479072D01*
X51721654Y-75533156D01*
X51539602Y-75818594D01*
X51438096Y-76063676D01*
X51609563Y-76327080D01*
X52806680Y-76327080D01*
X52806680Y-76307080D01*
X53352680Y-76307080D01*
X53352680Y-76327080D01*
X54549797Y-76327080D01*
X54721264Y-76063676D01*
X54619758Y-75818594D01*
X54437706Y-75533156D01*
X54385878Y-75479072D01*
X54576479Y-75288471D01*
X54787365Y-74972857D01*
X54932627Y-74622165D01*
X55006680Y-74249873D01*
X55006680Y-73870287D01*
X54932627Y-73497995D01*
X54787365Y-73147303D01*
X54576479Y-72831689D01*
X54534870Y-72790080D01*
X54576479Y-72748471D01*
X54787365Y-72432857D01*
X54932627Y-72082165D01*
X55006680Y-71709873D01*
X55006680Y-71330287D01*
X54932627Y-70957995D01*
X54787365Y-70607303D01*
X54576479Y-70291689D01*
X54534870Y-70250080D01*
X54576479Y-70208471D01*
X54787365Y-69892857D01*
X54932627Y-69542165D01*
X55006680Y-69169873D01*
X55006680Y-68790287D01*
X54932627Y-68417995D01*
X54787365Y-68067303D01*
X54576479Y-67751689D01*
X54308071Y-67483281D01*
X53992457Y-67272395D01*
X53641765Y-67127133D01*
X53269473Y-67053080D01*
X52889887Y-67053080D01*
X52626580Y-67105455D01*
X52626580Y-40542351D01*
X54381081Y-38787851D01*
X54381080Y-59583799D01*
G37*
X54381080Y-59583799D02*
X54279601Y-59828790D01*
X54220920Y-60123804D01*
X54220920Y-60424596D01*
X54279601Y-60719610D01*
X54394710Y-60997506D01*
X54561821Y-61247606D01*
X54774514Y-61460299D01*
X55024614Y-61627410D01*
X55302510Y-61742519D01*
X55597524Y-61801200D01*
X55898316Y-61801200D01*
X55945720Y-61791771D01*
X55945721Y-87382010D01*
X55939058Y-87449660D01*
X55965645Y-87719599D01*
X56044383Y-87979164D01*
X56116340Y-88113785D01*
X56172248Y-88218381D01*
X56344324Y-88428057D01*
X56396865Y-88471176D01*
X58146543Y-90220855D01*
X58189663Y-90273397D01*
X58399339Y-90445473D01*
X58586758Y-90545651D01*
X58638555Y-90573337D01*
X58898120Y-90652075D01*
X59168060Y-90678662D01*
X59235700Y-90672000D01*
X66779188Y-90672000D01*
X66611995Y-90922223D01*
X66466733Y-91272915D01*
X66392680Y-91645207D01*
X66392680Y-92024793D01*
X66466733Y-92397085D01*
X66611995Y-92747777D01*
X66822881Y-93063391D01*
X66864490Y-93105000D01*
X66822881Y-93146609D01*
X66611995Y-93462223D01*
X66466733Y-93812915D01*
X66392680Y-94185207D01*
X66392680Y-94564793D01*
X66466733Y-94937085D01*
X66611995Y-95287777D01*
X66822881Y-95603391D01*
X66864490Y-95645000D01*
X66822881Y-95686609D01*
X66611995Y-96002223D01*
X66466733Y-96352915D01*
X66392680Y-96725207D01*
X66392680Y-97104793D01*
X66466733Y-97477085D01*
X66611995Y-97827777D01*
X66822881Y-98143391D01*
X66864490Y-98185000D01*
X66822881Y-98226609D01*
X66611995Y-98542223D01*
X66466733Y-98892915D01*
X66392680Y-99265207D01*
X66392680Y-99644793D01*
X66466733Y-100017085D01*
X66611995Y-100367777D01*
X66822881Y-100683391D01*
X66864490Y-100725000D01*
X66822881Y-100766609D01*
X66611995Y-101082223D01*
X66466733Y-101432915D01*
X66392680Y-101805207D01*
X66392680Y-102184793D01*
X66466733Y-102557085D01*
X66611995Y-102907777D01*
X66669724Y-102994175D01*
X66578080Y-103105843D01*
X66473430Y-103301629D01*
X66408987Y-103514069D01*
X66387227Y-103735000D01*
X66387227Y-105335000D01*
X66408987Y-105555931D01*
X66473430Y-105768371D01*
X66530938Y-105875960D01*
X54871138Y-105875960D01*
X54925930Y-105773451D01*
X54990373Y-105561011D01*
X55012133Y-105340080D01*
X55012133Y-103740080D01*
X54990373Y-103519149D01*
X54925930Y-103306709D01*
X54821280Y-103110923D01*
X54729636Y-102999255D01*
X54787365Y-102912857D01*
X54932627Y-102562165D01*
X55006680Y-102189873D01*
X55006680Y-101810287D01*
X54932627Y-101437995D01*
X54787365Y-101087303D01*
X54576479Y-100771689D01*
X54534870Y-100730080D01*
X54576479Y-100688471D01*
X54787365Y-100372857D01*
X54932627Y-100022165D01*
X55006680Y-99649873D01*
X55006680Y-99270287D01*
X54932627Y-98897995D01*
X54787365Y-98547303D01*
X54576479Y-98231689D01*
X54534870Y-98190080D01*
X54576479Y-98148471D01*
X54787365Y-97832857D01*
X54932627Y-97482165D01*
X55006680Y-97109873D01*
X55006680Y-96730287D01*
X54932627Y-96357995D01*
X54787365Y-96007303D01*
X54576479Y-95691689D01*
X54534870Y-95650080D01*
X54576479Y-95608471D01*
X54787365Y-95292857D01*
X54932627Y-94942165D01*
X55006680Y-94569873D01*
X55006680Y-94190287D01*
X54932627Y-93817995D01*
X54787365Y-93467303D01*
X54576479Y-93151689D01*
X54534870Y-93110080D01*
X54576479Y-93068471D01*
X54787365Y-92752857D01*
X54932627Y-92402165D01*
X55006680Y-92029873D01*
X55006680Y-91650287D01*
X54932627Y-91277995D01*
X54787365Y-90927303D01*
X54576479Y-90611689D01*
X54534870Y-90570080D01*
X54576479Y-90528471D01*
X54787365Y-90212857D01*
X54932627Y-89862165D01*
X55006680Y-89489873D01*
X55006680Y-89110287D01*
X54932627Y-88737995D01*
X54787365Y-88387303D01*
X54576479Y-88071689D01*
X54534870Y-88030080D01*
X54576479Y-87988471D01*
X54787365Y-87672857D01*
X54932627Y-87322165D01*
X55006680Y-86949873D01*
X55006680Y-86570287D01*
X54932627Y-86197995D01*
X54787365Y-85847303D01*
X54576479Y-85531689D01*
X54534870Y-85490080D01*
X54576479Y-85448471D01*
X54787365Y-85132857D01*
X54932627Y-84782165D01*
X55006680Y-84409873D01*
X55006680Y-84030287D01*
X54932627Y-83657995D01*
X54787365Y-83307303D01*
X54576479Y-82991689D01*
X54534870Y-82950080D01*
X54576479Y-82908471D01*
X54787365Y-82592857D01*
X54932627Y-82242165D01*
X55006680Y-81869873D01*
X55006680Y-81490287D01*
X54932627Y-81117995D01*
X54787365Y-80767303D01*
X54576479Y-80451689D01*
X54534870Y-80410080D01*
X54576479Y-80368471D01*
X54787365Y-80052857D01*
X54932627Y-79702165D01*
X55006680Y-79329873D01*
X55006680Y-78950287D01*
X54932627Y-78577995D01*
X54787365Y-78227303D01*
X54576479Y-77911689D01*
X54385878Y-77721088D01*
X54437706Y-77667004D01*
X54619758Y-77381566D01*
X54721264Y-77136484D01*
X54549797Y-76873080D01*
X53352680Y-76873080D01*
X53352680Y-76893080D01*
X52806680Y-76893080D01*
X52806680Y-76873080D01*
X51609563Y-76873080D01*
X51438096Y-77136484D01*
X51539602Y-77381566D01*
X51721654Y-77667004D01*
X51773482Y-77721088D01*
X51731490Y-77763080D01*
X50762072Y-77763080D01*
X49984980Y-76985989D01*
X49984980Y-75715252D01*
X50076299Y-75494790D01*
X50134980Y-75199776D01*
X50134980Y-74898984D01*
X50076299Y-74603970D01*
X49961190Y-74326074D01*
X49794079Y-74075974D01*
X49581386Y-73863281D01*
X49331286Y-73696170D01*
X49053390Y-73581061D01*
X48758376Y-73522380D01*
X48457584Y-73522380D01*
X48162570Y-73581061D01*
X47884674Y-73696170D01*
X47634574Y-73863281D01*
X47421881Y-74075974D01*
X47254770Y-74326074D01*
X47139661Y-74603970D01*
X47080980Y-74898984D01*
X47080980Y-75199776D01*
X47139661Y-75494790D01*
X47230980Y-75715253D01*
X47230981Y-77488711D01*
X47224318Y-77556360D01*
X47250905Y-77826299D01*
X47329643Y-78085864D01*
X47428197Y-78270244D01*
X47457508Y-78325081D01*
X47629584Y-78534757D01*
X47682125Y-78577876D01*
X49170183Y-80065935D01*
X49213303Y-80118477D01*
X49422979Y-80290553D01*
X49472495Y-80317020D01*
X45568060Y-80317020D01*
X45568060Y-80159324D01*
X45509379Y-79864310D01*
X45418060Y-79643848D01*
X45418060Y-74231960D01*
X45458916Y-74231960D01*
X45753930Y-74173279D01*
X46031826Y-74058170D01*
X46281926Y-73891059D01*
X46494619Y-73678366D01*
X46661730Y-73428266D01*
X46708148Y-73316203D01*
X48652460Y-71371892D01*
X48704996Y-71328777D01*
X48877073Y-71119101D01*
X49004937Y-70879885D01*
X49049338Y-70733514D01*
X49083675Y-70620320D01*
X49110262Y-70350380D01*
X49103600Y-70282740D01*
X49103600Y-54901504D01*
X49201746Y-54860850D01*
X49451846Y-54693739D01*
X49664539Y-54481046D01*
X49831650Y-54230946D01*
X49872581Y-54132132D01*
X49872580Y-70564680D01*
X49865918Y-70632320D01*
X49892505Y-70902259D01*
X49971169Y-71161580D01*
X49971243Y-71161824D01*
X50099107Y-71401040D01*
X50271183Y-71610716D01*
X50323726Y-71653837D01*
X51115819Y-72445930D01*
X51158943Y-72498477D01*
X51368619Y-72670553D01*
X51607835Y-72798417D01*
X51614217Y-72800353D01*
X51582881Y-72831689D01*
X51371995Y-73147303D01*
X51226733Y-73497995D01*
X51152680Y-73870287D01*
X51152680Y-74249873D01*
X51226733Y-74622165D01*
X51371995Y-74972857D01*
X51582881Y-75288471D01*
X51773482Y-75479072D01*
X51721654Y-75533156D01*
X51539602Y-75818594D01*
X51438096Y-76063676D01*
X51609563Y-76327080D01*
X52806680Y-76327080D01*
X52806680Y-76307080D01*
X53352680Y-76307080D01*
X53352680Y-76327080D01*
X54549797Y-76327080D01*
X54721264Y-76063676D01*
X54619758Y-75818594D01*
X54437706Y-75533156D01*
X54385878Y-75479072D01*
X54576479Y-75288471D01*
X54787365Y-74972857D01*
X54932627Y-74622165D01*
X55006680Y-74249873D01*
X55006680Y-73870287D01*
X54932627Y-73497995D01*
X54787365Y-73147303D01*
X54576479Y-72831689D01*
X54534870Y-72790080D01*
X54576479Y-72748471D01*
X54787365Y-72432857D01*
X54932627Y-72082165D01*
X55006680Y-71709873D01*
X55006680Y-71330287D01*
X54932627Y-70957995D01*
X54787365Y-70607303D01*
X54576479Y-70291689D01*
X54534870Y-70250080D01*
X54576479Y-70208471D01*
X54787365Y-69892857D01*
X54932627Y-69542165D01*
X55006680Y-69169873D01*
X55006680Y-68790287D01*
X54932627Y-68417995D01*
X54787365Y-68067303D01*
X54576479Y-67751689D01*
X54308071Y-67483281D01*
X53992457Y-67272395D01*
X53641765Y-67127133D01*
X53269473Y-67053080D01*
X52889887Y-67053080D01*
X52626580Y-67105455D01*
X52626580Y-40542351D01*
X54381081Y-38787851D01*
X54381080Y-59583799D01*
G36*
X84185559Y-92444830D02*
G01*
X84137498Y-92424923D01*
X83793413Y-92356480D01*
X83442587Y-92356480D01*
X83098502Y-92424923D01*
X82774380Y-92559179D01*
X82482679Y-92754087D01*
X82234607Y-93002159D01*
X82039699Y-93293860D01*
X81905443Y-93617982D01*
X81837000Y-93962067D01*
X81837000Y-94312893D01*
X81905443Y-94656978D01*
X82039699Y-94981100D01*
X82234607Y-95272801D01*
X82482679Y-95520873D01*
X82774380Y-95715781D01*
X83098502Y-95850037D01*
X83442587Y-95918480D01*
X83793413Y-95918480D01*
X84137498Y-95850037D01*
X84461620Y-95715781D01*
X84753321Y-95520873D01*
X85001393Y-95272801D01*
X85196301Y-94981100D01*
X85330557Y-94656978D01*
X85330980Y-94654850D01*
X85330981Y-100106086D01*
X85239661Y-100326550D01*
X85180980Y-100621564D01*
X85180980Y-100704520D01*
X78609380Y-100704520D01*
X78586508Y-100697582D01*
X78267560Y-100666168D01*
X77948613Y-100697582D01*
X77925741Y-100704520D01*
X76921283Y-100704520D01*
X76937748Y-100678959D01*
X77048299Y-100412043D01*
X76877663Y-100140720D01*
X75629720Y-100140720D01*
X75629720Y-100160720D01*
X75083720Y-100160720D01*
X75083720Y-100140720D01*
X73835777Y-100140720D01*
X73665141Y-100412043D01*
X73775692Y-100678959D01*
X73964336Y-100971814D01*
X73980259Y-100988281D01*
X73937820Y-101030720D01*
X73595372Y-101030720D01*
X72746974Y-100182323D01*
X72648470Y-99944514D01*
X72481359Y-99694414D01*
X72268666Y-99481721D01*
X72018566Y-99314610D01*
X71740670Y-99199501D01*
X71445656Y-99140820D01*
X71144864Y-99140820D01*
X70849850Y-99199501D01*
X70571954Y-99314610D01*
X70321854Y-99481721D01*
X70246680Y-99556895D01*
X70246680Y-99265207D01*
X70172627Y-98892915D01*
X70027365Y-98542223D01*
X69816479Y-98226609D01*
X69774870Y-98185000D01*
X69816479Y-98143391D01*
X70027365Y-97827777D01*
X70172627Y-97477085D01*
X70246680Y-97104793D01*
X70246680Y-96725207D01*
X70197453Y-96477720D01*
X73374267Y-96477720D01*
X73374267Y-98177720D01*
X73396027Y-98398651D01*
X73460470Y-98611091D01*
X73565120Y-98806877D01*
X73705955Y-98978485D01*
X73784442Y-99042897D01*
X73775692Y-99056481D01*
X73665141Y-99323397D01*
X73835777Y-99594720D01*
X75083720Y-99594720D01*
X75083720Y-99574720D01*
X75629720Y-99574720D01*
X75629720Y-99594720D01*
X76877663Y-99594720D01*
X77048299Y-99323397D01*
X76937748Y-99056481D01*
X76928998Y-99042897D01*
X77007485Y-98978485D01*
X77148320Y-98806877D01*
X77252970Y-98611091D01*
X77317413Y-98398651D01*
X77339173Y-98177720D01*
X77339173Y-96477720D01*
X77317413Y-96256789D01*
X77252970Y-96044349D01*
X77148320Y-95848563D01*
X77007485Y-95676955D01*
X76835877Y-95536120D01*
X76640091Y-95431470D01*
X76427651Y-95367027D01*
X76206720Y-95345267D01*
X74506720Y-95345267D01*
X74285789Y-95367027D01*
X74073349Y-95431470D01*
X73877563Y-95536120D01*
X73705955Y-95676955D01*
X73565120Y-95848563D01*
X73460470Y-96044349D01*
X73396027Y-96256789D01*
X73374267Y-96477720D01*
X70197453Y-96477720D01*
X70172627Y-96352915D01*
X70027365Y-96002223D01*
X69860172Y-95752000D01*
X69887740Y-95752000D01*
X69955380Y-95758662D01*
X70225319Y-95732075D01*
X70279033Y-95715781D01*
X70484885Y-95653337D01*
X70724101Y-95525473D01*
X70933777Y-95353397D01*
X70976901Y-95300850D01*
X72033155Y-94244597D01*
X72085697Y-94201477D01*
X72257773Y-93991801D01*
X72385637Y-93752585D01*
X72395030Y-93721619D01*
X72464375Y-93493020D01*
X72490962Y-93223080D01*
X72484300Y-93155440D01*
X72484300Y-90493408D01*
X72570539Y-90285210D01*
X72629220Y-89990196D01*
X72629220Y-89689404D01*
X72570539Y-89394390D01*
X72455430Y-89116494D01*
X72288319Y-88866394D01*
X72075626Y-88653701D01*
X71825526Y-88486590D01*
X71547630Y-88371481D01*
X71252616Y-88312800D01*
X70951824Y-88312800D01*
X70656810Y-88371481D01*
X70378914Y-88486590D01*
X70137431Y-88647944D01*
X70027365Y-88382223D01*
X69860172Y-88132000D01*
X79872729Y-88132000D01*
X84185559Y-92444830D01*
G37*
X84185559Y-92444830D02*
X84137498Y-92424923D01*
X83793413Y-92356480D01*
X83442587Y-92356480D01*
X83098502Y-92424923D01*
X82774380Y-92559179D01*
X82482679Y-92754087D01*
X82234607Y-93002159D01*
X82039699Y-93293860D01*
X81905443Y-93617982D01*
X81837000Y-93962067D01*
X81837000Y-94312893D01*
X81905443Y-94656978D01*
X82039699Y-94981100D01*
X82234607Y-95272801D01*
X82482679Y-95520873D01*
X82774380Y-95715781D01*
X83098502Y-95850037D01*
X83442587Y-95918480D01*
X83793413Y-95918480D01*
X84137498Y-95850037D01*
X84461620Y-95715781D01*
X84753321Y-95520873D01*
X85001393Y-95272801D01*
X85196301Y-94981100D01*
X85330557Y-94656978D01*
X85330980Y-94654850D01*
X85330981Y-100106086D01*
X85239661Y-100326550D01*
X85180980Y-100621564D01*
X85180980Y-100704520D01*
X78609380Y-100704520D01*
X78586508Y-100697582D01*
X78267560Y-100666168D01*
X77948613Y-100697582D01*
X77925741Y-100704520D01*
X76921283Y-100704520D01*
X76937748Y-100678959D01*
X77048299Y-100412043D01*
X76877663Y-100140720D01*
X75629720Y-100140720D01*
X75629720Y-100160720D01*
X75083720Y-100160720D01*
X75083720Y-100140720D01*
X73835777Y-100140720D01*
X73665141Y-100412043D01*
X73775692Y-100678959D01*
X73964336Y-100971814D01*
X73980259Y-100988281D01*
X73937820Y-101030720D01*
X73595372Y-101030720D01*
X72746974Y-100182323D01*
X72648470Y-99944514D01*
X72481359Y-99694414D01*
X72268666Y-99481721D01*
X72018566Y-99314610D01*
X71740670Y-99199501D01*
X71445656Y-99140820D01*
X71144864Y-99140820D01*
X70849850Y-99199501D01*
X70571954Y-99314610D01*
X70321854Y-99481721D01*
X70246680Y-99556895D01*
X70246680Y-99265207D01*
X70172627Y-98892915D01*
X70027365Y-98542223D01*
X69816479Y-98226609D01*
X69774870Y-98185000D01*
X69816479Y-98143391D01*
X70027365Y-97827777D01*
X70172627Y-97477085D01*
X70246680Y-97104793D01*
X70246680Y-96725207D01*
X70197453Y-96477720D01*
X73374267Y-96477720D01*
X73374267Y-98177720D01*
X73396027Y-98398651D01*
X73460470Y-98611091D01*
X73565120Y-98806877D01*
X73705955Y-98978485D01*
X73784442Y-99042897D01*
X73775692Y-99056481D01*
X73665141Y-99323397D01*
X73835777Y-99594720D01*
X75083720Y-99594720D01*
X75083720Y-99574720D01*
X75629720Y-99574720D01*
X75629720Y-99594720D01*
X76877663Y-99594720D01*
X77048299Y-99323397D01*
X76937748Y-99056481D01*
X76928998Y-99042897D01*
X77007485Y-98978485D01*
X77148320Y-98806877D01*
X77252970Y-98611091D01*
X77317413Y-98398651D01*
X77339173Y-98177720D01*
X77339173Y-96477720D01*
X77317413Y-96256789D01*
X77252970Y-96044349D01*
X77148320Y-95848563D01*
X77007485Y-95676955D01*
X76835877Y-95536120D01*
X76640091Y-95431470D01*
X76427651Y-95367027D01*
X76206720Y-95345267D01*
X74506720Y-95345267D01*
X74285789Y-95367027D01*
X74073349Y-95431470D01*
X73877563Y-95536120D01*
X73705955Y-95676955D01*
X73565120Y-95848563D01*
X73460470Y-96044349D01*
X73396027Y-96256789D01*
X73374267Y-96477720D01*
X70197453Y-96477720D01*
X70172627Y-96352915D01*
X70027365Y-96002223D01*
X69860172Y-95752000D01*
X69887740Y-95752000D01*
X69955380Y-95758662D01*
X70225319Y-95732075D01*
X70279033Y-95715781D01*
X70484885Y-95653337D01*
X70724101Y-95525473D01*
X70933777Y-95353397D01*
X70976901Y-95300850D01*
X72033155Y-94244597D01*
X72085697Y-94201477D01*
X72257773Y-93991801D01*
X72385637Y-93752585D01*
X72395030Y-93721619D01*
X72464375Y-93493020D01*
X72490962Y-93223080D01*
X72484300Y-93155440D01*
X72484300Y-90493408D01*
X72570539Y-90285210D01*
X72629220Y-89990196D01*
X72629220Y-89689404D01*
X72570539Y-89394390D01*
X72455430Y-89116494D01*
X72288319Y-88866394D01*
X72075626Y-88653701D01*
X71825526Y-88486590D01*
X71547630Y-88371481D01*
X71252616Y-88312800D01*
X70951824Y-88312800D01*
X70656810Y-88371481D01*
X70378914Y-88486590D01*
X70137431Y-88647944D01*
X70027365Y-88382223D01*
X69860172Y-88132000D01*
X79872729Y-88132000D01*
X84185559Y-92444830D01*
G36*
X100400800Y-88299432D02*
G01*
X100400801Y-93013191D01*
X100394138Y-93080840D01*
X100420725Y-93350779D01*
X100499463Y-93610344D01*
X100594744Y-93788601D01*
X100627328Y-93849561D01*
X100799404Y-94059237D01*
X100851945Y-94102356D01*
X101808200Y-95058611D01*
X101808200Y-95337882D01*
X101886096Y-95729494D01*
X102038896Y-96098385D01*
X102207661Y-96350960D01*
X95609325Y-96350960D01*
X95529400Y-96343088D01*
X95449475Y-96350960D01*
X95210452Y-96374502D01*
X94903762Y-96467535D01*
X94621114Y-96618614D01*
X94373371Y-96821931D01*
X94322422Y-96884013D01*
X91693735Y-99512700D01*
X91631651Y-99563651D01*
X91428334Y-99811395D01*
X91277255Y-100094043D01*
X91184222Y-100400733D01*
X91160680Y-100639756D01*
X91160680Y-100639766D01*
X91154302Y-100704520D01*
X88234980Y-100704520D01*
X88234980Y-100621564D01*
X88176299Y-100326550D01*
X88084980Y-100106088D01*
X88084980Y-95270373D01*
X89371187Y-95270373D01*
X89418968Y-95564071D01*
X89710714Y-95673035D01*
X90018111Y-95722987D01*
X90329348Y-95712010D01*
X90632463Y-95640523D01*
X90817032Y-95564071D01*
X90864813Y-95270373D01*
X90118000Y-94523560D01*
X89371187Y-95270373D01*
X88084980Y-95270373D01*
X88084980Y-94037591D01*
X88532493Y-94037591D01*
X88543470Y-94348828D01*
X88614957Y-94651943D01*
X88691409Y-94836512D01*
X88985107Y-94884293D01*
X89731920Y-94137480D01*
X90504080Y-94137480D01*
X91250893Y-94884293D01*
X91544591Y-94836512D01*
X91653555Y-94544766D01*
X91703507Y-94237369D01*
X91692530Y-93926132D01*
X91621043Y-93623017D01*
X91544591Y-93438448D01*
X91250893Y-93390667D01*
X90504080Y-94137480D01*
X89731920Y-94137480D01*
X88985107Y-93390667D01*
X88691409Y-93438448D01*
X88582445Y-93730194D01*
X88532493Y-94037591D01*
X88084980Y-94037591D01*
X88084980Y-93087516D01*
X88091642Y-93019879D01*
X88090136Y-93004587D01*
X89371187Y-93004587D01*
X90118000Y-93751400D01*
X90864813Y-93004587D01*
X90817032Y-92710889D01*
X90525286Y-92601925D01*
X90217889Y-92551973D01*
X89906652Y-92562950D01*
X89603537Y-92634437D01*
X89418968Y-92710889D01*
X89371187Y-93004587D01*
X88090136Y-93004587D01*
X88082380Y-92925845D01*
X88065055Y-92749941D01*
X87986317Y-92490375D01*
X87858453Y-92251159D01*
X87767917Y-92140841D01*
X87729494Y-92094022D01*
X87729493Y-92094021D01*
X87686376Y-92041483D01*
X87633840Y-91998368D01*
X82176131Y-86540660D01*
X98642029Y-86540660D01*
X100400800Y-88299432D01*
G37*
X100400800Y-88299432D02*
X100400801Y-93013191D01*
X100394138Y-93080840D01*
X100420725Y-93350779D01*
X100499463Y-93610344D01*
X100594744Y-93788601D01*
X100627328Y-93849561D01*
X100799404Y-94059237D01*
X100851945Y-94102356D01*
X101808200Y-95058611D01*
X101808200Y-95337882D01*
X101886096Y-95729494D01*
X102038896Y-96098385D01*
X102207661Y-96350960D01*
X95609325Y-96350960D01*
X95529400Y-96343088D01*
X95449475Y-96350960D01*
X95210452Y-96374502D01*
X94903762Y-96467535D01*
X94621114Y-96618614D01*
X94373371Y-96821931D01*
X94322422Y-96884013D01*
X91693735Y-99512700D01*
X91631651Y-99563651D01*
X91428334Y-99811395D01*
X91277255Y-100094043D01*
X91184222Y-100400733D01*
X91160680Y-100639756D01*
X91160680Y-100639766D01*
X91154302Y-100704520D01*
X88234980Y-100704520D01*
X88234980Y-100621564D01*
X88176299Y-100326550D01*
X88084980Y-100106088D01*
X88084980Y-95270373D01*
X89371187Y-95270373D01*
X89418968Y-95564071D01*
X89710714Y-95673035D01*
X90018111Y-95722987D01*
X90329348Y-95712010D01*
X90632463Y-95640523D01*
X90817032Y-95564071D01*
X90864813Y-95270373D01*
X90118000Y-94523560D01*
X89371187Y-95270373D01*
X88084980Y-95270373D01*
X88084980Y-94037591D01*
X88532493Y-94037591D01*
X88543470Y-94348828D01*
X88614957Y-94651943D01*
X88691409Y-94836512D01*
X88985107Y-94884293D01*
X89731920Y-94137480D01*
X90504080Y-94137480D01*
X91250893Y-94884293D01*
X91544591Y-94836512D01*
X91653555Y-94544766D01*
X91703507Y-94237369D01*
X91692530Y-93926132D01*
X91621043Y-93623017D01*
X91544591Y-93438448D01*
X91250893Y-93390667D01*
X90504080Y-94137480D01*
X89731920Y-94137480D01*
X88985107Y-93390667D01*
X88691409Y-93438448D01*
X88582445Y-93730194D01*
X88532493Y-94037591D01*
X88084980Y-94037591D01*
X88084980Y-93087516D01*
X88091642Y-93019879D01*
X88090136Y-93004587D01*
X89371187Y-93004587D01*
X90118000Y-93751400D01*
X90864813Y-93004587D01*
X90817032Y-92710889D01*
X90525286Y-92601925D01*
X90217889Y-92551973D01*
X89906652Y-92562950D01*
X89603537Y-92634437D01*
X89418968Y-92710889D01*
X89371187Y-93004587D01*
X88090136Y-93004587D01*
X88082380Y-92925845D01*
X88065055Y-92749941D01*
X87986317Y-92490375D01*
X87858453Y-92251159D01*
X87767917Y-92140841D01*
X87729494Y-92094022D01*
X87729493Y-92094021D01*
X87686376Y-92041483D01*
X87633840Y-91998368D01*
X82176131Y-86540660D01*
X98642029Y-86540660D01*
X100400800Y-88299432D01*
G36*
X37968723Y-66463437D02*
G01*
X38113636Y-66582363D01*
X38243806Y-66777177D01*
X38526143Y-67059514D01*
X38858135Y-67281344D01*
X39227026Y-67434144D01*
X39618638Y-67512040D01*
X40017922Y-67512040D01*
X40409534Y-67434144D01*
X40775438Y-67282581D01*
X40829123Y-67326640D01*
X41024909Y-67431290D01*
X41237349Y-67495733D01*
X41458280Y-67517493D01*
X42664060Y-67517493D01*
X42664061Y-73191482D01*
X42549320Y-73158520D01*
X41889320Y-73158520D01*
X41889320Y-74372520D01*
X41909320Y-74372520D01*
X41909320Y-74918520D01*
X41889320Y-74918520D01*
X41889320Y-76912520D01*
X41909320Y-76912520D01*
X41909320Y-77458520D01*
X41889320Y-77458520D01*
X41889320Y-79452520D01*
X41909320Y-79452520D01*
X41909320Y-79998520D01*
X41889320Y-79998520D01*
X41889320Y-80018520D01*
X41343320Y-80018520D01*
X41343320Y-79998520D01*
X39731117Y-79998520D01*
X39555298Y-80223823D01*
X39560573Y-80264881D01*
X38803900Y-79508209D01*
X38803900Y-77683823D01*
X39555298Y-77683823D01*
X39568253Y-77784661D01*
X39711811Y-78043947D01*
X39903195Y-78270244D01*
X40135050Y-78454856D01*
X40136338Y-78455520D01*
X40135050Y-78456184D01*
X39903195Y-78640796D01*
X39711811Y-78867093D01*
X39568253Y-79126379D01*
X39555298Y-79227217D01*
X39731117Y-79452520D01*
X41343320Y-79452520D01*
X41343320Y-77458520D01*
X39731117Y-77458520D01*
X39555298Y-77683823D01*
X38803900Y-77683823D01*
X38803900Y-75143823D01*
X39555298Y-75143823D01*
X39568253Y-75244661D01*
X39711811Y-75503947D01*
X39903195Y-75730244D01*
X40135050Y-75914856D01*
X40136338Y-75915520D01*
X40135050Y-75916184D01*
X39903195Y-76100796D01*
X39711811Y-76327093D01*
X39568253Y-76586379D01*
X39555298Y-76687217D01*
X39731117Y-76912520D01*
X41343320Y-76912520D01*
X41343320Y-74918520D01*
X39731117Y-74918520D01*
X39555298Y-75143823D01*
X38803900Y-75143823D01*
X38803900Y-74147217D01*
X39555298Y-74147217D01*
X39731117Y-74372520D01*
X41343320Y-74372520D01*
X41343320Y-73158520D01*
X40683320Y-73158520D01*
X40398466Y-73240352D01*
X40135050Y-73376184D01*
X39903195Y-73560796D01*
X39711811Y-73787093D01*
X39568253Y-74046379D01*
X39555298Y-74147217D01*
X38803900Y-74147217D01*
X38803900Y-70870140D01*
X38810562Y-70802500D01*
X38783975Y-70532560D01*
X38716825Y-70311197D01*
X38705237Y-70272995D01*
X38577373Y-70033779D01*
X38457553Y-69887777D01*
X38448415Y-69876642D01*
X38448412Y-69876639D01*
X38405297Y-69824103D01*
X38352761Y-69780988D01*
X36109585Y-67537813D01*
X36821920Y-67537813D01*
X37042851Y-67516053D01*
X37255291Y-67451610D01*
X37451077Y-67346960D01*
X37622685Y-67206125D01*
X37763520Y-67034517D01*
X37868170Y-66838731D01*
X37932613Y-66626291D01*
X37950803Y-66441602D01*
X37968723Y-66463437D01*
G37*
X37968723Y-66463437D02*
X38113636Y-66582363D01*
X38243806Y-66777177D01*
X38526143Y-67059514D01*
X38858135Y-67281344D01*
X39227026Y-67434144D01*
X39618638Y-67512040D01*
X40017922Y-67512040D01*
X40409534Y-67434144D01*
X40775438Y-67282581D01*
X40829123Y-67326640D01*
X41024909Y-67431290D01*
X41237349Y-67495733D01*
X41458280Y-67517493D01*
X42664060Y-67517493D01*
X42664061Y-73191482D01*
X42549320Y-73158520D01*
X41889320Y-73158520D01*
X41889320Y-74372520D01*
X41909320Y-74372520D01*
X41909320Y-74918520D01*
X41889320Y-74918520D01*
X41889320Y-76912520D01*
X41909320Y-76912520D01*
X41909320Y-77458520D01*
X41889320Y-77458520D01*
X41889320Y-79452520D01*
X41909320Y-79452520D01*
X41909320Y-79998520D01*
X41889320Y-79998520D01*
X41889320Y-80018520D01*
X41343320Y-80018520D01*
X41343320Y-79998520D01*
X39731117Y-79998520D01*
X39555298Y-80223823D01*
X39560573Y-80264881D01*
X38803900Y-79508209D01*
X38803900Y-77683823D01*
X39555298Y-77683823D01*
X39568253Y-77784661D01*
X39711811Y-78043947D01*
X39903195Y-78270244D01*
X40135050Y-78454856D01*
X40136338Y-78455520D01*
X40135050Y-78456184D01*
X39903195Y-78640796D01*
X39711811Y-78867093D01*
X39568253Y-79126379D01*
X39555298Y-79227217D01*
X39731117Y-79452520D01*
X41343320Y-79452520D01*
X41343320Y-77458520D01*
X39731117Y-77458520D01*
X39555298Y-77683823D01*
X38803900Y-77683823D01*
X38803900Y-75143823D01*
X39555298Y-75143823D01*
X39568253Y-75244661D01*
X39711811Y-75503947D01*
X39903195Y-75730244D01*
X40135050Y-75914856D01*
X40136338Y-75915520D01*
X40135050Y-75916184D01*
X39903195Y-76100796D01*
X39711811Y-76327093D01*
X39568253Y-76586379D01*
X39555298Y-76687217D01*
X39731117Y-76912520D01*
X41343320Y-76912520D01*
X41343320Y-74918520D01*
X39731117Y-74918520D01*
X39555298Y-75143823D01*
X38803900Y-75143823D01*
X38803900Y-74147217D01*
X39555298Y-74147217D01*
X39731117Y-74372520D01*
X41343320Y-74372520D01*
X41343320Y-73158520D01*
X40683320Y-73158520D01*
X40398466Y-73240352D01*
X40135050Y-73376184D01*
X39903195Y-73560796D01*
X39711811Y-73787093D01*
X39568253Y-74046379D01*
X39555298Y-74147217D01*
X38803900Y-74147217D01*
X38803900Y-70870140D01*
X38810562Y-70802500D01*
X38783975Y-70532560D01*
X38716825Y-70311197D01*
X38705237Y-70272995D01*
X38577373Y-70033779D01*
X38457553Y-69887777D01*
X38448415Y-69876642D01*
X38448412Y-69876639D01*
X38405297Y-69824103D01*
X38352761Y-69780988D01*
X36109585Y-67537813D01*
X36821920Y-67537813D01*
X37042851Y-67516053D01*
X37255291Y-67451610D01*
X37451077Y-67346960D01*
X37622685Y-67206125D01*
X37763520Y-67034517D01*
X37868170Y-66838731D01*
X37932613Y-66626291D01*
X37950803Y-66441602D01*
X37968723Y-66463437D01*
M02*
