G04 #@! TF.GenerationSoftware,KiCad,Pcbnew,(5.1.5)-3*
G04 #@! TF.CreationDate,2020-09-27T11:43:03-03:00*
G04 #@! TF.ProjectId,HARDino,48415244-696e-46f2-9e6b-696361645f70,rev?*
G04 #@! TF.SameCoordinates,Original*
G04 #@! TF.FileFunction,Paste,Top*
G04 #@! TF.FilePolarity,Positive*
%FSLAX46Y46*%
G04 Gerber Fmt 4.6, Leading zero omitted, Abs format (unit mm)*
G04 Created by KiCad (PCBNEW (5.1.5)-3) date 2020-09-27 11:43:03*
%MOMM*%
%LPD*%
G04 APERTURE LIST*
%ADD10C,0.100000*%
%ADD11R,2.100000X1.400000*%
G04 APERTURE END LIST*
D10*
G36*
X46272984Y-63233884D02*
G01*
X46297253Y-63237484D01*
X46321051Y-63243445D01*
X46344151Y-63251710D01*
X46366329Y-63262200D01*
X46387373Y-63274813D01*
X46407078Y-63289427D01*
X46425257Y-63305903D01*
X46441733Y-63324082D01*
X46456347Y-63343787D01*
X46468960Y-63364831D01*
X46479450Y-63387009D01*
X46487715Y-63410109D01*
X46493676Y-63433907D01*
X46497276Y-63458176D01*
X46498480Y-63482680D01*
X46498480Y-64232680D01*
X46497276Y-64257184D01*
X46493676Y-64281453D01*
X46487715Y-64305251D01*
X46479450Y-64328351D01*
X46468960Y-64350529D01*
X46456347Y-64371573D01*
X46441733Y-64391278D01*
X46425257Y-64409457D01*
X46407078Y-64425933D01*
X46387373Y-64440547D01*
X46366329Y-64453160D01*
X46344151Y-64463650D01*
X46321051Y-64471915D01*
X46297253Y-64477876D01*
X46272984Y-64481476D01*
X46248480Y-64482680D01*
X44998480Y-64482680D01*
X44973976Y-64481476D01*
X44949707Y-64477876D01*
X44925909Y-64471915D01*
X44902809Y-64463650D01*
X44880631Y-64453160D01*
X44859587Y-64440547D01*
X44839882Y-64425933D01*
X44821703Y-64409457D01*
X44805227Y-64391278D01*
X44790613Y-64371573D01*
X44778000Y-64350529D01*
X44767510Y-64328351D01*
X44759245Y-64305251D01*
X44753284Y-64281453D01*
X44749684Y-64257184D01*
X44748480Y-64232680D01*
X44748480Y-63482680D01*
X44749684Y-63458176D01*
X44753284Y-63433907D01*
X44759245Y-63410109D01*
X44767510Y-63387009D01*
X44778000Y-63364831D01*
X44790613Y-63343787D01*
X44805227Y-63324082D01*
X44821703Y-63305903D01*
X44839882Y-63289427D01*
X44859587Y-63274813D01*
X44880631Y-63262200D01*
X44902809Y-63251710D01*
X44925909Y-63243445D01*
X44949707Y-63237484D01*
X44973976Y-63233884D01*
X44998480Y-63232680D01*
X46248480Y-63232680D01*
X46272984Y-63233884D01*
G37*
G36*
X46272984Y-66033884D02*
G01*
X46297253Y-66037484D01*
X46321051Y-66043445D01*
X46344151Y-66051710D01*
X46366329Y-66062200D01*
X46387373Y-66074813D01*
X46407078Y-66089427D01*
X46425257Y-66105903D01*
X46441733Y-66124082D01*
X46456347Y-66143787D01*
X46468960Y-66164831D01*
X46479450Y-66187009D01*
X46487715Y-66210109D01*
X46493676Y-66233907D01*
X46497276Y-66258176D01*
X46498480Y-66282680D01*
X46498480Y-67032680D01*
X46497276Y-67057184D01*
X46493676Y-67081453D01*
X46487715Y-67105251D01*
X46479450Y-67128351D01*
X46468960Y-67150529D01*
X46456347Y-67171573D01*
X46441733Y-67191278D01*
X46425257Y-67209457D01*
X46407078Y-67225933D01*
X46387373Y-67240547D01*
X46366329Y-67253160D01*
X46344151Y-67263650D01*
X46321051Y-67271915D01*
X46297253Y-67277876D01*
X46272984Y-67281476D01*
X46248480Y-67282680D01*
X44998480Y-67282680D01*
X44973976Y-67281476D01*
X44949707Y-67277876D01*
X44925909Y-67271915D01*
X44902809Y-67263650D01*
X44880631Y-67253160D01*
X44859587Y-67240547D01*
X44839882Y-67225933D01*
X44821703Y-67209457D01*
X44805227Y-67191278D01*
X44790613Y-67171573D01*
X44778000Y-67150529D01*
X44767510Y-67128351D01*
X44759245Y-67105251D01*
X44753284Y-67081453D01*
X44749684Y-67057184D01*
X44748480Y-67032680D01*
X44748480Y-66282680D01*
X44749684Y-66258176D01*
X44753284Y-66233907D01*
X44759245Y-66210109D01*
X44767510Y-66187009D01*
X44778000Y-66164831D01*
X44790613Y-66143787D01*
X44805227Y-66124082D01*
X44821703Y-66105903D01*
X44839882Y-66089427D01*
X44859587Y-66074813D01*
X44880631Y-66062200D01*
X44902809Y-66051710D01*
X44925909Y-66043445D01*
X44949707Y-66037484D01*
X44973976Y-66033884D01*
X44998480Y-66032680D01*
X46248480Y-66032680D01*
X46272984Y-66033884D01*
G37*
G36*
X39995104Y-69463884D02*
G01*
X40019373Y-69467484D01*
X40043171Y-69473445D01*
X40066271Y-69481710D01*
X40088449Y-69492200D01*
X40109493Y-69504813D01*
X40129198Y-69519427D01*
X40147377Y-69535903D01*
X40163853Y-69554082D01*
X40178467Y-69573787D01*
X40191080Y-69594831D01*
X40201570Y-69617009D01*
X40209835Y-69640109D01*
X40215796Y-69663907D01*
X40219396Y-69688176D01*
X40220600Y-69712680D01*
X40220600Y-70962680D01*
X40219396Y-70987184D01*
X40215796Y-71011453D01*
X40209835Y-71035251D01*
X40201570Y-71058351D01*
X40191080Y-71080529D01*
X40178467Y-71101573D01*
X40163853Y-71121278D01*
X40147377Y-71139457D01*
X40129198Y-71155933D01*
X40109493Y-71170547D01*
X40088449Y-71183160D01*
X40066271Y-71193650D01*
X40043171Y-71201915D01*
X40019373Y-71207876D01*
X39995104Y-71211476D01*
X39970600Y-71212680D01*
X39220600Y-71212680D01*
X39196096Y-71211476D01*
X39171827Y-71207876D01*
X39148029Y-71201915D01*
X39124929Y-71193650D01*
X39102751Y-71183160D01*
X39081707Y-71170547D01*
X39062002Y-71155933D01*
X39043823Y-71139457D01*
X39027347Y-71121278D01*
X39012733Y-71101573D01*
X39000120Y-71080529D01*
X38989630Y-71058351D01*
X38981365Y-71035251D01*
X38975404Y-71011453D01*
X38971804Y-70987184D01*
X38970600Y-70962680D01*
X38970600Y-69712680D01*
X38971804Y-69688176D01*
X38975404Y-69663907D01*
X38981365Y-69640109D01*
X38989630Y-69617009D01*
X39000120Y-69594831D01*
X39012733Y-69573787D01*
X39027347Y-69554082D01*
X39043823Y-69535903D01*
X39062002Y-69519427D01*
X39081707Y-69504813D01*
X39102751Y-69492200D01*
X39124929Y-69481710D01*
X39148029Y-69473445D01*
X39171827Y-69467484D01*
X39196096Y-69463884D01*
X39220600Y-69462680D01*
X39970600Y-69462680D01*
X39995104Y-69463884D01*
G37*
G36*
X42795104Y-69463884D02*
G01*
X42819373Y-69467484D01*
X42843171Y-69473445D01*
X42866271Y-69481710D01*
X42888449Y-69492200D01*
X42909493Y-69504813D01*
X42929198Y-69519427D01*
X42947377Y-69535903D01*
X42963853Y-69554082D01*
X42978467Y-69573787D01*
X42991080Y-69594831D01*
X43001570Y-69617009D01*
X43009835Y-69640109D01*
X43015796Y-69663907D01*
X43019396Y-69688176D01*
X43020600Y-69712680D01*
X43020600Y-70962680D01*
X43019396Y-70987184D01*
X43015796Y-71011453D01*
X43009835Y-71035251D01*
X43001570Y-71058351D01*
X42991080Y-71080529D01*
X42978467Y-71101573D01*
X42963853Y-71121278D01*
X42947377Y-71139457D01*
X42929198Y-71155933D01*
X42909493Y-71170547D01*
X42888449Y-71183160D01*
X42866271Y-71193650D01*
X42843171Y-71201915D01*
X42819373Y-71207876D01*
X42795104Y-71211476D01*
X42770600Y-71212680D01*
X42020600Y-71212680D01*
X41996096Y-71211476D01*
X41971827Y-71207876D01*
X41948029Y-71201915D01*
X41924929Y-71193650D01*
X41902751Y-71183160D01*
X41881707Y-71170547D01*
X41862002Y-71155933D01*
X41843823Y-71139457D01*
X41827347Y-71121278D01*
X41812733Y-71101573D01*
X41800120Y-71080529D01*
X41789630Y-71058351D01*
X41781365Y-71035251D01*
X41775404Y-71011453D01*
X41771804Y-70987184D01*
X41770600Y-70962680D01*
X41770600Y-69712680D01*
X41771804Y-69688176D01*
X41775404Y-69663907D01*
X41781365Y-69640109D01*
X41789630Y-69617009D01*
X41800120Y-69594831D01*
X41812733Y-69573787D01*
X41827347Y-69554082D01*
X41843823Y-69535903D01*
X41862002Y-69519427D01*
X41881707Y-69504813D01*
X41902751Y-69492200D01*
X41924929Y-69481710D01*
X41948029Y-69473445D01*
X41971827Y-69467484D01*
X41996096Y-69463884D01*
X42020600Y-69462680D01*
X42770600Y-69462680D01*
X42795104Y-69463884D01*
G37*
G36*
X28053264Y-53404764D02*
G01*
X28077533Y-53408364D01*
X28101331Y-53414325D01*
X28124431Y-53422590D01*
X28146609Y-53433080D01*
X28167653Y-53445693D01*
X28187358Y-53460307D01*
X28205537Y-53476783D01*
X28222013Y-53494962D01*
X28236627Y-53514667D01*
X28249240Y-53535711D01*
X28259730Y-53557889D01*
X28267995Y-53580989D01*
X28273956Y-53604787D01*
X28277556Y-53629056D01*
X28278760Y-53653560D01*
X28278760Y-54903560D01*
X28277556Y-54928064D01*
X28273956Y-54952333D01*
X28267995Y-54976131D01*
X28259730Y-54999231D01*
X28249240Y-55021409D01*
X28236627Y-55042453D01*
X28222013Y-55062158D01*
X28205537Y-55080337D01*
X28187358Y-55096813D01*
X28167653Y-55111427D01*
X28146609Y-55124040D01*
X28124431Y-55134530D01*
X28101331Y-55142795D01*
X28077533Y-55148756D01*
X28053264Y-55152356D01*
X28028760Y-55153560D01*
X27278760Y-55153560D01*
X27254256Y-55152356D01*
X27229987Y-55148756D01*
X27206189Y-55142795D01*
X27183089Y-55134530D01*
X27160911Y-55124040D01*
X27139867Y-55111427D01*
X27120162Y-55096813D01*
X27101983Y-55080337D01*
X27085507Y-55062158D01*
X27070893Y-55042453D01*
X27058280Y-55021409D01*
X27047790Y-54999231D01*
X27039525Y-54976131D01*
X27033564Y-54952333D01*
X27029964Y-54928064D01*
X27028760Y-54903560D01*
X27028760Y-53653560D01*
X27029964Y-53629056D01*
X27033564Y-53604787D01*
X27039525Y-53580989D01*
X27047790Y-53557889D01*
X27058280Y-53535711D01*
X27070893Y-53514667D01*
X27085507Y-53494962D01*
X27101983Y-53476783D01*
X27120162Y-53460307D01*
X27139867Y-53445693D01*
X27160911Y-53433080D01*
X27183089Y-53422590D01*
X27206189Y-53414325D01*
X27229987Y-53408364D01*
X27254256Y-53404764D01*
X27278760Y-53403560D01*
X28028760Y-53403560D01*
X28053264Y-53404764D01*
G37*
G36*
X30853264Y-53404764D02*
G01*
X30877533Y-53408364D01*
X30901331Y-53414325D01*
X30924431Y-53422590D01*
X30946609Y-53433080D01*
X30967653Y-53445693D01*
X30987358Y-53460307D01*
X31005537Y-53476783D01*
X31022013Y-53494962D01*
X31036627Y-53514667D01*
X31049240Y-53535711D01*
X31059730Y-53557889D01*
X31067995Y-53580989D01*
X31073956Y-53604787D01*
X31077556Y-53629056D01*
X31078760Y-53653560D01*
X31078760Y-54903560D01*
X31077556Y-54928064D01*
X31073956Y-54952333D01*
X31067995Y-54976131D01*
X31059730Y-54999231D01*
X31049240Y-55021409D01*
X31036627Y-55042453D01*
X31022013Y-55062158D01*
X31005537Y-55080337D01*
X30987358Y-55096813D01*
X30967653Y-55111427D01*
X30946609Y-55124040D01*
X30924431Y-55134530D01*
X30901331Y-55142795D01*
X30877533Y-55148756D01*
X30853264Y-55152356D01*
X30828760Y-55153560D01*
X30078760Y-55153560D01*
X30054256Y-55152356D01*
X30029987Y-55148756D01*
X30006189Y-55142795D01*
X29983089Y-55134530D01*
X29960911Y-55124040D01*
X29939867Y-55111427D01*
X29920162Y-55096813D01*
X29901983Y-55080337D01*
X29885507Y-55062158D01*
X29870893Y-55042453D01*
X29858280Y-55021409D01*
X29847790Y-54999231D01*
X29839525Y-54976131D01*
X29833564Y-54952333D01*
X29829964Y-54928064D01*
X29828760Y-54903560D01*
X29828760Y-53653560D01*
X29829964Y-53629056D01*
X29833564Y-53604787D01*
X29839525Y-53580989D01*
X29847790Y-53557889D01*
X29858280Y-53535711D01*
X29870893Y-53514667D01*
X29885507Y-53494962D01*
X29901983Y-53476783D01*
X29920162Y-53460307D01*
X29939867Y-53445693D01*
X29960911Y-53433080D01*
X29983089Y-53422590D01*
X30006189Y-53414325D01*
X30029987Y-53408364D01*
X30054256Y-53404764D01*
X30078760Y-53403560D01*
X30828760Y-53403560D01*
X30853264Y-53404764D01*
G37*
G36*
X46293304Y-60704964D02*
G01*
X46317573Y-60708564D01*
X46341371Y-60714525D01*
X46364471Y-60722790D01*
X46386649Y-60733280D01*
X46407693Y-60745893D01*
X46427398Y-60760507D01*
X46445577Y-60776983D01*
X46462053Y-60795162D01*
X46476667Y-60814867D01*
X46489280Y-60835911D01*
X46499770Y-60858089D01*
X46508035Y-60881189D01*
X46513996Y-60904987D01*
X46517596Y-60929256D01*
X46518800Y-60953760D01*
X46518800Y-61703760D01*
X46517596Y-61728264D01*
X46513996Y-61752533D01*
X46508035Y-61776331D01*
X46499770Y-61799431D01*
X46489280Y-61821609D01*
X46476667Y-61842653D01*
X46462053Y-61862358D01*
X46445577Y-61880537D01*
X46427398Y-61897013D01*
X46407693Y-61911627D01*
X46386649Y-61924240D01*
X46364471Y-61934730D01*
X46341371Y-61942995D01*
X46317573Y-61948956D01*
X46293304Y-61952556D01*
X46268800Y-61953760D01*
X45018800Y-61953760D01*
X44994296Y-61952556D01*
X44970027Y-61948956D01*
X44946229Y-61942995D01*
X44923129Y-61934730D01*
X44900951Y-61924240D01*
X44879907Y-61911627D01*
X44860202Y-61897013D01*
X44842023Y-61880537D01*
X44825547Y-61862358D01*
X44810933Y-61842653D01*
X44798320Y-61821609D01*
X44787830Y-61799431D01*
X44779565Y-61776331D01*
X44773604Y-61752533D01*
X44770004Y-61728264D01*
X44768800Y-61703760D01*
X44768800Y-60953760D01*
X44770004Y-60929256D01*
X44773604Y-60904987D01*
X44779565Y-60881189D01*
X44787830Y-60858089D01*
X44798320Y-60835911D01*
X44810933Y-60814867D01*
X44825547Y-60795162D01*
X44842023Y-60776983D01*
X44860202Y-60760507D01*
X44879907Y-60745893D01*
X44900951Y-60733280D01*
X44923129Y-60722790D01*
X44946229Y-60714525D01*
X44970027Y-60708564D01*
X44994296Y-60704964D01*
X45018800Y-60703760D01*
X46268800Y-60703760D01*
X46293304Y-60704964D01*
G37*
G36*
X46293304Y-57904964D02*
G01*
X46317573Y-57908564D01*
X46341371Y-57914525D01*
X46364471Y-57922790D01*
X46386649Y-57933280D01*
X46407693Y-57945893D01*
X46427398Y-57960507D01*
X46445577Y-57976983D01*
X46462053Y-57995162D01*
X46476667Y-58014867D01*
X46489280Y-58035911D01*
X46499770Y-58058089D01*
X46508035Y-58081189D01*
X46513996Y-58104987D01*
X46517596Y-58129256D01*
X46518800Y-58153760D01*
X46518800Y-58903760D01*
X46517596Y-58928264D01*
X46513996Y-58952533D01*
X46508035Y-58976331D01*
X46499770Y-58999431D01*
X46489280Y-59021609D01*
X46476667Y-59042653D01*
X46462053Y-59062358D01*
X46445577Y-59080537D01*
X46427398Y-59097013D01*
X46407693Y-59111627D01*
X46386649Y-59124240D01*
X46364471Y-59134730D01*
X46341371Y-59142995D01*
X46317573Y-59148956D01*
X46293304Y-59152556D01*
X46268800Y-59153760D01*
X45018800Y-59153760D01*
X44994296Y-59152556D01*
X44970027Y-59148956D01*
X44946229Y-59142995D01*
X44923129Y-59134730D01*
X44900951Y-59124240D01*
X44879907Y-59111627D01*
X44860202Y-59097013D01*
X44842023Y-59080537D01*
X44825547Y-59062358D01*
X44810933Y-59042653D01*
X44798320Y-59021609D01*
X44787830Y-58999431D01*
X44779565Y-58976331D01*
X44773604Y-58952533D01*
X44770004Y-58928264D01*
X44768800Y-58903760D01*
X44768800Y-58153760D01*
X44770004Y-58129256D01*
X44773604Y-58104987D01*
X44779565Y-58081189D01*
X44787830Y-58058089D01*
X44798320Y-58035911D01*
X44810933Y-58014867D01*
X44825547Y-57995162D01*
X44842023Y-57976983D01*
X44860202Y-57960507D01*
X44879907Y-57945893D01*
X44900951Y-57933280D01*
X44923129Y-57922790D01*
X44946229Y-57914525D01*
X44970027Y-57908564D01*
X44994296Y-57904964D01*
X45018800Y-57903760D01*
X46268800Y-57903760D01*
X46293304Y-57904964D01*
G37*
G36*
X26944584Y-69199724D02*
G01*
X26968853Y-69203324D01*
X26992651Y-69209285D01*
X27015751Y-69217550D01*
X27037929Y-69228040D01*
X27058973Y-69240653D01*
X27078678Y-69255267D01*
X27096857Y-69271743D01*
X27113333Y-69289922D01*
X27127947Y-69309627D01*
X27140560Y-69330671D01*
X27151050Y-69352849D01*
X27159315Y-69375949D01*
X27165276Y-69399747D01*
X27168876Y-69424016D01*
X27170080Y-69448520D01*
X27170080Y-70698520D01*
X27168876Y-70723024D01*
X27165276Y-70747293D01*
X27159315Y-70771091D01*
X27151050Y-70794191D01*
X27140560Y-70816369D01*
X27127947Y-70837413D01*
X27113333Y-70857118D01*
X27096857Y-70875297D01*
X27078678Y-70891773D01*
X27058973Y-70906387D01*
X27037929Y-70919000D01*
X27015751Y-70929490D01*
X26992651Y-70937755D01*
X26968853Y-70943716D01*
X26944584Y-70947316D01*
X26920080Y-70948520D01*
X26170080Y-70948520D01*
X26145576Y-70947316D01*
X26121307Y-70943716D01*
X26097509Y-70937755D01*
X26074409Y-70929490D01*
X26052231Y-70919000D01*
X26031187Y-70906387D01*
X26011482Y-70891773D01*
X25993303Y-70875297D01*
X25976827Y-70857118D01*
X25962213Y-70837413D01*
X25949600Y-70816369D01*
X25939110Y-70794191D01*
X25930845Y-70771091D01*
X25924884Y-70747293D01*
X25921284Y-70723024D01*
X25920080Y-70698520D01*
X25920080Y-69448520D01*
X25921284Y-69424016D01*
X25924884Y-69399747D01*
X25930845Y-69375949D01*
X25939110Y-69352849D01*
X25949600Y-69330671D01*
X25962213Y-69309627D01*
X25976827Y-69289922D01*
X25993303Y-69271743D01*
X26011482Y-69255267D01*
X26031187Y-69240653D01*
X26052231Y-69228040D01*
X26074409Y-69217550D01*
X26097509Y-69209285D01*
X26121307Y-69203324D01*
X26145576Y-69199724D01*
X26170080Y-69198520D01*
X26920080Y-69198520D01*
X26944584Y-69199724D01*
G37*
G36*
X29744584Y-69199724D02*
G01*
X29768853Y-69203324D01*
X29792651Y-69209285D01*
X29815751Y-69217550D01*
X29837929Y-69228040D01*
X29858973Y-69240653D01*
X29878678Y-69255267D01*
X29896857Y-69271743D01*
X29913333Y-69289922D01*
X29927947Y-69309627D01*
X29940560Y-69330671D01*
X29951050Y-69352849D01*
X29959315Y-69375949D01*
X29965276Y-69399747D01*
X29968876Y-69424016D01*
X29970080Y-69448520D01*
X29970080Y-70698520D01*
X29968876Y-70723024D01*
X29965276Y-70747293D01*
X29959315Y-70771091D01*
X29951050Y-70794191D01*
X29940560Y-70816369D01*
X29927947Y-70837413D01*
X29913333Y-70857118D01*
X29896857Y-70875297D01*
X29878678Y-70891773D01*
X29858973Y-70906387D01*
X29837929Y-70919000D01*
X29815751Y-70929490D01*
X29792651Y-70937755D01*
X29768853Y-70943716D01*
X29744584Y-70947316D01*
X29720080Y-70948520D01*
X28970080Y-70948520D01*
X28945576Y-70947316D01*
X28921307Y-70943716D01*
X28897509Y-70937755D01*
X28874409Y-70929490D01*
X28852231Y-70919000D01*
X28831187Y-70906387D01*
X28811482Y-70891773D01*
X28793303Y-70875297D01*
X28776827Y-70857118D01*
X28762213Y-70837413D01*
X28749600Y-70816369D01*
X28739110Y-70794191D01*
X28730845Y-70771091D01*
X28724884Y-70747293D01*
X28721284Y-70723024D01*
X28720080Y-70698520D01*
X28720080Y-69448520D01*
X28721284Y-69424016D01*
X28724884Y-69399747D01*
X28730845Y-69375949D01*
X28739110Y-69352849D01*
X28749600Y-69330671D01*
X28762213Y-69309627D01*
X28776827Y-69289922D01*
X28793303Y-69271743D01*
X28811482Y-69255267D01*
X28831187Y-69240653D01*
X28852231Y-69228040D01*
X28874409Y-69217550D01*
X28897509Y-69209285D01*
X28921307Y-69203324D01*
X28945576Y-69199724D01*
X28970080Y-69198520D01*
X29720080Y-69198520D01*
X29744584Y-69199724D01*
G37*
G36*
X53713944Y-65224924D02*
G01*
X53738213Y-65228524D01*
X53762011Y-65234485D01*
X53785111Y-65242750D01*
X53807289Y-65253240D01*
X53828333Y-65265853D01*
X53848038Y-65280467D01*
X53866217Y-65296943D01*
X53882693Y-65315122D01*
X53897307Y-65334827D01*
X53909920Y-65355871D01*
X53920410Y-65378049D01*
X53928675Y-65401149D01*
X53934636Y-65424947D01*
X53938236Y-65449216D01*
X53939440Y-65473720D01*
X53939440Y-66223720D01*
X53938236Y-66248224D01*
X53934636Y-66272493D01*
X53928675Y-66296291D01*
X53920410Y-66319391D01*
X53909920Y-66341569D01*
X53897307Y-66362613D01*
X53882693Y-66382318D01*
X53866217Y-66400497D01*
X53848038Y-66416973D01*
X53828333Y-66431587D01*
X53807289Y-66444200D01*
X53785111Y-66454690D01*
X53762011Y-66462955D01*
X53738213Y-66468916D01*
X53713944Y-66472516D01*
X53689440Y-66473720D01*
X52439440Y-66473720D01*
X52414936Y-66472516D01*
X52390667Y-66468916D01*
X52366869Y-66462955D01*
X52343769Y-66454690D01*
X52321591Y-66444200D01*
X52300547Y-66431587D01*
X52280842Y-66416973D01*
X52262663Y-66400497D01*
X52246187Y-66382318D01*
X52231573Y-66362613D01*
X52218960Y-66341569D01*
X52208470Y-66319391D01*
X52200205Y-66296291D01*
X52194244Y-66272493D01*
X52190644Y-66248224D01*
X52189440Y-66223720D01*
X52189440Y-65473720D01*
X52190644Y-65449216D01*
X52194244Y-65424947D01*
X52200205Y-65401149D01*
X52208470Y-65378049D01*
X52218960Y-65355871D01*
X52231573Y-65334827D01*
X52246187Y-65315122D01*
X52262663Y-65296943D01*
X52280842Y-65280467D01*
X52300547Y-65265853D01*
X52321591Y-65253240D01*
X52343769Y-65242750D01*
X52366869Y-65234485D01*
X52390667Y-65228524D01*
X52414936Y-65224924D01*
X52439440Y-65223720D01*
X53689440Y-65223720D01*
X53713944Y-65224924D01*
G37*
G36*
X53713944Y-62424924D02*
G01*
X53738213Y-62428524D01*
X53762011Y-62434485D01*
X53785111Y-62442750D01*
X53807289Y-62453240D01*
X53828333Y-62465853D01*
X53848038Y-62480467D01*
X53866217Y-62496943D01*
X53882693Y-62515122D01*
X53897307Y-62534827D01*
X53909920Y-62555871D01*
X53920410Y-62578049D01*
X53928675Y-62601149D01*
X53934636Y-62624947D01*
X53938236Y-62649216D01*
X53939440Y-62673720D01*
X53939440Y-63423720D01*
X53938236Y-63448224D01*
X53934636Y-63472493D01*
X53928675Y-63496291D01*
X53920410Y-63519391D01*
X53909920Y-63541569D01*
X53897307Y-63562613D01*
X53882693Y-63582318D01*
X53866217Y-63600497D01*
X53848038Y-63616973D01*
X53828333Y-63631587D01*
X53807289Y-63644200D01*
X53785111Y-63654690D01*
X53762011Y-63662955D01*
X53738213Y-63668916D01*
X53713944Y-63672516D01*
X53689440Y-63673720D01*
X52439440Y-63673720D01*
X52414936Y-63672516D01*
X52390667Y-63668916D01*
X52366869Y-63662955D01*
X52343769Y-63654690D01*
X52321591Y-63644200D01*
X52300547Y-63631587D01*
X52280842Y-63616973D01*
X52262663Y-63600497D01*
X52246187Y-63582318D01*
X52231573Y-63562613D01*
X52218960Y-63541569D01*
X52208470Y-63519391D01*
X52200205Y-63496291D01*
X52194244Y-63472493D01*
X52190644Y-63448224D01*
X52189440Y-63423720D01*
X52189440Y-62673720D01*
X52190644Y-62649216D01*
X52194244Y-62624947D01*
X52200205Y-62601149D01*
X52208470Y-62578049D01*
X52218960Y-62555871D01*
X52231573Y-62534827D01*
X52246187Y-62515122D01*
X52262663Y-62496943D01*
X52280842Y-62480467D01*
X52300547Y-62465853D01*
X52321591Y-62453240D01*
X52343769Y-62442750D01*
X52366869Y-62434485D01*
X52390667Y-62428524D01*
X52414936Y-62424924D01*
X52439440Y-62423720D01*
X53689440Y-62423720D01*
X53713944Y-62424924D01*
G37*
G36*
X56406344Y-62374124D02*
G01*
X56430613Y-62377724D01*
X56454411Y-62383685D01*
X56477511Y-62391950D01*
X56499689Y-62402440D01*
X56520733Y-62415053D01*
X56540438Y-62429667D01*
X56558617Y-62446143D01*
X56575093Y-62464322D01*
X56589707Y-62484027D01*
X56602320Y-62505071D01*
X56612810Y-62527249D01*
X56621075Y-62550349D01*
X56627036Y-62574147D01*
X56630636Y-62598416D01*
X56631840Y-62622920D01*
X56631840Y-63372920D01*
X56630636Y-63397424D01*
X56627036Y-63421693D01*
X56621075Y-63445491D01*
X56612810Y-63468591D01*
X56602320Y-63490769D01*
X56589707Y-63511813D01*
X56575093Y-63531518D01*
X56558617Y-63549697D01*
X56540438Y-63566173D01*
X56520733Y-63580787D01*
X56499689Y-63593400D01*
X56477511Y-63603890D01*
X56454411Y-63612155D01*
X56430613Y-63618116D01*
X56406344Y-63621716D01*
X56381840Y-63622920D01*
X55131840Y-63622920D01*
X55107336Y-63621716D01*
X55083067Y-63618116D01*
X55059269Y-63612155D01*
X55036169Y-63603890D01*
X55013991Y-63593400D01*
X54992947Y-63580787D01*
X54973242Y-63566173D01*
X54955063Y-63549697D01*
X54938587Y-63531518D01*
X54923973Y-63511813D01*
X54911360Y-63490769D01*
X54900870Y-63468591D01*
X54892605Y-63445491D01*
X54886644Y-63421693D01*
X54883044Y-63397424D01*
X54881840Y-63372920D01*
X54881840Y-62622920D01*
X54883044Y-62598416D01*
X54886644Y-62574147D01*
X54892605Y-62550349D01*
X54900870Y-62527249D01*
X54911360Y-62505071D01*
X54923973Y-62484027D01*
X54938587Y-62464322D01*
X54955063Y-62446143D01*
X54973242Y-62429667D01*
X54992947Y-62415053D01*
X55013991Y-62402440D01*
X55036169Y-62391950D01*
X55059269Y-62383685D01*
X55083067Y-62377724D01*
X55107336Y-62374124D01*
X55131840Y-62372920D01*
X56381840Y-62372920D01*
X56406344Y-62374124D01*
G37*
G36*
X56406344Y-65174124D02*
G01*
X56430613Y-65177724D01*
X56454411Y-65183685D01*
X56477511Y-65191950D01*
X56499689Y-65202440D01*
X56520733Y-65215053D01*
X56540438Y-65229667D01*
X56558617Y-65246143D01*
X56575093Y-65264322D01*
X56589707Y-65284027D01*
X56602320Y-65305071D01*
X56612810Y-65327249D01*
X56621075Y-65350349D01*
X56627036Y-65374147D01*
X56630636Y-65398416D01*
X56631840Y-65422920D01*
X56631840Y-66172920D01*
X56630636Y-66197424D01*
X56627036Y-66221693D01*
X56621075Y-66245491D01*
X56612810Y-66268591D01*
X56602320Y-66290769D01*
X56589707Y-66311813D01*
X56575093Y-66331518D01*
X56558617Y-66349697D01*
X56540438Y-66366173D01*
X56520733Y-66380787D01*
X56499689Y-66393400D01*
X56477511Y-66403890D01*
X56454411Y-66412155D01*
X56430613Y-66418116D01*
X56406344Y-66421716D01*
X56381840Y-66422920D01*
X55131840Y-66422920D01*
X55107336Y-66421716D01*
X55083067Y-66418116D01*
X55059269Y-66412155D01*
X55036169Y-66403890D01*
X55013991Y-66393400D01*
X54992947Y-66380787D01*
X54973242Y-66366173D01*
X54955063Y-66349697D01*
X54938587Y-66331518D01*
X54923973Y-66311813D01*
X54911360Y-66290769D01*
X54900870Y-66268591D01*
X54892605Y-66245491D01*
X54886644Y-66221693D01*
X54883044Y-66197424D01*
X54881840Y-66172920D01*
X54881840Y-65422920D01*
X54883044Y-65398416D01*
X54886644Y-65374147D01*
X54892605Y-65350349D01*
X54900870Y-65327249D01*
X54911360Y-65305071D01*
X54923973Y-65284027D01*
X54938587Y-65264322D01*
X54955063Y-65246143D01*
X54973242Y-65229667D01*
X54992947Y-65215053D01*
X55013991Y-65202440D01*
X55036169Y-65191950D01*
X55059269Y-65183685D01*
X55083067Y-65177724D01*
X55107336Y-65174124D01*
X55131840Y-65172920D01*
X56381840Y-65172920D01*
X56406344Y-65174124D01*
G37*
G36*
X47129584Y-39958004D02*
G01*
X47153853Y-39961604D01*
X47177651Y-39967565D01*
X47200751Y-39975830D01*
X47222929Y-39986320D01*
X47243973Y-39998933D01*
X47263678Y-40013547D01*
X47281857Y-40030023D01*
X47298333Y-40048202D01*
X47312947Y-40067907D01*
X47325560Y-40088951D01*
X47336050Y-40111129D01*
X47344315Y-40134229D01*
X47350276Y-40158027D01*
X47353876Y-40182296D01*
X47355080Y-40206800D01*
X47355080Y-41456800D01*
X47353876Y-41481304D01*
X47350276Y-41505573D01*
X47344315Y-41529371D01*
X47336050Y-41552471D01*
X47325560Y-41574649D01*
X47312947Y-41595693D01*
X47298333Y-41615398D01*
X47281857Y-41633577D01*
X47263678Y-41650053D01*
X47243973Y-41664667D01*
X47222929Y-41677280D01*
X47200751Y-41687770D01*
X47177651Y-41696035D01*
X47153853Y-41701996D01*
X47129584Y-41705596D01*
X47105080Y-41706800D01*
X46355080Y-41706800D01*
X46330576Y-41705596D01*
X46306307Y-41701996D01*
X46282509Y-41696035D01*
X46259409Y-41687770D01*
X46237231Y-41677280D01*
X46216187Y-41664667D01*
X46196482Y-41650053D01*
X46178303Y-41633577D01*
X46161827Y-41615398D01*
X46147213Y-41595693D01*
X46134600Y-41574649D01*
X46124110Y-41552471D01*
X46115845Y-41529371D01*
X46109884Y-41505573D01*
X46106284Y-41481304D01*
X46105080Y-41456800D01*
X46105080Y-40206800D01*
X46106284Y-40182296D01*
X46109884Y-40158027D01*
X46115845Y-40134229D01*
X46124110Y-40111129D01*
X46134600Y-40088951D01*
X46147213Y-40067907D01*
X46161827Y-40048202D01*
X46178303Y-40030023D01*
X46196482Y-40013547D01*
X46216187Y-39998933D01*
X46237231Y-39986320D01*
X46259409Y-39975830D01*
X46282509Y-39967565D01*
X46306307Y-39961604D01*
X46330576Y-39958004D01*
X46355080Y-39956800D01*
X47105080Y-39956800D01*
X47129584Y-39958004D01*
G37*
G36*
X44329584Y-39958004D02*
G01*
X44353853Y-39961604D01*
X44377651Y-39967565D01*
X44400751Y-39975830D01*
X44422929Y-39986320D01*
X44443973Y-39998933D01*
X44463678Y-40013547D01*
X44481857Y-40030023D01*
X44498333Y-40048202D01*
X44512947Y-40067907D01*
X44525560Y-40088951D01*
X44536050Y-40111129D01*
X44544315Y-40134229D01*
X44550276Y-40158027D01*
X44553876Y-40182296D01*
X44555080Y-40206800D01*
X44555080Y-41456800D01*
X44553876Y-41481304D01*
X44550276Y-41505573D01*
X44544315Y-41529371D01*
X44536050Y-41552471D01*
X44525560Y-41574649D01*
X44512947Y-41595693D01*
X44498333Y-41615398D01*
X44481857Y-41633577D01*
X44463678Y-41650053D01*
X44443973Y-41664667D01*
X44422929Y-41677280D01*
X44400751Y-41687770D01*
X44377651Y-41696035D01*
X44353853Y-41701996D01*
X44329584Y-41705596D01*
X44305080Y-41706800D01*
X43555080Y-41706800D01*
X43530576Y-41705596D01*
X43506307Y-41701996D01*
X43482509Y-41696035D01*
X43459409Y-41687770D01*
X43437231Y-41677280D01*
X43416187Y-41664667D01*
X43396482Y-41650053D01*
X43378303Y-41633577D01*
X43361827Y-41615398D01*
X43347213Y-41595693D01*
X43334600Y-41574649D01*
X43324110Y-41552471D01*
X43315845Y-41529371D01*
X43309884Y-41505573D01*
X43306284Y-41481304D01*
X43305080Y-41456800D01*
X43305080Y-40206800D01*
X43306284Y-40182296D01*
X43309884Y-40158027D01*
X43315845Y-40134229D01*
X43324110Y-40111129D01*
X43334600Y-40088951D01*
X43347213Y-40067907D01*
X43361827Y-40048202D01*
X43378303Y-40030023D01*
X43396482Y-40013547D01*
X43416187Y-39998933D01*
X43437231Y-39986320D01*
X43459409Y-39975830D01*
X43482509Y-39967565D01*
X43506307Y-39961604D01*
X43530576Y-39958004D01*
X43555080Y-39956800D01*
X44305080Y-39956800D01*
X44329584Y-39958004D01*
G37*
G36*
X19747464Y-50118004D02*
G01*
X19771733Y-50121604D01*
X19795531Y-50127565D01*
X19818631Y-50135830D01*
X19840809Y-50146320D01*
X19861853Y-50158933D01*
X19881558Y-50173547D01*
X19899737Y-50190023D01*
X19916213Y-50208202D01*
X19930827Y-50227907D01*
X19943440Y-50248951D01*
X19953930Y-50271129D01*
X19962195Y-50294229D01*
X19968156Y-50318027D01*
X19971756Y-50342296D01*
X19972960Y-50366800D01*
X19972960Y-51616800D01*
X19971756Y-51641304D01*
X19968156Y-51665573D01*
X19962195Y-51689371D01*
X19953930Y-51712471D01*
X19943440Y-51734649D01*
X19930827Y-51755693D01*
X19916213Y-51775398D01*
X19899737Y-51793577D01*
X19881558Y-51810053D01*
X19861853Y-51824667D01*
X19840809Y-51837280D01*
X19818631Y-51847770D01*
X19795531Y-51856035D01*
X19771733Y-51861996D01*
X19747464Y-51865596D01*
X19722960Y-51866800D01*
X18972960Y-51866800D01*
X18948456Y-51865596D01*
X18924187Y-51861996D01*
X18900389Y-51856035D01*
X18877289Y-51847770D01*
X18855111Y-51837280D01*
X18834067Y-51824667D01*
X18814362Y-51810053D01*
X18796183Y-51793577D01*
X18779707Y-51775398D01*
X18765093Y-51755693D01*
X18752480Y-51734649D01*
X18741990Y-51712471D01*
X18733725Y-51689371D01*
X18727764Y-51665573D01*
X18724164Y-51641304D01*
X18722960Y-51616800D01*
X18722960Y-50366800D01*
X18724164Y-50342296D01*
X18727764Y-50318027D01*
X18733725Y-50294229D01*
X18741990Y-50271129D01*
X18752480Y-50248951D01*
X18765093Y-50227907D01*
X18779707Y-50208202D01*
X18796183Y-50190023D01*
X18814362Y-50173547D01*
X18834067Y-50158933D01*
X18855111Y-50146320D01*
X18877289Y-50135830D01*
X18900389Y-50127565D01*
X18924187Y-50121604D01*
X18948456Y-50118004D01*
X18972960Y-50116800D01*
X19722960Y-50116800D01*
X19747464Y-50118004D01*
G37*
G36*
X22547464Y-50118004D02*
G01*
X22571733Y-50121604D01*
X22595531Y-50127565D01*
X22618631Y-50135830D01*
X22640809Y-50146320D01*
X22661853Y-50158933D01*
X22681558Y-50173547D01*
X22699737Y-50190023D01*
X22716213Y-50208202D01*
X22730827Y-50227907D01*
X22743440Y-50248951D01*
X22753930Y-50271129D01*
X22762195Y-50294229D01*
X22768156Y-50318027D01*
X22771756Y-50342296D01*
X22772960Y-50366800D01*
X22772960Y-51616800D01*
X22771756Y-51641304D01*
X22768156Y-51665573D01*
X22762195Y-51689371D01*
X22753930Y-51712471D01*
X22743440Y-51734649D01*
X22730827Y-51755693D01*
X22716213Y-51775398D01*
X22699737Y-51793577D01*
X22681558Y-51810053D01*
X22661853Y-51824667D01*
X22640809Y-51837280D01*
X22618631Y-51847770D01*
X22595531Y-51856035D01*
X22571733Y-51861996D01*
X22547464Y-51865596D01*
X22522960Y-51866800D01*
X21772960Y-51866800D01*
X21748456Y-51865596D01*
X21724187Y-51861996D01*
X21700389Y-51856035D01*
X21677289Y-51847770D01*
X21655111Y-51837280D01*
X21634067Y-51824667D01*
X21614362Y-51810053D01*
X21596183Y-51793577D01*
X21579707Y-51775398D01*
X21565093Y-51755693D01*
X21552480Y-51734649D01*
X21541990Y-51712471D01*
X21533725Y-51689371D01*
X21527764Y-51665573D01*
X21524164Y-51641304D01*
X21522960Y-51616800D01*
X21522960Y-50366800D01*
X21524164Y-50342296D01*
X21527764Y-50318027D01*
X21533725Y-50294229D01*
X21541990Y-50271129D01*
X21552480Y-50248951D01*
X21565093Y-50227907D01*
X21579707Y-50208202D01*
X21596183Y-50190023D01*
X21614362Y-50173547D01*
X21634067Y-50158933D01*
X21655111Y-50146320D01*
X21677289Y-50135830D01*
X21700389Y-50127565D01*
X21724187Y-50121604D01*
X21748456Y-50118004D01*
X21772960Y-50116800D01*
X22522960Y-50116800D01*
X22547464Y-50118004D01*
G37*
G36*
X19793184Y-47598324D02*
G01*
X19817453Y-47601924D01*
X19841251Y-47607885D01*
X19864351Y-47616150D01*
X19886529Y-47626640D01*
X19907573Y-47639253D01*
X19927278Y-47653867D01*
X19945457Y-47670343D01*
X19961933Y-47688522D01*
X19976547Y-47708227D01*
X19989160Y-47729271D01*
X19999650Y-47751449D01*
X20007915Y-47774549D01*
X20013876Y-47798347D01*
X20017476Y-47822616D01*
X20018680Y-47847120D01*
X20018680Y-49097120D01*
X20017476Y-49121624D01*
X20013876Y-49145893D01*
X20007915Y-49169691D01*
X19999650Y-49192791D01*
X19989160Y-49214969D01*
X19976547Y-49236013D01*
X19961933Y-49255718D01*
X19945457Y-49273897D01*
X19927278Y-49290373D01*
X19907573Y-49304987D01*
X19886529Y-49317600D01*
X19864351Y-49328090D01*
X19841251Y-49336355D01*
X19817453Y-49342316D01*
X19793184Y-49345916D01*
X19768680Y-49347120D01*
X19018680Y-49347120D01*
X18994176Y-49345916D01*
X18969907Y-49342316D01*
X18946109Y-49336355D01*
X18923009Y-49328090D01*
X18900831Y-49317600D01*
X18879787Y-49304987D01*
X18860082Y-49290373D01*
X18841903Y-49273897D01*
X18825427Y-49255718D01*
X18810813Y-49236013D01*
X18798200Y-49214969D01*
X18787710Y-49192791D01*
X18779445Y-49169691D01*
X18773484Y-49145893D01*
X18769884Y-49121624D01*
X18768680Y-49097120D01*
X18768680Y-47847120D01*
X18769884Y-47822616D01*
X18773484Y-47798347D01*
X18779445Y-47774549D01*
X18787710Y-47751449D01*
X18798200Y-47729271D01*
X18810813Y-47708227D01*
X18825427Y-47688522D01*
X18841903Y-47670343D01*
X18860082Y-47653867D01*
X18879787Y-47639253D01*
X18900831Y-47626640D01*
X18923009Y-47616150D01*
X18946109Y-47607885D01*
X18969907Y-47601924D01*
X18994176Y-47598324D01*
X19018680Y-47597120D01*
X19768680Y-47597120D01*
X19793184Y-47598324D01*
G37*
G36*
X22593184Y-47598324D02*
G01*
X22617453Y-47601924D01*
X22641251Y-47607885D01*
X22664351Y-47616150D01*
X22686529Y-47626640D01*
X22707573Y-47639253D01*
X22727278Y-47653867D01*
X22745457Y-47670343D01*
X22761933Y-47688522D01*
X22776547Y-47708227D01*
X22789160Y-47729271D01*
X22799650Y-47751449D01*
X22807915Y-47774549D01*
X22813876Y-47798347D01*
X22817476Y-47822616D01*
X22818680Y-47847120D01*
X22818680Y-49097120D01*
X22817476Y-49121624D01*
X22813876Y-49145893D01*
X22807915Y-49169691D01*
X22799650Y-49192791D01*
X22789160Y-49214969D01*
X22776547Y-49236013D01*
X22761933Y-49255718D01*
X22745457Y-49273897D01*
X22727278Y-49290373D01*
X22707573Y-49304987D01*
X22686529Y-49317600D01*
X22664351Y-49328090D01*
X22641251Y-49336355D01*
X22617453Y-49342316D01*
X22593184Y-49345916D01*
X22568680Y-49347120D01*
X21818680Y-49347120D01*
X21794176Y-49345916D01*
X21769907Y-49342316D01*
X21746109Y-49336355D01*
X21723009Y-49328090D01*
X21700831Y-49317600D01*
X21679787Y-49304987D01*
X21660082Y-49290373D01*
X21641903Y-49273897D01*
X21625427Y-49255718D01*
X21610813Y-49236013D01*
X21598200Y-49214969D01*
X21587710Y-49192791D01*
X21579445Y-49169691D01*
X21573484Y-49145893D01*
X21569884Y-49121624D01*
X21568680Y-49097120D01*
X21568680Y-47847120D01*
X21569884Y-47822616D01*
X21573484Y-47798347D01*
X21579445Y-47774549D01*
X21587710Y-47751449D01*
X21598200Y-47729271D01*
X21610813Y-47708227D01*
X21625427Y-47688522D01*
X21641903Y-47670343D01*
X21660082Y-47653867D01*
X21679787Y-47639253D01*
X21700831Y-47626640D01*
X21723009Y-47616150D01*
X21746109Y-47607885D01*
X21769907Y-47601924D01*
X21794176Y-47598324D01*
X21818680Y-47597120D01*
X22568680Y-47597120D01*
X22593184Y-47598324D01*
G37*
G36*
X47200704Y-50143404D02*
G01*
X47224973Y-50147004D01*
X47248771Y-50152965D01*
X47271871Y-50161230D01*
X47294049Y-50171720D01*
X47315093Y-50184333D01*
X47334798Y-50198947D01*
X47352977Y-50215423D01*
X47369453Y-50233602D01*
X47384067Y-50253307D01*
X47396680Y-50274351D01*
X47407170Y-50296529D01*
X47415435Y-50319629D01*
X47421396Y-50343427D01*
X47424996Y-50367696D01*
X47426200Y-50392200D01*
X47426200Y-51642200D01*
X47424996Y-51666704D01*
X47421396Y-51690973D01*
X47415435Y-51714771D01*
X47407170Y-51737871D01*
X47396680Y-51760049D01*
X47384067Y-51781093D01*
X47369453Y-51800798D01*
X47352977Y-51818977D01*
X47334798Y-51835453D01*
X47315093Y-51850067D01*
X47294049Y-51862680D01*
X47271871Y-51873170D01*
X47248771Y-51881435D01*
X47224973Y-51887396D01*
X47200704Y-51890996D01*
X47176200Y-51892200D01*
X46426200Y-51892200D01*
X46401696Y-51890996D01*
X46377427Y-51887396D01*
X46353629Y-51881435D01*
X46330529Y-51873170D01*
X46308351Y-51862680D01*
X46287307Y-51850067D01*
X46267602Y-51835453D01*
X46249423Y-51818977D01*
X46232947Y-51800798D01*
X46218333Y-51781093D01*
X46205720Y-51760049D01*
X46195230Y-51737871D01*
X46186965Y-51714771D01*
X46181004Y-51690973D01*
X46177404Y-51666704D01*
X46176200Y-51642200D01*
X46176200Y-50392200D01*
X46177404Y-50367696D01*
X46181004Y-50343427D01*
X46186965Y-50319629D01*
X46195230Y-50296529D01*
X46205720Y-50274351D01*
X46218333Y-50253307D01*
X46232947Y-50233602D01*
X46249423Y-50215423D01*
X46267602Y-50198947D01*
X46287307Y-50184333D01*
X46308351Y-50171720D01*
X46330529Y-50161230D01*
X46353629Y-50152965D01*
X46377427Y-50147004D01*
X46401696Y-50143404D01*
X46426200Y-50142200D01*
X47176200Y-50142200D01*
X47200704Y-50143404D01*
G37*
G36*
X44400704Y-50143404D02*
G01*
X44424973Y-50147004D01*
X44448771Y-50152965D01*
X44471871Y-50161230D01*
X44494049Y-50171720D01*
X44515093Y-50184333D01*
X44534798Y-50198947D01*
X44552977Y-50215423D01*
X44569453Y-50233602D01*
X44584067Y-50253307D01*
X44596680Y-50274351D01*
X44607170Y-50296529D01*
X44615435Y-50319629D01*
X44621396Y-50343427D01*
X44624996Y-50367696D01*
X44626200Y-50392200D01*
X44626200Y-51642200D01*
X44624996Y-51666704D01*
X44621396Y-51690973D01*
X44615435Y-51714771D01*
X44607170Y-51737871D01*
X44596680Y-51760049D01*
X44584067Y-51781093D01*
X44569453Y-51800798D01*
X44552977Y-51818977D01*
X44534798Y-51835453D01*
X44515093Y-51850067D01*
X44494049Y-51862680D01*
X44471871Y-51873170D01*
X44448771Y-51881435D01*
X44424973Y-51887396D01*
X44400704Y-51890996D01*
X44376200Y-51892200D01*
X43626200Y-51892200D01*
X43601696Y-51890996D01*
X43577427Y-51887396D01*
X43553629Y-51881435D01*
X43530529Y-51873170D01*
X43508351Y-51862680D01*
X43487307Y-51850067D01*
X43467602Y-51835453D01*
X43449423Y-51818977D01*
X43432947Y-51800798D01*
X43418333Y-51781093D01*
X43405720Y-51760049D01*
X43395230Y-51737871D01*
X43386965Y-51714771D01*
X43381004Y-51690973D01*
X43377404Y-51666704D01*
X43376200Y-51642200D01*
X43376200Y-50392200D01*
X43377404Y-50367696D01*
X43381004Y-50343427D01*
X43386965Y-50319629D01*
X43395230Y-50296529D01*
X43405720Y-50274351D01*
X43418333Y-50253307D01*
X43432947Y-50233602D01*
X43449423Y-50215423D01*
X43467602Y-50198947D01*
X43487307Y-50184333D01*
X43508351Y-50171720D01*
X43530529Y-50161230D01*
X43553629Y-50152965D01*
X43577427Y-50147004D01*
X43601696Y-50143404D01*
X43626200Y-50142200D01*
X44376200Y-50142200D01*
X44400704Y-50143404D01*
G37*
G36*
X47170224Y-47547524D02*
G01*
X47194493Y-47551124D01*
X47218291Y-47557085D01*
X47241391Y-47565350D01*
X47263569Y-47575840D01*
X47284613Y-47588453D01*
X47304318Y-47603067D01*
X47322497Y-47619543D01*
X47338973Y-47637722D01*
X47353587Y-47657427D01*
X47366200Y-47678471D01*
X47376690Y-47700649D01*
X47384955Y-47723749D01*
X47390916Y-47747547D01*
X47394516Y-47771816D01*
X47395720Y-47796320D01*
X47395720Y-49046320D01*
X47394516Y-49070824D01*
X47390916Y-49095093D01*
X47384955Y-49118891D01*
X47376690Y-49141991D01*
X47366200Y-49164169D01*
X47353587Y-49185213D01*
X47338973Y-49204918D01*
X47322497Y-49223097D01*
X47304318Y-49239573D01*
X47284613Y-49254187D01*
X47263569Y-49266800D01*
X47241391Y-49277290D01*
X47218291Y-49285555D01*
X47194493Y-49291516D01*
X47170224Y-49295116D01*
X47145720Y-49296320D01*
X46395720Y-49296320D01*
X46371216Y-49295116D01*
X46346947Y-49291516D01*
X46323149Y-49285555D01*
X46300049Y-49277290D01*
X46277871Y-49266800D01*
X46256827Y-49254187D01*
X46237122Y-49239573D01*
X46218943Y-49223097D01*
X46202467Y-49204918D01*
X46187853Y-49185213D01*
X46175240Y-49164169D01*
X46164750Y-49141991D01*
X46156485Y-49118891D01*
X46150524Y-49095093D01*
X46146924Y-49070824D01*
X46145720Y-49046320D01*
X46145720Y-47796320D01*
X46146924Y-47771816D01*
X46150524Y-47747547D01*
X46156485Y-47723749D01*
X46164750Y-47700649D01*
X46175240Y-47678471D01*
X46187853Y-47657427D01*
X46202467Y-47637722D01*
X46218943Y-47619543D01*
X46237122Y-47603067D01*
X46256827Y-47588453D01*
X46277871Y-47575840D01*
X46300049Y-47565350D01*
X46323149Y-47557085D01*
X46346947Y-47551124D01*
X46371216Y-47547524D01*
X46395720Y-47546320D01*
X47145720Y-47546320D01*
X47170224Y-47547524D01*
G37*
G36*
X44370224Y-47547524D02*
G01*
X44394493Y-47551124D01*
X44418291Y-47557085D01*
X44441391Y-47565350D01*
X44463569Y-47575840D01*
X44484613Y-47588453D01*
X44504318Y-47603067D01*
X44522497Y-47619543D01*
X44538973Y-47637722D01*
X44553587Y-47657427D01*
X44566200Y-47678471D01*
X44576690Y-47700649D01*
X44584955Y-47723749D01*
X44590916Y-47747547D01*
X44594516Y-47771816D01*
X44595720Y-47796320D01*
X44595720Y-49046320D01*
X44594516Y-49070824D01*
X44590916Y-49095093D01*
X44584955Y-49118891D01*
X44576690Y-49141991D01*
X44566200Y-49164169D01*
X44553587Y-49185213D01*
X44538973Y-49204918D01*
X44522497Y-49223097D01*
X44504318Y-49239573D01*
X44484613Y-49254187D01*
X44463569Y-49266800D01*
X44441391Y-49277290D01*
X44418291Y-49285555D01*
X44394493Y-49291516D01*
X44370224Y-49295116D01*
X44345720Y-49296320D01*
X43595720Y-49296320D01*
X43571216Y-49295116D01*
X43546947Y-49291516D01*
X43523149Y-49285555D01*
X43500049Y-49277290D01*
X43477871Y-49266800D01*
X43456827Y-49254187D01*
X43437122Y-49239573D01*
X43418943Y-49223097D01*
X43402467Y-49204918D01*
X43387853Y-49185213D01*
X43375240Y-49164169D01*
X43364750Y-49141991D01*
X43356485Y-49118891D01*
X43350524Y-49095093D01*
X43346924Y-49070824D01*
X43345720Y-49046320D01*
X43345720Y-47796320D01*
X43346924Y-47771816D01*
X43350524Y-47747547D01*
X43356485Y-47723749D01*
X43364750Y-47700649D01*
X43375240Y-47678471D01*
X43387853Y-47657427D01*
X43402467Y-47637722D01*
X43418943Y-47619543D01*
X43437122Y-47603067D01*
X43456827Y-47588453D01*
X43477871Y-47575840D01*
X43500049Y-47565350D01*
X43523149Y-47557085D01*
X43546947Y-47551124D01*
X43571216Y-47547524D01*
X43595720Y-47546320D01*
X44345720Y-47546320D01*
X44370224Y-47547524D01*
G37*
G36*
X47129584Y-42482764D02*
G01*
X47153853Y-42486364D01*
X47177651Y-42492325D01*
X47200751Y-42500590D01*
X47222929Y-42511080D01*
X47243973Y-42523693D01*
X47263678Y-42538307D01*
X47281857Y-42554783D01*
X47298333Y-42572962D01*
X47312947Y-42592667D01*
X47325560Y-42613711D01*
X47336050Y-42635889D01*
X47344315Y-42658989D01*
X47350276Y-42682787D01*
X47353876Y-42707056D01*
X47355080Y-42731560D01*
X47355080Y-43981560D01*
X47353876Y-44006064D01*
X47350276Y-44030333D01*
X47344315Y-44054131D01*
X47336050Y-44077231D01*
X47325560Y-44099409D01*
X47312947Y-44120453D01*
X47298333Y-44140158D01*
X47281857Y-44158337D01*
X47263678Y-44174813D01*
X47243973Y-44189427D01*
X47222929Y-44202040D01*
X47200751Y-44212530D01*
X47177651Y-44220795D01*
X47153853Y-44226756D01*
X47129584Y-44230356D01*
X47105080Y-44231560D01*
X46355080Y-44231560D01*
X46330576Y-44230356D01*
X46306307Y-44226756D01*
X46282509Y-44220795D01*
X46259409Y-44212530D01*
X46237231Y-44202040D01*
X46216187Y-44189427D01*
X46196482Y-44174813D01*
X46178303Y-44158337D01*
X46161827Y-44140158D01*
X46147213Y-44120453D01*
X46134600Y-44099409D01*
X46124110Y-44077231D01*
X46115845Y-44054131D01*
X46109884Y-44030333D01*
X46106284Y-44006064D01*
X46105080Y-43981560D01*
X46105080Y-42731560D01*
X46106284Y-42707056D01*
X46109884Y-42682787D01*
X46115845Y-42658989D01*
X46124110Y-42635889D01*
X46134600Y-42613711D01*
X46147213Y-42592667D01*
X46161827Y-42572962D01*
X46178303Y-42554783D01*
X46196482Y-42538307D01*
X46216187Y-42523693D01*
X46237231Y-42511080D01*
X46259409Y-42500590D01*
X46282509Y-42492325D01*
X46306307Y-42486364D01*
X46330576Y-42482764D01*
X46355080Y-42481560D01*
X47105080Y-42481560D01*
X47129584Y-42482764D01*
G37*
G36*
X44329584Y-42482764D02*
G01*
X44353853Y-42486364D01*
X44377651Y-42492325D01*
X44400751Y-42500590D01*
X44422929Y-42511080D01*
X44443973Y-42523693D01*
X44463678Y-42538307D01*
X44481857Y-42554783D01*
X44498333Y-42572962D01*
X44512947Y-42592667D01*
X44525560Y-42613711D01*
X44536050Y-42635889D01*
X44544315Y-42658989D01*
X44550276Y-42682787D01*
X44553876Y-42707056D01*
X44555080Y-42731560D01*
X44555080Y-43981560D01*
X44553876Y-44006064D01*
X44550276Y-44030333D01*
X44544315Y-44054131D01*
X44536050Y-44077231D01*
X44525560Y-44099409D01*
X44512947Y-44120453D01*
X44498333Y-44140158D01*
X44481857Y-44158337D01*
X44463678Y-44174813D01*
X44443973Y-44189427D01*
X44422929Y-44202040D01*
X44400751Y-44212530D01*
X44377651Y-44220795D01*
X44353853Y-44226756D01*
X44329584Y-44230356D01*
X44305080Y-44231560D01*
X43555080Y-44231560D01*
X43530576Y-44230356D01*
X43506307Y-44226756D01*
X43482509Y-44220795D01*
X43459409Y-44212530D01*
X43437231Y-44202040D01*
X43416187Y-44189427D01*
X43396482Y-44174813D01*
X43378303Y-44158337D01*
X43361827Y-44140158D01*
X43347213Y-44120453D01*
X43334600Y-44099409D01*
X43324110Y-44077231D01*
X43315845Y-44054131D01*
X43309884Y-44030333D01*
X43306284Y-44006064D01*
X43305080Y-43981560D01*
X43305080Y-42731560D01*
X43306284Y-42707056D01*
X43309884Y-42682787D01*
X43315845Y-42658989D01*
X43324110Y-42635889D01*
X43334600Y-42613711D01*
X43347213Y-42592667D01*
X43361827Y-42572962D01*
X43378303Y-42554783D01*
X43396482Y-42538307D01*
X43416187Y-42523693D01*
X43437231Y-42511080D01*
X43459409Y-42500590D01*
X43482509Y-42492325D01*
X43506307Y-42486364D01*
X43530576Y-42482764D01*
X43555080Y-42481560D01*
X44305080Y-42481560D01*
X44329584Y-42482764D01*
G37*
G36*
X19828744Y-39973244D02*
G01*
X19853013Y-39976844D01*
X19876811Y-39982805D01*
X19899911Y-39991070D01*
X19922089Y-40001560D01*
X19943133Y-40014173D01*
X19962838Y-40028787D01*
X19981017Y-40045263D01*
X19997493Y-40063442D01*
X20012107Y-40083147D01*
X20024720Y-40104191D01*
X20035210Y-40126369D01*
X20043475Y-40149469D01*
X20049436Y-40173267D01*
X20053036Y-40197536D01*
X20054240Y-40222040D01*
X20054240Y-41472040D01*
X20053036Y-41496544D01*
X20049436Y-41520813D01*
X20043475Y-41544611D01*
X20035210Y-41567711D01*
X20024720Y-41589889D01*
X20012107Y-41610933D01*
X19997493Y-41630638D01*
X19981017Y-41648817D01*
X19962838Y-41665293D01*
X19943133Y-41679907D01*
X19922089Y-41692520D01*
X19899911Y-41703010D01*
X19876811Y-41711275D01*
X19853013Y-41717236D01*
X19828744Y-41720836D01*
X19804240Y-41722040D01*
X19054240Y-41722040D01*
X19029736Y-41720836D01*
X19005467Y-41717236D01*
X18981669Y-41711275D01*
X18958569Y-41703010D01*
X18936391Y-41692520D01*
X18915347Y-41679907D01*
X18895642Y-41665293D01*
X18877463Y-41648817D01*
X18860987Y-41630638D01*
X18846373Y-41610933D01*
X18833760Y-41589889D01*
X18823270Y-41567711D01*
X18815005Y-41544611D01*
X18809044Y-41520813D01*
X18805444Y-41496544D01*
X18804240Y-41472040D01*
X18804240Y-40222040D01*
X18805444Y-40197536D01*
X18809044Y-40173267D01*
X18815005Y-40149469D01*
X18823270Y-40126369D01*
X18833760Y-40104191D01*
X18846373Y-40083147D01*
X18860987Y-40063442D01*
X18877463Y-40045263D01*
X18895642Y-40028787D01*
X18915347Y-40014173D01*
X18936391Y-40001560D01*
X18958569Y-39991070D01*
X18981669Y-39982805D01*
X19005467Y-39976844D01*
X19029736Y-39973244D01*
X19054240Y-39972040D01*
X19804240Y-39972040D01*
X19828744Y-39973244D01*
G37*
G36*
X22628744Y-39973244D02*
G01*
X22653013Y-39976844D01*
X22676811Y-39982805D01*
X22699911Y-39991070D01*
X22722089Y-40001560D01*
X22743133Y-40014173D01*
X22762838Y-40028787D01*
X22781017Y-40045263D01*
X22797493Y-40063442D01*
X22812107Y-40083147D01*
X22824720Y-40104191D01*
X22835210Y-40126369D01*
X22843475Y-40149469D01*
X22849436Y-40173267D01*
X22853036Y-40197536D01*
X22854240Y-40222040D01*
X22854240Y-41472040D01*
X22853036Y-41496544D01*
X22849436Y-41520813D01*
X22843475Y-41544611D01*
X22835210Y-41567711D01*
X22824720Y-41589889D01*
X22812107Y-41610933D01*
X22797493Y-41630638D01*
X22781017Y-41648817D01*
X22762838Y-41665293D01*
X22743133Y-41679907D01*
X22722089Y-41692520D01*
X22699911Y-41703010D01*
X22676811Y-41711275D01*
X22653013Y-41717236D01*
X22628744Y-41720836D01*
X22604240Y-41722040D01*
X21854240Y-41722040D01*
X21829736Y-41720836D01*
X21805467Y-41717236D01*
X21781669Y-41711275D01*
X21758569Y-41703010D01*
X21736391Y-41692520D01*
X21715347Y-41679907D01*
X21695642Y-41665293D01*
X21677463Y-41648817D01*
X21660987Y-41630638D01*
X21646373Y-41610933D01*
X21633760Y-41589889D01*
X21623270Y-41567711D01*
X21615005Y-41544611D01*
X21609044Y-41520813D01*
X21605444Y-41496544D01*
X21604240Y-41472040D01*
X21604240Y-40222040D01*
X21605444Y-40197536D01*
X21609044Y-40173267D01*
X21615005Y-40149469D01*
X21623270Y-40126369D01*
X21633760Y-40104191D01*
X21646373Y-40083147D01*
X21660987Y-40063442D01*
X21677463Y-40045263D01*
X21695642Y-40028787D01*
X21715347Y-40014173D01*
X21736391Y-40001560D01*
X21758569Y-39991070D01*
X21781669Y-39982805D01*
X21805467Y-39976844D01*
X21829736Y-39973244D01*
X21854240Y-39972040D01*
X22604240Y-39972040D01*
X22628744Y-39973244D01*
G37*
G36*
X19950664Y-42528484D02*
G01*
X19974933Y-42532084D01*
X19998731Y-42538045D01*
X20021831Y-42546310D01*
X20044009Y-42556800D01*
X20065053Y-42569413D01*
X20084758Y-42584027D01*
X20102937Y-42600503D01*
X20119413Y-42618682D01*
X20134027Y-42638387D01*
X20146640Y-42659431D01*
X20157130Y-42681609D01*
X20165395Y-42704709D01*
X20171356Y-42728507D01*
X20174956Y-42752776D01*
X20176160Y-42777280D01*
X20176160Y-44027280D01*
X20174956Y-44051784D01*
X20171356Y-44076053D01*
X20165395Y-44099851D01*
X20157130Y-44122951D01*
X20146640Y-44145129D01*
X20134027Y-44166173D01*
X20119413Y-44185878D01*
X20102937Y-44204057D01*
X20084758Y-44220533D01*
X20065053Y-44235147D01*
X20044009Y-44247760D01*
X20021831Y-44258250D01*
X19998731Y-44266515D01*
X19974933Y-44272476D01*
X19950664Y-44276076D01*
X19926160Y-44277280D01*
X19176160Y-44277280D01*
X19151656Y-44276076D01*
X19127387Y-44272476D01*
X19103589Y-44266515D01*
X19080489Y-44258250D01*
X19058311Y-44247760D01*
X19037267Y-44235147D01*
X19017562Y-44220533D01*
X18999383Y-44204057D01*
X18982907Y-44185878D01*
X18968293Y-44166173D01*
X18955680Y-44145129D01*
X18945190Y-44122951D01*
X18936925Y-44099851D01*
X18930964Y-44076053D01*
X18927364Y-44051784D01*
X18926160Y-44027280D01*
X18926160Y-42777280D01*
X18927364Y-42752776D01*
X18930964Y-42728507D01*
X18936925Y-42704709D01*
X18945190Y-42681609D01*
X18955680Y-42659431D01*
X18968293Y-42638387D01*
X18982907Y-42618682D01*
X18999383Y-42600503D01*
X19017562Y-42584027D01*
X19037267Y-42569413D01*
X19058311Y-42556800D01*
X19080489Y-42546310D01*
X19103589Y-42538045D01*
X19127387Y-42532084D01*
X19151656Y-42528484D01*
X19176160Y-42527280D01*
X19926160Y-42527280D01*
X19950664Y-42528484D01*
G37*
G36*
X22750664Y-42528484D02*
G01*
X22774933Y-42532084D01*
X22798731Y-42538045D01*
X22821831Y-42546310D01*
X22844009Y-42556800D01*
X22865053Y-42569413D01*
X22884758Y-42584027D01*
X22902937Y-42600503D01*
X22919413Y-42618682D01*
X22934027Y-42638387D01*
X22946640Y-42659431D01*
X22957130Y-42681609D01*
X22965395Y-42704709D01*
X22971356Y-42728507D01*
X22974956Y-42752776D01*
X22976160Y-42777280D01*
X22976160Y-44027280D01*
X22974956Y-44051784D01*
X22971356Y-44076053D01*
X22965395Y-44099851D01*
X22957130Y-44122951D01*
X22946640Y-44145129D01*
X22934027Y-44166173D01*
X22919413Y-44185878D01*
X22902937Y-44204057D01*
X22884758Y-44220533D01*
X22865053Y-44235147D01*
X22844009Y-44247760D01*
X22821831Y-44258250D01*
X22798731Y-44266515D01*
X22774933Y-44272476D01*
X22750664Y-44276076D01*
X22726160Y-44277280D01*
X21976160Y-44277280D01*
X21951656Y-44276076D01*
X21927387Y-44272476D01*
X21903589Y-44266515D01*
X21880489Y-44258250D01*
X21858311Y-44247760D01*
X21837267Y-44235147D01*
X21817562Y-44220533D01*
X21799383Y-44204057D01*
X21782907Y-44185878D01*
X21768293Y-44166173D01*
X21755680Y-44145129D01*
X21745190Y-44122951D01*
X21736925Y-44099851D01*
X21730964Y-44076053D01*
X21727364Y-44051784D01*
X21726160Y-44027280D01*
X21726160Y-42777280D01*
X21727364Y-42752776D01*
X21730964Y-42728507D01*
X21736925Y-42704709D01*
X21745190Y-42681609D01*
X21755680Y-42659431D01*
X21768293Y-42638387D01*
X21782907Y-42618682D01*
X21799383Y-42600503D01*
X21817562Y-42584027D01*
X21837267Y-42569413D01*
X21858311Y-42556800D01*
X21880489Y-42546310D01*
X21903589Y-42538045D01*
X21927387Y-42532084D01*
X21951656Y-42528484D01*
X21976160Y-42527280D01*
X22726160Y-42527280D01*
X22750664Y-42528484D01*
G37*
G36*
X87148584Y-104673364D02*
G01*
X87172853Y-104676964D01*
X87196651Y-104682925D01*
X87219751Y-104691190D01*
X87241929Y-104701680D01*
X87262973Y-104714293D01*
X87282678Y-104728907D01*
X87300857Y-104745383D01*
X87317333Y-104763562D01*
X87331947Y-104783267D01*
X87344560Y-104804311D01*
X87355050Y-104826489D01*
X87363315Y-104849589D01*
X87369276Y-104873387D01*
X87372876Y-104897656D01*
X87374080Y-104922160D01*
X87374080Y-106172160D01*
X87372876Y-106196664D01*
X87369276Y-106220933D01*
X87363315Y-106244731D01*
X87355050Y-106267831D01*
X87344560Y-106290009D01*
X87331947Y-106311053D01*
X87317333Y-106330758D01*
X87300857Y-106348937D01*
X87282678Y-106365413D01*
X87262973Y-106380027D01*
X87241929Y-106392640D01*
X87219751Y-106403130D01*
X87196651Y-106411395D01*
X87172853Y-106417356D01*
X87148584Y-106420956D01*
X87124080Y-106422160D01*
X86374080Y-106422160D01*
X86349576Y-106420956D01*
X86325307Y-106417356D01*
X86301509Y-106411395D01*
X86278409Y-106403130D01*
X86256231Y-106392640D01*
X86235187Y-106380027D01*
X86215482Y-106365413D01*
X86197303Y-106348937D01*
X86180827Y-106330758D01*
X86166213Y-106311053D01*
X86153600Y-106290009D01*
X86143110Y-106267831D01*
X86134845Y-106244731D01*
X86128884Y-106220933D01*
X86125284Y-106196664D01*
X86124080Y-106172160D01*
X86124080Y-104922160D01*
X86125284Y-104897656D01*
X86128884Y-104873387D01*
X86134845Y-104849589D01*
X86143110Y-104826489D01*
X86153600Y-104804311D01*
X86166213Y-104783267D01*
X86180827Y-104763562D01*
X86197303Y-104745383D01*
X86215482Y-104728907D01*
X86235187Y-104714293D01*
X86256231Y-104701680D01*
X86278409Y-104691190D01*
X86301509Y-104682925D01*
X86325307Y-104676964D01*
X86349576Y-104673364D01*
X86374080Y-104672160D01*
X87124080Y-104672160D01*
X87148584Y-104673364D01*
G37*
G36*
X84348584Y-104673364D02*
G01*
X84372853Y-104676964D01*
X84396651Y-104682925D01*
X84419751Y-104691190D01*
X84441929Y-104701680D01*
X84462973Y-104714293D01*
X84482678Y-104728907D01*
X84500857Y-104745383D01*
X84517333Y-104763562D01*
X84531947Y-104783267D01*
X84544560Y-104804311D01*
X84555050Y-104826489D01*
X84563315Y-104849589D01*
X84569276Y-104873387D01*
X84572876Y-104897656D01*
X84574080Y-104922160D01*
X84574080Y-106172160D01*
X84572876Y-106196664D01*
X84569276Y-106220933D01*
X84563315Y-106244731D01*
X84555050Y-106267831D01*
X84544560Y-106290009D01*
X84531947Y-106311053D01*
X84517333Y-106330758D01*
X84500857Y-106348937D01*
X84482678Y-106365413D01*
X84462973Y-106380027D01*
X84441929Y-106392640D01*
X84419751Y-106403130D01*
X84396651Y-106411395D01*
X84372853Y-106417356D01*
X84348584Y-106420956D01*
X84324080Y-106422160D01*
X83574080Y-106422160D01*
X83549576Y-106420956D01*
X83525307Y-106417356D01*
X83501509Y-106411395D01*
X83478409Y-106403130D01*
X83456231Y-106392640D01*
X83435187Y-106380027D01*
X83415482Y-106365413D01*
X83397303Y-106348937D01*
X83380827Y-106330758D01*
X83366213Y-106311053D01*
X83353600Y-106290009D01*
X83343110Y-106267831D01*
X83334845Y-106244731D01*
X83328884Y-106220933D01*
X83325284Y-106196664D01*
X83324080Y-106172160D01*
X83324080Y-104922160D01*
X83325284Y-104897656D01*
X83328884Y-104873387D01*
X83334845Y-104849589D01*
X83343110Y-104826489D01*
X83353600Y-104804311D01*
X83366213Y-104783267D01*
X83380827Y-104763562D01*
X83397303Y-104745383D01*
X83415482Y-104728907D01*
X83435187Y-104714293D01*
X83456231Y-104701680D01*
X83478409Y-104691190D01*
X83501509Y-104682925D01*
X83525307Y-104676964D01*
X83549576Y-104673364D01*
X83574080Y-104672160D01*
X84324080Y-104672160D01*
X84348584Y-104673364D01*
G37*
G36*
X39133664Y-53480964D02*
G01*
X39157933Y-53484564D01*
X39181731Y-53490525D01*
X39204831Y-53498790D01*
X39227009Y-53509280D01*
X39248053Y-53521893D01*
X39267758Y-53536507D01*
X39285937Y-53552983D01*
X39302413Y-53571162D01*
X39317027Y-53590867D01*
X39329640Y-53611911D01*
X39340130Y-53634089D01*
X39348395Y-53657189D01*
X39354356Y-53680987D01*
X39357956Y-53705256D01*
X39359160Y-53729760D01*
X39359160Y-54979760D01*
X39357956Y-55004264D01*
X39354356Y-55028533D01*
X39348395Y-55052331D01*
X39340130Y-55075431D01*
X39329640Y-55097609D01*
X39317027Y-55118653D01*
X39302413Y-55138358D01*
X39285937Y-55156537D01*
X39267758Y-55173013D01*
X39248053Y-55187627D01*
X39227009Y-55200240D01*
X39204831Y-55210730D01*
X39181731Y-55218995D01*
X39157933Y-55224956D01*
X39133664Y-55228556D01*
X39109160Y-55229760D01*
X38359160Y-55229760D01*
X38334656Y-55228556D01*
X38310387Y-55224956D01*
X38286589Y-55218995D01*
X38263489Y-55210730D01*
X38241311Y-55200240D01*
X38220267Y-55187627D01*
X38200562Y-55173013D01*
X38182383Y-55156537D01*
X38165907Y-55138358D01*
X38151293Y-55118653D01*
X38138680Y-55097609D01*
X38128190Y-55075431D01*
X38119925Y-55052331D01*
X38113964Y-55028533D01*
X38110364Y-55004264D01*
X38109160Y-54979760D01*
X38109160Y-53729760D01*
X38110364Y-53705256D01*
X38113964Y-53680987D01*
X38119925Y-53657189D01*
X38128190Y-53634089D01*
X38138680Y-53611911D01*
X38151293Y-53590867D01*
X38165907Y-53571162D01*
X38182383Y-53552983D01*
X38200562Y-53536507D01*
X38220267Y-53521893D01*
X38241311Y-53509280D01*
X38263489Y-53498790D01*
X38286589Y-53490525D01*
X38310387Y-53484564D01*
X38334656Y-53480964D01*
X38359160Y-53479760D01*
X39109160Y-53479760D01*
X39133664Y-53480964D01*
G37*
G36*
X36333664Y-53480964D02*
G01*
X36357933Y-53484564D01*
X36381731Y-53490525D01*
X36404831Y-53498790D01*
X36427009Y-53509280D01*
X36448053Y-53521893D01*
X36467758Y-53536507D01*
X36485937Y-53552983D01*
X36502413Y-53571162D01*
X36517027Y-53590867D01*
X36529640Y-53611911D01*
X36540130Y-53634089D01*
X36548395Y-53657189D01*
X36554356Y-53680987D01*
X36557956Y-53705256D01*
X36559160Y-53729760D01*
X36559160Y-54979760D01*
X36557956Y-55004264D01*
X36554356Y-55028533D01*
X36548395Y-55052331D01*
X36540130Y-55075431D01*
X36529640Y-55097609D01*
X36517027Y-55118653D01*
X36502413Y-55138358D01*
X36485937Y-55156537D01*
X36467758Y-55173013D01*
X36448053Y-55187627D01*
X36427009Y-55200240D01*
X36404831Y-55210730D01*
X36381731Y-55218995D01*
X36357933Y-55224956D01*
X36333664Y-55228556D01*
X36309160Y-55229760D01*
X35559160Y-55229760D01*
X35534656Y-55228556D01*
X35510387Y-55224956D01*
X35486589Y-55218995D01*
X35463489Y-55210730D01*
X35441311Y-55200240D01*
X35420267Y-55187627D01*
X35400562Y-55173013D01*
X35382383Y-55156537D01*
X35365907Y-55138358D01*
X35351293Y-55118653D01*
X35338680Y-55097609D01*
X35328190Y-55075431D01*
X35319925Y-55052331D01*
X35313964Y-55028533D01*
X35310364Y-55004264D01*
X35309160Y-54979760D01*
X35309160Y-53729760D01*
X35310364Y-53705256D01*
X35313964Y-53680987D01*
X35319925Y-53657189D01*
X35328190Y-53634089D01*
X35338680Y-53611911D01*
X35351293Y-53590867D01*
X35365907Y-53571162D01*
X35382383Y-53552983D01*
X35400562Y-53536507D01*
X35420267Y-53521893D01*
X35441311Y-53509280D01*
X35463489Y-53498790D01*
X35486589Y-53490525D01*
X35510387Y-53484564D01*
X35534656Y-53480964D01*
X35559160Y-53479760D01*
X36309160Y-53479760D01*
X36333664Y-53480964D01*
G37*
G36*
X58037024Y-33358084D02*
G01*
X58061293Y-33361684D01*
X58085091Y-33367645D01*
X58108191Y-33375910D01*
X58130369Y-33386400D01*
X58151413Y-33399013D01*
X58171118Y-33413627D01*
X58189297Y-33430103D01*
X58205773Y-33448282D01*
X58220387Y-33467987D01*
X58233000Y-33489031D01*
X58243490Y-33511209D01*
X58251755Y-33534309D01*
X58257716Y-33558107D01*
X58261316Y-33582376D01*
X58262520Y-33606880D01*
X58262520Y-34356880D01*
X58261316Y-34381384D01*
X58257716Y-34405653D01*
X58251755Y-34429451D01*
X58243490Y-34452551D01*
X58233000Y-34474729D01*
X58220387Y-34495773D01*
X58205773Y-34515478D01*
X58189297Y-34533657D01*
X58171118Y-34550133D01*
X58151413Y-34564747D01*
X58130369Y-34577360D01*
X58108191Y-34587850D01*
X58085091Y-34596115D01*
X58061293Y-34602076D01*
X58037024Y-34605676D01*
X58012520Y-34606880D01*
X56762520Y-34606880D01*
X56738016Y-34605676D01*
X56713747Y-34602076D01*
X56689949Y-34596115D01*
X56666849Y-34587850D01*
X56644671Y-34577360D01*
X56623627Y-34564747D01*
X56603922Y-34550133D01*
X56585743Y-34533657D01*
X56569267Y-34515478D01*
X56554653Y-34495773D01*
X56542040Y-34474729D01*
X56531550Y-34452551D01*
X56523285Y-34429451D01*
X56517324Y-34405653D01*
X56513724Y-34381384D01*
X56512520Y-34356880D01*
X56512520Y-33606880D01*
X56513724Y-33582376D01*
X56517324Y-33558107D01*
X56523285Y-33534309D01*
X56531550Y-33511209D01*
X56542040Y-33489031D01*
X56554653Y-33467987D01*
X56569267Y-33448282D01*
X56585743Y-33430103D01*
X56603922Y-33413627D01*
X56623627Y-33399013D01*
X56644671Y-33386400D01*
X56666849Y-33375910D01*
X56689949Y-33367645D01*
X56713747Y-33361684D01*
X56738016Y-33358084D01*
X56762520Y-33356880D01*
X58012520Y-33356880D01*
X58037024Y-33358084D01*
G37*
G36*
X58037024Y-30558084D02*
G01*
X58061293Y-30561684D01*
X58085091Y-30567645D01*
X58108191Y-30575910D01*
X58130369Y-30586400D01*
X58151413Y-30599013D01*
X58171118Y-30613627D01*
X58189297Y-30630103D01*
X58205773Y-30648282D01*
X58220387Y-30667987D01*
X58233000Y-30689031D01*
X58243490Y-30711209D01*
X58251755Y-30734309D01*
X58257716Y-30758107D01*
X58261316Y-30782376D01*
X58262520Y-30806880D01*
X58262520Y-31556880D01*
X58261316Y-31581384D01*
X58257716Y-31605653D01*
X58251755Y-31629451D01*
X58243490Y-31652551D01*
X58233000Y-31674729D01*
X58220387Y-31695773D01*
X58205773Y-31715478D01*
X58189297Y-31733657D01*
X58171118Y-31750133D01*
X58151413Y-31764747D01*
X58130369Y-31777360D01*
X58108191Y-31787850D01*
X58085091Y-31796115D01*
X58061293Y-31802076D01*
X58037024Y-31805676D01*
X58012520Y-31806880D01*
X56762520Y-31806880D01*
X56738016Y-31805676D01*
X56713747Y-31802076D01*
X56689949Y-31796115D01*
X56666849Y-31787850D01*
X56644671Y-31777360D01*
X56623627Y-31764747D01*
X56603922Y-31750133D01*
X56585743Y-31733657D01*
X56569267Y-31715478D01*
X56554653Y-31695773D01*
X56542040Y-31674729D01*
X56531550Y-31652551D01*
X56523285Y-31629451D01*
X56517324Y-31605653D01*
X56513724Y-31581384D01*
X56512520Y-31556880D01*
X56512520Y-30806880D01*
X56513724Y-30782376D01*
X56517324Y-30758107D01*
X56523285Y-30734309D01*
X56531550Y-30711209D01*
X56542040Y-30689031D01*
X56554653Y-30667987D01*
X56569267Y-30648282D01*
X56585743Y-30630103D01*
X56603922Y-30613627D01*
X56623627Y-30599013D01*
X56644671Y-30586400D01*
X56666849Y-30575910D01*
X56689949Y-30567645D01*
X56713747Y-30561684D01*
X56738016Y-30558084D01*
X56762520Y-30556880D01*
X58012520Y-30556880D01*
X58037024Y-30558084D01*
G37*
G36*
X74245384Y-90972604D02*
G01*
X74269653Y-90976204D01*
X74293451Y-90982165D01*
X74316551Y-90990430D01*
X74338729Y-91000920D01*
X74359773Y-91013533D01*
X74379478Y-91028147D01*
X74397657Y-91044623D01*
X74414133Y-91062802D01*
X74428747Y-91082507D01*
X74441360Y-91103551D01*
X74451850Y-91125729D01*
X74460115Y-91148829D01*
X74466076Y-91172627D01*
X74469676Y-91196896D01*
X74470880Y-91221400D01*
X74470880Y-92471400D01*
X74469676Y-92495904D01*
X74466076Y-92520173D01*
X74460115Y-92543971D01*
X74451850Y-92567071D01*
X74441360Y-92589249D01*
X74428747Y-92610293D01*
X74414133Y-92629998D01*
X74397657Y-92648177D01*
X74379478Y-92664653D01*
X74359773Y-92679267D01*
X74338729Y-92691880D01*
X74316551Y-92702370D01*
X74293451Y-92710635D01*
X74269653Y-92716596D01*
X74245384Y-92720196D01*
X74220880Y-92721400D01*
X73470880Y-92721400D01*
X73446376Y-92720196D01*
X73422107Y-92716596D01*
X73398309Y-92710635D01*
X73375209Y-92702370D01*
X73353031Y-92691880D01*
X73331987Y-92679267D01*
X73312282Y-92664653D01*
X73294103Y-92648177D01*
X73277627Y-92629998D01*
X73263013Y-92610293D01*
X73250400Y-92589249D01*
X73239910Y-92567071D01*
X73231645Y-92543971D01*
X73225684Y-92520173D01*
X73222084Y-92495904D01*
X73220880Y-92471400D01*
X73220880Y-91221400D01*
X73222084Y-91196896D01*
X73225684Y-91172627D01*
X73231645Y-91148829D01*
X73239910Y-91125729D01*
X73250400Y-91103551D01*
X73263013Y-91082507D01*
X73277627Y-91062802D01*
X73294103Y-91044623D01*
X73312282Y-91028147D01*
X73331987Y-91013533D01*
X73353031Y-91000920D01*
X73375209Y-90990430D01*
X73398309Y-90982165D01*
X73422107Y-90976204D01*
X73446376Y-90972604D01*
X73470880Y-90971400D01*
X74220880Y-90971400D01*
X74245384Y-90972604D01*
G37*
G36*
X71445384Y-90972604D02*
G01*
X71469653Y-90976204D01*
X71493451Y-90982165D01*
X71516551Y-90990430D01*
X71538729Y-91000920D01*
X71559773Y-91013533D01*
X71579478Y-91028147D01*
X71597657Y-91044623D01*
X71614133Y-91062802D01*
X71628747Y-91082507D01*
X71641360Y-91103551D01*
X71651850Y-91125729D01*
X71660115Y-91148829D01*
X71666076Y-91172627D01*
X71669676Y-91196896D01*
X71670880Y-91221400D01*
X71670880Y-92471400D01*
X71669676Y-92495904D01*
X71666076Y-92520173D01*
X71660115Y-92543971D01*
X71651850Y-92567071D01*
X71641360Y-92589249D01*
X71628747Y-92610293D01*
X71614133Y-92629998D01*
X71597657Y-92648177D01*
X71579478Y-92664653D01*
X71559773Y-92679267D01*
X71538729Y-92691880D01*
X71516551Y-92702370D01*
X71493451Y-92710635D01*
X71469653Y-92716596D01*
X71445384Y-92720196D01*
X71420880Y-92721400D01*
X70670880Y-92721400D01*
X70646376Y-92720196D01*
X70622107Y-92716596D01*
X70598309Y-92710635D01*
X70575209Y-92702370D01*
X70553031Y-92691880D01*
X70531987Y-92679267D01*
X70512282Y-92664653D01*
X70494103Y-92648177D01*
X70477627Y-92629998D01*
X70463013Y-92610293D01*
X70450400Y-92589249D01*
X70439910Y-92567071D01*
X70431645Y-92543971D01*
X70425684Y-92520173D01*
X70422084Y-92495904D01*
X70420880Y-92471400D01*
X70420880Y-91221400D01*
X70422084Y-91196896D01*
X70425684Y-91172627D01*
X70431645Y-91148829D01*
X70439910Y-91125729D01*
X70450400Y-91103551D01*
X70463013Y-91082507D01*
X70477627Y-91062802D01*
X70494103Y-91044623D01*
X70512282Y-91028147D01*
X70531987Y-91013533D01*
X70553031Y-91000920D01*
X70575209Y-90990430D01*
X70598309Y-90982165D01*
X70622107Y-90976204D01*
X70646376Y-90972604D01*
X70670880Y-90971400D01*
X71420880Y-90971400D01*
X71445384Y-90972604D01*
G37*
G36*
X18877784Y-66367924D02*
G01*
X18902053Y-66371524D01*
X18925851Y-66377485D01*
X18948951Y-66385750D01*
X18971129Y-66396240D01*
X18992173Y-66408853D01*
X19011878Y-66423467D01*
X19030057Y-66439943D01*
X19046533Y-66458122D01*
X19061147Y-66477827D01*
X19073760Y-66498871D01*
X19084250Y-66521049D01*
X19092515Y-66544149D01*
X19098476Y-66567947D01*
X19102076Y-66592216D01*
X19103280Y-66616720D01*
X19103280Y-67366720D01*
X19102076Y-67391224D01*
X19098476Y-67415493D01*
X19092515Y-67439291D01*
X19084250Y-67462391D01*
X19073760Y-67484569D01*
X19061147Y-67505613D01*
X19046533Y-67525318D01*
X19030057Y-67543497D01*
X19011878Y-67559973D01*
X18992173Y-67574587D01*
X18971129Y-67587200D01*
X18948951Y-67597690D01*
X18925851Y-67605955D01*
X18902053Y-67611916D01*
X18877784Y-67615516D01*
X18853280Y-67616720D01*
X17603280Y-67616720D01*
X17578776Y-67615516D01*
X17554507Y-67611916D01*
X17530709Y-67605955D01*
X17507609Y-67597690D01*
X17485431Y-67587200D01*
X17464387Y-67574587D01*
X17444682Y-67559973D01*
X17426503Y-67543497D01*
X17410027Y-67525318D01*
X17395413Y-67505613D01*
X17382800Y-67484569D01*
X17372310Y-67462391D01*
X17364045Y-67439291D01*
X17358084Y-67415493D01*
X17354484Y-67391224D01*
X17353280Y-67366720D01*
X17353280Y-66616720D01*
X17354484Y-66592216D01*
X17358084Y-66567947D01*
X17364045Y-66544149D01*
X17372310Y-66521049D01*
X17382800Y-66498871D01*
X17395413Y-66477827D01*
X17410027Y-66458122D01*
X17426503Y-66439943D01*
X17444682Y-66423467D01*
X17464387Y-66408853D01*
X17485431Y-66396240D01*
X17507609Y-66385750D01*
X17530709Y-66377485D01*
X17554507Y-66371524D01*
X17578776Y-66367924D01*
X17603280Y-66366720D01*
X18853280Y-66366720D01*
X18877784Y-66367924D01*
G37*
G36*
X18877784Y-63567924D02*
G01*
X18902053Y-63571524D01*
X18925851Y-63577485D01*
X18948951Y-63585750D01*
X18971129Y-63596240D01*
X18992173Y-63608853D01*
X19011878Y-63623467D01*
X19030057Y-63639943D01*
X19046533Y-63658122D01*
X19061147Y-63677827D01*
X19073760Y-63698871D01*
X19084250Y-63721049D01*
X19092515Y-63744149D01*
X19098476Y-63767947D01*
X19102076Y-63792216D01*
X19103280Y-63816720D01*
X19103280Y-64566720D01*
X19102076Y-64591224D01*
X19098476Y-64615493D01*
X19092515Y-64639291D01*
X19084250Y-64662391D01*
X19073760Y-64684569D01*
X19061147Y-64705613D01*
X19046533Y-64725318D01*
X19030057Y-64743497D01*
X19011878Y-64759973D01*
X18992173Y-64774587D01*
X18971129Y-64787200D01*
X18948951Y-64797690D01*
X18925851Y-64805955D01*
X18902053Y-64811916D01*
X18877784Y-64815516D01*
X18853280Y-64816720D01*
X17603280Y-64816720D01*
X17578776Y-64815516D01*
X17554507Y-64811916D01*
X17530709Y-64805955D01*
X17507609Y-64797690D01*
X17485431Y-64787200D01*
X17464387Y-64774587D01*
X17444682Y-64759973D01*
X17426503Y-64743497D01*
X17410027Y-64725318D01*
X17395413Y-64705613D01*
X17382800Y-64684569D01*
X17372310Y-64662391D01*
X17364045Y-64639291D01*
X17358084Y-64615493D01*
X17354484Y-64591224D01*
X17353280Y-64566720D01*
X17353280Y-63816720D01*
X17354484Y-63792216D01*
X17358084Y-63767947D01*
X17364045Y-63744149D01*
X17372310Y-63721049D01*
X17382800Y-63698871D01*
X17395413Y-63677827D01*
X17410027Y-63658122D01*
X17426503Y-63639943D01*
X17444682Y-63623467D01*
X17464387Y-63608853D01*
X17485431Y-63596240D01*
X17507609Y-63585750D01*
X17530709Y-63577485D01*
X17554507Y-63571524D01*
X17578776Y-63567924D01*
X17603280Y-63566720D01*
X18853280Y-63566720D01*
X18877784Y-63567924D01*
G37*
G36*
X21092664Y-66362844D02*
G01*
X21116933Y-66366444D01*
X21140731Y-66372405D01*
X21163831Y-66380670D01*
X21186009Y-66391160D01*
X21207053Y-66403773D01*
X21226758Y-66418387D01*
X21244937Y-66434863D01*
X21261413Y-66453042D01*
X21276027Y-66472747D01*
X21288640Y-66493791D01*
X21299130Y-66515969D01*
X21307395Y-66539069D01*
X21313356Y-66562867D01*
X21316956Y-66587136D01*
X21318160Y-66611640D01*
X21318160Y-67361640D01*
X21316956Y-67386144D01*
X21313356Y-67410413D01*
X21307395Y-67434211D01*
X21299130Y-67457311D01*
X21288640Y-67479489D01*
X21276027Y-67500533D01*
X21261413Y-67520238D01*
X21244937Y-67538417D01*
X21226758Y-67554893D01*
X21207053Y-67569507D01*
X21186009Y-67582120D01*
X21163831Y-67592610D01*
X21140731Y-67600875D01*
X21116933Y-67606836D01*
X21092664Y-67610436D01*
X21068160Y-67611640D01*
X19818160Y-67611640D01*
X19793656Y-67610436D01*
X19769387Y-67606836D01*
X19745589Y-67600875D01*
X19722489Y-67592610D01*
X19700311Y-67582120D01*
X19679267Y-67569507D01*
X19659562Y-67554893D01*
X19641383Y-67538417D01*
X19624907Y-67520238D01*
X19610293Y-67500533D01*
X19597680Y-67479489D01*
X19587190Y-67457311D01*
X19578925Y-67434211D01*
X19572964Y-67410413D01*
X19569364Y-67386144D01*
X19568160Y-67361640D01*
X19568160Y-66611640D01*
X19569364Y-66587136D01*
X19572964Y-66562867D01*
X19578925Y-66539069D01*
X19587190Y-66515969D01*
X19597680Y-66493791D01*
X19610293Y-66472747D01*
X19624907Y-66453042D01*
X19641383Y-66434863D01*
X19659562Y-66418387D01*
X19679267Y-66403773D01*
X19700311Y-66391160D01*
X19722489Y-66380670D01*
X19745589Y-66372405D01*
X19769387Y-66366444D01*
X19793656Y-66362844D01*
X19818160Y-66361640D01*
X21068160Y-66361640D01*
X21092664Y-66362844D01*
G37*
G36*
X21092664Y-63562844D02*
G01*
X21116933Y-63566444D01*
X21140731Y-63572405D01*
X21163831Y-63580670D01*
X21186009Y-63591160D01*
X21207053Y-63603773D01*
X21226758Y-63618387D01*
X21244937Y-63634863D01*
X21261413Y-63653042D01*
X21276027Y-63672747D01*
X21288640Y-63693791D01*
X21299130Y-63715969D01*
X21307395Y-63739069D01*
X21313356Y-63762867D01*
X21316956Y-63787136D01*
X21318160Y-63811640D01*
X21318160Y-64561640D01*
X21316956Y-64586144D01*
X21313356Y-64610413D01*
X21307395Y-64634211D01*
X21299130Y-64657311D01*
X21288640Y-64679489D01*
X21276027Y-64700533D01*
X21261413Y-64720238D01*
X21244937Y-64738417D01*
X21226758Y-64754893D01*
X21207053Y-64769507D01*
X21186009Y-64782120D01*
X21163831Y-64792610D01*
X21140731Y-64800875D01*
X21116933Y-64806836D01*
X21092664Y-64810436D01*
X21068160Y-64811640D01*
X19818160Y-64811640D01*
X19793656Y-64810436D01*
X19769387Y-64806836D01*
X19745589Y-64800875D01*
X19722489Y-64792610D01*
X19700311Y-64782120D01*
X19679267Y-64769507D01*
X19659562Y-64754893D01*
X19641383Y-64738417D01*
X19624907Y-64720238D01*
X19610293Y-64700533D01*
X19597680Y-64679489D01*
X19587190Y-64657311D01*
X19578925Y-64634211D01*
X19572964Y-64610413D01*
X19569364Y-64586144D01*
X19568160Y-64561640D01*
X19568160Y-63811640D01*
X19569364Y-63787136D01*
X19572964Y-63762867D01*
X19578925Y-63739069D01*
X19587190Y-63715969D01*
X19597680Y-63693791D01*
X19610293Y-63672747D01*
X19624907Y-63653042D01*
X19641383Y-63634863D01*
X19659562Y-63618387D01*
X19679267Y-63603773D01*
X19700311Y-63591160D01*
X19722489Y-63580670D01*
X19745589Y-63572405D01*
X19769387Y-63566444D01*
X19793656Y-63562844D01*
X19818160Y-63561640D01*
X21068160Y-63561640D01*
X21092664Y-63562844D01*
G37*
G36*
X23338024Y-66373004D02*
G01*
X23362293Y-66376604D01*
X23386091Y-66382565D01*
X23409191Y-66390830D01*
X23431369Y-66401320D01*
X23452413Y-66413933D01*
X23472118Y-66428547D01*
X23490297Y-66445023D01*
X23506773Y-66463202D01*
X23521387Y-66482907D01*
X23534000Y-66503951D01*
X23544490Y-66526129D01*
X23552755Y-66549229D01*
X23558716Y-66573027D01*
X23562316Y-66597296D01*
X23563520Y-66621800D01*
X23563520Y-67371800D01*
X23562316Y-67396304D01*
X23558716Y-67420573D01*
X23552755Y-67444371D01*
X23544490Y-67467471D01*
X23534000Y-67489649D01*
X23521387Y-67510693D01*
X23506773Y-67530398D01*
X23490297Y-67548577D01*
X23472118Y-67565053D01*
X23452413Y-67579667D01*
X23431369Y-67592280D01*
X23409191Y-67602770D01*
X23386091Y-67611035D01*
X23362293Y-67616996D01*
X23338024Y-67620596D01*
X23313520Y-67621800D01*
X22063520Y-67621800D01*
X22039016Y-67620596D01*
X22014747Y-67616996D01*
X21990949Y-67611035D01*
X21967849Y-67602770D01*
X21945671Y-67592280D01*
X21924627Y-67579667D01*
X21904922Y-67565053D01*
X21886743Y-67548577D01*
X21870267Y-67530398D01*
X21855653Y-67510693D01*
X21843040Y-67489649D01*
X21832550Y-67467471D01*
X21824285Y-67444371D01*
X21818324Y-67420573D01*
X21814724Y-67396304D01*
X21813520Y-67371800D01*
X21813520Y-66621800D01*
X21814724Y-66597296D01*
X21818324Y-66573027D01*
X21824285Y-66549229D01*
X21832550Y-66526129D01*
X21843040Y-66503951D01*
X21855653Y-66482907D01*
X21870267Y-66463202D01*
X21886743Y-66445023D01*
X21904922Y-66428547D01*
X21924627Y-66413933D01*
X21945671Y-66401320D01*
X21967849Y-66390830D01*
X21990949Y-66382565D01*
X22014747Y-66376604D01*
X22039016Y-66373004D01*
X22063520Y-66371800D01*
X23313520Y-66371800D01*
X23338024Y-66373004D01*
G37*
G36*
X23338024Y-63573004D02*
G01*
X23362293Y-63576604D01*
X23386091Y-63582565D01*
X23409191Y-63590830D01*
X23431369Y-63601320D01*
X23452413Y-63613933D01*
X23472118Y-63628547D01*
X23490297Y-63645023D01*
X23506773Y-63663202D01*
X23521387Y-63682907D01*
X23534000Y-63703951D01*
X23544490Y-63726129D01*
X23552755Y-63749229D01*
X23558716Y-63773027D01*
X23562316Y-63797296D01*
X23563520Y-63821800D01*
X23563520Y-64571800D01*
X23562316Y-64596304D01*
X23558716Y-64620573D01*
X23552755Y-64644371D01*
X23544490Y-64667471D01*
X23534000Y-64689649D01*
X23521387Y-64710693D01*
X23506773Y-64730398D01*
X23490297Y-64748577D01*
X23472118Y-64765053D01*
X23452413Y-64779667D01*
X23431369Y-64792280D01*
X23409191Y-64802770D01*
X23386091Y-64811035D01*
X23362293Y-64816996D01*
X23338024Y-64820596D01*
X23313520Y-64821800D01*
X22063520Y-64821800D01*
X22039016Y-64820596D01*
X22014747Y-64816996D01*
X21990949Y-64811035D01*
X21967849Y-64802770D01*
X21945671Y-64792280D01*
X21924627Y-64779667D01*
X21904922Y-64765053D01*
X21886743Y-64748577D01*
X21870267Y-64730398D01*
X21855653Y-64710693D01*
X21843040Y-64689649D01*
X21832550Y-64667471D01*
X21824285Y-64644371D01*
X21818324Y-64620573D01*
X21814724Y-64596304D01*
X21813520Y-64571800D01*
X21813520Y-63821800D01*
X21814724Y-63797296D01*
X21818324Y-63773027D01*
X21824285Y-63749229D01*
X21832550Y-63726129D01*
X21843040Y-63703951D01*
X21855653Y-63682907D01*
X21870267Y-63663202D01*
X21886743Y-63645023D01*
X21904922Y-63628547D01*
X21924627Y-63613933D01*
X21945671Y-63601320D01*
X21967849Y-63590830D01*
X21990949Y-63582565D01*
X22014747Y-63576604D01*
X22039016Y-63573004D01*
X22063520Y-63571800D01*
X23313520Y-63571800D01*
X23338024Y-63573004D01*
G37*
G36*
X75135624Y-79919764D02*
G01*
X75159893Y-79923364D01*
X75183691Y-79929325D01*
X75206791Y-79937590D01*
X75228969Y-79948080D01*
X75250013Y-79960693D01*
X75269718Y-79975307D01*
X75287897Y-79991783D01*
X75304373Y-80009962D01*
X75318987Y-80029667D01*
X75331600Y-80050711D01*
X75342090Y-80072889D01*
X75350355Y-80095989D01*
X75356316Y-80119787D01*
X75359916Y-80144056D01*
X75361120Y-80168560D01*
X75361120Y-81418560D01*
X75359916Y-81443064D01*
X75356316Y-81467333D01*
X75350355Y-81491131D01*
X75342090Y-81514231D01*
X75331600Y-81536409D01*
X75318987Y-81557453D01*
X75304373Y-81577158D01*
X75287897Y-81595337D01*
X75269718Y-81611813D01*
X75250013Y-81626427D01*
X75228969Y-81639040D01*
X75206791Y-81649530D01*
X75183691Y-81657795D01*
X75159893Y-81663756D01*
X75135624Y-81667356D01*
X75111120Y-81668560D01*
X74361120Y-81668560D01*
X74336616Y-81667356D01*
X74312347Y-81663756D01*
X74288549Y-81657795D01*
X74265449Y-81649530D01*
X74243271Y-81639040D01*
X74222227Y-81626427D01*
X74202522Y-81611813D01*
X74184343Y-81595337D01*
X74167867Y-81577158D01*
X74153253Y-81557453D01*
X74140640Y-81536409D01*
X74130150Y-81514231D01*
X74121885Y-81491131D01*
X74115924Y-81467333D01*
X74112324Y-81443064D01*
X74111120Y-81418560D01*
X74111120Y-80168560D01*
X74112324Y-80144056D01*
X74115924Y-80119787D01*
X74121885Y-80095989D01*
X74130150Y-80072889D01*
X74140640Y-80050711D01*
X74153253Y-80029667D01*
X74167867Y-80009962D01*
X74184343Y-79991783D01*
X74202522Y-79975307D01*
X74222227Y-79960693D01*
X74243271Y-79948080D01*
X74265449Y-79937590D01*
X74288549Y-79929325D01*
X74312347Y-79923364D01*
X74336616Y-79919764D01*
X74361120Y-79918560D01*
X75111120Y-79918560D01*
X75135624Y-79919764D01*
G37*
G36*
X72335624Y-79919764D02*
G01*
X72359893Y-79923364D01*
X72383691Y-79929325D01*
X72406791Y-79937590D01*
X72428969Y-79948080D01*
X72450013Y-79960693D01*
X72469718Y-79975307D01*
X72487897Y-79991783D01*
X72504373Y-80009962D01*
X72518987Y-80029667D01*
X72531600Y-80050711D01*
X72542090Y-80072889D01*
X72550355Y-80095989D01*
X72556316Y-80119787D01*
X72559916Y-80144056D01*
X72561120Y-80168560D01*
X72561120Y-81418560D01*
X72559916Y-81443064D01*
X72556316Y-81467333D01*
X72550355Y-81491131D01*
X72542090Y-81514231D01*
X72531600Y-81536409D01*
X72518987Y-81557453D01*
X72504373Y-81577158D01*
X72487897Y-81595337D01*
X72469718Y-81611813D01*
X72450013Y-81626427D01*
X72428969Y-81639040D01*
X72406791Y-81649530D01*
X72383691Y-81657795D01*
X72359893Y-81663756D01*
X72335624Y-81667356D01*
X72311120Y-81668560D01*
X71561120Y-81668560D01*
X71536616Y-81667356D01*
X71512347Y-81663756D01*
X71488549Y-81657795D01*
X71465449Y-81649530D01*
X71443271Y-81639040D01*
X71422227Y-81626427D01*
X71402522Y-81611813D01*
X71384343Y-81595337D01*
X71367867Y-81577158D01*
X71353253Y-81557453D01*
X71340640Y-81536409D01*
X71330150Y-81514231D01*
X71321885Y-81491131D01*
X71315924Y-81467333D01*
X71312324Y-81443064D01*
X71311120Y-81418560D01*
X71311120Y-80168560D01*
X71312324Y-80144056D01*
X71315924Y-80119787D01*
X71321885Y-80095989D01*
X71330150Y-80072889D01*
X71340640Y-80050711D01*
X71353253Y-80029667D01*
X71367867Y-80009962D01*
X71384343Y-79991783D01*
X71402522Y-79975307D01*
X71422227Y-79960693D01*
X71443271Y-79948080D01*
X71465449Y-79937590D01*
X71488549Y-79929325D01*
X71512347Y-79923364D01*
X71536616Y-79919764D01*
X71561120Y-79918560D01*
X72311120Y-79918560D01*
X72335624Y-79919764D01*
G37*
G36*
X75166104Y-82312444D02*
G01*
X75190373Y-82316044D01*
X75214171Y-82322005D01*
X75237271Y-82330270D01*
X75259449Y-82340760D01*
X75280493Y-82353373D01*
X75300198Y-82367987D01*
X75318377Y-82384463D01*
X75334853Y-82402642D01*
X75349467Y-82422347D01*
X75362080Y-82443391D01*
X75372570Y-82465569D01*
X75380835Y-82488669D01*
X75386796Y-82512467D01*
X75390396Y-82536736D01*
X75391600Y-82561240D01*
X75391600Y-83811240D01*
X75390396Y-83835744D01*
X75386796Y-83860013D01*
X75380835Y-83883811D01*
X75372570Y-83906911D01*
X75362080Y-83929089D01*
X75349467Y-83950133D01*
X75334853Y-83969838D01*
X75318377Y-83988017D01*
X75300198Y-84004493D01*
X75280493Y-84019107D01*
X75259449Y-84031720D01*
X75237271Y-84042210D01*
X75214171Y-84050475D01*
X75190373Y-84056436D01*
X75166104Y-84060036D01*
X75141600Y-84061240D01*
X74391600Y-84061240D01*
X74367096Y-84060036D01*
X74342827Y-84056436D01*
X74319029Y-84050475D01*
X74295929Y-84042210D01*
X74273751Y-84031720D01*
X74252707Y-84019107D01*
X74233002Y-84004493D01*
X74214823Y-83988017D01*
X74198347Y-83969838D01*
X74183733Y-83950133D01*
X74171120Y-83929089D01*
X74160630Y-83906911D01*
X74152365Y-83883811D01*
X74146404Y-83860013D01*
X74142804Y-83835744D01*
X74141600Y-83811240D01*
X74141600Y-82561240D01*
X74142804Y-82536736D01*
X74146404Y-82512467D01*
X74152365Y-82488669D01*
X74160630Y-82465569D01*
X74171120Y-82443391D01*
X74183733Y-82422347D01*
X74198347Y-82402642D01*
X74214823Y-82384463D01*
X74233002Y-82367987D01*
X74252707Y-82353373D01*
X74273751Y-82340760D01*
X74295929Y-82330270D01*
X74319029Y-82322005D01*
X74342827Y-82316044D01*
X74367096Y-82312444D01*
X74391600Y-82311240D01*
X75141600Y-82311240D01*
X75166104Y-82312444D01*
G37*
G36*
X72366104Y-82312444D02*
G01*
X72390373Y-82316044D01*
X72414171Y-82322005D01*
X72437271Y-82330270D01*
X72459449Y-82340760D01*
X72480493Y-82353373D01*
X72500198Y-82367987D01*
X72518377Y-82384463D01*
X72534853Y-82402642D01*
X72549467Y-82422347D01*
X72562080Y-82443391D01*
X72572570Y-82465569D01*
X72580835Y-82488669D01*
X72586796Y-82512467D01*
X72590396Y-82536736D01*
X72591600Y-82561240D01*
X72591600Y-83811240D01*
X72590396Y-83835744D01*
X72586796Y-83860013D01*
X72580835Y-83883811D01*
X72572570Y-83906911D01*
X72562080Y-83929089D01*
X72549467Y-83950133D01*
X72534853Y-83969838D01*
X72518377Y-83988017D01*
X72500198Y-84004493D01*
X72480493Y-84019107D01*
X72459449Y-84031720D01*
X72437271Y-84042210D01*
X72414171Y-84050475D01*
X72390373Y-84056436D01*
X72366104Y-84060036D01*
X72341600Y-84061240D01*
X71591600Y-84061240D01*
X71567096Y-84060036D01*
X71542827Y-84056436D01*
X71519029Y-84050475D01*
X71495929Y-84042210D01*
X71473751Y-84031720D01*
X71452707Y-84019107D01*
X71433002Y-84004493D01*
X71414823Y-83988017D01*
X71398347Y-83969838D01*
X71383733Y-83950133D01*
X71371120Y-83929089D01*
X71360630Y-83906911D01*
X71352365Y-83883811D01*
X71346404Y-83860013D01*
X71342804Y-83835744D01*
X71341600Y-83811240D01*
X71341600Y-82561240D01*
X71342804Y-82536736D01*
X71346404Y-82512467D01*
X71352365Y-82488669D01*
X71360630Y-82465569D01*
X71371120Y-82443391D01*
X71383733Y-82422347D01*
X71398347Y-82402642D01*
X71414823Y-82384463D01*
X71433002Y-82367987D01*
X71452707Y-82353373D01*
X71473751Y-82340760D01*
X71495929Y-82330270D01*
X71519029Y-82322005D01*
X71542827Y-82316044D01*
X71567096Y-82312444D01*
X71591600Y-82311240D01*
X72341600Y-82311240D01*
X72366104Y-82312444D01*
G37*
D11*
X54278560Y-31260720D03*
X54278560Y-35660720D03*
M02*
