G04 #@! TF.GenerationSoftware,KiCad,Pcbnew,(5.1.5)-3*
G04 #@! TF.CreationDate,2020-09-27T11:43:04-03:00*
G04 #@! TF.ProjectId,HARDino,48415244-696e-46f2-9e6b-696361645f70,rev?*
G04 #@! TF.SameCoordinates,Original*
G04 #@! TF.FileFunction,Soldermask,Top*
G04 #@! TF.FilePolarity,Negative*
%FSLAX46Y46*%
G04 Gerber Fmt 4.6, Leading zero omitted, Abs format (unit mm)*
G04 Created by KiCad (PCBNEW (5.1.5)-3) date 2020-09-27 11:43:04*
%MOMM*%
%LPD*%
G04 APERTURE LIST*
%ADD10C,0.100000*%
G04 APERTURE END LIST*
D10*
G36*
X87267684Y-104625507D02*
G01*
X87304224Y-104636592D01*
X87337901Y-104654593D01*
X87367421Y-104678819D01*
X87391647Y-104708339D01*
X87409648Y-104742016D01*
X87420733Y-104778556D01*
X87425080Y-104822698D01*
X87425080Y-106271622D01*
X87420733Y-106315764D01*
X87409648Y-106352304D01*
X87391647Y-106385981D01*
X87367421Y-106415501D01*
X87337901Y-106439727D01*
X87304224Y-106457728D01*
X87267684Y-106468813D01*
X87223542Y-106473160D01*
X86274618Y-106473160D01*
X86230476Y-106468813D01*
X86193936Y-106457728D01*
X86160259Y-106439727D01*
X86130739Y-106415501D01*
X86106513Y-106385981D01*
X86088512Y-106352304D01*
X86077427Y-106315764D01*
X86073080Y-106271622D01*
X86073080Y-104822698D01*
X86077427Y-104778556D01*
X86088512Y-104742016D01*
X86106513Y-104708339D01*
X86130739Y-104678819D01*
X86160259Y-104654593D01*
X86193936Y-104636592D01*
X86230476Y-104625507D01*
X86274618Y-104621160D01*
X87223542Y-104621160D01*
X87267684Y-104625507D01*
G37*
G36*
X84467684Y-104625507D02*
G01*
X84504224Y-104636592D01*
X84537901Y-104654593D01*
X84567421Y-104678819D01*
X84591647Y-104708339D01*
X84609648Y-104742016D01*
X84620733Y-104778556D01*
X84625080Y-104822698D01*
X84625080Y-106271622D01*
X84620733Y-106315764D01*
X84609648Y-106352304D01*
X84591647Y-106385981D01*
X84567421Y-106415501D01*
X84537901Y-106439727D01*
X84504224Y-106457728D01*
X84467684Y-106468813D01*
X84423542Y-106473160D01*
X83474618Y-106473160D01*
X83430476Y-106468813D01*
X83393936Y-106457728D01*
X83360259Y-106439727D01*
X83330739Y-106415501D01*
X83306513Y-106385981D01*
X83288512Y-106352304D01*
X83277427Y-106315764D01*
X83273080Y-106271622D01*
X83273080Y-104822698D01*
X83277427Y-104778556D01*
X83288512Y-104742016D01*
X83306513Y-104708339D01*
X83330739Y-104678819D01*
X83360259Y-104654593D01*
X83393936Y-104636592D01*
X83430476Y-104625507D01*
X83474618Y-104621160D01*
X84423542Y-104621160D01*
X84467684Y-104625507D01*
G37*
G36*
X34880858Y-105229480D02*
G01*
X34996028Y-105264418D01*
X34996031Y-105264419D01*
X35102176Y-105321154D01*
X35102178Y-105321155D01*
X35102177Y-105321155D01*
X35195213Y-105397507D01*
X35264720Y-105482202D01*
X35271566Y-105490544D01*
X35328301Y-105596689D01*
X35328302Y-105596692D01*
X35363240Y-105711862D01*
X35375036Y-105831640D01*
X35363240Y-105951418D01*
X35328302Y-106066588D01*
X35328301Y-106066591D01*
X35273382Y-106169338D01*
X35271565Y-106172737D01*
X35195213Y-106265773D01*
X35132330Y-106317379D01*
X35102176Y-106342126D01*
X34996031Y-106398861D01*
X34996028Y-106398862D01*
X34880858Y-106433800D01*
X34791097Y-106442640D01*
X33411063Y-106442640D01*
X33321302Y-106433800D01*
X33206132Y-106398862D01*
X33206129Y-106398861D01*
X33099984Y-106342126D01*
X33069830Y-106317379D01*
X33006947Y-106265773D01*
X32930595Y-106172737D01*
X32928778Y-106169338D01*
X32873859Y-106066591D01*
X32873858Y-106066588D01*
X32838920Y-105951418D01*
X32827124Y-105831640D01*
X32838920Y-105711862D01*
X32873858Y-105596692D01*
X32873859Y-105596689D01*
X32930594Y-105490544D01*
X32937440Y-105482202D01*
X33006947Y-105397507D01*
X33099983Y-105321155D01*
X33099982Y-105321155D01*
X33099984Y-105321154D01*
X33206129Y-105264419D01*
X33206132Y-105264418D01*
X33321302Y-105229480D01*
X33411063Y-105220640D01*
X34791097Y-105220640D01*
X34880858Y-105229480D01*
G37*
G36*
X42380858Y-105229480D02*
G01*
X42496028Y-105264418D01*
X42496031Y-105264419D01*
X42602176Y-105321154D01*
X42602178Y-105321155D01*
X42602177Y-105321155D01*
X42695213Y-105397507D01*
X42764720Y-105482202D01*
X42771566Y-105490544D01*
X42828301Y-105596689D01*
X42828302Y-105596692D01*
X42863240Y-105711862D01*
X42875036Y-105831640D01*
X42863240Y-105951418D01*
X42828302Y-106066588D01*
X42828301Y-106066591D01*
X42773382Y-106169338D01*
X42771565Y-106172737D01*
X42695213Y-106265773D01*
X42632330Y-106317379D01*
X42602176Y-106342126D01*
X42496031Y-106398861D01*
X42496028Y-106398862D01*
X42380858Y-106433800D01*
X42291097Y-106442640D01*
X40911063Y-106442640D01*
X40821302Y-106433800D01*
X40706132Y-106398862D01*
X40706129Y-106398861D01*
X40599984Y-106342126D01*
X40569830Y-106317379D01*
X40506947Y-106265773D01*
X40430595Y-106172737D01*
X40428778Y-106169338D01*
X40373859Y-106066591D01*
X40373858Y-106066588D01*
X40338920Y-105951418D01*
X40327124Y-105831640D01*
X40338920Y-105711862D01*
X40373858Y-105596692D01*
X40373859Y-105596689D01*
X40430594Y-105490544D01*
X40437440Y-105482202D01*
X40506947Y-105397507D01*
X40599983Y-105321155D01*
X40599982Y-105321155D01*
X40599984Y-105321154D01*
X40706129Y-105264419D01*
X40706132Y-105264418D01*
X40821302Y-105229480D01*
X40911063Y-105220640D01*
X42291097Y-105220640D01*
X42380858Y-105229480D01*
G37*
G36*
X89621322Y-104776941D02*
G01*
X89767094Y-104837322D01*
X89767096Y-104837323D01*
X89898288Y-104924982D01*
X90009858Y-105036552D01*
X90097517Y-105167744D01*
X90097518Y-105167746D01*
X90157899Y-105313518D01*
X90188680Y-105468267D01*
X90188680Y-105626053D01*
X90157899Y-105780802D01*
X90144108Y-105814096D01*
X90097517Y-105926576D01*
X90009858Y-106057768D01*
X89898288Y-106169338D01*
X89767096Y-106256997D01*
X89767095Y-106256998D01*
X89767094Y-106256998D01*
X89621322Y-106317379D01*
X89466573Y-106348160D01*
X89308787Y-106348160D01*
X89154038Y-106317379D01*
X89008266Y-106256998D01*
X89008265Y-106256998D01*
X89008264Y-106256997D01*
X88877072Y-106169338D01*
X88765502Y-106057768D01*
X88677843Y-105926576D01*
X88631252Y-105814096D01*
X88617461Y-105780802D01*
X88586680Y-105626053D01*
X88586680Y-105468267D01*
X88617461Y-105313518D01*
X88677842Y-105167746D01*
X88677843Y-105167744D01*
X88765502Y-105036552D01*
X88877072Y-104924982D01*
X89008264Y-104837323D01*
X89008266Y-104837322D01*
X89154038Y-104776941D01*
X89308787Y-104746160D01*
X89466573Y-104746160D01*
X89621322Y-104776941D01*
G37*
G36*
X93021322Y-104776941D02*
G01*
X93167094Y-104837322D01*
X93167096Y-104837323D01*
X93298288Y-104924982D01*
X93409858Y-105036552D01*
X93497517Y-105167744D01*
X93497518Y-105167746D01*
X93557899Y-105313518D01*
X93588680Y-105468267D01*
X93588680Y-105626053D01*
X93557899Y-105780802D01*
X93544108Y-105814096D01*
X93497517Y-105926576D01*
X93409858Y-106057768D01*
X93298288Y-106169338D01*
X93167096Y-106256997D01*
X93167095Y-106256998D01*
X93167094Y-106256998D01*
X93021322Y-106317379D01*
X92866573Y-106348160D01*
X92708787Y-106348160D01*
X92554038Y-106317379D01*
X92408266Y-106256998D01*
X92408265Y-106256998D01*
X92408264Y-106256997D01*
X92277072Y-106169338D01*
X92165502Y-106057768D01*
X92077843Y-105926576D01*
X92031252Y-105814096D01*
X92017461Y-105780802D01*
X91986680Y-105626053D01*
X91986680Y-105468267D01*
X92017461Y-105313518D01*
X92077842Y-105167746D01*
X92077843Y-105167744D01*
X92165502Y-105036552D01*
X92277072Y-104924982D01*
X92408264Y-104837323D01*
X92408266Y-104837322D01*
X92554038Y-104776941D01*
X92708787Y-104746160D01*
X92866573Y-104746160D01*
X93021322Y-104776941D01*
G37*
G36*
X75470232Y-104051647D02*
G01*
X75619532Y-104081344D01*
X75783504Y-104149264D01*
X75931074Y-104247867D01*
X76056573Y-104373366D01*
X76155176Y-104520936D01*
X76223096Y-104684908D01*
X76257720Y-104858979D01*
X76257720Y-105036461D01*
X76223096Y-105210532D01*
X76155176Y-105374504D01*
X76056573Y-105522074D01*
X75931074Y-105647573D01*
X75783504Y-105746176D01*
X75619532Y-105814096D01*
X75470232Y-105843793D01*
X75445462Y-105848720D01*
X75267978Y-105848720D01*
X75243208Y-105843793D01*
X75093908Y-105814096D01*
X74929936Y-105746176D01*
X74782366Y-105647573D01*
X74656867Y-105522074D01*
X74558264Y-105374504D01*
X74490344Y-105210532D01*
X74455720Y-105036461D01*
X74455720Y-104858979D01*
X74490344Y-104684908D01*
X74558264Y-104520936D01*
X74656867Y-104373366D01*
X74782366Y-104247867D01*
X74929936Y-104149264D01*
X75093908Y-104081344D01*
X75243208Y-104051647D01*
X75267978Y-104046720D01*
X75445462Y-104046720D01*
X75470232Y-104051647D01*
G37*
G36*
X53930680Y-105391080D02*
G01*
X52228680Y-105391080D01*
X52228680Y-103689080D01*
X53930680Y-103689080D01*
X53930680Y-105391080D01*
G37*
G36*
X69170680Y-105386000D02*
G01*
X67468680Y-105386000D01*
X67468680Y-103684000D01*
X69170680Y-103684000D01*
X69170680Y-105386000D01*
G37*
G36*
X34880858Y-102689480D02*
G01*
X34996028Y-102724418D01*
X34996031Y-102724419D01*
X35102176Y-102781154D01*
X35102178Y-102781155D01*
X35102177Y-102781155D01*
X35195213Y-102857507D01*
X35264720Y-102942202D01*
X35271566Y-102950544D01*
X35328301Y-103056689D01*
X35328302Y-103056692D01*
X35363240Y-103171862D01*
X35375036Y-103291640D01*
X35363240Y-103411418D01*
X35328302Y-103526588D01*
X35328301Y-103526591D01*
X35271566Y-103632736D01*
X35271565Y-103632737D01*
X35195213Y-103725773D01*
X35110518Y-103795280D01*
X35102176Y-103802126D01*
X34996031Y-103858861D01*
X34996028Y-103858862D01*
X34880858Y-103893800D01*
X34791097Y-103902640D01*
X33411063Y-103902640D01*
X33321302Y-103893800D01*
X33206132Y-103858862D01*
X33206129Y-103858861D01*
X33099984Y-103802126D01*
X33091642Y-103795280D01*
X33006947Y-103725773D01*
X32930595Y-103632737D01*
X32930594Y-103632736D01*
X32873859Y-103526591D01*
X32873858Y-103526588D01*
X32838920Y-103411418D01*
X32827124Y-103291640D01*
X32838920Y-103171862D01*
X32873858Y-103056692D01*
X32873859Y-103056689D01*
X32930594Y-102950544D01*
X32937440Y-102942202D01*
X33006947Y-102857507D01*
X33099983Y-102781155D01*
X33099982Y-102781155D01*
X33099984Y-102781154D01*
X33206129Y-102724419D01*
X33206132Y-102724418D01*
X33321302Y-102689480D01*
X33411063Y-102680640D01*
X34791097Y-102680640D01*
X34880858Y-102689480D01*
G37*
G36*
X42380858Y-102689480D02*
G01*
X42496028Y-102724418D01*
X42496031Y-102724419D01*
X42602176Y-102781154D01*
X42602178Y-102781155D01*
X42602177Y-102781155D01*
X42695213Y-102857507D01*
X42764720Y-102942202D01*
X42771566Y-102950544D01*
X42828301Y-103056689D01*
X42828302Y-103056692D01*
X42863240Y-103171862D01*
X42875036Y-103291640D01*
X42863240Y-103411418D01*
X42828302Y-103526588D01*
X42828301Y-103526591D01*
X42771566Y-103632736D01*
X42771565Y-103632737D01*
X42695213Y-103725773D01*
X42610518Y-103795280D01*
X42602176Y-103802126D01*
X42496031Y-103858861D01*
X42496028Y-103858862D01*
X42380858Y-103893800D01*
X42291097Y-103902640D01*
X40911063Y-103902640D01*
X40821302Y-103893800D01*
X40706132Y-103858862D01*
X40706129Y-103858861D01*
X40599984Y-103802126D01*
X40591642Y-103795280D01*
X40506947Y-103725773D01*
X40430595Y-103632737D01*
X40430594Y-103632736D01*
X40373859Y-103526591D01*
X40373858Y-103526588D01*
X40338920Y-103411418D01*
X40327124Y-103291640D01*
X40338920Y-103171862D01*
X40373858Y-103056692D01*
X40373859Y-103056689D01*
X40430594Y-102950544D01*
X40437440Y-102942202D01*
X40506947Y-102857507D01*
X40599983Y-102781155D01*
X40599982Y-102781155D01*
X40599984Y-102781154D01*
X40706129Y-102724419D01*
X40706132Y-102724418D01*
X40821302Y-102689480D01*
X40911063Y-102680640D01*
X42291097Y-102680640D01*
X42380858Y-102689480D01*
G37*
G36*
X75470232Y-101511647D02*
G01*
X75619532Y-101541344D01*
X75783504Y-101609264D01*
X75931074Y-101707867D01*
X76056573Y-101833366D01*
X76155176Y-101980936D01*
X76223096Y-102144908D01*
X76257720Y-102318979D01*
X76257720Y-102496461D01*
X76223096Y-102670532D01*
X76155176Y-102834504D01*
X76056573Y-102982074D01*
X75931074Y-103107573D01*
X75783504Y-103206176D01*
X75619532Y-103274096D01*
X75470232Y-103303793D01*
X75445462Y-103308720D01*
X75267978Y-103308720D01*
X75243208Y-103303793D01*
X75093908Y-103274096D01*
X74929936Y-103206176D01*
X74782366Y-103107573D01*
X74656867Y-102982074D01*
X74558264Y-102834504D01*
X74490344Y-102670532D01*
X74455720Y-102496461D01*
X74455720Y-102318979D01*
X74490344Y-102144908D01*
X74558264Y-101980936D01*
X74656867Y-101833366D01*
X74782366Y-101707867D01*
X74929936Y-101609264D01*
X75093908Y-101541344D01*
X75243208Y-101511647D01*
X75267978Y-101506720D01*
X75445462Y-101506720D01*
X75470232Y-101511647D01*
G37*
G36*
X53327908Y-101181783D02*
G01*
X53482780Y-101245933D01*
X53622161Y-101339065D01*
X53740695Y-101457599D01*
X53833827Y-101596980D01*
X53897977Y-101751852D01*
X53930680Y-101916264D01*
X53930680Y-102083896D01*
X53897977Y-102248308D01*
X53833827Y-102403180D01*
X53740695Y-102542561D01*
X53622161Y-102661095D01*
X53482780Y-102754227D01*
X53327908Y-102818377D01*
X53163496Y-102851080D01*
X52995864Y-102851080D01*
X52831452Y-102818377D01*
X52676580Y-102754227D01*
X52537199Y-102661095D01*
X52418665Y-102542561D01*
X52325533Y-102403180D01*
X52261383Y-102248308D01*
X52228680Y-102083896D01*
X52228680Y-101916264D01*
X52261383Y-101751852D01*
X52325533Y-101596980D01*
X52418665Y-101457599D01*
X52537199Y-101339065D01*
X52676580Y-101245933D01*
X52831452Y-101181783D01*
X52995864Y-101149080D01*
X53163496Y-101149080D01*
X53327908Y-101181783D01*
G37*
G36*
X68567908Y-101176703D02*
G01*
X68722780Y-101240853D01*
X68862161Y-101333985D01*
X68980695Y-101452519D01*
X69073827Y-101591900D01*
X69137977Y-101746772D01*
X69170680Y-101911184D01*
X69170680Y-102078816D01*
X69137977Y-102243228D01*
X69073827Y-102398100D01*
X68980695Y-102537481D01*
X68862161Y-102656015D01*
X68722780Y-102749147D01*
X68567908Y-102813297D01*
X68403496Y-102846000D01*
X68235864Y-102846000D01*
X68071452Y-102813297D01*
X67916580Y-102749147D01*
X67777199Y-102656015D01*
X67658665Y-102537481D01*
X67565533Y-102398100D01*
X67501383Y-102243228D01*
X67468680Y-102078816D01*
X67468680Y-101911184D01*
X67501383Y-101746772D01*
X67565533Y-101591900D01*
X67658665Y-101452519D01*
X67777199Y-101333985D01*
X67916580Y-101240853D01*
X68071452Y-101176703D01*
X68235864Y-101144000D01*
X68403496Y-101144000D01*
X68567908Y-101176703D01*
G37*
G36*
X42380858Y-100149480D02*
G01*
X42496028Y-100184418D01*
X42496031Y-100184419D01*
X42602176Y-100241154D01*
X42602178Y-100241155D01*
X42602177Y-100241155D01*
X42695213Y-100317507D01*
X42764720Y-100402202D01*
X42771566Y-100410544D01*
X42828301Y-100516689D01*
X42828302Y-100516692D01*
X42863240Y-100631862D01*
X42875036Y-100751640D01*
X42863240Y-100871418D01*
X42829996Y-100981005D01*
X42828301Y-100986591D01*
X42771566Y-101092736D01*
X42771565Y-101092737D01*
X42695213Y-101185773D01*
X42628098Y-101240852D01*
X42602176Y-101262126D01*
X42496031Y-101318861D01*
X42496028Y-101318862D01*
X42380858Y-101353800D01*
X42291097Y-101362640D01*
X40911063Y-101362640D01*
X40821302Y-101353800D01*
X40706132Y-101318862D01*
X40706129Y-101318861D01*
X40599984Y-101262126D01*
X40574062Y-101240852D01*
X40506947Y-101185773D01*
X40430595Y-101092737D01*
X40430594Y-101092736D01*
X40373859Y-100986591D01*
X40372164Y-100981005D01*
X40338920Y-100871418D01*
X40327124Y-100751640D01*
X40338920Y-100631862D01*
X40373858Y-100516692D01*
X40373859Y-100516689D01*
X40430594Y-100410544D01*
X40437440Y-100402202D01*
X40506947Y-100317507D01*
X40599983Y-100241155D01*
X40599982Y-100241155D01*
X40599984Y-100241154D01*
X40706129Y-100184419D01*
X40706132Y-100184418D01*
X40821302Y-100149480D01*
X40911063Y-100140640D01*
X42291097Y-100140640D01*
X42380858Y-100149480D01*
G37*
G36*
X34880858Y-100149480D02*
G01*
X34996028Y-100184418D01*
X34996031Y-100184419D01*
X35102176Y-100241154D01*
X35102178Y-100241155D01*
X35102177Y-100241155D01*
X35195213Y-100317507D01*
X35264720Y-100402202D01*
X35271566Y-100410544D01*
X35328301Y-100516689D01*
X35328302Y-100516692D01*
X35363240Y-100631862D01*
X35375036Y-100751640D01*
X35363240Y-100871418D01*
X35329996Y-100981005D01*
X35328301Y-100986591D01*
X35271566Y-101092736D01*
X35271565Y-101092737D01*
X35195213Y-101185773D01*
X35128098Y-101240852D01*
X35102176Y-101262126D01*
X34996031Y-101318861D01*
X34996028Y-101318862D01*
X34880858Y-101353800D01*
X34791097Y-101362640D01*
X33411063Y-101362640D01*
X33321302Y-101353800D01*
X33206132Y-101318862D01*
X33206129Y-101318861D01*
X33099984Y-101262126D01*
X33074062Y-101240852D01*
X33006947Y-101185773D01*
X32930595Y-101092737D01*
X32930594Y-101092736D01*
X32873859Y-100986591D01*
X32872164Y-100981005D01*
X32838920Y-100871418D01*
X32827124Y-100751640D01*
X32838920Y-100631862D01*
X32873858Y-100516692D01*
X32873859Y-100516689D01*
X32930594Y-100410544D01*
X32937440Y-100402202D01*
X33006947Y-100317507D01*
X33099983Y-100241155D01*
X33099982Y-100241155D01*
X33099984Y-100241154D01*
X33206129Y-100184419D01*
X33206132Y-100184418D01*
X33321302Y-100149480D01*
X33411063Y-100140640D01*
X34791097Y-100140640D01*
X34880858Y-100149480D01*
G37*
G36*
X104112595Y-99223786D02*
G01*
X104285666Y-99295474D01*
X104285667Y-99295475D01*
X104441427Y-99399550D01*
X104573890Y-99532013D01*
X104581829Y-99543895D01*
X104677966Y-99687774D01*
X104749654Y-99860845D01*
X104786200Y-100044573D01*
X104786200Y-100231907D01*
X104749654Y-100415635D01*
X104677966Y-100588706D01*
X104677965Y-100588707D01*
X104573890Y-100744467D01*
X104441427Y-100876930D01*
X104363018Y-100929321D01*
X104285666Y-100981006D01*
X104112595Y-101052694D01*
X103928867Y-101089240D01*
X103741533Y-101089240D01*
X103557805Y-101052694D01*
X103384734Y-100981006D01*
X103307382Y-100929321D01*
X103228973Y-100876930D01*
X103096510Y-100744467D01*
X102992435Y-100588707D01*
X102992434Y-100588706D01*
X102920746Y-100415635D01*
X102884200Y-100231907D01*
X102884200Y-100044573D01*
X102920746Y-99860845D01*
X102992434Y-99687774D01*
X103088571Y-99543895D01*
X103096510Y-99532013D01*
X103228973Y-99399550D01*
X103384733Y-99295475D01*
X103384734Y-99295474D01*
X103557805Y-99223786D01*
X103741533Y-99187240D01*
X103928867Y-99187240D01*
X104112595Y-99223786D01*
G37*
G36*
X75470232Y-98971647D02*
G01*
X75619532Y-99001344D01*
X75783504Y-99069264D01*
X75931074Y-99167867D01*
X76056573Y-99293366D01*
X76155176Y-99440936D01*
X76223096Y-99604908D01*
X76257720Y-99778979D01*
X76257720Y-99956461D01*
X76223096Y-100130532D01*
X76155176Y-100294504D01*
X76056573Y-100442074D01*
X75931074Y-100567573D01*
X75783504Y-100666176D01*
X75619532Y-100734096D01*
X75470232Y-100763793D01*
X75445462Y-100768720D01*
X75267978Y-100768720D01*
X75243208Y-100763793D01*
X75093908Y-100734096D01*
X74929936Y-100666176D01*
X74782366Y-100567573D01*
X74656867Y-100442074D01*
X74558264Y-100294504D01*
X74490344Y-100130532D01*
X74455720Y-99956461D01*
X74455720Y-99778979D01*
X74490344Y-99604908D01*
X74558264Y-99440936D01*
X74656867Y-99293366D01*
X74782366Y-99167867D01*
X74929936Y-99069264D01*
X75093908Y-99001344D01*
X75243208Y-98971647D01*
X75267978Y-98966720D01*
X75445462Y-98966720D01*
X75470232Y-98971647D01*
G37*
G36*
X23261832Y-98818007D02*
G01*
X23411132Y-98847704D01*
X23575104Y-98915624D01*
X23722674Y-99014227D01*
X23848173Y-99139726D01*
X23946776Y-99287296D01*
X24014696Y-99451268D01*
X24049320Y-99625339D01*
X24049320Y-99802821D01*
X24014696Y-99976892D01*
X23946776Y-100140864D01*
X23848173Y-100288434D01*
X23722674Y-100413933D01*
X23575104Y-100512536D01*
X23411132Y-100580456D01*
X23261832Y-100610153D01*
X23237062Y-100615080D01*
X23059578Y-100615080D01*
X23034808Y-100610153D01*
X22885508Y-100580456D01*
X22721536Y-100512536D01*
X22573966Y-100413933D01*
X22448467Y-100288434D01*
X22349864Y-100140864D01*
X22281944Y-99976892D01*
X22247320Y-99802821D01*
X22247320Y-99625339D01*
X22281944Y-99451268D01*
X22349864Y-99287296D01*
X22448467Y-99139726D01*
X22573966Y-99014227D01*
X22721536Y-98915624D01*
X22885508Y-98847704D01*
X23034808Y-98818007D01*
X23059578Y-98813080D01*
X23237062Y-98813080D01*
X23261832Y-98818007D01*
G37*
G36*
X26589320Y-100615080D02*
G01*
X24787320Y-100615080D01*
X24787320Y-98813080D01*
X26589320Y-98813080D01*
X26589320Y-100615080D01*
G37*
G36*
X20721832Y-98818007D02*
G01*
X20871132Y-98847704D01*
X21035104Y-98915624D01*
X21182674Y-99014227D01*
X21308173Y-99139726D01*
X21406776Y-99287296D01*
X21474696Y-99451268D01*
X21509320Y-99625339D01*
X21509320Y-99802821D01*
X21474696Y-99976892D01*
X21406776Y-100140864D01*
X21308173Y-100288434D01*
X21182674Y-100413933D01*
X21035104Y-100512536D01*
X20871132Y-100580456D01*
X20721832Y-100610153D01*
X20697062Y-100615080D01*
X20519578Y-100615080D01*
X20494808Y-100610153D01*
X20345508Y-100580456D01*
X20181536Y-100512536D01*
X20033966Y-100413933D01*
X19908467Y-100288434D01*
X19809864Y-100140864D01*
X19741944Y-99976892D01*
X19707320Y-99802821D01*
X19707320Y-99625339D01*
X19741944Y-99451268D01*
X19809864Y-99287296D01*
X19908467Y-99139726D01*
X20033966Y-99014227D01*
X20181536Y-98915624D01*
X20345508Y-98847704D01*
X20494808Y-98818007D01*
X20519578Y-98813080D01*
X20697062Y-98813080D01*
X20721832Y-98818007D01*
G37*
G36*
X53327908Y-98641783D02*
G01*
X53482780Y-98705933D01*
X53622161Y-98799065D01*
X53740695Y-98917599D01*
X53833827Y-99056980D01*
X53897977Y-99211852D01*
X53930680Y-99376264D01*
X53930680Y-99543896D01*
X53897977Y-99708308D01*
X53833827Y-99863180D01*
X53740695Y-100002561D01*
X53622161Y-100121095D01*
X53482780Y-100214227D01*
X53327908Y-100278377D01*
X53163496Y-100311080D01*
X52995864Y-100311080D01*
X52831452Y-100278377D01*
X52676580Y-100214227D01*
X52537199Y-100121095D01*
X52418665Y-100002561D01*
X52325533Y-99863180D01*
X52261383Y-99708308D01*
X52228680Y-99543896D01*
X52228680Y-99376264D01*
X52261383Y-99211852D01*
X52325533Y-99056980D01*
X52418665Y-98917599D01*
X52537199Y-98799065D01*
X52676580Y-98705933D01*
X52831452Y-98641783D01*
X52995864Y-98609080D01*
X53163496Y-98609080D01*
X53327908Y-98641783D01*
G37*
G36*
X68567908Y-98636703D02*
G01*
X68722780Y-98700853D01*
X68862161Y-98793985D01*
X68980695Y-98912519D01*
X69073827Y-99051900D01*
X69137977Y-99206772D01*
X69170680Y-99371184D01*
X69170680Y-99538816D01*
X69137977Y-99703228D01*
X69073827Y-99858100D01*
X68980695Y-99997481D01*
X68862161Y-100116015D01*
X68722780Y-100209147D01*
X68567908Y-100273297D01*
X68403496Y-100306000D01*
X68235864Y-100306000D01*
X68071452Y-100273297D01*
X67916580Y-100209147D01*
X67777199Y-100116015D01*
X67658665Y-99997481D01*
X67565533Y-99858100D01*
X67501383Y-99703228D01*
X67468680Y-99538816D01*
X67468680Y-99371184D01*
X67501383Y-99206772D01*
X67565533Y-99051900D01*
X67658665Y-98912519D01*
X67777199Y-98793985D01*
X67916580Y-98700853D01*
X68071452Y-98636703D01*
X68235864Y-98604000D01*
X68403496Y-98604000D01*
X68567908Y-98636703D01*
G37*
G36*
X34880858Y-97609480D02*
G01*
X34996028Y-97644418D01*
X34996031Y-97644419D01*
X35102176Y-97701154D01*
X35102178Y-97701155D01*
X35102177Y-97701155D01*
X35195213Y-97777507D01*
X35242704Y-97835376D01*
X35271566Y-97870544D01*
X35328301Y-97976689D01*
X35328302Y-97976692D01*
X35363240Y-98091862D01*
X35375036Y-98211640D01*
X35363240Y-98331418D01*
X35328302Y-98446588D01*
X35328301Y-98446591D01*
X35271566Y-98552736D01*
X35271565Y-98552737D01*
X35195213Y-98645773D01*
X35128098Y-98700852D01*
X35102176Y-98722126D01*
X34996031Y-98778861D01*
X34996028Y-98778862D01*
X34880858Y-98813800D01*
X34791097Y-98822640D01*
X33411063Y-98822640D01*
X33321302Y-98813800D01*
X33206132Y-98778862D01*
X33206129Y-98778861D01*
X33099984Y-98722126D01*
X33074062Y-98700852D01*
X33006947Y-98645773D01*
X32930595Y-98552737D01*
X32930594Y-98552736D01*
X32873859Y-98446591D01*
X32873858Y-98446588D01*
X32838920Y-98331418D01*
X32827124Y-98211640D01*
X32838920Y-98091862D01*
X32873858Y-97976692D01*
X32873859Y-97976689D01*
X32930594Y-97870544D01*
X32959456Y-97835376D01*
X33006947Y-97777507D01*
X33099983Y-97701155D01*
X33099982Y-97701155D01*
X33099984Y-97701154D01*
X33206129Y-97644419D01*
X33206132Y-97644418D01*
X33321302Y-97609480D01*
X33411063Y-97600640D01*
X34791097Y-97600640D01*
X34880858Y-97609480D01*
G37*
G36*
X42380858Y-97609480D02*
G01*
X42496028Y-97644418D01*
X42496031Y-97644419D01*
X42602176Y-97701154D01*
X42602178Y-97701155D01*
X42602177Y-97701155D01*
X42695213Y-97777507D01*
X42742704Y-97835376D01*
X42771566Y-97870544D01*
X42828301Y-97976689D01*
X42828302Y-97976692D01*
X42863240Y-98091862D01*
X42875036Y-98211640D01*
X42863240Y-98331418D01*
X42828302Y-98446588D01*
X42828301Y-98446591D01*
X42771566Y-98552736D01*
X42771565Y-98552737D01*
X42695213Y-98645773D01*
X42628098Y-98700852D01*
X42602176Y-98722126D01*
X42496031Y-98778861D01*
X42496028Y-98778862D01*
X42380858Y-98813800D01*
X42291097Y-98822640D01*
X40911063Y-98822640D01*
X40821302Y-98813800D01*
X40706132Y-98778862D01*
X40706129Y-98778861D01*
X40599984Y-98722126D01*
X40574062Y-98700852D01*
X40506947Y-98645773D01*
X40430595Y-98552737D01*
X40430594Y-98552736D01*
X40373859Y-98446591D01*
X40373858Y-98446588D01*
X40338920Y-98331418D01*
X40327124Y-98211640D01*
X40338920Y-98091862D01*
X40373858Y-97976692D01*
X40373859Y-97976689D01*
X40430594Y-97870544D01*
X40459456Y-97835376D01*
X40506947Y-97777507D01*
X40599983Y-97701155D01*
X40599982Y-97701155D01*
X40599984Y-97701154D01*
X40706129Y-97644419D01*
X40706132Y-97644418D01*
X40821302Y-97609480D01*
X40911063Y-97600640D01*
X42291097Y-97600640D01*
X42380858Y-97609480D01*
G37*
G36*
X76257720Y-98228720D02*
G01*
X74455720Y-98228720D01*
X74455720Y-96426720D01*
X76257720Y-96426720D01*
X76257720Y-98228720D01*
G37*
G36*
X23261832Y-96140847D02*
G01*
X23411132Y-96170544D01*
X23575104Y-96238464D01*
X23722674Y-96337067D01*
X23848173Y-96462566D01*
X23946776Y-96610136D01*
X24014696Y-96774108D01*
X24049320Y-96948179D01*
X24049320Y-97125661D01*
X24014696Y-97299732D01*
X23946776Y-97463704D01*
X23848173Y-97611274D01*
X23722674Y-97736773D01*
X23575104Y-97835376D01*
X23411132Y-97903296D01*
X23261832Y-97932993D01*
X23237062Y-97937920D01*
X23059578Y-97937920D01*
X23034808Y-97932993D01*
X22885508Y-97903296D01*
X22721536Y-97835376D01*
X22573966Y-97736773D01*
X22448467Y-97611274D01*
X22349864Y-97463704D01*
X22281944Y-97299732D01*
X22247320Y-97125661D01*
X22247320Y-96948179D01*
X22281944Y-96774108D01*
X22349864Y-96610136D01*
X22448467Y-96462566D01*
X22573966Y-96337067D01*
X22721536Y-96238464D01*
X22885508Y-96170544D01*
X23034808Y-96140847D01*
X23059578Y-96135920D01*
X23237062Y-96135920D01*
X23261832Y-96140847D01*
G37*
G36*
X20721832Y-96140847D02*
G01*
X20871132Y-96170544D01*
X21035104Y-96238464D01*
X21182674Y-96337067D01*
X21308173Y-96462566D01*
X21406776Y-96610136D01*
X21474696Y-96774108D01*
X21509320Y-96948179D01*
X21509320Y-97125661D01*
X21474696Y-97299732D01*
X21406776Y-97463704D01*
X21308173Y-97611274D01*
X21182674Y-97736773D01*
X21035104Y-97835376D01*
X20871132Y-97903296D01*
X20721832Y-97932993D01*
X20697062Y-97937920D01*
X20519578Y-97937920D01*
X20494808Y-97932993D01*
X20345508Y-97903296D01*
X20181536Y-97835376D01*
X20033966Y-97736773D01*
X19908467Y-97611274D01*
X19809864Y-97463704D01*
X19741944Y-97299732D01*
X19707320Y-97125661D01*
X19707320Y-96948179D01*
X19741944Y-96774108D01*
X19809864Y-96610136D01*
X19908467Y-96462566D01*
X20033966Y-96337067D01*
X20181536Y-96238464D01*
X20345508Y-96170544D01*
X20494808Y-96140847D01*
X20519578Y-96135920D01*
X20697062Y-96135920D01*
X20721832Y-96140847D01*
G37*
G36*
X26589320Y-97937920D02*
G01*
X24787320Y-97937920D01*
X24787320Y-96135920D01*
X26589320Y-96135920D01*
X26589320Y-97937920D01*
G37*
G36*
X53327908Y-96101783D02*
G01*
X53482780Y-96165933D01*
X53622161Y-96259065D01*
X53740695Y-96377599D01*
X53833827Y-96516980D01*
X53897977Y-96671852D01*
X53930680Y-96836264D01*
X53930680Y-97003896D01*
X53897977Y-97168308D01*
X53833827Y-97323180D01*
X53740695Y-97462561D01*
X53622161Y-97581095D01*
X53482780Y-97674227D01*
X53327908Y-97738377D01*
X53163496Y-97771080D01*
X52995864Y-97771080D01*
X52831452Y-97738377D01*
X52676580Y-97674227D01*
X52537199Y-97581095D01*
X52418665Y-97462561D01*
X52325533Y-97323180D01*
X52261383Y-97168308D01*
X52228680Y-97003896D01*
X52228680Y-96836264D01*
X52261383Y-96671852D01*
X52325533Y-96516980D01*
X52418665Y-96377599D01*
X52537199Y-96259065D01*
X52676580Y-96165933D01*
X52831452Y-96101783D01*
X52995864Y-96069080D01*
X53163496Y-96069080D01*
X53327908Y-96101783D01*
G37*
G36*
X68567908Y-96096703D02*
G01*
X68722780Y-96160853D01*
X68862161Y-96253985D01*
X68980695Y-96372519D01*
X69073827Y-96511900D01*
X69137977Y-96666772D01*
X69170680Y-96831184D01*
X69170680Y-96998816D01*
X69137977Y-97163228D01*
X69073827Y-97318100D01*
X68980695Y-97457481D01*
X68862161Y-97576015D01*
X68722780Y-97669147D01*
X68567908Y-97733297D01*
X68403496Y-97766000D01*
X68235864Y-97766000D01*
X68071452Y-97733297D01*
X67916580Y-97669147D01*
X67777199Y-97576015D01*
X67658665Y-97457481D01*
X67565533Y-97318100D01*
X67501383Y-97163228D01*
X67468680Y-96998816D01*
X67468680Y-96831184D01*
X67501383Y-96666772D01*
X67565533Y-96511900D01*
X67658665Y-96372519D01*
X67777199Y-96253985D01*
X67916580Y-96160853D01*
X68071452Y-96096703D01*
X68235864Y-96064000D01*
X68403496Y-96064000D01*
X68567908Y-96096703D01*
G37*
G36*
X104112595Y-94223786D02*
G01*
X104285666Y-94295474D01*
X104356975Y-94343121D01*
X104441427Y-94399550D01*
X104573890Y-94532013D01*
X104573891Y-94532015D01*
X104677966Y-94687774D01*
X104749654Y-94860845D01*
X104786200Y-95044573D01*
X104786200Y-95231907D01*
X104749654Y-95415635D01*
X104677966Y-95588706D01*
X104677965Y-95588707D01*
X104573890Y-95744467D01*
X104441427Y-95876930D01*
X104363018Y-95929321D01*
X104285666Y-95981006D01*
X104112595Y-96052694D01*
X103928867Y-96089240D01*
X103741533Y-96089240D01*
X103557805Y-96052694D01*
X103384734Y-95981006D01*
X103307382Y-95929321D01*
X103228973Y-95876930D01*
X103096510Y-95744467D01*
X102992435Y-95588707D01*
X102992434Y-95588706D01*
X102920746Y-95415635D01*
X102884200Y-95231907D01*
X102884200Y-95044573D01*
X102920746Y-94860845D01*
X102992434Y-94687774D01*
X103096509Y-94532015D01*
X103096510Y-94532013D01*
X103228973Y-94399550D01*
X103313425Y-94343121D01*
X103384734Y-94295474D01*
X103557805Y-94223786D01*
X103741533Y-94187240D01*
X103928867Y-94187240D01*
X104112595Y-94223786D01*
G37*
G36*
X26584240Y-95255680D02*
G01*
X24782240Y-95255680D01*
X24782240Y-93453680D01*
X26584240Y-93453680D01*
X26584240Y-95255680D01*
G37*
G36*
X23248270Y-93456920D02*
G01*
X23406052Y-93488304D01*
X23570024Y-93556224D01*
X23717594Y-93654827D01*
X23843093Y-93780326D01*
X23941696Y-93927896D01*
X24009616Y-94091868D01*
X24044240Y-94265939D01*
X24044240Y-94443421D01*
X24009616Y-94617492D01*
X23941696Y-94781464D01*
X23843093Y-94929034D01*
X23717594Y-95054533D01*
X23570024Y-95153136D01*
X23406052Y-95221056D01*
X23256752Y-95250753D01*
X23231982Y-95255680D01*
X23054498Y-95255680D01*
X23029728Y-95250753D01*
X22880428Y-95221056D01*
X22716456Y-95153136D01*
X22568886Y-95054533D01*
X22443387Y-94929034D01*
X22344784Y-94781464D01*
X22276864Y-94617492D01*
X22242240Y-94443421D01*
X22242240Y-94265939D01*
X22276864Y-94091868D01*
X22344784Y-93927896D01*
X22443387Y-93780326D01*
X22568886Y-93654827D01*
X22716456Y-93556224D01*
X22880428Y-93488304D01*
X23038210Y-93456920D01*
X23054498Y-93453680D01*
X23231982Y-93453680D01*
X23248270Y-93456920D01*
G37*
G36*
X20708270Y-93456920D02*
G01*
X20866052Y-93488304D01*
X21030024Y-93556224D01*
X21177594Y-93654827D01*
X21303093Y-93780326D01*
X21401696Y-93927896D01*
X21469616Y-94091868D01*
X21504240Y-94265939D01*
X21504240Y-94443421D01*
X21469616Y-94617492D01*
X21401696Y-94781464D01*
X21303093Y-94929034D01*
X21177594Y-95054533D01*
X21030024Y-95153136D01*
X20866052Y-95221056D01*
X20716752Y-95250753D01*
X20691982Y-95255680D01*
X20514498Y-95255680D01*
X20489728Y-95250753D01*
X20340428Y-95221056D01*
X20176456Y-95153136D01*
X20028886Y-95054533D01*
X19903387Y-94929034D01*
X19804784Y-94781464D01*
X19736864Y-94617492D01*
X19702240Y-94443421D01*
X19702240Y-94265939D01*
X19736864Y-94091868D01*
X19804784Y-93927896D01*
X19903387Y-93780326D01*
X20028886Y-93654827D01*
X20176456Y-93556224D01*
X20340428Y-93488304D01*
X20498210Y-93456920D01*
X20514498Y-93453680D01*
X20691982Y-93453680D01*
X20708270Y-93456920D01*
G37*
G36*
X53327908Y-93561783D02*
G01*
X53482780Y-93625933D01*
X53622161Y-93719065D01*
X53740695Y-93837599D01*
X53833827Y-93976980D01*
X53897977Y-94131852D01*
X53930680Y-94296264D01*
X53930680Y-94463896D01*
X53897977Y-94628308D01*
X53833827Y-94783180D01*
X53740695Y-94922561D01*
X53622161Y-95041095D01*
X53482780Y-95134227D01*
X53327908Y-95198377D01*
X53163496Y-95231080D01*
X52995864Y-95231080D01*
X52831452Y-95198377D01*
X52676580Y-95134227D01*
X52537199Y-95041095D01*
X52418665Y-94922561D01*
X52325533Y-94783180D01*
X52261383Y-94628308D01*
X52228680Y-94463896D01*
X52228680Y-94296264D01*
X52261383Y-94131852D01*
X52325533Y-93976980D01*
X52418665Y-93837599D01*
X52537199Y-93719065D01*
X52676580Y-93625933D01*
X52831452Y-93561783D01*
X52995864Y-93529080D01*
X53163496Y-93529080D01*
X53327908Y-93561783D01*
G37*
G36*
X68567908Y-93556703D02*
G01*
X68722780Y-93620853D01*
X68862161Y-93713985D01*
X68980695Y-93832519D01*
X69073827Y-93971900D01*
X69137977Y-94126772D01*
X69170680Y-94291184D01*
X69170680Y-94458816D01*
X69137977Y-94623228D01*
X69073827Y-94778100D01*
X68980695Y-94917481D01*
X68862161Y-95036015D01*
X68722780Y-95129147D01*
X68567908Y-95193297D01*
X68403496Y-95226000D01*
X68235864Y-95226000D01*
X68071452Y-95193297D01*
X67916580Y-95129147D01*
X67777199Y-95036015D01*
X67658665Y-94917481D01*
X67565533Y-94778100D01*
X67501383Y-94623228D01*
X67468680Y-94458816D01*
X67468680Y-94291184D01*
X67501383Y-94126772D01*
X67565533Y-93971900D01*
X67658665Y-93832519D01*
X67777199Y-93713985D01*
X67916580Y-93620853D01*
X68071452Y-93556703D01*
X68235864Y-93524000D01*
X68403496Y-93524000D01*
X68567908Y-93556703D01*
G37*
G36*
X83823641Y-93459572D02*
G01*
X83951941Y-93512716D01*
X83951943Y-93512717D01*
X84010069Y-93551556D01*
X84067410Y-93589870D01*
X84165610Y-93688070D01*
X84242764Y-93803539D01*
X84295908Y-93931839D01*
X84323000Y-94068042D01*
X84323000Y-94206918D01*
X84295908Y-94343121D01*
X84242764Y-94471421D01*
X84165610Y-94586890D01*
X84067410Y-94685090D01*
X84063393Y-94687774D01*
X83951943Y-94762243D01*
X83951942Y-94762244D01*
X83951941Y-94762244D01*
X83823641Y-94815388D01*
X83687438Y-94842480D01*
X83548562Y-94842480D01*
X83412359Y-94815388D01*
X83284059Y-94762244D01*
X83284058Y-94762244D01*
X83284057Y-94762243D01*
X83172607Y-94687774D01*
X83168590Y-94685090D01*
X83070390Y-94586890D01*
X82993236Y-94471421D01*
X82940092Y-94343121D01*
X82913000Y-94206918D01*
X82913000Y-94068042D01*
X82940092Y-93931839D01*
X82993236Y-93803539D01*
X83070390Y-93688070D01*
X83168590Y-93589870D01*
X83225931Y-93551556D01*
X83284057Y-93512717D01*
X83284059Y-93512716D01*
X83412359Y-93459572D01*
X83548562Y-93432480D01*
X83687438Y-93432480D01*
X83823641Y-93459572D01*
G37*
G36*
X90323641Y-93459572D02*
G01*
X90451941Y-93512716D01*
X90451943Y-93512717D01*
X90510069Y-93551556D01*
X90567410Y-93589870D01*
X90665610Y-93688070D01*
X90742764Y-93803539D01*
X90795908Y-93931839D01*
X90823000Y-94068042D01*
X90823000Y-94206918D01*
X90795908Y-94343121D01*
X90742764Y-94471421D01*
X90665610Y-94586890D01*
X90567410Y-94685090D01*
X90563393Y-94687774D01*
X90451943Y-94762243D01*
X90451942Y-94762244D01*
X90451941Y-94762244D01*
X90323641Y-94815388D01*
X90187438Y-94842480D01*
X90048562Y-94842480D01*
X89912359Y-94815388D01*
X89784059Y-94762244D01*
X89784058Y-94762244D01*
X89784057Y-94762243D01*
X89672607Y-94687774D01*
X89668590Y-94685090D01*
X89570390Y-94586890D01*
X89493236Y-94471421D01*
X89440092Y-94343121D01*
X89413000Y-94206918D01*
X89413000Y-94068042D01*
X89440092Y-93931839D01*
X89493236Y-93803539D01*
X89570390Y-93688070D01*
X89668590Y-93589870D01*
X89725931Y-93551556D01*
X89784057Y-93512717D01*
X89784059Y-93512716D01*
X89912359Y-93459572D01*
X90048562Y-93432480D01*
X90187438Y-93432480D01*
X90323641Y-93459572D01*
G37*
G36*
X34894858Y-92243760D02*
G01*
X35010028Y-92278698D01*
X35010031Y-92278699D01*
X35116176Y-92335434D01*
X35116178Y-92335435D01*
X35116177Y-92335435D01*
X35209213Y-92411787D01*
X35278337Y-92496015D01*
X35285566Y-92504824D01*
X35342301Y-92610969D01*
X35342302Y-92610972D01*
X35377240Y-92726142D01*
X35389036Y-92845920D01*
X35377240Y-92965698D01*
X35342302Y-93080868D01*
X35342301Y-93080871D01*
X35285566Y-93187016D01*
X35285565Y-93187017D01*
X35209213Y-93280053D01*
X35124518Y-93349560D01*
X35116176Y-93356406D01*
X35010031Y-93413141D01*
X35010028Y-93413142D01*
X34894858Y-93448080D01*
X34805097Y-93456920D01*
X33425063Y-93456920D01*
X33335302Y-93448080D01*
X33220132Y-93413142D01*
X33220129Y-93413141D01*
X33113984Y-93356406D01*
X33105642Y-93349560D01*
X33020947Y-93280053D01*
X32944595Y-93187017D01*
X32944594Y-93187016D01*
X32887859Y-93080871D01*
X32887858Y-93080868D01*
X32852920Y-92965698D01*
X32841124Y-92845920D01*
X32852920Y-92726142D01*
X32887858Y-92610972D01*
X32887859Y-92610969D01*
X32944594Y-92504824D01*
X32951823Y-92496015D01*
X33020947Y-92411787D01*
X33113983Y-92335435D01*
X33113982Y-92335435D01*
X33113984Y-92335434D01*
X33220129Y-92278699D01*
X33220132Y-92278698D01*
X33335302Y-92243760D01*
X33425063Y-92234920D01*
X34805097Y-92234920D01*
X34894858Y-92243760D01*
G37*
G36*
X42394858Y-92243760D02*
G01*
X42510028Y-92278698D01*
X42510031Y-92278699D01*
X42616176Y-92335434D01*
X42616178Y-92335435D01*
X42616177Y-92335435D01*
X42709213Y-92411787D01*
X42778337Y-92496015D01*
X42785566Y-92504824D01*
X42842301Y-92610969D01*
X42842302Y-92610972D01*
X42877240Y-92726142D01*
X42889036Y-92845920D01*
X42877240Y-92965698D01*
X42842302Y-93080868D01*
X42842301Y-93080871D01*
X42785566Y-93187016D01*
X42785565Y-93187017D01*
X42709213Y-93280053D01*
X42624518Y-93349560D01*
X42616176Y-93356406D01*
X42510031Y-93413141D01*
X42510028Y-93413142D01*
X42394858Y-93448080D01*
X42305097Y-93456920D01*
X40925063Y-93456920D01*
X40835302Y-93448080D01*
X40720132Y-93413142D01*
X40720129Y-93413141D01*
X40613984Y-93356406D01*
X40605642Y-93349560D01*
X40520947Y-93280053D01*
X40444595Y-93187017D01*
X40444594Y-93187016D01*
X40387859Y-93080871D01*
X40387858Y-93080868D01*
X40352920Y-92965698D01*
X40341124Y-92845920D01*
X40352920Y-92726142D01*
X40387858Y-92610972D01*
X40387859Y-92610969D01*
X40444594Y-92504824D01*
X40451823Y-92496015D01*
X40520947Y-92411787D01*
X40613983Y-92335435D01*
X40613982Y-92335435D01*
X40613984Y-92335434D01*
X40720129Y-92278699D01*
X40720132Y-92278698D01*
X40835302Y-92243760D01*
X40925063Y-92234920D01*
X42305097Y-92234920D01*
X42394858Y-92243760D01*
G37*
G36*
X71564484Y-90924747D02*
G01*
X71601024Y-90935832D01*
X71634701Y-90953833D01*
X71664221Y-90978059D01*
X71688447Y-91007579D01*
X71706448Y-91041256D01*
X71717533Y-91077796D01*
X71721880Y-91121938D01*
X71721880Y-92570862D01*
X71717533Y-92615004D01*
X71706448Y-92651544D01*
X71688447Y-92685221D01*
X71664221Y-92714741D01*
X71634701Y-92738967D01*
X71601024Y-92756968D01*
X71564484Y-92768053D01*
X71520342Y-92772400D01*
X70571418Y-92772400D01*
X70527276Y-92768053D01*
X70490736Y-92756968D01*
X70457059Y-92738967D01*
X70427539Y-92714741D01*
X70403313Y-92685221D01*
X70385312Y-92651544D01*
X70374227Y-92615004D01*
X70369880Y-92570862D01*
X70369880Y-91121938D01*
X70374227Y-91077796D01*
X70385312Y-91041256D01*
X70403313Y-91007579D01*
X70427539Y-90978059D01*
X70457059Y-90953833D01*
X70490736Y-90935832D01*
X70527276Y-90924747D01*
X70571418Y-90920400D01*
X71520342Y-90920400D01*
X71564484Y-90924747D01*
G37*
G36*
X74364484Y-90924747D02*
G01*
X74401024Y-90935832D01*
X74434701Y-90953833D01*
X74464221Y-90978059D01*
X74488447Y-91007579D01*
X74506448Y-91041256D01*
X74517533Y-91077796D01*
X74521880Y-91121938D01*
X74521880Y-92570862D01*
X74517533Y-92615004D01*
X74506448Y-92651544D01*
X74488447Y-92685221D01*
X74464221Y-92714741D01*
X74434701Y-92738967D01*
X74401024Y-92756968D01*
X74364484Y-92768053D01*
X74320342Y-92772400D01*
X73371418Y-92772400D01*
X73327276Y-92768053D01*
X73290736Y-92756968D01*
X73257059Y-92738967D01*
X73227539Y-92714741D01*
X73203313Y-92685221D01*
X73185312Y-92651544D01*
X73174227Y-92615004D01*
X73169880Y-92570862D01*
X73169880Y-91121938D01*
X73174227Y-91077796D01*
X73185312Y-91041256D01*
X73203313Y-91007579D01*
X73227539Y-90978059D01*
X73257059Y-90953833D01*
X73290736Y-90935832D01*
X73327276Y-90924747D01*
X73371418Y-90920400D01*
X74320342Y-90920400D01*
X74364484Y-90924747D01*
G37*
G36*
X53327908Y-91021783D02*
G01*
X53482780Y-91085933D01*
X53622161Y-91179065D01*
X53740695Y-91297599D01*
X53833827Y-91436980D01*
X53897977Y-91591852D01*
X53930680Y-91756264D01*
X53930680Y-91923896D01*
X53897977Y-92088308D01*
X53833827Y-92243180D01*
X53740695Y-92382561D01*
X53622161Y-92501095D01*
X53482780Y-92594227D01*
X53327908Y-92658377D01*
X53163496Y-92691080D01*
X52995864Y-92691080D01*
X52831452Y-92658377D01*
X52676580Y-92594227D01*
X52537199Y-92501095D01*
X52418665Y-92382561D01*
X52325533Y-92243180D01*
X52261383Y-92088308D01*
X52228680Y-91923896D01*
X52228680Y-91756264D01*
X52261383Y-91591852D01*
X52325533Y-91436980D01*
X52418665Y-91297599D01*
X52537199Y-91179065D01*
X52676580Y-91085933D01*
X52831452Y-91021783D01*
X52995864Y-90989080D01*
X53163496Y-90989080D01*
X53327908Y-91021783D01*
G37*
G36*
X68567908Y-91016703D02*
G01*
X68722780Y-91080853D01*
X68862161Y-91173985D01*
X68980695Y-91292519D01*
X69073827Y-91431900D01*
X69137977Y-91586772D01*
X69170680Y-91751184D01*
X69170680Y-91918816D01*
X69137977Y-92083228D01*
X69073827Y-92238100D01*
X68980695Y-92377481D01*
X68862161Y-92496015D01*
X68722780Y-92589147D01*
X68567908Y-92653297D01*
X68403496Y-92686000D01*
X68235864Y-92686000D01*
X68071452Y-92653297D01*
X67916580Y-92589147D01*
X67777199Y-92496015D01*
X67658665Y-92377481D01*
X67565533Y-92238100D01*
X67501383Y-92083228D01*
X67468680Y-91918816D01*
X67468680Y-91751184D01*
X67501383Y-91586772D01*
X67565533Y-91431900D01*
X67658665Y-91292519D01*
X67777199Y-91173985D01*
X67916580Y-91080853D01*
X68071452Y-91016703D01*
X68235864Y-90984000D01*
X68403496Y-90984000D01*
X68567908Y-91016703D01*
G37*
G36*
X26579160Y-92659800D02*
G01*
X24777160Y-92659800D01*
X24777160Y-90857800D01*
X26579160Y-90857800D01*
X26579160Y-92659800D01*
G37*
G36*
X23251672Y-90862727D02*
G01*
X23400972Y-90892424D01*
X23564944Y-90960344D01*
X23712514Y-91058947D01*
X23838013Y-91184446D01*
X23936616Y-91332016D01*
X24004536Y-91495988D01*
X24039160Y-91670059D01*
X24039160Y-91847541D01*
X24004536Y-92021612D01*
X23936616Y-92185584D01*
X23838013Y-92333154D01*
X23712514Y-92458653D01*
X23564944Y-92557256D01*
X23400972Y-92625176D01*
X23251672Y-92654873D01*
X23226902Y-92659800D01*
X23049418Y-92659800D01*
X23024648Y-92654873D01*
X22875348Y-92625176D01*
X22711376Y-92557256D01*
X22563806Y-92458653D01*
X22438307Y-92333154D01*
X22339704Y-92185584D01*
X22271784Y-92021612D01*
X22237160Y-91847541D01*
X22237160Y-91670059D01*
X22271784Y-91495988D01*
X22339704Y-91332016D01*
X22438307Y-91184446D01*
X22563806Y-91058947D01*
X22711376Y-90960344D01*
X22875348Y-90892424D01*
X23024648Y-90862727D01*
X23049418Y-90857800D01*
X23226902Y-90857800D01*
X23251672Y-90862727D01*
G37*
G36*
X20711672Y-90862727D02*
G01*
X20860972Y-90892424D01*
X21024944Y-90960344D01*
X21172514Y-91058947D01*
X21298013Y-91184446D01*
X21396616Y-91332016D01*
X21464536Y-91495988D01*
X21499160Y-91670059D01*
X21499160Y-91847541D01*
X21464536Y-92021612D01*
X21396616Y-92185584D01*
X21298013Y-92333154D01*
X21172514Y-92458653D01*
X21024944Y-92557256D01*
X20860972Y-92625176D01*
X20711672Y-92654873D01*
X20686902Y-92659800D01*
X20509418Y-92659800D01*
X20484648Y-92654873D01*
X20335348Y-92625176D01*
X20171376Y-92557256D01*
X20023806Y-92458653D01*
X19898307Y-92333154D01*
X19799704Y-92185584D01*
X19731784Y-92021612D01*
X19697160Y-91847541D01*
X19697160Y-91670059D01*
X19731784Y-91495988D01*
X19799704Y-91332016D01*
X19898307Y-91184446D01*
X20023806Y-91058947D01*
X20171376Y-90960344D01*
X20335348Y-90892424D01*
X20484648Y-90862727D01*
X20509418Y-90857800D01*
X20686902Y-90857800D01*
X20711672Y-90862727D01*
G37*
G36*
X104112595Y-89223786D02*
G01*
X104285666Y-89295474D01*
X104285667Y-89295475D01*
X104441427Y-89399550D01*
X104573890Y-89532013D01*
X104626281Y-89610422D01*
X104677966Y-89687774D01*
X104749654Y-89860845D01*
X104786200Y-90044573D01*
X104786200Y-90231907D01*
X104749654Y-90415635D01*
X104677966Y-90588706D01*
X104677965Y-90588707D01*
X104573890Y-90744467D01*
X104441427Y-90876930D01*
X104381577Y-90916920D01*
X104285666Y-90981006D01*
X104112595Y-91052694D01*
X103928867Y-91089240D01*
X103741533Y-91089240D01*
X103557805Y-91052694D01*
X103384734Y-90981006D01*
X103288823Y-90916920D01*
X103228973Y-90876930D01*
X103096510Y-90744467D01*
X102992435Y-90588707D01*
X102992434Y-90588706D01*
X102920746Y-90415635D01*
X102884200Y-90231907D01*
X102884200Y-90044573D01*
X102920746Y-89860845D01*
X102992434Y-89687774D01*
X103044119Y-89610422D01*
X103096510Y-89532013D01*
X103228973Y-89399550D01*
X103384733Y-89295475D01*
X103384734Y-89295474D01*
X103557805Y-89223786D01*
X103741533Y-89187240D01*
X103928867Y-89187240D01*
X104112595Y-89223786D01*
G37*
G36*
X34894858Y-89703760D02*
G01*
X35010028Y-89738698D01*
X35010031Y-89738699D01*
X35116176Y-89795434D01*
X35116178Y-89795435D01*
X35116177Y-89795435D01*
X35209213Y-89871787D01*
X35278337Y-89956015D01*
X35285566Y-89964824D01*
X35342301Y-90070969D01*
X35342302Y-90070972D01*
X35377240Y-90186142D01*
X35389036Y-90305920D01*
X35377240Y-90425698D01*
X35342302Y-90540868D01*
X35342301Y-90540871D01*
X35316732Y-90588707D01*
X35285565Y-90647017D01*
X35209213Y-90740053D01*
X35124518Y-90809560D01*
X35116176Y-90816406D01*
X35010031Y-90873141D01*
X35010028Y-90873142D01*
X34894858Y-90908080D01*
X34805097Y-90916920D01*
X33425063Y-90916920D01*
X33335302Y-90908080D01*
X33220132Y-90873142D01*
X33220129Y-90873141D01*
X33113984Y-90816406D01*
X33105642Y-90809560D01*
X33020947Y-90740053D01*
X32944595Y-90647017D01*
X32913428Y-90588707D01*
X32887859Y-90540871D01*
X32887858Y-90540868D01*
X32852920Y-90425698D01*
X32841124Y-90305920D01*
X32852920Y-90186142D01*
X32887858Y-90070972D01*
X32887859Y-90070969D01*
X32944594Y-89964824D01*
X32951823Y-89956015D01*
X33020947Y-89871787D01*
X33113983Y-89795435D01*
X33113982Y-89795435D01*
X33113984Y-89795434D01*
X33220129Y-89738699D01*
X33220132Y-89738698D01*
X33335302Y-89703760D01*
X33425063Y-89694920D01*
X34805097Y-89694920D01*
X34894858Y-89703760D01*
G37*
G36*
X42394858Y-89703760D02*
G01*
X42510028Y-89738698D01*
X42510031Y-89738699D01*
X42616176Y-89795434D01*
X42616178Y-89795435D01*
X42616177Y-89795435D01*
X42709213Y-89871787D01*
X42778337Y-89956015D01*
X42785566Y-89964824D01*
X42842301Y-90070969D01*
X42842302Y-90070972D01*
X42877240Y-90186142D01*
X42889036Y-90305920D01*
X42877240Y-90425698D01*
X42842302Y-90540868D01*
X42842301Y-90540871D01*
X42816732Y-90588707D01*
X42785565Y-90647017D01*
X42709213Y-90740053D01*
X42624518Y-90809560D01*
X42616176Y-90816406D01*
X42510031Y-90873141D01*
X42510028Y-90873142D01*
X42394858Y-90908080D01*
X42305097Y-90916920D01*
X40925063Y-90916920D01*
X40835302Y-90908080D01*
X40720132Y-90873142D01*
X40720129Y-90873141D01*
X40613984Y-90816406D01*
X40605642Y-90809560D01*
X40520947Y-90740053D01*
X40444595Y-90647017D01*
X40413428Y-90588707D01*
X40387859Y-90540871D01*
X40387858Y-90540868D01*
X40352920Y-90425698D01*
X40341124Y-90305920D01*
X40352920Y-90186142D01*
X40387858Y-90070972D01*
X40387859Y-90070969D01*
X40444594Y-89964824D01*
X40451823Y-89956015D01*
X40520947Y-89871787D01*
X40613983Y-89795435D01*
X40613982Y-89795435D01*
X40613984Y-89795434D01*
X40720129Y-89738699D01*
X40720132Y-89738698D01*
X40835302Y-89703760D01*
X40925063Y-89694920D01*
X42305097Y-89694920D01*
X42394858Y-89703760D01*
G37*
G36*
X53327908Y-88481783D02*
G01*
X53482780Y-88545933D01*
X53622161Y-88639065D01*
X53740695Y-88757599D01*
X53833827Y-88896980D01*
X53897977Y-89051852D01*
X53930680Y-89216264D01*
X53930680Y-89383896D01*
X53897977Y-89548308D01*
X53833827Y-89703180D01*
X53740695Y-89842561D01*
X53622161Y-89961095D01*
X53482780Y-90054227D01*
X53327908Y-90118377D01*
X53163496Y-90151080D01*
X52995864Y-90151080D01*
X52831452Y-90118377D01*
X52676580Y-90054227D01*
X52537199Y-89961095D01*
X52418665Y-89842561D01*
X52325533Y-89703180D01*
X52261383Y-89548308D01*
X52228680Y-89383896D01*
X52228680Y-89216264D01*
X52261383Y-89051852D01*
X52325533Y-88896980D01*
X52418665Y-88757599D01*
X52537199Y-88639065D01*
X52676580Y-88545933D01*
X52831452Y-88481783D01*
X52995864Y-88449080D01*
X53163496Y-88449080D01*
X53327908Y-88481783D01*
G37*
G36*
X68567908Y-88476703D02*
G01*
X68722780Y-88540853D01*
X68862161Y-88633985D01*
X68980695Y-88752519D01*
X69073827Y-88891900D01*
X69137977Y-89046772D01*
X69170680Y-89211184D01*
X69170680Y-89378816D01*
X69137977Y-89543228D01*
X69073827Y-89698100D01*
X68980695Y-89837481D01*
X68862161Y-89956015D01*
X68722780Y-90049147D01*
X68567908Y-90113297D01*
X68403496Y-90146000D01*
X68235864Y-90146000D01*
X68071452Y-90113297D01*
X67916580Y-90049147D01*
X67777199Y-89956015D01*
X67658665Y-89837481D01*
X67565533Y-89698100D01*
X67501383Y-89543228D01*
X67468680Y-89378816D01*
X67468680Y-89211184D01*
X67501383Y-89046772D01*
X67565533Y-88891900D01*
X67658665Y-88752519D01*
X67777199Y-88633985D01*
X67916580Y-88540853D01*
X68071452Y-88476703D01*
X68235864Y-88444000D01*
X68403496Y-88444000D01*
X68567908Y-88476703D01*
G37*
G36*
X34894858Y-87163760D02*
G01*
X35010028Y-87198698D01*
X35010031Y-87198699D01*
X35116176Y-87255434D01*
X35116178Y-87255435D01*
X35116177Y-87255435D01*
X35209213Y-87331787D01*
X35278337Y-87416015D01*
X35285566Y-87424824D01*
X35342301Y-87530969D01*
X35342302Y-87530972D01*
X35377240Y-87646142D01*
X35389036Y-87765920D01*
X35377240Y-87885698D01*
X35342302Y-88000868D01*
X35342301Y-88000871D01*
X35285566Y-88107016D01*
X35285565Y-88107017D01*
X35209213Y-88200053D01*
X35124518Y-88269560D01*
X35116176Y-88276406D01*
X35010031Y-88333141D01*
X35010028Y-88333142D01*
X34894858Y-88368080D01*
X34805097Y-88376920D01*
X33425063Y-88376920D01*
X33335302Y-88368080D01*
X33220132Y-88333142D01*
X33220129Y-88333141D01*
X33113984Y-88276406D01*
X33105642Y-88269560D01*
X33020947Y-88200053D01*
X32944595Y-88107017D01*
X32944594Y-88107016D01*
X32887859Y-88000871D01*
X32887858Y-88000868D01*
X32852920Y-87885698D01*
X32841124Y-87765920D01*
X32852920Y-87646142D01*
X32887858Y-87530972D01*
X32887859Y-87530969D01*
X32944594Y-87424824D01*
X32951823Y-87416015D01*
X33020947Y-87331787D01*
X33113983Y-87255435D01*
X33113982Y-87255435D01*
X33113984Y-87255434D01*
X33220129Y-87198699D01*
X33220132Y-87198698D01*
X33335302Y-87163760D01*
X33425063Y-87154920D01*
X34805097Y-87154920D01*
X34894858Y-87163760D01*
G37*
G36*
X42394858Y-87163760D02*
G01*
X42510028Y-87198698D01*
X42510031Y-87198699D01*
X42616176Y-87255434D01*
X42616178Y-87255435D01*
X42616177Y-87255435D01*
X42709213Y-87331787D01*
X42778337Y-87416015D01*
X42785566Y-87424824D01*
X42842301Y-87530969D01*
X42842302Y-87530972D01*
X42877240Y-87646142D01*
X42889036Y-87765920D01*
X42877240Y-87885698D01*
X42842302Y-88000868D01*
X42842301Y-88000871D01*
X42785566Y-88107016D01*
X42785565Y-88107017D01*
X42709213Y-88200053D01*
X42624518Y-88269560D01*
X42616176Y-88276406D01*
X42510031Y-88333141D01*
X42510028Y-88333142D01*
X42394858Y-88368080D01*
X42305097Y-88376920D01*
X40925063Y-88376920D01*
X40835302Y-88368080D01*
X40720132Y-88333142D01*
X40720129Y-88333141D01*
X40613984Y-88276406D01*
X40605642Y-88269560D01*
X40520947Y-88200053D01*
X40444595Y-88107017D01*
X40444594Y-88107016D01*
X40387859Y-88000871D01*
X40387858Y-88000868D01*
X40352920Y-87885698D01*
X40341124Y-87765920D01*
X40352920Y-87646142D01*
X40387858Y-87530972D01*
X40387859Y-87530969D01*
X40444594Y-87424824D01*
X40451823Y-87416015D01*
X40520947Y-87331787D01*
X40613983Y-87255435D01*
X40613982Y-87255435D01*
X40613984Y-87255434D01*
X40720129Y-87198699D01*
X40720132Y-87198698D01*
X40835302Y-87163760D01*
X40925063Y-87154920D01*
X42305097Y-87154920D01*
X42394858Y-87163760D01*
G37*
G36*
X53327908Y-85941783D02*
G01*
X53482780Y-86005933D01*
X53622161Y-86099065D01*
X53740695Y-86217599D01*
X53833827Y-86356980D01*
X53897977Y-86511852D01*
X53930680Y-86676264D01*
X53930680Y-86843896D01*
X53897977Y-87008308D01*
X53833827Y-87163180D01*
X53740695Y-87302561D01*
X53622161Y-87421095D01*
X53482780Y-87514227D01*
X53327908Y-87578377D01*
X53163496Y-87611080D01*
X52995864Y-87611080D01*
X52831452Y-87578377D01*
X52676580Y-87514227D01*
X52537199Y-87421095D01*
X52418665Y-87302561D01*
X52325533Y-87163180D01*
X52261383Y-87008308D01*
X52228680Y-86843896D01*
X52228680Y-86676264D01*
X52261383Y-86511852D01*
X52325533Y-86356980D01*
X52418665Y-86217599D01*
X52537199Y-86099065D01*
X52676580Y-86005933D01*
X52831452Y-85941783D01*
X52995864Y-85909080D01*
X53163496Y-85909080D01*
X53327908Y-85941783D01*
G37*
G36*
X68567908Y-85936703D02*
G01*
X68722780Y-86000853D01*
X68862161Y-86093985D01*
X68980695Y-86212519D01*
X69073827Y-86351900D01*
X69137977Y-86506772D01*
X69170680Y-86671184D01*
X69170680Y-86838816D01*
X69137977Y-87003228D01*
X69073827Y-87158100D01*
X68980695Y-87297481D01*
X68862161Y-87416015D01*
X68722780Y-87509147D01*
X68567908Y-87573297D01*
X68403496Y-87606000D01*
X68235864Y-87606000D01*
X68071452Y-87573297D01*
X67916580Y-87509147D01*
X67777199Y-87416015D01*
X67658665Y-87297481D01*
X67565533Y-87158100D01*
X67501383Y-87003228D01*
X67468680Y-86838816D01*
X67468680Y-86671184D01*
X67501383Y-86506772D01*
X67565533Y-86351900D01*
X67658665Y-86212519D01*
X67777199Y-86093985D01*
X67916580Y-86000853D01*
X68071452Y-85936703D01*
X68235864Y-85904000D01*
X68403496Y-85904000D01*
X68567908Y-85936703D01*
G37*
G36*
X42394858Y-84623760D02*
G01*
X42510028Y-84658698D01*
X42510031Y-84658699D01*
X42616176Y-84715434D01*
X42616178Y-84715435D01*
X42616177Y-84715435D01*
X42709213Y-84791787D01*
X42778337Y-84876015D01*
X42785566Y-84884824D01*
X42842301Y-84990969D01*
X42842302Y-84990972D01*
X42877240Y-85106142D01*
X42889036Y-85225920D01*
X42877240Y-85345698D01*
X42842302Y-85460868D01*
X42842301Y-85460871D01*
X42785566Y-85567016D01*
X42785565Y-85567017D01*
X42709213Y-85660053D01*
X42624518Y-85729560D01*
X42616176Y-85736406D01*
X42510031Y-85793141D01*
X42510028Y-85793142D01*
X42394858Y-85828080D01*
X42305097Y-85836920D01*
X40925063Y-85836920D01*
X40835302Y-85828080D01*
X40720132Y-85793142D01*
X40720129Y-85793141D01*
X40613984Y-85736406D01*
X40605642Y-85729560D01*
X40520947Y-85660053D01*
X40444595Y-85567017D01*
X40444594Y-85567016D01*
X40387859Y-85460871D01*
X40387858Y-85460868D01*
X40352920Y-85345698D01*
X40341124Y-85225920D01*
X40352920Y-85106142D01*
X40387858Y-84990972D01*
X40387859Y-84990969D01*
X40444594Y-84884824D01*
X40451823Y-84876015D01*
X40520947Y-84791787D01*
X40613983Y-84715435D01*
X40613982Y-84715435D01*
X40613984Y-84715434D01*
X40720129Y-84658699D01*
X40720132Y-84658698D01*
X40835302Y-84623760D01*
X40925063Y-84614920D01*
X42305097Y-84614920D01*
X42394858Y-84623760D01*
G37*
G36*
X34894858Y-84623760D02*
G01*
X35010028Y-84658698D01*
X35010031Y-84658699D01*
X35116176Y-84715434D01*
X35116178Y-84715435D01*
X35116177Y-84715435D01*
X35209213Y-84791787D01*
X35278337Y-84876015D01*
X35285566Y-84884824D01*
X35342301Y-84990969D01*
X35342302Y-84990972D01*
X35377240Y-85106142D01*
X35389036Y-85225920D01*
X35377240Y-85345698D01*
X35342302Y-85460868D01*
X35342301Y-85460871D01*
X35285566Y-85567016D01*
X35285565Y-85567017D01*
X35209213Y-85660053D01*
X35124518Y-85729560D01*
X35116176Y-85736406D01*
X35010031Y-85793141D01*
X35010028Y-85793142D01*
X34894858Y-85828080D01*
X34805097Y-85836920D01*
X33425063Y-85836920D01*
X33335302Y-85828080D01*
X33220132Y-85793142D01*
X33220129Y-85793141D01*
X33113984Y-85736406D01*
X33105642Y-85729560D01*
X33020947Y-85660053D01*
X32944595Y-85567017D01*
X32944594Y-85567016D01*
X32887859Y-85460871D01*
X32887858Y-85460868D01*
X32852920Y-85345698D01*
X32841124Y-85225920D01*
X32852920Y-85106142D01*
X32887858Y-84990972D01*
X32887859Y-84990969D01*
X32944594Y-84884824D01*
X32951823Y-84876015D01*
X33020947Y-84791787D01*
X33113983Y-84715435D01*
X33113982Y-84715435D01*
X33113984Y-84715434D01*
X33220129Y-84658699D01*
X33220132Y-84658698D01*
X33335302Y-84623760D01*
X33425063Y-84614920D01*
X34805097Y-84614920D01*
X34894858Y-84623760D01*
G37*
G36*
X53327908Y-83401783D02*
G01*
X53482780Y-83465933D01*
X53622161Y-83559065D01*
X53740695Y-83677599D01*
X53833827Y-83816980D01*
X53897977Y-83971852D01*
X53930680Y-84136264D01*
X53930680Y-84303896D01*
X53897977Y-84468308D01*
X53833827Y-84623180D01*
X53740695Y-84762561D01*
X53622161Y-84881095D01*
X53482780Y-84974227D01*
X53327908Y-85038377D01*
X53163496Y-85071080D01*
X52995864Y-85071080D01*
X52831452Y-85038377D01*
X52676580Y-84974227D01*
X52537199Y-84881095D01*
X52418665Y-84762561D01*
X52325533Y-84623180D01*
X52261383Y-84468308D01*
X52228680Y-84303896D01*
X52228680Y-84136264D01*
X52261383Y-83971852D01*
X52325533Y-83816980D01*
X52418665Y-83677599D01*
X52537199Y-83559065D01*
X52676580Y-83465933D01*
X52831452Y-83401783D01*
X52995864Y-83369080D01*
X53163496Y-83369080D01*
X53327908Y-83401783D01*
G37*
G36*
X68567908Y-83396703D02*
G01*
X68722780Y-83460853D01*
X68862161Y-83553985D01*
X68980695Y-83672519D01*
X69073827Y-83811900D01*
X69137977Y-83966772D01*
X69170680Y-84131184D01*
X69170680Y-84298816D01*
X69137977Y-84463228D01*
X69073827Y-84618100D01*
X68980695Y-84757481D01*
X68862161Y-84876015D01*
X68722780Y-84969147D01*
X68567908Y-85033297D01*
X68403496Y-85066000D01*
X68235864Y-85066000D01*
X68071452Y-85033297D01*
X67916580Y-84969147D01*
X67777199Y-84876015D01*
X67658665Y-84757481D01*
X67565533Y-84618100D01*
X67501383Y-84463228D01*
X67468680Y-84298816D01*
X67468680Y-84131184D01*
X67501383Y-83966772D01*
X67565533Y-83811900D01*
X67658665Y-83672519D01*
X67777199Y-83553985D01*
X67916580Y-83460853D01*
X68071452Y-83396703D01*
X68235864Y-83364000D01*
X68403496Y-83364000D01*
X68567908Y-83396703D01*
G37*
G36*
X88543764Y-82153189D02*
G01*
X88711243Y-82222561D01*
X88735035Y-82232416D01*
X88907149Y-82347419D01*
X88907173Y-82347435D01*
X89053565Y-82493827D01*
X89168585Y-82665967D01*
X89247811Y-82857236D01*
X89288200Y-83060284D01*
X89288200Y-83267316D01*
X89247811Y-83470364D01*
X89213174Y-83553985D01*
X89168584Y-83661635D01*
X89053565Y-83833773D01*
X88907173Y-83980165D01*
X88735035Y-84095184D01*
X88735034Y-84095185D01*
X88735033Y-84095185D01*
X88543764Y-84174411D01*
X88340716Y-84214800D01*
X88133684Y-84214800D01*
X87930636Y-84174411D01*
X87739367Y-84095185D01*
X87739366Y-84095185D01*
X87739365Y-84095184D01*
X87567227Y-83980165D01*
X87420835Y-83833773D01*
X87305816Y-83661635D01*
X87261226Y-83553985D01*
X87226589Y-83470364D01*
X87186200Y-83267316D01*
X87186200Y-83060284D01*
X87226589Y-82857236D01*
X87305815Y-82665967D01*
X87420835Y-82493827D01*
X87567227Y-82347435D01*
X87567251Y-82347419D01*
X87739365Y-82232416D01*
X87763157Y-82222561D01*
X87930636Y-82153189D01*
X88133684Y-82112800D01*
X88340716Y-82112800D01*
X88543764Y-82153189D01*
G37*
G36*
X82043764Y-82153189D02*
G01*
X82211243Y-82222561D01*
X82235035Y-82232416D01*
X82407149Y-82347419D01*
X82407173Y-82347435D01*
X82553565Y-82493827D01*
X82668585Y-82665967D01*
X82747811Y-82857236D01*
X82788200Y-83060284D01*
X82788200Y-83267316D01*
X82747811Y-83470364D01*
X82713174Y-83553985D01*
X82668584Y-83661635D01*
X82553565Y-83833773D01*
X82407173Y-83980165D01*
X82235035Y-84095184D01*
X82235034Y-84095185D01*
X82235033Y-84095185D01*
X82043764Y-84174411D01*
X81840716Y-84214800D01*
X81633684Y-84214800D01*
X81430636Y-84174411D01*
X81239367Y-84095185D01*
X81239366Y-84095185D01*
X81239365Y-84095184D01*
X81067227Y-83980165D01*
X80920835Y-83833773D01*
X80805816Y-83661635D01*
X80761226Y-83553985D01*
X80726589Y-83470364D01*
X80686200Y-83267316D01*
X80686200Y-83060284D01*
X80726589Y-82857236D01*
X80805815Y-82665967D01*
X80920835Y-82493827D01*
X81067227Y-82347435D01*
X81067251Y-82347419D01*
X81239365Y-82232416D01*
X81263157Y-82222561D01*
X81430636Y-82153189D01*
X81633684Y-82112800D01*
X81840716Y-82112800D01*
X82043764Y-82153189D01*
G37*
G36*
X75285204Y-82264587D02*
G01*
X75321744Y-82275672D01*
X75355421Y-82293673D01*
X75384941Y-82317899D01*
X75409167Y-82347419D01*
X75427168Y-82381096D01*
X75438253Y-82417636D01*
X75442600Y-82461778D01*
X75442600Y-83910702D01*
X75438253Y-83954844D01*
X75427168Y-83991384D01*
X75409167Y-84025061D01*
X75384941Y-84054581D01*
X75355421Y-84078807D01*
X75321744Y-84096808D01*
X75285204Y-84107893D01*
X75241062Y-84112240D01*
X74292138Y-84112240D01*
X74247996Y-84107893D01*
X74211456Y-84096808D01*
X74177779Y-84078807D01*
X74148259Y-84054581D01*
X74124033Y-84025061D01*
X74106032Y-83991384D01*
X74094947Y-83954844D01*
X74090600Y-83910702D01*
X74090600Y-82461778D01*
X74094947Y-82417636D01*
X74106032Y-82381096D01*
X74124033Y-82347419D01*
X74148259Y-82317899D01*
X74177779Y-82293673D01*
X74211456Y-82275672D01*
X74247996Y-82264587D01*
X74292138Y-82260240D01*
X75241062Y-82260240D01*
X75285204Y-82264587D01*
G37*
G36*
X72485204Y-82264587D02*
G01*
X72521744Y-82275672D01*
X72555421Y-82293673D01*
X72584941Y-82317899D01*
X72609167Y-82347419D01*
X72627168Y-82381096D01*
X72638253Y-82417636D01*
X72642600Y-82461778D01*
X72642600Y-83910702D01*
X72638253Y-83954844D01*
X72627168Y-83991384D01*
X72609167Y-84025061D01*
X72584941Y-84054581D01*
X72555421Y-84078807D01*
X72521744Y-84096808D01*
X72485204Y-84107893D01*
X72441062Y-84112240D01*
X71492138Y-84112240D01*
X71447996Y-84107893D01*
X71411456Y-84096808D01*
X71377779Y-84078807D01*
X71348259Y-84054581D01*
X71324033Y-84025061D01*
X71306032Y-83991384D01*
X71294947Y-83954844D01*
X71290600Y-83910702D01*
X71290600Y-82461778D01*
X71294947Y-82417636D01*
X71306032Y-82381096D01*
X71324033Y-82347419D01*
X71348259Y-82317899D01*
X71377779Y-82293673D01*
X71411456Y-82275672D01*
X71447996Y-82264587D01*
X71492138Y-82260240D01*
X72441062Y-82260240D01*
X72485204Y-82264587D01*
G37*
G36*
X19244792Y-82255907D02*
G01*
X19394092Y-82285604D01*
X19558064Y-82353524D01*
X19705634Y-82452127D01*
X19831133Y-82577626D01*
X19929736Y-82725196D01*
X19997656Y-82889168D01*
X20032280Y-83063239D01*
X20032280Y-83240721D01*
X19997656Y-83414792D01*
X19929736Y-83578764D01*
X19831133Y-83726334D01*
X19705634Y-83851833D01*
X19558064Y-83950436D01*
X19394092Y-84018356D01*
X19244792Y-84048053D01*
X19220022Y-84052980D01*
X19042538Y-84052980D01*
X19017768Y-84048053D01*
X18868468Y-84018356D01*
X18704496Y-83950436D01*
X18556926Y-83851833D01*
X18431427Y-83726334D01*
X18332824Y-83578764D01*
X18264904Y-83414792D01*
X18230280Y-83240721D01*
X18230280Y-83063239D01*
X18264904Y-82889168D01*
X18332824Y-82725196D01*
X18431427Y-82577626D01*
X18556926Y-82452127D01*
X18704496Y-82353524D01*
X18868468Y-82285604D01*
X19017768Y-82255907D01*
X19042538Y-82250980D01*
X19220022Y-82250980D01*
X19244792Y-82255907D01*
G37*
G36*
X53327908Y-80861783D02*
G01*
X53482780Y-80925933D01*
X53622161Y-81019065D01*
X53740695Y-81137599D01*
X53833827Y-81276980D01*
X53897977Y-81431852D01*
X53930680Y-81596264D01*
X53930680Y-81763896D01*
X53897977Y-81928308D01*
X53833827Y-82083180D01*
X53740695Y-82222561D01*
X53622161Y-82341095D01*
X53482780Y-82434227D01*
X53327908Y-82498377D01*
X53163496Y-82531080D01*
X52995864Y-82531080D01*
X52831452Y-82498377D01*
X52676580Y-82434227D01*
X52537199Y-82341095D01*
X52418665Y-82222561D01*
X52325533Y-82083180D01*
X52261383Y-81928308D01*
X52228680Y-81763896D01*
X52228680Y-81596264D01*
X52261383Y-81431852D01*
X52325533Y-81276980D01*
X52418665Y-81137599D01*
X52537199Y-81019065D01*
X52676580Y-80925933D01*
X52831452Y-80861783D01*
X52995864Y-80829080D01*
X53163496Y-80829080D01*
X53327908Y-80861783D01*
G37*
G36*
X68567908Y-80856703D02*
G01*
X68722780Y-80920853D01*
X68862161Y-81013985D01*
X68980695Y-81132519D01*
X69073827Y-81271900D01*
X69137977Y-81426772D01*
X69170680Y-81591184D01*
X69170680Y-81758816D01*
X69137977Y-81923228D01*
X69073827Y-82078100D01*
X68980695Y-82217481D01*
X68862161Y-82336015D01*
X68722780Y-82429147D01*
X68567908Y-82493297D01*
X68403496Y-82526000D01*
X68235864Y-82526000D01*
X68071452Y-82493297D01*
X67916580Y-82429147D01*
X67777199Y-82336015D01*
X67658665Y-82217481D01*
X67565533Y-82078100D01*
X67501383Y-81923228D01*
X67468680Y-81758816D01*
X67468680Y-81591184D01*
X67501383Y-81426772D01*
X67565533Y-81271900D01*
X67658665Y-81132519D01*
X67777199Y-81013985D01*
X67916580Y-80920853D01*
X68071452Y-80856703D01*
X68235864Y-80824000D01*
X68403496Y-80824000D01*
X68567908Y-80856703D01*
G37*
G36*
X75254724Y-79871907D02*
G01*
X75291264Y-79882992D01*
X75324941Y-79900993D01*
X75354461Y-79925219D01*
X75378687Y-79954739D01*
X75396688Y-79988416D01*
X75407773Y-80024956D01*
X75412120Y-80069098D01*
X75412120Y-81518022D01*
X75407773Y-81562164D01*
X75396688Y-81598704D01*
X75378687Y-81632381D01*
X75354461Y-81661901D01*
X75324941Y-81686127D01*
X75291264Y-81704128D01*
X75254724Y-81715213D01*
X75210582Y-81719560D01*
X74261658Y-81719560D01*
X74217516Y-81715213D01*
X74180976Y-81704128D01*
X74147299Y-81686127D01*
X74117779Y-81661901D01*
X74093553Y-81632381D01*
X74075552Y-81598704D01*
X74064467Y-81562164D01*
X74060120Y-81518022D01*
X74060120Y-80069098D01*
X74064467Y-80024956D01*
X74075552Y-79988416D01*
X74093553Y-79954739D01*
X74117779Y-79925219D01*
X74147299Y-79900993D01*
X74180976Y-79882992D01*
X74217516Y-79871907D01*
X74261658Y-79867560D01*
X75210582Y-79867560D01*
X75254724Y-79871907D01*
G37*
G36*
X72454724Y-79871907D02*
G01*
X72491264Y-79882992D01*
X72524941Y-79900993D01*
X72554461Y-79925219D01*
X72578687Y-79954739D01*
X72596688Y-79988416D01*
X72607773Y-80024956D01*
X72612120Y-80069098D01*
X72612120Y-81518022D01*
X72607773Y-81562164D01*
X72596688Y-81598704D01*
X72578687Y-81632381D01*
X72554461Y-81661901D01*
X72524941Y-81686127D01*
X72491264Y-81704128D01*
X72454724Y-81715213D01*
X72410582Y-81719560D01*
X71461658Y-81719560D01*
X71417516Y-81715213D01*
X71380976Y-81704128D01*
X71347299Y-81686127D01*
X71317779Y-81661901D01*
X71293553Y-81632381D01*
X71275552Y-81598704D01*
X71264467Y-81562164D01*
X71260120Y-81518022D01*
X71260120Y-80069098D01*
X71264467Y-80024956D01*
X71275552Y-79988416D01*
X71293553Y-79954739D01*
X71317779Y-79925219D01*
X71347299Y-79900993D01*
X71380976Y-79882992D01*
X71417516Y-79871907D01*
X71461658Y-79867560D01*
X72410582Y-79867560D01*
X72454724Y-79871907D01*
G37*
G36*
X19239226Y-79714800D02*
G01*
X19394092Y-79745604D01*
X19558064Y-79813524D01*
X19705634Y-79912127D01*
X19831133Y-80037626D01*
X19929736Y-80185196D01*
X19997656Y-80349168D01*
X20032280Y-80523239D01*
X20032280Y-80700721D01*
X19997656Y-80874792D01*
X19929736Y-81038764D01*
X19831133Y-81186334D01*
X19705634Y-81311833D01*
X19558064Y-81410436D01*
X19394092Y-81478356D01*
X19244792Y-81508053D01*
X19220022Y-81512980D01*
X19042538Y-81512980D01*
X19017768Y-81508053D01*
X18868468Y-81478356D01*
X18704496Y-81410436D01*
X18556926Y-81311833D01*
X18431427Y-81186334D01*
X18332824Y-81038764D01*
X18264904Y-80874792D01*
X18230280Y-80700721D01*
X18230280Y-80523239D01*
X18264904Y-80349168D01*
X18332824Y-80185196D01*
X18431427Y-80037626D01*
X18556926Y-79912127D01*
X18704496Y-79813524D01*
X18868468Y-79745604D01*
X19023334Y-79714800D01*
X19042538Y-79710980D01*
X19220022Y-79710980D01*
X19239226Y-79714800D01*
G37*
G36*
X42396098Y-79123360D02*
G01*
X42511268Y-79158298D01*
X42511271Y-79158299D01*
X42617416Y-79215034D01*
X42617418Y-79215035D01*
X42617417Y-79215035D01*
X42710453Y-79291387D01*
X42779960Y-79376082D01*
X42786806Y-79384424D01*
X42843541Y-79490569D01*
X42843542Y-79490572D01*
X42878480Y-79605742D01*
X42890276Y-79725520D01*
X42878480Y-79845298D01*
X42858206Y-79912128D01*
X42843541Y-79960471D01*
X42786806Y-80066616D01*
X42786805Y-80066617D01*
X42710453Y-80159653D01*
X42625758Y-80229160D01*
X42617416Y-80236006D01*
X42511271Y-80292741D01*
X42511268Y-80292742D01*
X42396098Y-80327680D01*
X42306337Y-80336520D01*
X40926303Y-80336520D01*
X40836542Y-80327680D01*
X40721372Y-80292742D01*
X40721369Y-80292741D01*
X40615224Y-80236006D01*
X40606882Y-80229160D01*
X40522187Y-80159653D01*
X40445835Y-80066617D01*
X40445834Y-80066616D01*
X40389099Y-79960471D01*
X40374434Y-79912128D01*
X40354160Y-79845298D01*
X40342364Y-79725520D01*
X40354160Y-79605742D01*
X40389098Y-79490572D01*
X40389099Y-79490569D01*
X40445834Y-79384424D01*
X40452680Y-79376082D01*
X40522187Y-79291387D01*
X40615223Y-79215035D01*
X40615222Y-79215035D01*
X40615224Y-79215034D01*
X40721369Y-79158299D01*
X40721372Y-79158298D01*
X40836542Y-79123360D01*
X40926303Y-79114520D01*
X42306337Y-79114520D01*
X42396098Y-79123360D01*
G37*
G36*
X34896098Y-79123360D02*
G01*
X35011268Y-79158298D01*
X35011271Y-79158299D01*
X35117416Y-79215034D01*
X35117418Y-79215035D01*
X35117417Y-79215035D01*
X35210453Y-79291387D01*
X35279960Y-79376082D01*
X35286806Y-79384424D01*
X35343541Y-79490569D01*
X35343542Y-79490572D01*
X35378480Y-79605742D01*
X35390276Y-79725520D01*
X35378480Y-79845298D01*
X35358206Y-79912128D01*
X35343541Y-79960471D01*
X35286806Y-80066616D01*
X35286805Y-80066617D01*
X35210453Y-80159653D01*
X35125758Y-80229160D01*
X35117416Y-80236006D01*
X35011271Y-80292741D01*
X35011268Y-80292742D01*
X34896098Y-80327680D01*
X34806337Y-80336520D01*
X33426303Y-80336520D01*
X33336542Y-80327680D01*
X33221372Y-80292742D01*
X33221369Y-80292741D01*
X33115224Y-80236006D01*
X33106882Y-80229160D01*
X33022187Y-80159653D01*
X32945835Y-80066617D01*
X32945834Y-80066616D01*
X32889099Y-79960471D01*
X32874434Y-79912128D01*
X32854160Y-79845298D01*
X32842364Y-79725520D01*
X32854160Y-79605742D01*
X32889098Y-79490572D01*
X32889099Y-79490569D01*
X32945834Y-79384424D01*
X32952680Y-79376082D01*
X33022187Y-79291387D01*
X33115223Y-79215035D01*
X33115222Y-79215035D01*
X33115224Y-79215034D01*
X33221369Y-79158299D01*
X33221372Y-79158298D01*
X33336542Y-79123360D01*
X33426303Y-79114520D01*
X34806337Y-79114520D01*
X34896098Y-79123360D01*
G37*
G36*
X53327908Y-78321783D02*
G01*
X53482780Y-78385933D01*
X53622161Y-78479065D01*
X53740695Y-78597599D01*
X53833827Y-78736980D01*
X53897977Y-78891852D01*
X53930680Y-79056264D01*
X53930680Y-79223896D01*
X53897977Y-79388308D01*
X53833827Y-79543180D01*
X53740695Y-79682561D01*
X53622161Y-79801095D01*
X53482780Y-79894227D01*
X53327908Y-79958377D01*
X53163496Y-79991080D01*
X52995864Y-79991080D01*
X52831452Y-79958377D01*
X52676580Y-79894227D01*
X52537199Y-79801095D01*
X52418665Y-79682561D01*
X52325533Y-79543180D01*
X52261383Y-79388308D01*
X52228680Y-79223896D01*
X52228680Y-79056264D01*
X52261383Y-78891852D01*
X52325533Y-78736980D01*
X52418665Y-78597599D01*
X52537199Y-78479065D01*
X52676580Y-78385933D01*
X52831452Y-78321783D01*
X52995864Y-78289080D01*
X53163496Y-78289080D01*
X53327908Y-78321783D01*
G37*
G36*
X68567908Y-78316703D02*
G01*
X68722780Y-78380853D01*
X68862161Y-78473985D01*
X68980695Y-78592519D01*
X69073827Y-78731900D01*
X69137977Y-78886772D01*
X69170680Y-79051184D01*
X69170680Y-79218816D01*
X69137977Y-79383228D01*
X69073827Y-79538100D01*
X68980695Y-79677481D01*
X68862161Y-79796015D01*
X68722780Y-79889147D01*
X68567908Y-79953297D01*
X68403496Y-79986000D01*
X68235864Y-79986000D01*
X68071452Y-79953297D01*
X67916580Y-79889147D01*
X67777199Y-79796015D01*
X67658665Y-79677481D01*
X67565533Y-79538100D01*
X67501383Y-79383228D01*
X67468680Y-79218816D01*
X67468680Y-79051184D01*
X67501383Y-78886772D01*
X67565533Y-78731900D01*
X67658665Y-78592519D01*
X67777199Y-78473985D01*
X67916580Y-78380853D01*
X68071452Y-78316703D01*
X68235864Y-78284000D01*
X68403496Y-78284000D01*
X68567908Y-78316703D01*
G37*
G36*
X88543764Y-77653189D02*
G01*
X88735033Y-77732415D01*
X88735035Y-77732416D01*
X88907173Y-77847435D01*
X89053565Y-77993827D01*
X89165081Y-78160722D01*
X89168585Y-78165967D01*
X89247811Y-78357236D01*
X89288200Y-78560284D01*
X89288200Y-78767316D01*
X89247811Y-78970364D01*
X89169966Y-79158298D01*
X89168584Y-79161635D01*
X89053565Y-79333773D01*
X88907173Y-79480165D01*
X88735035Y-79595184D01*
X88735034Y-79595185D01*
X88735033Y-79595185D01*
X88543764Y-79674411D01*
X88340716Y-79714800D01*
X88133684Y-79714800D01*
X87930636Y-79674411D01*
X87739367Y-79595185D01*
X87739366Y-79595185D01*
X87739365Y-79595184D01*
X87567227Y-79480165D01*
X87420835Y-79333773D01*
X87305816Y-79161635D01*
X87304434Y-79158298D01*
X87226589Y-78970364D01*
X87186200Y-78767316D01*
X87186200Y-78560284D01*
X87226589Y-78357236D01*
X87305815Y-78165967D01*
X87309320Y-78160722D01*
X87420835Y-77993827D01*
X87567227Y-77847435D01*
X87739365Y-77732416D01*
X87739367Y-77732415D01*
X87930636Y-77653189D01*
X88133684Y-77612800D01*
X88340716Y-77612800D01*
X88543764Y-77653189D01*
G37*
G36*
X82043764Y-77653189D02*
G01*
X82235033Y-77732415D01*
X82235035Y-77732416D01*
X82407173Y-77847435D01*
X82553565Y-77993827D01*
X82665081Y-78160722D01*
X82668585Y-78165967D01*
X82747811Y-78357236D01*
X82788200Y-78560284D01*
X82788200Y-78767316D01*
X82747811Y-78970364D01*
X82669966Y-79158298D01*
X82668584Y-79161635D01*
X82553565Y-79333773D01*
X82407173Y-79480165D01*
X82235035Y-79595184D01*
X82235034Y-79595185D01*
X82235033Y-79595185D01*
X82043764Y-79674411D01*
X81840716Y-79714800D01*
X81633684Y-79714800D01*
X81430636Y-79674411D01*
X81239367Y-79595185D01*
X81239366Y-79595185D01*
X81239365Y-79595184D01*
X81067227Y-79480165D01*
X80920835Y-79333773D01*
X80805816Y-79161635D01*
X80804434Y-79158298D01*
X80726589Y-78970364D01*
X80686200Y-78767316D01*
X80686200Y-78560284D01*
X80726589Y-78357236D01*
X80805815Y-78165967D01*
X80809320Y-78160722D01*
X80920835Y-77993827D01*
X81067227Y-77847435D01*
X81239365Y-77732416D01*
X81239367Y-77732415D01*
X81430636Y-77653189D01*
X81633684Y-77612800D01*
X81840716Y-77612800D01*
X82043764Y-77653189D01*
G37*
G36*
X104158315Y-77567746D02*
G01*
X104331386Y-77639434D01*
X104351973Y-77653190D01*
X104487147Y-77743510D01*
X104619610Y-77875973D01*
X104619611Y-77875975D01*
X104723686Y-78031734D01*
X104795374Y-78204805D01*
X104831920Y-78388533D01*
X104831920Y-78575867D01*
X104795374Y-78759595D01*
X104723686Y-78932666D01*
X104719884Y-78938356D01*
X104619610Y-79088427D01*
X104487147Y-79220890D01*
X104482648Y-79223896D01*
X104331386Y-79324966D01*
X104158315Y-79396654D01*
X103974587Y-79433200D01*
X103787253Y-79433200D01*
X103603525Y-79396654D01*
X103430454Y-79324966D01*
X103279192Y-79223896D01*
X103274693Y-79220890D01*
X103142230Y-79088427D01*
X103041956Y-78938356D01*
X103038154Y-78932666D01*
X102966466Y-78759595D01*
X102929920Y-78575867D01*
X102929920Y-78388533D01*
X102966466Y-78204805D01*
X103038154Y-78031734D01*
X103142229Y-77875975D01*
X103142230Y-77875973D01*
X103274693Y-77743510D01*
X103409867Y-77653190D01*
X103430454Y-77639434D01*
X103603525Y-77567746D01*
X103787253Y-77531200D01*
X103974587Y-77531200D01*
X104158315Y-77567746D01*
G37*
G36*
X19244792Y-77175907D02*
G01*
X19394092Y-77205604D01*
X19558064Y-77273524D01*
X19705634Y-77372127D01*
X19831133Y-77497626D01*
X19929736Y-77645196D01*
X19997656Y-77809168D01*
X20032280Y-77983239D01*
X20032280Y-78160721D01*
X19997656Y-78334792D01*
X19929736Y-78498764D01*
X19831133Y-78646334D01*
X19705634Y-78771833D01*
X19558064Y-78870436D01*
X19394092Y-78938356D01*
X19244792Y-78968053D01*
X19220022Y-78972980D01*
X19042538Y-78972980D01*
X19017768Y-78968053D01*
X18868468Y-78938356D01*
X18704496Y-78870436D01*
X18556926Y-78771833D01*
X18431427Y-78646334D01*
X18332824Y-78498764D01*
X18264904Y-78334792D01*
X18230280Y-78160721D01*
X18230280Y-77983239D01*
X18264904Y-77809168D01*
X18332824Y-77645196D01*
X18431427Y-77497626D01*
X18556926Y-77372127D01*
X18704496Y-77273524D01*
X18868468Y-77205604D01*
X19017768Y-77175907D01*
X19042538Y-77170980D01*
X19220022Y-77170980D01*
X19244792Y-77175907D01*
G37*
G36*
X34896098Y-76583360D02*
G01*
X35011268Y-76618298D01*
X35011271Y-76618299D01*
X35117416Y-76675034D01*
X35117418Y-76675035D01*
X35117417Y-76675035D01*
X35210453Y-76751387D01*
X35279960Y-76836082D01*
X35286806Y-76844424D01*
X35343541Y-76950569D01*
X35343542Y-76950572D01*
X35378480Y-77065742D01*
X35390276Y-77185520D01*
X35378480Y-77305298D01*
X35358206Y-77372128D01*
X35343541Y-77420471D01*
X35286806Y-77526616D01*
X35286805Y-77526617D01*
X35210453Y-77619653D01*
X35125758Y-77689160D01*
X35117416Y-77696006D01*
X35011271Y-77752741D01*
X35011268Y-77752742D01*
X34896098Y-77787680D01*
X34806337Y-77796520D01*
X33426303Y-77796520D01*
X33336542Y-77787680D01*
X33221372Y-77752742D01*
X33221369Y-77752741D01*
X33115224Y-77696006D01*
X33106882Y-77689160D01*
X33022187Y-77619653D01*
X32945835Y-77526617D01*
X32945834Y-77526616D01*
X32889099Y-77420471D01*
X32874434Y-77372128D01*
X32854160Y-77305298D01*
X32842364Y-77185520D01*
X32854160Y-77065742D01*
X32889098Y-76950572D01*
X32889099Y-76950569D01*
X32945834Y-76844424D01*
X32952680Y-76836082D01*
X33022187Y-76751387D01*
X33115223Y-76675035D01*
X33115222Y-76675035D01*
X33115224Y-76675034D01*
X33221369Y-76618299D01*
X33221372Y-76618298D01*
X33336542Y-76583360D01*
X33426303Y-76574520D01*
X34806337Y-76574520D01*
X34896098Y-76583360D01*
G37*
G36*
X42396098Y-76583360D02*
G01*
X42511268Y-76618298D01*
X42511271Y-76618299D01*
X42617416Y-76675034D01*
X42617418Y-76675035D01*
X42617417Y-76675035D01*
X42710453Y-76751387D01*
X42779960Y-76836082D01*
X42786806Y-76844424D01*
X42843541Y-76950569D01*
X42843542Y-76950572D01*
X42878480Y-77065742D01*
X42890276Y-77185520D01*
X42878480Y-77305298D01*
X42858206Y-77372128D01*
X42843541Y-77420471D01*
X42786806Y-77526616D01*
X42786805Y-77526617D01*
X42710453Y-77619653D01*
X42625758Y-77689160D01*
X42617416Y-77696006D01*
X42511271Y-77752741D01*
X42511268Y-77752742D01*
X42396098Y-77787680D01*
X42306337Y-77796520D01*
X40926303Y-77796520D01*
X40836542Y-77787680D01*
X40721372Y-77752742D01*
X40721369Y-77752741D01*
X40615224Y-77696006D01*
X40606882Y-77689160D01*
X40522187Y-77619653D01*
X40445835Y-77526617D01*
X40445834Y-77526616D01*
X40389099Y-77420471D01*
X40374434Y-77372128D01*
X40354160Y-77305298D01*
X40342364Y-77185520D01*
X40354160Y-77065742D01*
X40389098Y-76950572D01*
X40389099Y-76950569D01*
X40445834Y-76844424D01*
X40452680Y-76836082D01*
X40522187Y-76751387D01*
X40615223Y-76675035D01*
X40615222Y-76675035D01*
X40615224Y-76675034D01*
X40721369Y-76618299D01*
X40721372Y-76618298D01*
X40836542Y-76583360D01*
X40926303Y-76574520D01*
X42306337Y-76574520D01*
X42396098Y-76583360D01*
G37*
G36*
X53327908Y-75781783D02*
G01*
X53482780Y-75845933D01*
X53622161Y-75939065D01*
X53740695Y-76057599D01*
X53833827Y-76196980D01*
X53897977Y-76351852D01*
X53930680Y-76516264D01*
X53930680Y-76683896D01*
X53897977Y-76848308D01*
X53833827Y-77003180D01*
X53740695Y-77142561D01*
X53622161Y-77261095D01*
X53482780Y-77354227D01*
X53327908Y-77418377D01*
X53163496Y-77451080D01*
X52995864Y-77451080D01*
X52831452Y-77418377D01*
X52676580Y-77354227D01*
X52537199Y-77261095D01*
X52418665Y-77142561D01*
X52325533Y-77003180D01*
X52261383Y-76848308D01*
X52228680Y-76683896D01*
X52228680Y-76516264D01*
X52261383Y-76351852D01*
X52325533Y-76196980D01*
X52418665Y-76057599D01*
X52537199Y-75939065D01*
X52676580Y-75845933D01*
X52831452Y-75781783D01*
X52995864Y-75749080D01*
X53163496Y-75749080D01*
X53327908Y-75781783D01*
G37*
G36*
X68567908Y-75776703D02*
G01*
X68722780Y-75840853D01*
X68862161Y-75933985D01*
X68980695Y-76052519D01*
X69073827Y-76191900D01*
X69137977Y-76346772D01*
X69170680Y-76511184D01*
X69170680Y-76678816D01*
X69137977Y-76843228D01*
X69073827Y-76998100D01*
X68980695Y-77137481D01*
X68862161Y-77256015D01*
X68722780Y-77349147D01*
X68567908Y-77413297D01*
X68403496Y-77446000D01*
X68235864Y-77446000D01*
X68071452Y-77413297D01*
X67916580Y-77349147D01*
X67777199Y-77256015D01*
X67658665Y-77137481D01*
X67565533Y-76998100D01*
X67501383Y-76843228D01*
X67468680Y-76678816D01*
X67468680Y-76511184D01*
X67501383Y-76346772D01*
X67565533Y-76191900D01*
X67658665Y-76052519D01*
X67777199Y-75933985D01*
X67916580Y-75840853D01*
X68071452Y-75776703D01*
X68235864Y-75744000D01*
X68403496Y-75744000D01*
X68567908Y-75776703D01*
G37*
G36*
X20032280Y-76432980D02*
G01*
X18230280Y-76432980D01*
X18230280Y-74630980D01*
X20032280Y-74630980D01*
X20032280Y-76432980D01*
G37*
G36*
X34896098Y-74043360D02*
G01*
X35011268Y-74078298D01*
X35011271Y-74078299D01*
X35117416Y-74135034D01*
X35117418Y-74135035D01*
X35117417Y-74135035D01*
X35210453Y-74211387D01*
X35279960Y-74296082D01*
X35286806Y-74304424D01*
X35343541Y-74410569D01*
X35343542Y-74410572D01*
X35378480Y-74525742D01*
X35390276Y-74645520D01*
X35378480Y-74765298D01*
X35345718Y-74873295D01*
X35343541Y-74880471D01*
X35327180Y-74911080D01*
X35286805Y-74986617D01*
X35210453Y-75079653D01*
X35125758Y-75149160D01*
X35117416Y-75156006D01*
X35011271Y-75212741D01*
X35011268Y-75212742D01*
X34896098Y-75247680D01*
X34806337Y-75256520D01*
X33426303Y-75256520D01*
X33336542Y-75247680D01*
X33221372Y-75212742D01*
X33221369Y-75212741D01*
X33115224Y-75156006D01*
X33106882Y-75149160D01*
X33022187Y-75079653D01*
X32945835Y-74986617D01*
X32905460Y-74911080D01*
X32889099Y-74880471D01*
X32886922Y-74873295D01*
X32854160Y-74765298D01*
X32842364Y-74645520D01*
X32854160Y-74525742D01*
X32889098Y-74410572D01*
X32889099Y-74410569D01*
X32945834Y-74304424D01*
X32952680Y-74296082D01*
X33022187Y-74211387D01*
X33115223Y-74135035D01*
X33115222Y-74135035D01*
X33115224Y-74135034D01*
X33221369Y-74078299D01*
X33221372Y-74078298D01*
X33336542Y-74043360D01*
X33426303Y-74034520D01*
X34806337Y-74034520D01*
X34896098Y-74043360D01*
G37*
G36*
X42396098Y-74043360D02*
G01*
X42511268Y-74078298D01*
X42511271Y-74078299D01*
X42617416Y-74135034D01*
X42617418Y-74135035D01*
X42617417Y-74135035D01*
X42710453Y-74211387D01*
X42779960Y-74296082D01*
X42786806Y-74304424D01*
X42843541Y-74410569D01*
X42843542Y-74410572D01*
X42878480Y-74525742D01*
X42890276Y-74645520D01*
X42878480Y-74765298D01*
X42845718Y-74873295D01*
X42843541Y-74880471D01*
X42827180Y-74911080D01*
X42786805Y-74986617D01*
X42710453Y-75079653D01*
X42625758Y-75149160D01*
X42617416Y-75156006D01*
X42511271Y-75212741D01*
X42511268Y-75212742D01*
X42396098Y-75247680D01*
X42306337Y-75256520D01*
X40926303Y-75256520D01*
X40836542Y-75247680D01*
X40721372Y-75212742D01*
X40721369Y-75212741D01*
X40615224Y-75156006D01*
X40606882Y-75149160D01*
X40522187Y-75079653D01*
X40445835Y-74986617D01*
X40405460Y-74911080D01*
X40389099Y-74880471D01*
X40386922Y-74873295D01*
X40354160Y-74765298D01*
X40342364Y-74645520D01*
X40354160Y-74525742D01*
X40389098Y-74410572D01*
X40389099Y-74410569D01*
X40445834Y-74304424D01*
X40452680Y-74296082D01*
X40522187Y-74211387D01*
X40615223Y-74135035D01*
X40615222Y-74135035D01*
X40615224Y-74135034D01*
X40721369Y-74078299D01*
X40721372Y-74078298D01*
X40836542Y-74043360D01*
X40926303Y-74034520D01*
X42306337Y-74034520D01*
X42396098Y-74043360D01*
G37*
G36*
X53327908Y-73241783D02*
G01*
X53482780Y-73305933D01*
X53622161Y-73399065D01*
X53740695Y-73517599D01*
X53833827Y-73656980D01*
X53897977Y-73811852D01*
X53930680Y-73976264D01*
X53930680Y-74143896D01*
X53897977Y-74308308D01*
X53833827Y-74463180D01*
X53740695Y-74602561D01*
X53622161Y-74721095D01*
X53482780Y-74814227D01*
X53327908Y-74878377D01*
X53163496Y-74911080D01*
X52995864Y-74911080D01*
X52831452Y-74878377D01*
X52676580Y-74814227D01*
X52537199Y-74721095D01*
X52418665Y-74602561D01*
X52325533Y-74463180D01*
X52261383Y-74308308D01*
X52228680Y-74143896D01*
X52228680Y-73976264D01*
X52261383Y-73811852D01*
X52325533Y-73656980D01*
X52418665Y-73517599D01*
X52537199Y-73399065D01*
X52676580Y-73305933D01*
X52831452Y-73241783D01*
X52995864Y-73209080D01*
X53163496Y-73209080D01*
X53327908Y-73241783D01*
G37*
G36*
X68567908Y-73236703D02*
G01*
X68722780Y-73300853D01*
X68862161Y-73393985D01*
X68980695Y-73512519D01*
X69073827Y-73651900D01*
X69137977Y-73806772D01*
X69170680Y-73971184D01*
X69170680Y-74138816D01*
X69137977Y-74303228D01*
X69073827Y-74458100D01*
X68980695Y-74597481D01*
X68862161Y-74716015D01*
X68722780Y-74809147D01*
X68567908Y-74873297D01*
X68403496Y-74906000D01*
X68235864Y-74906000D01*
X68071452Y-74873297D01*
X67916580Y-74809147D01*
X67777199Y-74716015D01*
X67658665Y-74597481D01*
X67565533Y-74458100D01*
X67501383Y-74303228D01*
X67468680Y-74138816D01*
X67468680Y-73971184D01*
X67501383Y-73806772D01*
X67565533Y-73651900D01*
X67658665Y-73512519D01*
X67777199Y-73393985D01*
X67916580Y-73300853D01*
X68071452Y-73236703D01*
X68235864Y-73204000D01*
X68403496Y-73204000D01*
X68567908Y-73236703D01*
G37*
G36*
X104158315Y-72567746D02*
G01*
X104331386Y-72639434D01*
X104331387Y-72639435D01*
X104487147Y-72743510D01*
X104619610Y-72875973D01*
X104619611Y-72875975D01*
X104723686Y-73031734D01*
X104795374Y-73204805D01*
X104831920Y-73388533D01*
X104831920Y-73575867D01*
X104795374Y-73759595D01*
X104723686Y-73932666D01*
X104723685Y-73932667D01*
X104619610Y-74088427D01*
X104487147Y-74220890D01*
X104408738Y-74273281D01*
X104331386Y-74324966D01*
X104158315Y-74396654D01*
X103974587Y-74433200D01*
X103787253Y-74433200D01*
X103603525Y-74396654D01*
X103430454Y-74324966D01*
X103353102Y-74273281D01*
X103274693Y-74220890D01*
X103142230Y-74088427D01*
X103038155Y-73932667D01*
X103038154Y-73932666D01*
X102966466Y-73759595D01*
X102929920Y-73575867D01*
X102929920Y-73388533D01*
X102966466Y-73204805D01*
X103038154Y-73031734D01*
X103142229Y-72875975D01*
X103142230Y-72875973D01*
X103274693Y-72743510D01*
X103430453Y-72639435D01*
X103430454Y-72639434D01*
X103603525Y-72567746D01*
X103787253Y-72531200D01*
X103974587Y-72531200D01*
X104158315Y-72567746D01*
G37*
G36*
X53327908Y-70701783D02*
G01*
X53482780Y-70765933D01*
X53622161Y-70859065D01*
X53740695Y-70977599D01*
X53833827Y-71116980D01*
X53897977Y-71271852D01*
X53930680Y-71436264D01*
X53930680Y-71603896D01*
X53897977Y-71768308D01*
X53833827Y-71923180D01*
X53740695Y-72062561D01*
X53622161Y-72181095D01*
X53482780Y-72274227D01*
X53327908Y-72338377D01*
X53163496Y-72371080D01*
X52995864Y-72371080D01*
X52831452Y-72338377D01*
X52676580Y-72274227D01*
X52537199Y-72181095D01*
X52418665Y-72062561D01*
X52325533Y-71923180D01*
X52261383Y-71768308D01*
X52228680Y-71603896D01*
X52228680Y-71436264D01*
X52261383Y-71271852D01*
X52325533Y-71116980D01*
X52418665Y-70977599D01*
X52537199Y-70859065D01*
X52676580Y-70765933D01*
X52831452Y-70701783D01*
X52995864Y-70669080D01*
X53163496Y-70669080D01*
X53327908Y-70701783D01*
G37*
G36*
X68567908Y-70696703D02*
G01*
X68722780Y-70760853D01*
X68862161Y-70853985D01*
X68980695Y-70972519D01*
X69073827Y-71111900D01*
X69137977Y-71266772D01*
X69170680Y-71431184D01*
X69170680Y-71598816D01*
X69137977Y-71763228D01*
X69073827Y-71918100D01*
X68980695Y-72057481D01*
X68862161Y-72176015D01*
X68722780Y-72269147D01*
X68567908Y-72333297D01*
X68403496Y-72366000D01*
X68235864Y-72366000D01*
X68071452Y-72333297D01*
X67916580Y-72269147D01*
X67777199Y-72176015D01*
X67658665Y-72057481D01*
X67565533Y-71918100D01*
X67501383Y-71763228D01*
X67468680Y-71598816D01*
X67468680Y-71431184D01*
X67501383Y-71266772D01*
X67565533Y-71111900D01*
X67658665Y-70972519D01*
X67777199Y-70853985D01*
X67916580Y-70760853D01*
X68071452Y-70696703D01*
X68235864Y-70664000D01*
X68403496Y-70664000D01*
X68567908Y-70696703D01*
G37*
G36*
X42914204Y-69416027D02*
G01*
X42950744Y-69427112D01*
X42984421Y-69445113D01*
X43013941Y-69469339D01*
X43038167Y-69498859D01*
X43056168Y-69532536D01*
X43067253Y-69569076D01*
X43071600Y-69613218D01*
X43071600Y-71062142D01*
X43067253Y-71106284D01*
X43056168Y-71142824D01*
X43038167Y-71176501D01*
X43013941Y-71206021D01*
X42984421Y-71230247D01*
X42950744Y-71248248D01*
X42914204Y-71259333D01*
X42870062Y-71263680D01*
X41921138Y-71263680D01*
X41876996Y-71259333D01*
X41840456Y-71248248D01*
X41806779Y-71230247D01*
X41777259Y-71206021D01*
X41753033Y-71176501D01*
X41735032Y-71142824D01*
X41723947Y-71106284D01*
X41719600Y-71062142D01*
X41719600Y-69613218D01*
X41723947Y-69569076D01*
X41735032Y-69532536D01*
X41753033Y-69498859D01*
X41777259Y-69469339D01*
X41806779Y-69445113D01*
X41840456Y-69427112D01*
X41876996Y-69416027D01*
X41921138Y-69411680D01*
X42870062Y-69411680D01*
X42914204Y-69416027D01*
G37*
G36*
X40114204Y-69416027D02*
G01*
X40150744Y-69427112D01*
X40184421Y-69445113D01*
X40213941Y-69469339D01*
X40238167Y-69498859D01*
X40256168Y-69532536D01*
X40267253Y-69569076D01*
X40271600Y-69613218D01*
X40271600Y-71062142D01*
X40267253Y-71106284D01*
X40256168Y-71142824D01*
X40238167Y-71176501D01*
X40213941Y-71206021D01*
X40184421Y-71230247D01*
X40150744Y-71248248D01*
X40114204Y-71259333D01*
X40070062Y-71263680D01*
X39121138Y-71263680D01*
X39076996Y-71259333D01*
X39040456Y-71248248D01*
X39006779Y-71230247D01*
X38977259Y-71206021D01*
X38953033Y-71176501D01*
X38935032Y-71142824D01*
X38923947Y-71106284D01*
X38919600Y-71062142D01*
X38919600Y-69613218D01*
X38923947Y-69569076D01*
X38935032Y-69532536D01*
X38953033Y-69498859D01*
X38977259Y-69469339D01*
X39006779Y-69445113D01*
X39040456Y-69427112D01*
X39076996Y-69416027D01*
X39121138Y-69411680D01*
X40070062Y-69411680D01*
X40114204Y-69416027D01*
G37*
G36*
X27063684Y-69151867D02*
G01*
X27100224Y-69162952D01*
X27133901Y-69180953D01*
X27163421Y-69205179D01*
X27187647Y-69234699D01*
X27205648Y-69268376D01*
X27216733Y-69304916D01*
X27221080Y-69349058D01*
X27221080Y-70797982D01*
X27216733Y-70842124D01*
X27205648Y-70878664D01*
X27187647Y-70912341D01*
X27163421Y-70941861D01*
X27133901Y-70966087D01*
X27100224Y-70984088D01*
X27063684Y-70995173D01*
X27019542Y-70999520D01*
X26070618Y-70999520D01*
X26026476Y-70995173D01*
X25989936Y-70984088D01*
X25956259Y-70966087D01*
X25926739Y-70941861D01*
X25902513Y-70912341D01*
X25884512Y-70878664D01*
X25873427Y-70842124D01*
X25869080Y-70797982D01*
X25869080Y-69349058D01*
X25873427Y-69304916D01*
X25884512Y-69268376D01*
X25902513Y-69234699D01*
X25926739Y-69205179D01*
X25956259Y-69180953D01*
X25989936Y-69162952D01*
X26026476Y-69151867D01*
X26070618Y-69147520D01*
X27019542Y-69147520D01*
X27063684Y-69151867D01*
G37*
G36*
X29863684Y-69151867D02*
G01*
X29900224Y-69162952D01*
X29933901Y-69180953D01*
X29963421Y-69205179D01*
X29987647Y-69234699D01*
X30005648Y-69268376D01*
X30016733Y-69304916D01*
X30021080Y-69349058D01*
X30021080Y-70797982D01*
X30016733Y-70842124D01*
X30005648Y-70878664D01*
X29987647Y-70912341D01*
X29963421Y-70941861D01*
X29933901Y-70966087D01*
X29900224Y-70984088D01*
X29863684Y-70995173D01*
X29819542Y-70999520D01*
X28870618Y-70999520D01*
X28826476Y-70995173D01*
X28789936Y-70984088D01*
X28756259Y-70966087D01*
X28726739Y-70941861D01*
X28702513Y-70912341D01*
X28684512Y-70878664D01*
X28673427Y-70842124D01*
X28669080Y-70797982D01*
X28669080Y-69349058D01*
X28673427Y-69304916D01*
X28684512Y-69268376D01*
X28702513Y-69234699D01*
X28726739Y-69205179D01*
X28756259Y-69180953D01*
X28789936Y-69162952D01*
X28826476Y-69151867D01*
X28870618Y-69147520D01*
X29819542Y-69147520D01*
X29863684Y-69151867D01*
G37*
G36*
X53327908Y-68161783D02*
G01*
X53482780Y-68225933D01*
X53622161Y-68319065D01*
X53740695Y-68437599D01*
X53833827Y-68576980D01*
X53897977Y-68731852D01*
X53930680Y-68896264D01*
X53930680Y-69063896D01*
X53897977Y-69228308D01*
X53833827Y-69383180D01*
X53740695Y-69522561D01*
X53622161Y-69641095D01*
X53482780Y-69734227D01*
X53327908Y-69798377D01*
X53163496Y-69831080D01*
X52995864Y-69831080D01*
X52831452Y-69798377D01*
X52676580Y-69734227D01*
X52537199Y-69641095D01*
X52418665Y-69522561D01*
X52325533Y-69383180D01*
X52261383Y-69228308D01*
X52228680Y-69063896D01*
X52228680Y-68896264D01*
X52261383Y-68731852D01*
X52325533Y-68576980D01*
X52418665Y-68437599D01*
X52537199Y-68319065D01*
X52676580Y-68225933D01*
X52831452Y-68161783D01*
X52995864Y-68129080D01*
X53163496Y-68129080D01*
X53327908Y-68161783D01*
G37*
G36*
X68567908Y-68156703D02*
G01*
X68722780Y-68220853D01*
X68862161Y-68313985D01*
X68980695Y-68432519D01*
X69073827Y-68571900D01*
X69137977Y-68726772D01*
X69170680Y-68891184D01*
X69170680Y-69058816D01*
X69137977Y-69223228D01*
X69073827Y-69378100D01*
X68980695Y-69517481D01*
X68862161Y-69636015D01*
X68722780Y-69729147D01*
X68567908Y-69793297D01*
X68403496Y-69826000D01*
X68235864Y-69826000D01*
X68071452Y-69793297D01*
X67916580Y-69729147D01*
X67777199Y-69636015D01*
X67658665Y-69517481D01*
X67565533Y-69378100D01*
X67501383Y-69223228D01*
X67468680Y-69058816D01*
X67468680Y-68891184D01*
X67501383Y-68726772D01*
X67565533Y-68571900D01*
X67658665Y-68432519D01*
X67777199Y-68313985D01*
X67916580Y-68220853D01*
X68071452Y-68156703D01*
X68235864Y-68124000D01*
X68403496Y-68124000D01*
X68567908Y-68156703D01*
G37*
G36*
X104158315Y-67567746D02*
G01*
X104331386Y-67639434D01*
X104408738Y-67691119D01*
X104487147Y-67743510D01*
X104619610Y-67875973D01*
X104619611Y-67875975D01*
X104723686Y-68031734D01*
X104795374Y-68204805D01*
X104831920Y-68388533D01*
X104831920Y-68575867D01*
X104795374Y-68759595D01*
X104723686Y-68932666D01*
X104672001Y-69010018D01*
X104619610Y-69088427D01*
X104487147Y-69220890D01*
X104416079Y-69268376D01*
X104331386Y-69324966D01*
X104158315Y-69396654D01*
X103974587Y-69433200D01*
X103787253Y-69433200D01*
X103603525Y-69396654D01*
X103430454Y-69324966D01*
X103345761Y-69268376D01*
X103274693Y-69220890D01*
X103142230Y-69088427D01*
X103089839Y-69010018D01*
X103038154Y-68932666D01*
X102966466Y-68759595D01*
X102929920Y-68575867D01*
X102929920Y-68388533D01*
X102966466Y-68204805D01*
X103038154Y-68031734D01*
X103142229Y-67875975D01*
X103142230Y-67875973D01*
X103274693Y-67743510D01*
X103353102Y-67691119D01*
X103430454Y-67639434D01*
X103603525Y-67567746D01*
X103787253Y-67531200D01*
X103974587Y-67531200D01*
X104158315Y-67567746D01*
G37*
G36*
X82079324Y-67253549D02*
G01*
X82262283Y-67329333D01*
X82270595Y-67332776D01*
X82442733Y-67447795D01*
X82589125Y-67594187D01*
X82641653Y-67672800D01*
X82704145Y-67766327D01*
X82783371Y-67957596D01*
X82823760Y-68160644D01*
X82823760Y-68367676D01*
X82783371Y-68570724D01*
X82780778Y-68576983D01*
X82704144Y-68761995D01*
X82589125Y-68934133D01*
X82442733Y-69080525D01*
X82270595Y-69195544D01*
X82270594Y-69195545D01*
X82270593Y-69195545D01*
X82079324Y-69274771D01*
X81876276Y-69315160D01*
X81669244Y-69315160D01*
X81466196Y-69274771D01*
X81274927Y-69195545D01*
X81274926Y-69195545D01*
X81274925Y-69195544D01*
X81102787Y-69080525D01*
X80956395Y-68934133D01*
X80841376Y-68761995D01*
X80764742Y-68576983D01*
X80762149Y-68570724D01*
X80721760Y-68367676D01*
X80721760Y-68160644D01*
X80762149Y-67957596D01*
X80841375Y-67766327D01*
X80903868Y-67672800D01*
X80956395Y-67594187D01*
X81102787Y-67447795D01*
X81274925Y-67332776D01*
X81283237Y-67329333D01*
X81466196Y-67253549D01*
X81669244Y-67213160D01*
X81876276Y-67213160D01*
X82079324Y-67253549D01*
G37*
G36*
X88579324Y-67253549D02*
G01*
X88762283Y-67329333D01*
X88770595Y-67332776D01*
X88942733Y-67447795D01*
X89089125Y-67594187D01*
X89141653Y-67672800D01*
X89204145Y-67766327D01*
X89283371Y-67957596D01*
X89323760Y-68160644D01*
X89323760Y-68367676D01*
X89283371Y-68570724D01*
X89280778Y-68576983D01*
X89204144Y-68761995D01*
X89089125Y-68934133D01*
X88942733Y-69080525D01*
X88770595Y-69195544D01*
X88770594Y-69195545D01*
X88770593Y-69195545D01*
X88579324Y-69274771D01*
X88376276Y-69315160D01*
X88169244Y-69315160D01*
X87966196Y-69274771D01*
X87774927Y-69195545D01*
X87774926Y-69195545D01*
X87774925Y-69195544D01*
X87602787Y-69080525D01*
X87456395Y-68934133D01*
X87341376Y-68761995D01*
X87264742Y-68576983D01*
X87262149Y-68570724D01*
X87221760Y-68367676D01*
X87221760Y-68160644D01*
X87262149Y-67957596D01*
X87341375Y-67766327D01*
X87403868Y-67672800D01*
X87456395Y-67594187D01*
X87602787Y-67447795D01*
X87774925Y-67332776D01*
X87783237Y-67329333D01*
X87966196Y-67253549D01*
X88169244Y-67213160D01*
X88376276Y-67213160D01*
X88579324Y-67253549D01*
G37*
G36*
X23457124Y-66325147D02*
G01*
X23493664Y-66336232D01*
X23527341Y-66354233D01*
X23556861Y-66378459D01*
X23581087Y-66407979D01*
X23599088Y-66441656D01*
X23610173Y-66478196D01*
X23614520Y-66522338D01*
X23614520Y-67471262D01*
X23610173Y-67515404D01*
X23599088Y-67551944D01*
X23581087Y-67585621D01*
X23556861Y-67615141D01*
X23527341Y-67639367D01*
X23493664Y-67657368D01*
X23457124Y-67668453D01*
X23412982Y-67672800D01*
X21964058Y-67672800D01*
X21919916Y-67668453D01*
X21883376Y-67657368D01*
X21849699Y-67639367D01*
X21820179Y-67615141D01*
X21795953Y-67585621D01*
X21777952Y-67551944D01*
X21766867Y-67515404D01*
X21762520Y-67471262D01*
X21762520Y-66522338D01*
X21766867Y-66478196D01*
X21777952Y-66441656D01*
X21795953Y-66407979D01*
X21820179Y-66378459D01*
X21849699Y-66354233D01*
X21883376Y-66336232D01*
X21919916Y-66325147D01*
X21964058Y-66320800D01*
X23412982Y-66320800D01*
X23457124Y-66325147D01*
G37*
G36*
X18996884Y-66320067D02*
G01*
X19033424Y-66331152D01*
X19067101Y-66349153D01*
X19096621Y-66373379D01*
X19120847Y-66402899D01*
X19138848Y-66436576D01*
X19149933Y-66473116D01*
X19154280Y-66517258D01*
X19154280Y-67466182D01*
X19149933Y-67510324D01*
X19138848Y-67546864D01*
X19120847Y-67580541D01*
X19096621Y-67610061D01*
X19067101Y-67634287D01*
X19033424Y-67652288D01*
X18996884Y-67663373D01*
X18952742Y-67667720D01*
X17503818Y-67667720D01*
X17459676Y-67663373D01*
X17423136Y-67652288D01*
X17389459Y-67634287D01*
X17359939Y-67610061D01*
X17335713Y-67580541D01*
X17317712Y-67546864D01*
X17306627Y-67510324D01*
X17302280Y-67466182D01*
X17302280Y-66517258D01*
X17306627Y-66473116D01*
X17317712Y-66436576D01*
X17335713Y-66402899D01*
X17359939Y-66373379D01*
X17389459Y-66349153D01*
X17423136Y-66331152D01*
X17459676Y-66320067D01*
X17503818Y-66315720D01*
X18952742Y-66315720D01*
X18996884Y-66320067D01*
G37*
G36*
X21211764Y-66314987D02*
G01*
X21248304Y-66326072D01*
X21281981Y-66344073D01*
X21311501Y-66368299D01*
X21335727Y-66397819D01*
X21353728Y-66431496D01*
X21364813Y-66468036D01*
X21369160Y-66512178D01*
X21369160Y-67461102D01*
X21364813Y-67505244D01*
X21353728Y-67541784D01*
X21335727Y-67575461D01*
X21311501Y-67604981D01*
X21281981Y-67629207D01*
X21248304Y-67647208D01*
X21211764Y-67658293D01*
X21167622Y-67662640D01*
X19718698Y-67662640D01*
X19674556Y-67658293D01*
X19638016Y-67647208D01*
X19604339Y-67629207D01*
X19574819Y-67604981D01*
X19550593Y-67575461D01*
X19532592Y-67541784D01*
X19521507Y-67505244D01*
X19517160Y-67461102D01*
X19517160Y-66512178D01*
X19521507Y-66468036D01*
X19532592Y-66431496D01*
X19550593Y-66397819D01*
X19574819Y-66368299D01*
X19604339Y-66344073D01*
X19638016Y-66326072D01*
X19674556Y-66314987D01*
X19718698Y-66310640D01*
X21167622Y-66310640D01*
X21211764Y-66314987D01*
G37*
G36*
X46392084Y-65986027D02*
G01*
X46428624Y-65997112D01*
X46462301Y-66015113D01*
X46491821Y-66039339D01*
X46516047Y-66068859D01*
X46534048Y-66102536D01*
X46545133Y-66139076D01*
X46549480Y-66183218D01*
X46549480Y-67132142D01*
X46545133Y-67176284D01*
X46534048Y-67212824D01*
X46516047Y-67246501D01*
X46491821Y-67276021D01*
X46462301Y-67300247D01*
X46428624Y-67318248D01*
X46392084Y-67329333D01*
X46347942Y-67333680D01*
X44899018Y-67333680D01*
X44854876Y-67329333D01*
X44818336Y-67318248D01*
X44784659Y-67300247D01*
X44755139Y-67276021D01*
X44730913Y-67246501D01*
X44712912Y-67212824D01*
X44701827Y-67176284D01*
X44697480Y-67132142D01*
X44697480Y-66183218D01*
X44701827Y-66139076D01*
X44712912Y-66102536D01*
X44730913Y-66068859D01*
X44755139Y-66039339D01*
X44784659Y-66015113D01*
X44818336Y-65997112D01*
X44854876Y-65986027D01*
X44899018Y-65981680D01*
X46347942Y-65981680D01*
X46392084Y-65986027D01*
G37*
G36*
X53833044Y-65177067D02*
G01*
X53869584Y-65188152D01*
X53903261Y-65206153D01*
X53932781Y-65230379D01*
X53957007Y-65259899D01*
X53975008Y-65293576D01*
X53986093Y-65330116D01*
X53990440Y-65374258D01*
X53990440Y-66323182D01*
X53986093Y-66367324D01*
X53975008Y-66403864D01*
X53957007Y-66437541D01*
X53932781Y-66467061D01*
X53903261Y-66491287D01*
X53869584Y-66509288D01*
X53833044Y-66520373D01*
X53788902Y-66524720D01*
X52339978Y-66524720D01*
X52295836Y-66520373D01*
X52259296Y-66509288D01*
X52225619Y-66491287D01*
X52196099Y-66467061D01*
X52171873Y-66437541D01*
X52153872Y-66403864D01*
X52142787Y-66367324D01*
X52138440Y-66323182D01*
X52138440Y-65374258D01*
X52142787Y-65330116D01*
X52153872Y-65293576D01*
X52171873Y-65259899D01*
X52196099Y-65230379D01*
X52225619Y-65206153D01*
X52259296Y-65188152D01*
X52295836Y-65177067D01*
X52339978Y-65172720D01*
X53788902Y-65172720D01*
X53833044Y-65177067D01*
G37*
G36*
X56525444Y-65126267D02*
G01*
X56561984Y-65137352D01*
X56595661Y-65155353D01*
X56625181Y-65179579D01*
X56649407Y-65209099D01*
X56667408Y-65242776D01*
X56678493Y-65279316D01*
X56682840Y-65323458D01*
X56682840Y-66272382D01*
X56678493Y-66316524D01*
X56667408Y-66353064D01*
X56649407Y-66386741D01*
X56625181Y-66416261D01*
X56595661Y-66440487D01*
X56561984Y-66458488D01*
X56525444Y-66469573D01*
X56481302Y-66473920D01*
X55032378Y-66473920D01*
X54988236Y-66469573D01*
X54951696Y-66458488D01*
X54918019Y-66440487D01*
X54888499Y-66416261D01*
X54864273Y-66386741D01*
X54846272Y-66353064D01*
X54835187Y-66316524D01*
X54830840Y-66272382D01*
X54830840Y-65323458D01*
X54835187Y-65279316D01*
X54846272Y-65242776D01*
X54864273Y-65209099D01*
X54888499Y-65179579D01*
X54918019Y-65155353D01*
X54951696Y-65137352D01*
X54988236Y-65126267D01*
X55032378Y-65121920D01*
X56481302Y-65121920D01*
X56525444Y-65126267D01*
G37*
G36*
X36872920Y-66456360D02*
G01*
X34970920Y-66456360D01*
X34970920Y-64554360D01*
X36872920Y-64554360D01*
X36872920Y-66456360D01*
G37*
G36*
X33659315Y-64590906D02*
G01*
X33832386Y-64662594D01*
X33881959Y-64695718D01*
X33988147Y-64766670D01*
X34120610Y-64899133D01*
X34120611Y-64899135D01*
X34224686Y-65054894D01*
X34296374Y-65227965D01*
X34332920Y-65411693D01*
X34332920Y-65599027D01*
X34296374Y-65782755D01*
X34224686Y-65955826D01*
X34193658Y-66002263D01*
X34120610Y-66111587D01*
X33988147Y-66244050D01*
X33969855Y-66256272D01*
X33832386Y-66348126D01*
X33659315Y-66419814D01*
X33475587Y-66456360D01*
X33288253Y-66456360D01*
X33104525Y-66419814D01*
X32931454Y-66348126D01*
X32793985Y-66256272D01*
X32775693Y-66244050D01*
X32643230Y-66111587D01*
X32570182Y-66002263D01*
X32539154Y-65955826D01*
X32467466Y-65782755D01*
X32430920Y-65599027D01*
X32430920Y-65411693D01*
X32467466Y-65227965D01*
X32539154Y-65054894D01*
X32643229Y-64899135D01*
X32643230Y-64899133D01*
X32775693Y-64766670D01*
X32881881Y-64695718D01*
X32931454Y-64662594D01*
X33104525Y-64590906D01*
X33288253Y-64554360D01*
X33475587Y-64554360D01*
X33659315Y-64590906D01*
G37*
G36*
X43309280Y-66436040D02*
G01*
X41407280Y-66436040D01*
X41407280Y-64534040D01*
X43309280Y-64534040D01*
X43309280Y-66436040D01*
G37*
G36*
X40095675Y-64570586D02*
G01*
X40268746Y-64642274D01*
X40346098Y-64693959D01*
X40424507Y-64746350D01*
X40556970Y-64878813D01*
X40609361Y-64957222D01*
X40661046Y-65034574D01*
X40732734Y-65207645D01*
X40769280Y-65391373D01*
X40769280Y-65578707D01*
X40732734Y-65762435D01*
X40661046Y-65935506D01*
X40619882Y-65997112D01*
X40556970Y-66091267D01*
X40424507Y-66223730D01*
X40375804Y-66256272D01*
X40268746Y-66327806D01*
X40095675Y-66399494D01*
X39911947Y-66436040D01*
X39724613Y-66436040D01*
X39540885Y-66399494D01*
X39367814Y-66327806D01*
X39260756Y-66256272D01*
X39212053Y-66223730D01*
X39079590Y-66091267D01*
X39016678Y-65997112D01*
X38975514Y-65935506D01*
X38903826Y-65762435D01*
X38867280Y-65578707D01*
X38867280Y-65391373D01*
X38903826Y-65207645D01*
X38975514Y-65034574D01*
X39027199Y-64957222D01*
X39079590Y-64878813D01*
X39212053Y-64746350D01*
X39290462Y-64693959D01*
X39367814Y-64642274D01*
X39540885Y-64570586D01*
X39724613Y-64534040D01*
X39911947Y-64534040D01*
X40095675Y-64570586D01*
G37*
G36*
X27177235Y-64550266D02*
G01*
X27350306Y-64621954D01*
X27427658Y-64673639D01*
X27506067Y-64726030D01*
X27638530Y-64858493D01*
X27665686Y-64899135D01*
X27742606Y-65014254D01*
X27814294Y-65187325D01*
X27850840Y-65371053D01*
X27850840Y-65558387D01*
X27814294Y-65742115D01*
X27742606Y-65915186D01*
X27698176Y-65981680D01*
X27638530Y-66070947D01*
X27506067Y-66203410D01*
X27505902Y-66203520D01*
X27350306Y-66307486D01*
X27177235Y-66379174D01*
X26993507Y-66415720D01*
X26806173Y-66415720D01*
X26622445Y-66379174D01*
X26449374Y-66307486D01*
X26293778Y-66203520D01*
X26293613Y-66203410D01*
X26161150Y-66070947D01*
X26101504Y-65981680D01*
X26057074Y-65915186D01*
X25985386Y-65742115D01*
X25948840Y-65558387D01*
X25948840Y-65371053D01*
X25985386Y-65187325D01*
X26057074Y-65014254D01*
X26133994Y-64899135D01*
X26161150Y-64858493D01*
X26293613Y-64726030D01*
X26372022Y-64673639D01*
X26449374Y-64621954D01*
X26622445Y-64550266D01*
X26806173Y-64513720D01*
X26993507Y-64513720D01*
X27177235Y-64550266D01*
G37*
G36*
X30390840Y-66415720D02*
G01*
X28488840Y-66415720D01*
X28488840Y-64513720D01*
X30390840Y-64513720D01*
X30390840Y-66415720D01*
G37*
G36*
X23457124Y-63525147D02*
G01*
X23493664Y-63536232D01*
X23527341Y-63554233D01*
X23556861Y-63578459D01*
X23581087Y-63607979D01*
X23599088Y-63641656D01*
X23610173Y-63678196D01*
X23614520Y-63722338D01*
X23614520Y-64671262D01*
X23610173Y-64715404D01*
X23599088Y-64751944D01*
X23581087Y-64785621D01*
X23556861Y-64815141D01*
X23527341Y-64839367D01*
X23493664Y-64857368D01*
X23457124Y-64868453D01*
X23412982Y-64872800D01*
X21964058Y-64872800D01*
X21919916Y-64868453D01*
X21883376Y-64857368D01*
X21849699Y-64839367D01*
X21820179Y-64815141D01*
X21795953Y-64785621D01*
X21777952Y-64751944D01*
X21766867Y-64715404D01*
X21762520Y-64671262D01*
X21762520Y-63722338D01*
X21766867Y-63678196D01*
X21777952Y-63641656D01*
X21795953Y-63607979D01*
X21820179Y-63578459D01*
X21849699Y-63554233D01*
X21883376Y-63536232D01*
X21919916Y-63525147D01*
X21964058Y-63520800D01*
X23412982Y-63520800D01*
X23457124Y-63525147D01*
G37*
G36*
X18996884Y-63520067D02*
G01*
X19033424Y-63531152D01*
X19067101Y-63549153D01*
X19096621Y-63573379D01*
X19120847Y-63602899D01*
X19138848Y-63636576D01*
X19149933Y-63673116D01*
X19154280Y-63717258D01*
X19154280Y-64666182D01*
X19149933Y-64710324D01*
X19138848Y-64746864D01*
X19120847Y-64780541D01*
X19096621Y-64810061D01*
X19067101Y-64834287D01*
X19033424Y-64852288D01*
X18996884Y-64863373D01*
X18952742Y-64867720D01*
X17503818Y-64867720D01*
X17459676Y-64863373D01*
X17423136Y-64852288D01*
X17389459Y-64834287D01*
X17359939Y-64810061D01*
X17335713Y-64780541D01*
X17317712Y-64746864D01*
X17306627Y-64710324D01*
X17302280Y-64666182D01*
X17302280Y-63717258D01*
X17306627Y-63673116D01*
X17317712Y-63636576D01*
X17335713Y-63602899D01*
X17359939Y-63573379D01*
X17389459Y-63549153D01*
X17423136Y-63531152D01*
X17459676Y-63520067D01*
X17503818Y-63515720D01*
X18952742Y-63515720D01*
X18996884Y-63520067D01*
G37*
G36*
X21211764Y-63514987D02*
G01*
X21248304Y-63526072D01*
X21281981Y-63544073D01*
X21311501Y-63568299D01*
X21335727Y-63597819D01*
X21353728Y-63631496D01*
X21364813Y-63668036D01*
X21369160Y-63712178D01*
X21369160Y-64661102D01*
X21364813Y-64705244D01*
X21353728Y-64741784D01*
X21335727Y-64775461D01*
X21311501Y-64804981D01*
X21281981Y-64829207D01*
X21248304Y-64847208D01*
X21211764Y-64858293D01*
X21167622Y-64862640D01*
X19718698Y-64862640D01*
X19674556Y-64858293D01*
X19638016Y-64847208D01*
X19604339Y-64829207D01*
X19574819Y-64804981D01*
X19550593Y-64775461D01*
X19532592Y-64741784D01*
X19521507Y-64705244D01*
X19517160Y-64661102D01*
X19517160Y-63712178D01*
X19521507Y-63668036D01*
X19532592Y-63631496D01*
X19550593Y-63597819D01*
X19574819Y-63568299D01*
X19604339Y-63544073D01*
X19638016Y-63526072D01*
X19674556Y-63514987D01*
X19718698Y-63510640D01*
X21167622Y-63510640D01*
X21211764Y-63514987D01*
G37*
G36*
X88579324Y-62753549D02*
G01*
X88770593Y-62832775D01*
X88770595Y-62832776D01*
X88942733Y-62947795D01*
X89089125Y-63094187D01*
X89186113Y-63239339D01*
X89204145Y-63266327D01*
X89283371Y-63457596D01*
X89323760Y-63660644D01*
X89323760Y-63867676D01*
X89283371Y-64070724D01*
X89204145Y-64261993D01*
X89204144Y-64261995D01*
X89089125Y-64434133D01*
X88942733Y-64580525D01*
X88770595Y-64695544D01*
X88770594Y-64695545D01*
X88770593Y-64695545D01*
X88579324Y-64774771D01*
X88376276Y-64815160D01*
X88169244Y-64815160D01*
X87966196Y-64774771D01*
X87774927Y-64695545D01*
X87774926Y-64695545D01*
X87774925Y-64695544D01*
X87602787Y-64580525D01*
X87456395Y-64434133D01*
X87341376Y-64261995D01*
X87341375Y-64261993D01*
X87262149Y-64070724D01*
X87221760Y-63867676D01*
X87221760Y-63660644D01*
X87262149Y-63457596D01*
X87341375Y-63266327D01*
X87359408Y-63239339D01*
X87456395Y-63094187D01*
X87602787Y-62947795D01*
X87774925Y-62832776D01*
X87774927Y-62832775D01*
X87966196Y-62753549D01*
X88169244Y-62713160D01*
X88376276Y-62713160D01*
X88579324Y-62753549D01*
G37*
G36*
X82079324Y-62753549D02*
G01*
X82270593Y-62832775D01*
X82270595Y-62832776D01*
X82442733Y-62947795D01*
X82589125Y-63094187D01*
X82686113Y-63239339D01*
X82704145Y-63266327D01*
X82783371Y-63457596D01*
X82823760Y-63660644D01*
X82823760Y-63867676D01*
X82783371Y-64070724D01*
X82704145Y-64261993D01*
X82704144Y-64261995D01*
X82589125Y-64434133D01*
X82442733Y-64580525D01*
X82270595Y-64695544D01*
X82270594Y-64695545D01*
X82270593Y-64695545D01*
X82079324Y-64774771D01*
X81876276Y-64815160D01*
X81669244Y-64815160D01*
X81466196Y-64774771D01*
X81274927Y-64695545D01*
X81274926Y-64695545D01*
X81274925Y-64695544D01*
X81102787Y-64580525D01*
X80956395Y-64434133D01*
X80841376Y-64261995D01*
X80841375Y-64261993D01*
X80762149Y-64070724D01*
X80721760Y-63867676D01*
X80721760Y-63660644D01*
X80762149Y-63457596D01*
X80841375Y-63266327D01*
X80859408Y-63239339D01*
X80956395Y-63094187D01*
X81102787Y-62947795D01*
X81274925Y-62832776D01*
X81274927Y-62832775D01*
X81466196Y-62753549D01*
X81669244Y-62713160D01*
X81876276Y-62713160D01*
X82079324Y-62753549D01*
G37*
G36*
X46392084Y-63186027D02*
G01*
X46428624Y-63197112D01*
X46462301Y-63215113D01*
X46491821Y-63239339D01*
X46516047Y-63268859D01*
X46534048Y-63302536D01*
X46545133Y-63339076D01*
X46549480Y-63383218D01*
X46549480Y-64332142D01*
X46545133Y-64376284D01*
X46534048Y-64412824D01*
X46516047Y-64446501D01*
X46491821Y-64476021D01*
X46462301Y-64500247D01*
X46428624Y-64518248D01*
X46392084Y-64529333D01*
X46347942Y-64533680D01*
X44899018Y-64533680D01*
X44854876Y-64529333D01*
X44818336Y-64518248D01*
X44784659Y-64500247D01*
X44755139Y-64476021D01*
X44730913Y-64446501D01*
X44712912Y-64412824D01*
X44701827Y-64376284D01*
X44697480Y-64332142D01*
X44697480Y-63383218D01*
X44701827Y-63339076D01*
X44712912Y-63302536D01*
X44730913Y-63268859D01*
X44755139Y-63239339D01*
X44784659Y-63215113D01*
X44818336Y-63197112D01*
X44854876Y-63186027D01*
X44899018Y-63181680D01*
X46347942Y-63181680D01*
X46392084Y-63186027D01*
G37*
G36*
X53833044Y-62377067D02*
G01*
X53869584Y-62388152D01*
X53903261Y-62406153D01*
X53932781Y-62430379D01*
X53957007Y-62459899D01*
X53975008Y-62493576D01*
X53986093Y-62530116D01*
X53990440Y-62574258D01*
X53990440Y-63523182D01*
X53986093Y-63567324D01*
X53975008Y-63603864D01*
X53957007Y-63637541D01*
X53932781Y-63667061D01*
X53903261Y-63691287D01*
X53869584Y-63709288D01*
X53833044Y-63720373D01*
X53788902Y-63724720D01*
X52339978Y-63724720D01*
X52295836Y-63720373D01*
X52259296Y-63709288D01*
X52225619Y-63691287D01*
X52196099Y-63667061D01*
X52171873Y-63637541D01*
X52153872Y-63603864D01*
X52142787Y-63567324D01*
X52138440Y-63523182D01*
X52138440Y-62574258D01*
X52142787Y-62530116D01*
X52153872Y-62493576D01*
X52171873Y-62459899D01*
X52196099Y-62430379D01*
X52225619Y-62406153D01*
X52259296Y-62388152D01*
X52295836Y-62377067D01*
X52339978Y-62372720D01*
X53788902Y-62372720D01*
X53833044Y-62377067D01*
G37*
G36*
X56525444Y-62326267D02*
G01*
X56561984Y-62337352D01*
X56595661Y-62355353D01*
X56625181Y-62379579D01*
X56649407Y-62409099D01*
X56667408Y-62442776D01*
X56678493Y-62479316D01*
X56682840Y-62523458D01*
X56682840Y-63472382D01*
X56678493Y-63516524D01*
X56667408Y-63553064D01*
X56649407Y-63586741D01*
X56625181Y-63616261D01*
X56595661Y-63640487D01*
X56561984Y-63658488D01*
X56525444Y-63669573D01*
X56481302Y-63673920D01*
X55032378Y-63673920D01*
X54988236Y-63669573D01*
X54951696Y-63658488D01*
X54918019Y-63640487D01*
X54888499Y-63616261D01*
X54864273Y-63586741D01*
X54846272Y-63553064D01*
X54835187Y-63516524D01*
X54830840Y-63472382D01*
X54830840Y-62523458D01*
X54835187Y-62479316D01*
X54846272Y-62442776D01*
X54864273Y-62409099D01*
X54888499Y-62379579D01*
X54918019Y-62355353D01*
X54951696Y-62337352D01*
X54988236Y-62326267D01*
X55032378Y-62321920D01*
X56481302Y-62321920D01*
X56525444Y-62326267D01*
G37*
G36*
X46412404Y-60657107D02*
G01*
X46448944Y-60668192D01*
X46482621Y-60686193D01*
X46512141Y-60710419D01*
X46536367Y-60739939D01*
X46554368Y-60773616D01*
X46565453Y-60810156D01*
X46569800Y-60854298D01*
X46569800Y-61803222D01*
X46565453Y-61847364D01*
X46554368Y-61883904D01*
X46536367Y-61917581D01*
X46512141Y-61947101D01*
X46482621Y-61971327D01*
X46448944Y-61989328D01*
X46412404Y-62000413D01*
X46368262Y-62004760D01*
X44919338Y-62004760D01*
X44875196Y-62000413D01*
X44838656Y-61989328D01*
X44804979Y-61971327D01*
X44775459Y-61947101D01*
X44751233Y-61917581D01*
X44733232Y-61883904D01*
X44722147Y-61847364D01*
X44717800Y-61803222D01*
X44717800Y-60854298D01*
X44722147Y-60810156D01*
X44733232Y-60773616D01*
X44751233Y-60739939D01*
X44775459Y-60710419D01*
X44804979Y-60686193D01*
X44838656Y-60668192D01*
X44875196Y-60657107D01*
X44919338Y-60652760D01*
X46368262Y-60652760D01*
X46412404Y-60657107D01*
G37*
G36*
X101027007Y-58611156D02*
G01*
X101263773Y-58709228D01*
X101263775Y-58709229D01*
X101476859Y-58851607D01*
X101658073Y-59032821D01*
X101772704Y-59204378D01*
X101800452Y-59245907D01*
X101898524Y-59482673D01*
X101948520Y-59734021D01*
X101948520Y-59990299D01*
X101898524Y-60241647D01*
X101800452Y-60478413D01*
X101800451Y-60478415D01*
X101658073Y-60691499D01*
X101476859Y-60872713D01*
X101263775Y-61015091D01*
X101263774Y-61015092D01*
X101263773Y-61015092D01*
X101027007Y-61113164D01*
X100775659Y-61163160D01*
X100519381Y-61163160D01*
X100268033Y-61113164D01*
X100031267Y-61015092D01*
X100031266Y-61015092D01*
X100031265Y-61015091D01*
X99818181Y-60872713D01*
X99636967Y-60691499D01*
X99494589Y-60478415D01*
X99494588Y-60478413D01*
X99396516Y-60241647D01*
X99346520Y-59990299D01*
X99346520Y-59734021D01*
X99396516Y-59482673D01*
X99494588Y-59245907D01*
X99522337Y-59204378D01*
X99636967Y-59032821D01*
X99818181Y-58851607D01*
X100031265Y-58709229D01*
X100031267Y-58709228D01*
X100268033Y-58611156D01*
X100519381Y-58561160D01*
X100775659Y-58561160D01*
X101027007Y-58611156D01*
G37*
G36*
X22239515Y-58827519D02*
G01*
X22313156Y-58849858D01*
X22349977Y-58861027D01*
X22451779Y-58915442D01*
X22508867Y-58962293D01*
X22541009Y-58988671D01*
X22614238Y-59077901D01*
X22614239Y-59077903D01*
X22668653Y-59179702D01*
X22669164Y-59181387D01*
X22702161Y-59290164D01*
X22710640Y-59376255D01*
X22710640Y-60163825D01*
X22702161Y-60249916D01*
X22679822Y-60323557D01*
X22668653Y-60360378D01*
X22614238Y-60462180D01*
X22541010Y-60551410D01*
X22451780Y-60624638D01*
X22349978Y-60679053D01*
X22326440Y-60686193D01*
X22239516Y-60712561D01*
X22124640Y-60723875D01*
X22009765Y-60712561D01*
X21922841Y-60686193D01*
X21899303Y-60679053D01*
X21797501Y-60624638D01*
X21708271Y-60551410D01*
X21635042Y-60462178D01*
X21599880Y-60396395D01*
X21586267Y-60376020D01*
X21568940Y-60358693D01*
X21548565Y-60345080D01*
X21525926Y-60335702D01*
X21501893Y-60330922D01*
X21477389Y-60330922D01*
X21453356Y-60335702D01*
X21430717Y-60345080D01*
X21410342Y-60358693D01*
X21393015Y-60376020D01*
X21379402Y-60396394D01*
X21344238Y-60462180D01*
X21271010Y-60551410D01*
X21181780Y-60624638D01*
X21079978Y-60679053D01*
X21056440Y-60686193D01*
X20969516Y-60712561D01*
X20854640Y-60723875D01*
X20739765Y-60712561D01*
X20652841Y-60686193D01*
X20629303Y-60679053D01*
X20527501Y-60624638D01*
X20438271Y-60551410D01*
X20365042Y-60462178D01*
X20329880Y-60396395D01*
X20316267Y-60376020D01*
X20298940Y-60358693D01*
X20278565Y-60345080D01*
X20255926Y-60335702D01*
X20231893Y-60330922D01*
X20207389Y-60330922D01*
X20183356Y-60335702D01*
X20160717Y-60345080D01*
X20140342Y-60358693D01*
X20123015Y-60376020D01*
X20109402Y-60396394D01*
X20074238Y-60462180D01*
X20001010Y-60551410D01*
X19911780Y-60624638D01*
X19809978Y-60679053D01*
X19786440Y-60686193D01*
X19699516Y-60712561D01*
X19584640Y-60723875D01*
X19469765Y-60712561D01*
X19382841Y-60686193D01*
X19359303Y-60679053D01*
X19257501Y-60624638D01*
X19168271Y-60551410D01*
X19122265Y-60495350D01*
X19104938Y-60478023D01*
X19084564Y-60464409D01*
X19061925Y-60455032D01*
X19037892Y-60450251D01*
X19013388Y-60450251D01*
X18989354Y-60455031D01*
X18966716Y-60464408D01*
X18946341Y-60478022D01*
X18929014Y-60495349D01*
X18915400Y-60515723D01*
X18906023Y-60538362D01*
X18901242Y-60562395D01*
X18900640Y-60574648D01*
X18900640Y-60721040D01*
X17728640Y-60721040D01*
X17728640Y-58819040D01*
X18900640Y-58819040D01*
X18900640Y-58965432D01*
X18903042Y-58989818D01*
X18910155Y-59013267D01*
X18921706Y-59034878D01*
X18937251Y-59053820D01*
X18956193Y-59069365D01*
X18977804Y-59080916D01*
X19001253Y-59088029D01*
X19025639Y-59090431D01*
X19050025Y-59088029D01*
X19073474Y-59080916D01*
X19095085Y-59069365D01*
X19114027Y-59053820D01*
X19122265Y-59044730D01*
X19148086Y-59013267D01*
X19168271Y-58988671D01*
X19257501Y-58915442D01*
X19269147Y-58909217D01*
X19359302Y-58861027D01*
X19396123Y-58849858D01*
X19469764Y-58827519D01*
X19584640Y-58816205D01*
X19699515Y-58827519D01*
X19773156Y-58849858D01*
X19809977Y-58861027D01*
X19911779Y-58915442D01*
X19968867Y-58962293D01*
X20001009Y-58988671D01*
X20074238Y-59077901D01*
X20074241Y-59077905D01*
X20109401Y-59143685D01*
X20123014Y-59164060D01*
X20140341Y-59181387D01*
X20160716Y-59195000D01*
X20183355Y-59204378D01*
X20207388Y-59209158D01*
X20231892Y-59209158D01*
X20255925Y-59204378D01*
X20278564Y-59195000D01*
X20298939Y-59181387D01*
X20316266Y-59164060D01*
X20329879Y-59143686D01*
X20365042Y-59077901D01*
X20418086Y-59013267D01*
X20438271Y-58988671D01*
X20527501Y-58915442D01*
X20539147Y-58909217D01*
X20629302Y-58861027D01*
X20666123Y-58849858D01*
X20739764Y-58827519D01*
X20854640Y-58816205D01*
X20969515Y-58827519D01*
X21043156Y-58849858D01*
X21079977Y-58861027D01*
X21181779Y-58915442D01*
X21238867Y-58962293D01*
X21271009Y-58988671D01*
X21344238Y-59077901D01*
X21344241Y-59077905D01*
X21379401Y-59143685D01*
X21393014Y-59164060D01*
X21410341Y-59181387D01*
X21430716Y-59195000D01*
X21453355Y-59204378D01*
X21477388Y-59209158D01*
X21501892Y-59209158D01*
X21525925Y-59204378D01*
X21548564Y-59195000D01*
X21568939Y-59181387D01*
X21586266Y-59164060D01*
X21599879Y-59143686D01*
X21635042Y-59077901D01*
X21688086Y-59013267D01*
X21708271Y-58988671D01*
X21797501Y-58915442D01*
X21809147Y-58909217D01*
X21899302Y-58861027D01*
X21936123Y-58849858D01*
X22009764Y-58827519D01*
X22124640Y-58816205D01*
X22239515Y-58827519D01*
G37*
G36*
X33633915Y-58073266D02*
G01*
X33806986Y-58144954D01*
X33806987Y-58144955D01*
X33962747Y-58249030D01*
X34095210Y-58381493D01*
X34095211Y-58381495D01*
X34199286Y-58537254D01*
X34270974Y-58710325D01*
X34307520Y-58894053D01*
X34307520Y-59081387D01*
X34270974Y-59265115D01*
X34199286Y-59438186D01*
X34199285Y-59438187D01*
X34095210Y-59593947D01*
X33962747Y-59726410D01*
X33951356Y-59734021D01*
X33806986Y-59830486D01*
X33633915Y-59902174D01*
X33450187Y-59938720D01*
X33262853Y-59938720D01*
X33079125Y-59902174D01*
X32906054Y-59830486D01*
X32761684Y-59734021D01*
X32750293Y-59726410D01*
X32617830Y-59593947D01*
X32513755Y-59438187D01*
X32513754Y-59438186D01*
X32442066Y-59265115D01*
X32405520Y-59081387D01*
X32405520Y-58894053D01*
X32442066Y-58710325D01*
X32513754Y-58537254D01*
X32617829Y-58381495D01*
X32617830Y-58381493D01*
X32750293Y-58249030D01*
X32906053Y-58144955D01*
X32906054Y-58144954D01*
X33079125Y-58073266D01*
X33262853Y-58036720D01*
X33450187Y-58036720D01*
X33633915Y-58073266D01*
G37*
G36*
X43309280Y-59938720D02*
G01*
X41407280Y-59938720D01*
X41407280Y-58036720D01*
X43309280Y-58036720D01*
X43309280Y-59938720D01*
G37*
G36*
X40095675Y-58073266D02*
G01*
X40268746Y-58144954D01*
X40268747Y-58144955D01*
X40424507Y-58249030D01*
X40556970Y-58381493D01*
X40556971Y-58381495D01*
X40661046Y-58537254D01*
X40732734Y-58710325D01*
X40769280Y-58894053D01*
X40769280Y-59081387D01*
X40732734Y-59265115D01*
X40661046Y-59438186D01*
X40661045Y-59438187D01*
X40556970Y-59593947D01*
X40424507Y-59726410D01*
X40413116Y-59734021D01*
X40268746Y-59830486D01*
X40095675Y-59902174D01*
X39911947Y-59938720D01*
X39724613Y-59938720D01*
X39540885Y-59902174D01*
X39367814Y-59830486D01*
X39223444Y-59734021D01*
X39212053Y-59726410D01*
X39079590Y-59593947D01*
X38975515Y-59438187D01*
X38975514Y-59438186D01*
X38903826Y-59265115D01*
X38867280Y-59081387D01*
X38867280Y-58894053D01*
X38903826Y-58710325D01*
X38975514Y-58537254D01*
X39079589Y-58381495D01*
X39079590Y-58381493D01*
X39212053Y-58249030D01*
X39367813Y-58144955D01*
X39367814Y-58144954D01*
X39540885Y-58073266D01*
X39724613Y-58036720D01*
X39911947Y-58036720D01*
X40095675Y-58073266D01*
G37*
G36*
X36847520Y-59938720D02*
G01*
X34945520Y-59938720D01*
X34945520Y-58036720D01*
X36847520Y-58036720D01*
X36847520Y-59938720D01*
G37*
G36*
X27156915Y-58052946D02*
G01*
X27329986Y-58124634D01*
X27329987Y-58124635D01*
X27485747Y-58228710D01*
X27618210Y-58361173D01*
X27670601Y-58439582D01*
X27722286Y-58516934D01*
X27793974Y-58690005D01*
X27830520Y-58873733D01*
X27830520Y-59061067D01*
X27793974Y-59244795D01*
X27722286Y-59417866D01*
X27708708Y-59438187D01*
X27618210Y-59573627D01*
X27485747Y-59706090D01*
X27455336Y-59726410D01*
X27329986Y-59810166D01*
X27156915Y-59881854D01*
X26973187Y-59918400D01*
X26785853Y-59918400D01*
X26602125Y-59881854D01*
X26429054Y-59810166D01*
X26303704Y-59726410D01*
X26273293Y-59706090D01*
X26140830Y-59573627D01*
X26050332Y-59438187D01*
X26036754Y-59417866D01*
X25965066Y-59244795D01*
X25928520Y-59061067D01*
X25928520Y-58873733D01*
X25965066Y-58690005D01*
X26036754Y-58516934D01*
X26088439Y-58439582D01*
X26140830Y-58361173D01*
X26273293Y-58228710D01*
X26429053Y-58124635D01*
X26429054Y-58124634D01*
X26602125Y-58052946D01*
X26785853Y-58016400D01*
X26973187Y-58016400D01*
X27156915Y-58052946D01*
G37*
G36*
X30370520Y-59918400D02*
G01*
X28468520Y-59918400D01*
X28468520Y-58016400D01*
X30370520Y-58016400D01*
X30370520Y-59918400D01*
G37*
G36*
X46412404Y-57857107D02*
G01*
X46448944Y-57868192D01*
X46482621Y-57886193D01*
X46512141Y-57910419D01*
X46536367Y-57939939D01*
X46554368Y-57973616D01*
X46565453Y-58010156D01*
X46569800Y-58054298D01*
X46569800Y-59003222D01*
X46565453Y-59047364D01*
X46554368Y-59083904D01*
X46536367Y-59117581D01*
X46512141Y-59147101D01*
X46482621Y-59171327D01*
X46448944Y-59189328D01*
X46412404Y-59200413D01*
X46368262Y-59204760D01*
X44919338Y-59204760D01*
X44875196Y-59200413D01*
X44838656Y-59189328D01*
X44804979Y-59171327D01*
X44775459Y-59147101D01*
X44751233Y-59117581D01*
X44733232Y-59083904D01*
X44722147Y-59047364D01*
X44717800Y-59003222D01*
X44717800Y-58054298D01*
X44722147Y-58010156D01*
X44733232Y-57973616D01*
X44751233Y-57939939D01*
X44775459Y-57910419D01*
X44804979Y-57886193D01*
X44838656Y-57868192D01*
X44875196Y-57857107D01*
X44919338Y-57852760D01*
X46368262Y-57852760D01*
X46412404Y-57857107D01*
G37*
G36*
X74648668Y-55954543D02*
G01*
X74803540Y-56018693D01*
X74942921Y-56111825D01*
X75061455Y-56230359D01*
X75154587Y-56369740D01*
X75218737Y-56524612D01*
X75251440Y-56689024D01*
X75251440Y-56856656D01*
X75218737Y-57021068D01*
X75154587Y-57175940D01*
X75061455Y-57315321D01*
X74942921Y-57433855D01*
X74803540Y-57526987D01*
X74648668Y-57591137D01*
X74484256Y-57623840D01*
X74316624Y-57623840D01*
X74152212Y-57591137D01*
X73997340Y-57526987D01*
X73857959Y-57433855D01*
X73739425Y-57315321D01*
X73646293Y-57175940D01*
X73582143Y-57021068D01*
X73549440Y-56856656D01*
X73549440Y-56689024D01*
X73582143Y-56524612D01*
X73646293Y-56369740D01*
X73739425Y-56230359D01*
X73857959Y-56111825D01*
X73997340Y-56018693D01*
X74152212Y-55954543D01*
X74316624Y-55921840D01*
X74484256Y-55921840D01*
X74648668Y-55954543D01*
G37*
G36*
X89888668Y-55954543D02*
G01*
X90043540Y-56018693D01*
X90182921Y-56111825D01*
X90301455Y-56230359D01*
X90394587Y-56369740D01*
X90458737Y-56524612D01*
X90491440Y-56689024D01*
X90491440Y-56856656D01*
X90458737Y-57021068D01*
X90394587Y-57175940D01*
X90301455Y-57315321D01*
X90182921Y-57433855D01*
X90043540Y-57526987D01*
X89888668Y-57591137D01*
X89724256Y-57623840D01*
X89556624Y-57623840D01*
X89392212Y-57591137D01*
X89237340Y-57526987D01*
X89097959Y-57433855D01*
X88979425Y-57315321D01*
X88886293Y-57175940D01*
X88822143Y-57021068D01*
X88789440Y-56856656D01*
X88789440Y-56689024D01*
X88822143Y-56524612D01*
X88886293Y-56369740D01*
X88979425Y-56230359D01*
X89097959Y-56111825D01*
X89237340Y-56018693D01*
X89392212Y-55954543D01*
X89556624Y-55921840D01*
X89724256Y-55921840D01*
X89888668Y-55954543D01*
G37*
G36*
X77188668Y-55954543D02*
G01*
X77343540Y-56018693D01*
X77482921Y-56111825D01*
X77601455Y-56230359D01*
X77694587Y-56369740D01*
X77758737Y-56524612D01*
X77791440Y-56689024D01*
X77791440Y-56856656D01*
X77758737Y-57021068D01*
X77694587Y-57175940D01*
X77601455Y-57315321D01*
X77482921Y-57433855D01*
X77343540Y-57526987D01*
X77188668Y-57591137D01*
X77024256Y-57623840D01*
X76856624Y-57623840D01*
X76692212Y-57591137D01*
X76537340Y-57526987D01*
X76397959Y-57433855D01*
X76279425Y-57315321D01*
X76186293Y-57175940D01*
X76122143Y-57021068D01*
X76089440Y-56856656D01*
X76089440Y-56689024D01*
X76122143Y-56524612D01*
X76186293Y-56369740D01*
X76279425Y-56230359D01*
X76397959Y-56111825D01*
X76537340Y-56018693D01*
X76692212Y-55954543D01*
X76856624Y-55921840D01*
X77024256Y-55921840D01*
X77188668Y-55954543D01*
G37*
G36*
X79728668Y-55954543D02*
G01*
X79883540Y-56018693D01*
X80022921Y-56111825D01*
X80141455Y-56230359D01*
X80234587Y-56369740D01*
X80298737Y-56524612D01*
X80331440Y-56689024D01*
X80331440Y-56856656D01*
X80298737Y-57021068D01*
X80234587Y-57175940D01*
X80141455Y-57315321D01*
X80022921Y-57433855D01*
X79883540Y-57526987D01*
X79728668Y-57591137D01*
X79564256Y-57623840D01*
X79396624Y-57623840D01*
X79232212Y-57591137D01*
X79077340Y-57526987D01*
X78937959Y-57433855D01*
X78819425Y-57315321D01*
X78726293Y-57175940D01*
X78662143Y-57021068D01*
X78629440Y-56856656D01*
X78629440Y-56689024D01*
X78662143Y-56524612D01*
X78726293Y-56369740D01*
X78819425Y-56230359D01*
X78937959Y-56111825D01*
X79077340Y-56018693D01*
X79232212Y-55954543D01*
X79396624Y-55921840D01*
X79564256Y-55921840D01*
X79728668Y-55954543D01*
G37*
G36*
X92428668Y-55954543D02*
G01*
X92583540Y-56018693D01*
X92722921Y-56111825D01*
X92841455Y-56230359D01*
X92934587Y-56369740D01*
X92998737Y-56524612D01*
X93031440Y-56689024D01*
X93031440Y-56856656D01*
X92998737Y-57021068D01*
X92934587Y-57175940D01*
X92841455Y-57315321D01*
X92722921Y-57433855D01*
X92583540Y-57526987D01*
X92428668Y-57591137D01*
X92264256Y-57623840D01*
X92096624Y-57623840D01*
X91932212Y-57591137D01*
X91777340Y-57526987D01*
X91637959Y-57433855D01*
X91519425Y-57315321D01*
X91426293Y-57175940D01*
X91362143Y-57021068D01*
X91329440Y-56856656D01*
X91329440Y-56689024D01*
X91362143Y-56524612D01*
X91426293Y-56369740D01*
X91519425Y-56230359D01*
X91637959Y-56111825D01*
X91777340Y-56018693D01*
X91932212Y-55954543D01*
X92096624Y-55921840D01*
X92264256Y-55921840D01*
X92428668Y-55954543D01*
G37*
G36*
X87348668Y-55954543D02*
G01*
X87503540Y-56018693D01*
X87642921Y-56111825D01*
X87761455Y-56230359D01*
X87854587Y-56369740D01*
X87918737Y-56524612D01*
X87951440Y-56689024D01*
X87951440Y-56856656D01*
X87918737Y-57021068D01*
X87854587Y-57175940D01*
X87761455Y-57315321D01*
X87642921Y-57433855D01*
X87503540Y-57526987D01*
X87348668Y-57591137D01*
X87184256Y-57623840D01*
X87016624Y-57623840D01*
X86852212Y-57591137D01*
X86697340Y-57526987D01*
X86557959Y-57433855D01*
X86439425Y-57315321D01*
X86346293Y-57175940D01*
X86282143Y-57021068D01*
X86249440Y-56856656D01*
X86249440Y-56689024D01*
X86282143Y-56524612D01*
X86346293Y-56369740D01*
X86439425Y-56230359D01*
X86557959Y-56111825D01*
X86697340Y-56018693D01*
X86852212Y-55954543D01*
X87016624Y-55921840D01*
X87184256Y-55921840D01*
X87348668Y-55954543D01*
G37*
G36*
X84808668Y-55954543D02*
G01*
X84963540Y-56018693D01*
X85102921Y-56111825D01*
X85221455Y-56230359D01*
X85314587Y-56369740D01*
X85378737Y-56524612D01*
X85411440Y-56689024D01*
X85411440Y-56856656D01*
X85378737Y-57021068D01*
X85314587Y-57175940D01*
X85221455Y-57315321D01*
X85102921Y-57433855D01*
X84963540Y-57526987D01*
X84808668Y-57591137D01*
X84644256Y-57623840D01*
X84476624Y-57623840D01*
X84312212Y-57591137D01*
X84157340Y-57526987D01*
X84017959Y-57433855D01*
X83899425Y-57315321D01*
X83806293Y-57175940D01*
X83742143Y-57021068D01*
X83709440Y-56856656D01*
X83709440Y-56689024D01*
X83742143Y-56524612D01*
X83806293Y-56369740D01*
X83899425Y-56230359D01*
X84017959Y-56111825D01*
X84157340Y-56018693D01*
X84312212Y-55954543D01*
X84476624Y-55921840D01*
X84644256Y-55921840D01*
X84808668Y-55954543D01*
G37*
G36*
X82268668Y-55954543D02*
G01*
X82423540Y-56018693D01*
X82562921Y-56111825D01*
X82681455Y-56230359D01*
X82774587Y-56369740D01*
X82838737Y-56524612D01*
X82871440Y-56689024D01*
X82871440Y-56856656D01*
X82838737Y-57021068D01*
X82774587Y-57175940D01*
X82681455Y-57315321D01*
X82562921Y-57433855D01*
X82423540Y-57526987D01*
X82268668Y-57591137D01*
X82104256Y-57623840D01*
X81936624Y-57623840D01*
X81772212Y-57591137D01*
X81617340Y-57526987D01*
X81477959Y-57433855D01*
X81359425Y-57315321D01*
X81266293Y-57175940D01*
X81202143Y-57021068D01*
X81169440Y-56856656D01*
X81169440Y-56689024D01*
X81202143Y-56524612D01*
X81266293Y-56369740D01*
X81359425Y-56230359D01*
X81477959Y-56111825D01*
X81617340Y-56018693D01*
X81772212Y-55954543D01*
X81936624Y-55921840D01*
X82104256Y-55921840D01*
X82268668Y-55954543D01*
G37*
G36*
X101027007Y-53611156D02*
G01*
X101263773Y-53709228D01*
X101263775Y-53709229D01*
X101476859Y-53851607D01*
X101658073Y-54032821D01*
X101800452Y-54245907D01*
X101898524Y-54482673D01*
X101948520Y-54734021D01*
X101948520Y-54990299D01*
X101898524Y-55241647D01*
X101800452Y-55478413D01*
X101800451Y-55478415D01*
X101658073Y-55691499D01*
X101476859Y-55872713D01*
X101263775Y-56015091D01*
X101263774Y-56015092D01*
X101263773Y-56015092D01*
X101027007Y-56113164D01*
X100775659Y-56163160D01*
X100519381Y-56163160D01*
X100268033Y-56113164D01*
X100031267Y-56015092D01*
X100031266Y-56015092D01*
X100031265Y-56015091D01*
X99818181Y-55872713D01*
X99636967Y-55691499D01*
X99494589Y-55478415D01*
X99494588Y-55478413D01*
X99396516Y-55241647D01*
X99346520Y-54990299D01*
X99346520Y-54734021D01*
X99396516Y-54482673D01*
X99494588Y-54245907D01*
X99636967Y-54032821D01*
X99818181Y-53851607D01*
X100031265Y-53709229D01*
X100031267Y-53709228D01*
X100268033Y-53611156D01*
X100519381Y-53561160D01*
X100775659Y-53561160D01*
X101027007Y-53611156D01*
G37*
G36*
X36452764Y-53433107D02*
G01*
X36489304Y-53444192D01*
X36522981Y-53462193D01*
X36552501Y-53486419D01*
X36576727Y-53515939D01*
X36594728Y-53549616D01*
X36605813Y-53586156D01*
X36610160Y-53630298D01*
X36610160Y-55079222D01*
X36605813Y-55123364D01*
X36594728Y-55159904D01*
X36576727Y-55193581D01*
X36552501Y-55223101D01*
X36522981Y-55247327D01*
X36489304Y-55265328D01*
X36452764Y-55276413D01*
X36408622Y-55280760D01*
X35459698Y-55280760D01*
X35415556Y-55276413D01*
X35379016Y-55265328D01*
X35345339Y-55247327D01*
X35315819Y-55223101D01*
X35291593Y-55193581D01*
X35273592Y-55159904D01*
X35262507Y-55123364D01*
X35258160Y-55079222D01*
X35258160Y-53630298D01*
X35262507Y-53586156D01*
X35273592Y-53549616D01*
X35291593Y-53515939D01*
X35315819Y-53486419D01*
X35345339Y-53462193D01*
X35379016Y-53444192D01*
X35415556Y-53433107D01*
X35459698Y-53428760D01*
X36408622Y-53428760D01*
X36452764Y-53433107D01*
G37*
G36*
X39252764Y-53433107D02*
G01*
X39289304Y-53444192D01*
X39322981Y-53462193D01*
X39352501Y-53486419D01*
X39376727Y-53515939D01*
X39394728Y-53549616D01*
X39405813Y-53586156D01*
X39410160Y-53630298D01*
X39410160Y-55079222D01*
X39405813Y-55123364D01*
X39394728Y-55159904D01*
X39376727Y-55193581D01*
X39352501Y-55223101D01*
X39322981Y-55247327D01*
X39289304Y-55265328D01*
X39252764Y-55276413D01*
X39208622Y-55280760D01*
X38259698Y-55280760D01*
X38215556Y-55276413D01*
X38179016Y-55265328D01*
X38145339Y-55247327D01*
X38115819Y-55223101D01*
X38091593Y-55193581D01*
X38073592Y-55159904D01*
X38062507Y-55123364D01*
X38058160Y-55079222D01*
X38058160Y-53630298D01*
X38062507Y-53586156D01*
X38073592Y-53549616D01*
X38091593Y-53515939D01*
X38115819Y-53486419D01*
X38145339Y-53462193D01*
X38179016Y-53444192D01*
X38215556Y-53433107D01*
X38259698Y-53428760D01*
X39208622Y-53428760D01*
X39252764Y-53433107D01*
G37*
G36*
X28172364Y-53356907D02*
G01*
X28208904Y-53367992D01*
X28242581Y-53385993D01*
X28272101Y-53410219D01*
X28296327Y-53439739D01*
X28314328Y-53473416D01*
X28325413Y-53509956D01*
X28329760Y-53554098D01*
X28329760Y-55003022D01*
X28325413Y-55047164D01*
X28314328Y-55083704D01*
X28296327Y-55117381D01*
X28272101Y-55146901D01*
X28242581Y-55171127D01*
X28208904Y-55189128D01*
X28172364Y-55200213D01*
X28128222Y-55204560D01*
X27179298Y-55204560D01*
X27135156Y-55200213D01*
X27098616Y-55189128D01*
X27064939Y-55171127D01*
X27035419Y-55146901D01*
X27011193Y-55117381D01*
X26993192Y-55083704D01*
X26982107Y-55047164D01*
X26977760Y-55003022D01*
X26977760Y-53554098D01*
X26982107Y-53509956D01*
X26993192Y-53473416D01*
X27011193Y-53439739D01*
X27035419Y-53410219D01*
X27064939Y-53385993D01*
X27098616Y-53367992D01*
X27135156Y-53356907D01*
X27179298Y-53352560D01*
X28128222Y-53352560D01*
X28172364Y-53356907D01*
G37*
G36*
X30972364Y-53356907D02*
G01*
X31008904Y-53367992D01*
X31042581Y-53385993D01*
X31072101Y-53410219D01*
X31096327Y-53439739D01*
X31114328Y-53473416D01*
X31125413Y-53509956D01*
X31129760Y-53554098D01*
X31129760Y-55003022D01*
X31125413Y-55047164D01*
X31114328Y-55083704D01*
X31096327Y-55117381D01*
X31072101Y-55146901D01*
X31042581Y-55171127D01*
X31008904Y-55189128D01*
X30972364Y-55200213D01*
X30928222Y-55204560D01*
X29979298Y-55204560D01*
X29935156Y-55200213D01*
X29898616Y-55189128D01*
X29864939Y-55171127D01*
X29835419Y-55146901D01*
X29811193Y-55117381D01*
X29793192Y-55083704D01*
X29782107Y-55047164D01*
X29777760Y-55003022D01*
X29777760Y-53554098D01*
X29782107Y-53509956D01*
X29793192Y-53473416D01*
X29811193Y-53439739D01*
X29835419Y-53410219D01*
X29864939Y-53385993D01*
X29898616Y-53367992D01*
X29935156Y-53356907D01*
X29979298Y-53352560D01*
X30928222Y-53352560D01*
X30972364Y-53356907D01*
G37*
G36*
X47319804Y-50095547D02*
G01*
X47356344Y-50106632D01*
X47390021Y-50124633D01*
X47419541Y-50148859D01*
X47443767Y-50178379D01*
X47461768Y-50212056D01*
X47472853Y-50248596D01*
X47477200Y-50292738D01*
X47477200Y-51741662D01*
X47472853Y-51785804D01*
X47461768Y-51822344D01*
X47443767Y-51856021D01*
X47419541Y-51885541D01*
X47390021Y-51909767D01*
X47356344Y-51927768D01*
X47319804Y-51938853D01*
X47275662Y-51943200D01*
X46326738Y-51943200D01*
X46282596Y-51938853D01*
X46246056Y-51927768D01*
X46212379Y-51909767D01*
X46182859Y-51885541D01*
X46158633Y-51856021D01*
X46140632Y-51822344D01*
X46129547Y-51785804D01*
X46125200Y-51741662D01*
X46125200Y-50292738D01*
X46129547Y-50248596D01*
X46140632Y-50212056D01*
X46158633Y-50178379D01*
X46182859Y-50148859D01*
X46212379Y-50124633D01*
X46246056Y-50106632D01*
X46282596Y-50095547D01*
X46326738Y-50091200D01*
X47275662Y-50091200D01*
X47319804Y-50095547D01*
G37*
G36*
X44519804Y-50095547D02*
G01*
X44556344Y-50106632D01*
X44590021Y-50124633D01*
X44619541Y-50148859D01*
X44643767Y-50178379D01*
X44661768Y-50212056D01*
X44672853Y-50248596D01*
X44677200Y-50292738D01*
X44677200Y-51741662D01*
X44672853Y-51785804D01*
X44661768Y-51822344D01*
X44643767Y-51856021D01*
X44619541Y-51885541D01*
X44590021Y-51909767D01*
X44556344Y-51927768D01*
X44519804Y-51938853D01*
X44475662Y-51943200D01*
X43526738Y-51943200D01*
X43482596Y-51938853D01*
X43446056Y-51927768D01*
X43412379Y-51909767D01*
X43382859Y-51885541D01*
X43358633Y-51856021D01*
X43340632Y-51822344D01*
X43329547Y-51785804D01*
X43325200Y-51741662D01*
X43325200Y-50292738D01*
X43329547Y-50248596D01*
X43340632Y-50212056D01*
X43358633Y-50178379D01*
X43382859Y-50148859D01*
X43412379Y-50124633D01*
X43446056Y-50106632D01*
X43482596Y-50095547D01*
X43526738Y-50091200D01*
X44475662Y-50091200D01*
X44519804Y-50095547D01*
G37*
G36*
X19866564Y-50070147D02*
G01*
X19903104Y-50081232D01*
X19936781Y-50099233D01*
X19966301Y-50123459D01*
X19990527Y-50152979D01*
X20008528Y-50186656D01*
X20019613Y-50223196D01*
X20023960Y-50267338D01*
X20023960Y-51716262D01*
X20019613Y-51760404D01*
X20008528Y-51796944D01*
X19990527Y-51830621D01*
X19966301Y-51860141D01*
X19936781Y-51884367D01*
X19903104Y-51902368D01*
X19866564Y-51913453D01*
X19822422Y-51917800D01*
X18873498Y-51917800D01*
X18829356Y-51913453D01*
X18792816Y-51902368D01*
X18759139Y-51884367D01*
X18729619Y-51860141D01*
X18705393Y-51830621D01*
X18687392Y-51796944D01*
X18676307Y-51760404D01*
X18671960Y-51716262D01*
X18671960Y-50267338D01*
X18676307Y-50223196D01*
X18687392Y-50186656D01*
X18705393Y-50152979D01*
X18729619Y-50123459D01*
X18759139Y-50099233D01*
X18792816Y-50081232D01*
X18829356Y-50070147D01*
X18873498Y-50065800D01*
X19822422Y-50065800D01*
X19866564Y-50070147D01*
G37*
G36*
X22666564Y-50070147D02*
G01*
X22703104Y-50081232D01*
X22736781Y-50099233D01*
X22766301Y-50123459D01*
X22790527Y-50152979D01*
X22808528Y-50186656D01*
X22819613Y-50223196D01*
X22823960Y-50267338D01*
X22823960Y-51716262D01*
X22819613Y-51760404D01*
X22808528Y-51796944D01*
X22790527Y-51830621D01*
X22766301Y-51860141D01*
X22736781Y-51884367D01*
X22703104Y-51902368D01*
X22666564Y-51913453D01*
X22622422Y-51917800D01*
X21673498Y-51917800D01*
X21629356Y-51913453D01*
X21592816Y-51902368D01*
X21559139Y-51884367D01*
X21529619Y-51860141D01*
X21505393Y-51830621D01*
X21487392Y-51796944D01*
X21476307Y-51760404D01*
X21471960Y-51716262D01*
X21471960Y-50267338D01*
X21476307Y-50223196D01*
X21487392Y-50186656D01*
X21505393Y-50152979D01*
X21529619Y-50123459D01*
X21559139Y-50099233D01*
X21592816Y-50081232D01*
X21629356Y-50070147D01*
X21673498Y-50065800D01*
X22622422Y-50065800D01*
X22666564Y-50070147D01*
G37*
G36*
X42010120Y-51820040D02*
G01*
X39384120Y-51820040D01*
X39384120Y-50194040D01*
X42010120Y-50194040D01*
X42010120Y-51820040D01*
G37*
G36*
X26036867Y-50197961D02*
G01*
X26116496Y-50205804D01*
X26269747Y-50252292D01*
X26269750Y-50252293D01*
X26410983Y-50327784D01*
X26534779Y-50429381D01*
X26636376Y-50553177D01*
X26711867Y-50694410D01*
X26711868Y-50694413D01*
X26758356Y-50847664D01*
X26774053Y-51007040D01*
X26758356Y-51166416D01*
X26711868Y-51319667D01*
X26711867Y-51319670D01*
X26636376Y-51460903D01*
X26534779Y-51584699D01*
X26410983Y-51686296D01*
X26269750Y-51761787D01*
X26269747Y-51761788D01*
X26116496Y-51808276D01*
X26036867Y-51816119D01*
X25997054Y-51820040D01*
X24917186Y-51820040D01*
X24877373Y-51816119D01*
X24797744Y-51808276D01*
X24644493Y-51761788D01*
X24644490Y-51761787D01*
X24503257Y-51686296D01*
X24379461Y-51584699D01*
X24277864Y-51460903D01*
X24202373Y-51319670D01*
X24202372Y-51319667D01*
X24155884Y-51166416D01*
X24140187Y-51007040D01*
X24155884Y-50847664D01*
X24202372Y-50694413D01*
X24202373Y-50694410D01*
X24277864Y-50553177D01*
X24379461Y-50429381D01*
X24503257Y-50327784D01*
X24644490Y-50252293D01*
X24644493Y-50252292D01*
X24797744Y-50205804D01*
X24877373Y-50197961D01*
X24917186Y-50194040D01*
X25997054Y-50194040D01*
X26036867Y-50197961D01*
G37*
G36*
X101027007Y-48611156D02*
G01*
X101263773Y-48709228D01*
X101263775Y-48709229D01*
X101476859Y-48851607D01*
X101658073Y-49032821D01*
X101787917Y-49227146D01*
X101800452Y-49245907D01*
X101898524Y-49482673D01*
X101948520Y-49734021D01*
X101948520Y-49990299D01*
X101898524Y-50241647D01*
X101820762Y-50429381D01*
X101800451Y-50478415D01*
X101658073Y-50691499D01*
X101476859Y-50872713D01*
X101263775Y-51015091D01*
X101263774Y-51015092D01*
X101263773Y-51015092D01*
X101027007Y-51113164D01*
X100775659Y-51163160D01*
X100519381Y-51163160D01*
X100268033Y-51113164D01*
X100031267Y-51015092D01*
X100031266Y-51015092D01*
X100031265Y-51015091D01*
X99818181Y-50872713D01*
X99636967Y-50691499D01*
X99494589Y-50478415D01*
X99474278Y-50429381D01*
X99396516Y-50241647D01*
X99346520Y-49990299D01*
X99346520Y-49734021D01*
X99396516Y-49482673D01*
X99494588Y-49245907D01*
X99507124Y-49227146D01*
X99636967Y-49032821D01*
X99818181Y-48851607D01*
X100031265Y-48709229D01*
X100031267Y-48709228D01*
X100268033Y-48611156D01*
X100519381Y-48561160D01*
X100775659Y-48561160D01*
X101027007Y-48611156D01*
G37*
G36*
X79728668Y-48334543D02*
G01*
X79883540Y-48398693D01*
X80022921Y-48491825D01*
X80141455Y-48610359D01*
X80234587Y-48749740D01*
X80298737Y-48904612D01*
X80331440Y-49069024D01*
X80331440Y-49236656D01*
X80298737Y-49401068D01*
X80234587Y-49555940D01*
X80141455Y-49695321D01*
X80022921Y-49813855D01*
X79883540Y-49906987D01*
X79728668Y-49971137D01*
X79564256Y-50003840D01*
X79396624Y-50003840D01*
X79232212Y-49971137D01*
X79077340Y-49906987D01*
X78937959Y-49813855D01*
X78819425Y-49695321D01*
X78726293Y-49555940D01*
X78662143Y-49401068D01*
X78629440Y-49236656D01*
X78629440Y-49069024D01*
X78662143Y-48904612D01*
X78726293Y-48749740D01*
X78819425Y-48610359D01*
X78937959Y-48491825D01*
X79077340Y-48398693D01*
X79232212Y-48334543D01*
X79396624Y-48301840D01*
X79564256Y-48301840D01*
X79728668Y-48334543D01*
G37*
G36*
X82268668Y-48334543D02*
G01*
X82423540Y-48398693D01*
X82562921Y-48491825D01*
X82681455Y-48610359D01*
X82774587Y-48749740D01*
X82838737Y-48904612D01*
X82871440Y-49069024D01*
X82871440Y-49236656D01*
X82838737Y-49401068D01*
X82774587Y-49555940D01*
X82681455Y-49695321D01*
X82562921Y-49813855D01*
X82423540Y-49906987D01*
X82268668Y-49971137D01*
X82104256Y-50003840D01*
X81936624Y-50003840D01*
X81772212Y-49971137D01*
X81617340Y-49906987D01*
X81477959Y-49813855D01*
X81359425Y-49695321D01*
X81266293Y-49555940D01*
X81202143Y-49401068D01*
X81169440Y-49236656D01*
X81169440Y-49069024D01*
X81202143Y-48904612D01*
X81266293Y-48749740D01*
X81359425Y-48610359D01*
X81477959Y-48491825D01*
X81617340Y-48398693D01*
X81772212Y-48334543D01*
X81936624Y-48301840D01*
X82104256Y-48301840D01*
X82268668Y-48334543D01*
G37*
G36*
X77188668Y-48334543D02*
G01*
X77343540Y-48398693D01*
X77482921Y-48491825D01*
X77601455Y-48610359D01*
X77694587Y-48749740D01*
X77758737Y-48904612D01*
X77791440Y-49069024D01*
X77791440Y-49236656D01*
X77758737Y-49401068D01*
X77694587Y-49555940D01*
X77601455Y-49695321D01*
X77482921Y-49813855D01*
X77343540Y-49906987D01*
X77188668Y-49971137D01*
X77024256Y-50003840D01*
X76856624Y-50003840D01*
X76692212Y-49971137D01*
X76537340Y-49906987D01*
X76397959Y-49813855D01*
X76279425Y-49695321D01*
X76186293Y-49555940D01*
X76122143Y-49401068D01*
X76089440Y-49236656D01*
X76089440Y-49069024D01*
X76122143Y-48904612D01*
X76186293Y-48749740D01*
X76279425Y-48610359D01*
X76397959Y-48491825D01*
X76537340Y-48398693D01*
X76692212Y-48334543D01*
X76856624Y-48301840D01*
X77024256Y-48301840D01*
X77188668Y-48334543D01*
G37*
G36*
X84808668Y-48334543D02*
G01*
X84963540Y-48398693D01*
X85102921Y-48491825D01*
X85221455Y-48610359D01*
X85314587Y-48749740D01*
X85378737Y-48904612D01*
X85411440Y-49069024D01*
X85411440Y-49236656D01*
X85378737Y-49401068D01*
X85314587Y-49555940D01*
X85221455Y-49695321D01*
X85102921Y-49813855D01*
X84963540Y-49906987D01*
X84808668Y-49971137D01*
X84644256Y-50003840D01*
X84476624Y-50003840D01*
X84312212Y-49971137D01*
X84157340Y-49906987D01*
X84017959Y-49813855D01*
X83899425Y-49695321D01*
X83806293Y-49555940D01*
X83742143Y-49401068D01*
X83709440Y-49236656D01*
X83709440Y-49069024D01*
X83742143Y-48904612D01*
X83806293Y-48749740D01*
X83899425Y-48610359D01*
X84017959Y-48491825D01*
X84157340Y-48398693D01*
X84312212Y-48334543D01*
X84476624Y-48301840D01*
X84644256Y-48301840D01*
X84808668Y-48334543D01*
G37*
G36*
X89888668Y-48334543D02*
G01*
X90043540Y-48398693D01*
X90182921Y-48491825D01*
X90301455Y-48610359D01*
X90394587Y-48749740D01*
X90458737Y-48904612D01*
X90491440Y-49069024D01*
X90491440Y-49236656D01*
X90458737Y-49401068D01*
X90394587Y-49555940D01*
X90301455Y-49695321D01*
X90182921Y-49813855D01*
X90043540Y-49906987D01*
X89888668Y-49971137D01*
X89724256Y-50003840D01*
X89556624Y-50003840D01*
X89392212Y-49971137D01*
X89237340Y-49906987D01*
X89097959Y-49813855D01*
X88979425Y-49695321D01*
X88886293Y-49555940D01*
X88822143Y-49401068D01*
X88789440Y-49236656D01*
X88789440Y-49069024D01*
X88822143Y-48904612D01*
X88886293Y-48749740D01*
X88979425Y-48610359D01*
X89097959Y-48491825D01*
X89237340Y-48398693D01*
X89392212Y-48334543D01*
X89556624Y-48301840D01*
X89724256Y-48301840D01*
X89888668Y-48334543D01*
G37*
G36*
X87348668Y-48334543D02*
G01*
X87503540Y-48398693D01*
X87642921Y-48491825D01*
X87761455Y-48610359D01*
X87854587Y-48749740D01*
X87918737Y-48904612D01*
X87951440Y-49069024D01*
X87951440Y-49236656D01*
X87918737Y-49401068D01*
X87854587Y-49555940D01*
X87761455Y-49695321D01*
X87642921Y-49813855D01*
X87503540Y-49906987D01*
X87348668Y-49971137D01*
X87184256Y-50003840D01*
X87016624Y-50003840D01*
X86852212Y-49971137D01*
X86697340Y-49906987D01*
X86557959Y-49813855D01*
X86439425Y-49695321D01*
X86346293Y-49555940D01*
X86282143Y-49401068D01*
X86249440Y-49236656D01*
X86249440Y-49069024D01*
X86282143Y-48904612D01*
X86346293Y-48749740D01*
X86439425Y-48610359D01*
X86557959Y-48491825D01*
X86697340Y-48398693D01*
X86852212Y-48334543D01*
X87016624Y-48301840D01*
X87184256Y-48301840D01*
X87348668Y-48334543D01*
G37*
G36*
X74648668Y-48334543D02*
G01*
X74803540Y-48398693D01*
X74942921Y-48491825D01*
X75061455Y-48610359D01*
X75154587Y-48749740D01*
X75218737Y-48904612D01*
X75251440Y-49069024D01*
X75251440Y-49236656D01*
X75218737Y-49401068D01*
X75154587Y-49555940D01*
X75061455Y-49695321D01*
X74942921Y-49813855D01*
X74803540Y-49906987D01*
X74648668Y-49971137D01*
X74484256Y-50003840D01*
X74316624Y-50003840D01*
X74152212Y-49971137D01*
X73997340Y-49906987D01*
X73857959Y-49813855D01*
X73739425Y-49695321D01*
X73646293Y-49555940D01*
X73582143Y-49401068D01*
X73549440Y-49236656D01*
X73549440Y-49069024D01*
X73582143Y-48904612D01*
X73646293Y-48749740D01*
X73739425Y-48610359D01*
X73857959Y-48491825D01*
X73997340Y-48398693D01*
X74152212Y-48334543D01*
X74316624Y-48301840D01*
X74484256Y-48301840D01*
X74648668Y-48334543D01*
G37*
G36*
X93031440Y-50003840D02*
G01*
X91329440Y-50003840D01*
X91329440Y-48301840D01*
X93031440Y-48301840D01*
X93031440Y-50003840D01*
G37*
G36*
X19912284Y-47550467D02*
G01*
X19948824Y-47561552D01*
X19982501Y-47579553D01*
X20012021Y-47603779D01*
X20036247Y-47633299D01*
X20054248Y-47666976D01*
X20065333Y-47703516D01*
X20069680Y-47747658D01*
X20069680Y-49196582D01*
X20065333Y-49240724D01*
X20054248Y-49277264D01*
X20036247Y-49310941D01*
X20012021Y-49340461D01*
X19982501Y-49364687D01*
X19948824Y-49382688D01*
X19912284Y-49393773D01*
X19868142Y-49398120D01*
X18919218Y-49398120D01*
X18875076Y-49393773D01*
X18838536Y-49382688D01*
X18804859Y-49364687D01*
X18775339Y-49340461D01*
X18751113Y-49310941D01*
X18733112Y-49277264D01*
X18722027Y-49240724D01*
X18717680Y-49196582D01*
X18717680Y-47747658D01*
X18722027Y-47703516D01*
X18733112Y-47666976D01*
X18751113Y-47633299D01*
X18775339Y-47603779D01*
X18804859Y-47579553D01*
X18838536Y-47561552D01*
X18875076Y-47550467D01*
X18919218Y-47546120D01*
X19868142Y-47546120D01*
X19912284Y-47550467D01*
G37*
G36*
X22712284Y-47550467D02*
G01*
X22748824Y-47561552D01*
X22782501Y-47579553D01*
X22812021Y-47603779D01*
X22836247Y-47633299D01*
X22854248Y-47666976D01*
X22865333Y-47703516D01*
X22869680Y-47747658D01*
X22869680Y-49196582D01*
X22865333Y-49240724D01*
X22854248Y-49277264D01*
X22836247Y-49310941D01*
X22812021Y-49340461D01*
X22782501Y-49364687D01*
X22748824Y-49382688D01*
X22712284Y-49393773D01*
X22668142Y-49398120D01*
X21719218Y-49398120D01*
X21675076Y-49393773D01*
X21638536Y-49382688D01*
X21604859Y-49364687D01*
X21575339Y-49340461D01*
X21551113Y-49310941D01*
X21533112Y-49277264D01*
X21522027Y-49240724D01*
X21517680Y-49196582D01*
X21517680Y-47747658D01*
X21522027Y-47703516D01*
X21533112Y-47666976D01*
X21551113Y-47633299D01*
X21575339Y-47603779D01*
X21604859Y-47579553D01*
X21638536Y-47561552D01*
X21675076Y-47550467D01*
X21719218Y-47546120D01*
X22668142Y-47546120D01*
X22712284Y-47550467D01*
G37*
G36*
X44489324Y-47499667D02*
G01*
X44525864Y-47510752D01*
X44559541Y-47528753D01*
X44589061Y-47552979D01*
X44613287Y-47582499D01*
X44631288Y-47616176D01*
X44642373Y-47652716D01*
X44646720Y-47696858D01*
X44646720Y-49145782D01*
X44642373Y-49189924D01*
X44631288Y-49226464D01*
X44613287Y-49260141D01*
X44589061Y-49289661D01*
X44559541Y-49313887D01*
X44525864Y-49331888D01*
X44489324Y-49342973D01*
X44445182Y-49347320D01*
X43496258Y-49347320D01*
X43452116Y-49342973D01*
X43415576Y-49331888D01*
X43381899Y-49313887D01*
X43352379Y-49289661D01*
X43328153Y-49260141D01*
X43310152Y-49226464D01*
X43299067Y-49189924D01*
X43294720Y-49145782D01*
X43294720Y-47696858D01*
X43299067Y-47652716D01*
X43310152Y-47616176D01*
X43328153Y-47582499D01*
X43352379Y-47552979D01*
X43381899Y-47528753D01*
X43415576Y-47510752D01*
X43452116Y-47499667D01*
X43496258Y-47495320D01*
X44445182Y-47495320D01*
X44489324Y-47499667D01*
G37*
G36*
X47289324Y-47499667D02*
G01*
X47325864Y-47510752D01*
X47359541Y-47528753D01*
X47389061Y-47552979D01*
X47413287Y-47582499D01*
X47431288Y-47616176D01*
X47442373Y-47652716D01*
X47446720Y-47696858D01*
X47446720Y-49145782D01*
X47442373Y-49189924D01*
X47431288Y-49226464D01*
X47413287Y-49260141D01*
X47389061Y-49289661D01*
X47359541Y-49313887D01*
X47325864Y-49331888D01*
X47289324Y-49342973D01*
X47245182Y-49347320D01*
X46296258Y-49347320D01*
X46252116Y-49342973D01*
X46215576Y-49331888D01*
X46181899Y-49313887D01*
X46152379Y-49289661D01*
X46128153Y-49260141D01*
X46110152Y-49226464D01*
X46099067Y-49189924D01*
X46094720Y-49145782D01*
X46094720Y-47696858D01*
X46099067Y-47652716D01*
X46110152Y-47616176D01*
X46128153Y-47582499D01*
X46152379Y-47552979D01*
X46181899Y-47528753D01*
X46215576Y-47510752D01*
X46252116Y-47499667D01*
X46296258Y-47495320D01*
X47245182Y-47495320D01*
X47289324Y-47499667D01*
G37*
G36*
X41276867Y-47657961D02*
G01*
X41356496Y-47665804D01*
X41480816Y-47703516D01*
X41509750Y-47712293D01*
X41650983Y-47787784D01*
X41774779Y-47889381D01*
X41876376Y-48013177D01*
X41951867Y-48154410D01*
X41951868Y-48154413D01*
X41998356Y-48307664D01*
X42014053Y-48467040D01*
X41998356Y-48626416D01*
X41973235Y-48709228D01*
X41951867Y-48779670D01*
X41876376Y-48920903D01*
X41774779Y-49044699D01*
X41650983Y-49146296D01*
X41509750Y-49221787D01*
X41509747Y-49221788D01*
X41356496Y-49268276D01*
X41276867Y-49276119D01*
X41237054Y-49280040D01*
X40157186Y-49280040D01*
X40117373Y-49276119D01*
X40037744Y-49268276D01*
X39884493Y-49221788D01*
X39884490Y-49221787D01*
X39743257Y-49146296D01*
X39619461Y-49044699D01*
X39517864Y-48920903D01*
X39442373Y-48779670D01*
X39421005Y-48709228D01*
X39395884Y-48626416D01*
X39380187Y-48467040D01*
X39395884Y-48307664D01*
X39442372Y-48154413D01*
X39442373Y-48154410D01*
X39517864Y-48013177D01*
X39619461Y-47889381D01*
X39743257Y-47787784D01*
X39884490Y-47712293D01*
X39913424Y-47703516D01*
X40037744Y-47665804D01*
X40117373Y-47657961D01*
X40157186Y-47654040D01*
X41237054Y-47654040D01*
X41276867Y-47657961D01*
G37*
G36*
X26036867Y-47657961D02*
G01*
X26116496Y-47665804D01*
X26240816Y-47703516D01*
X26269750Y-47712293D01*
X26410983Y-47787784D01*
X26534779Y-47889381D01*
X26636376Y-48013177D01*
X26711867Y-48154410D01*
X26711868Y-48154413D01*
X26758356Y-48307664D01*
X26774053Y-48467040D01*
X26758356Y-48626416D01*
X26733235Y-48709228D01*
X26711867Y-48779670D01*
X26636376Y-48920903D01*
X26534779Y-49044699D01*
X26410983Y-49146296D01*
X26269750Y-49221787D01*
X26269747Y-49221788D01*
X26116496Y-49268276D01*
X26036867Y-49276119D01*
X25997054Y-49280040D01*
X24917186Y-49280040D01*
X24877373Y-49276119D01*
X24797744Y-49268276D01*
X24644493Y-49221788D01*
X24644490Y-49221787D01*
X24503257Y-49146296D01*
X24379461Y-49044699D01*
X24277864Y-48920903D01*
X24202373Y-48779670D01*
X24181005Y-48709228D01*
X24155884Y-48626416D01*
X24140187Y-48467040D01*
X24155884Y-48307664D01*
X24202372Y-48154413D01*
X24202373Y-48154410D01*
X24277864Y-48013177D01*
X24379461Y-47889381D01*
X24503257Y-47787784D01*
X24644490Y-47712293D01*
X24673424Y-47703516D01*
X24797744Y-47665804D01*
X24877373Y-47657961D01*
X24917186Y-47654040D01*
X25997054Y-47654040D01*
X26036867Y-47657961D01*
G37*
G36*
X26036867Y-45117961D02*
G01*
X26116496Y-45125804D01*
X26269747Y-45172292D01*
X26269750Y-45172293D01*
X26410983Y-45247784D01*
X26534779Y-45349381D01*
X26636376Y-45473177D01*
X26711867Y-45614410D01*
X26711868Y-45614413D01*
X26758356Y-45767664D01*
X26774053Y-45927040D01*
X26758356Y-46086416D01*
X26750242Y-46113163D01*
X26711867Y-46239670D01*
X26636376Y-46380903D01*
X26534779Y-46504699D01*
X26410983Y-46606296D01*
X26269750Y-46681787D01*
X26269747Y-46681788D01*
X26116496Y-46728276D01*
X26036867Y-46736119D01*
X25997054Y-46740040D01*
X24917186Y-46740040D01*
X24877373Y-46736119D01*
X24797744Y-46728276D01*
X24644493Y-46681788D01*
X24644490Y-46681787D01*
X24503257Y-46606296D01*
X24379461Y-46504699D01*
X24277864Y-46380903D01*
X24202373Y-46239670D01*
X24163998Y-46113163D01*
X24155884Y-46086416D01*
X24140187Y-45927040D01*
X24155884Y-45767664D01*
X24202372Y-45614413D01*
X24202373Y-45614410D01*
X24277864Y-45473177D01*
X24379461Y-45349381D01*
X24503257Y-45247784D01*
X24644490Y-45172293D01*
X24644493Y-45172292D01*
X24797744Y-45125804D01*
X24877373Y-45117961D01*
X24917186Y-45114040D01*
X25997054Y-45114040D01*
X26036867Y-45117961D01*
G37*
G36*
X41276867Y-45117961D02*
G01*
X41356496Y-45125804D01*
X41509747Y-45172292D01*
X41509750Y-45172293D01*
X41650983Y-45247784D01*
X41774779Y-45349381D01*
X41876376Y-45473177D01*
X41951867Y-45614410D01*
X41951868Y-45614413D01*
X41998356Y-45767664D01*
X42014053Y-45927040D01*
X41998356Y-46086416D01*
X41990242Y-46113163D01*
X41951867Y-46239670D01*
X41876376Y-46380903D01*
X41774779Y-46504699D01*
X41650983Y-46606296D01*
X41509750Y-46681787D01*
X41509747Y-46681788D01*
X41356496Y-46728276D01*
X41276867Y-46736119D01*
X41237054Y-46740040D01*
X40157186Y-46740040D01*
X40117373Y-46736119D01*
X40037744Y-46728276D01*
X39884493Y-46681788D01*
X39884490Y-46681787D01*
X39743257Y-46606296D01*
X39619461Y-46504699D01*
X39517864Y-46380903D01*
X39442373Y-46239670D01*
X39403998Y-46113163D01*
X39395884Y-46086416D01*
X39380187Y-45927040D01*
X39395884Y-45767664D01*
X39442372Y-45614413D01*
X39442373Y-45614410D01*
X39517864Y-45473177D01*
X39619461Y-45349381D01*
X39743257Y-45247784D01*
X39884490Y-45172293D01*
X39884493Y-45172292D01*
X40037744Y-45125804D01*
X40117373Y-45117961D01*
X40157186Y-45114040D01*
X41237054Y-45114040D01*
X41276867Y-45117961D01*
G37*
G36*
X101027007Y-43611156D02*
G01*
X101240698Y-43699670D01*
X101263775Y-43709229D01*
X101476859Y-43851607D01*
X101658073Y-44032821D01*
X101794494Y-44236989D01*
X101800452Y-44245907D01*
X101898524Y-44482673D01*
X101948520Y-44734021D01*
X101948520Y-44990299D01*
X101898524Y-45241647D01*
X101853899Y-45349381D01*
X101800451Y-45478415D01*
X101658073Y-45691499D01*
X101476859Y-45872713D01*
X101263775Y-46015091D01*
X101263774Y-46015092D01*
X101263773Y-46015092D01*
X101027007Y-46113164D01*
X100775659Y-46163160D01*
X100519381Y-46163160D01*
X100268033Y-46113164D01*
X100031267Y-46015092D01*
X100031266Y-46015092D01*
X100031265Y-46015091D01*
X99818181Y-45872713D01*
X99636967Y-45691499D01*
X99494589Y-45478415D01*
X99441141Y-45349381D01*
X99396516Y-45241647D01*
X99346520Y-44990299D01*
X99346520Y-44734021D01*
X99396516Y-44482673D01*
X99494588Y-44245907D01*
X99500547Y-44236989D01*
X99636967Y-44032821D01*
X99818181Y-43851607D01*
X100031265Y-43709229D01*
X100054342Y-43699670D01*
X100268033Y-43611156D01*
X100519381Y-43561160D01*
X100775659Y-43561160D01*
X101027007Y-43611156D01*
G37*
G36*
X20069764Y-42480627D02*
G01*
X20106304Y-42491712D01*
X20139981Y-42509713D01*
X20169501Y-42533939D01*
X20193727Y-42563459D01*
X20211728Y-42597136D01*
X20222813Y-42633676D01*
X20227160Y-42677818D01*
X20227160Y-44126742D01*
X20222813Y-44170884D01*
X20211728Y-44207424D01*
X20193727Y-44241101D01*
X20169501Y-44270621D01*
X20139981Y-44294847D01*
X20106304Y-44312848D01*
X20069764Y-44323933D01*
X20025622Y-44328280D01*
X19076698Y-44328280D01*
X19032556Y-44323933D01*
X18996016Y-44312848D01*
X18962339Y-44294847D01*
X18932819Y-44270621D01*
X18908593Y-44241101D01*
X18890592Y-44207424D01*
X18879507Y-44170884D01*
X18875160Y-44126742D01*
X18875160Y-42677818D01*
X18879507Y-42633676D01*
X18890592Y-42597136D01*
X18908593Y-42563459D01*
X18932819Y-42533939D01*
X18962339Y-42509713D01*
X18996016Y-42491712D01*
X19032556Y-42480627D01*
X19076698Y-42476280D01*
X20025622Y-42476280D01*
X20069764Y-42480627D01*
G37*
G36*
X22869764Y-42480627D02*
G01*
X22906304Y-42491712D01*
X22939981Y-42509713D01*
X22969501Y-42533939D01*
X22993727Y-42563459D01*
X23011728Y-42597136D01*
X23022813Y-42633676D01*
X23027160Y-42677818D01*
X23027160Y-44126742D01*
X23022813Y-44170884D01*
X23011728Y-44207424D01*
X22993727Y-44241101D01*
X22969501Y-44270621D01*
X22939981Y-44294847D01*
X22906304Y-44312848D01*
X22869764Y-44323933D01*
X22825622Y-44328280D01*
X21876698Y-44328280D01*
X21832556Y-44323933D01*
X21796016Y-44312848D01*
X21762339Y-44294847D01*
X21732819Y-44270621D01*
X21708593Y-44241101D01*
X21690592Y-44207424D01*
X21679507Y-44170884D01*
X21675160Y-44126742D01*
X21675160Y-42677818D01*
X21679507Y-42633676D01*
X21690592Y-42597136D01*
X21708593Y-42563459D01*
X21732819Y-42533939D01*
X21762339Y-42509713D01*
X21796016Y-42491712D01*
X21832556Y-42480627D01*
X21876698Y-42476280D01*
X22825622Y-42476280D01*
X22869764Y-42480627D01*
G37*
G36*
X47248684Y-42434907D02*
G01*
X47285224Y-42445992D01*
X47318901Y-42463993D01*
X47348421Y-42488219D01*
X47372647Y-42517739D01*
X47390648Y-42551416D01*
X47401733Y-42587956D01*
X47406080Y-42632098D01*
X47406080Y-44081022D01*
X47401733Y-44125164D01*
X47390648Y-44161704D01*
X47372647Y-44195381D01*
X47348421Y-44224901D01*
X47318901Y-44249127D01*
X47285224Y-44267128D01*
X47248684Y-44278213D01*
X47204542Y-44282560D01*
X46255618Y-44282560D01*
X46211476Y-44278213D01*
X46174936Y-44267128D01*
X46141259Y-44249127D01*
X46111739Y-44224901D01*
X46087513Y-44195381D01*
X46069512Y-44161704D01*
X46058427Y-44125164D01*
X46054080Y-44081022D01*
X46054080Y-42632098D01*
X46058427Y-42587956D01*
X46069512Y-42551416D01*
X46087513Y-42517739D01*
X46111739Y-42488219D01*
X46141259Y-42463993D01*
X46174936Y-42445992D01*
X46211476Y-42434907D01*
X46255618Y-42430560D01*
X47204542Y-42430560D01*
X47248684Y-42434907D01*
G37*
G36*
X44448684Y-42434907D02*
G01*
X44485224Y-42445992D01*
X44518901Y-42463993D01*
X44548421Y-42488219D01*
X44572647Y-42517739D01*
X44590648Y-42551416D01*
X44601733Y-42587956D01*
X44606080Y-42632098D01*
X44606080Y-44081022D01*
X44601733Y-44125164D01*
X44590648Y-44161704D01*
X44572647Y-44195381D01*
X44548421Y-44224901D01*
X44518901Y-44249127D01*
X44485224Y-44267128D01*
X44448684Y-44278213D01*
X44404542Y-44282560D01*
X43455618Y-44282560D01*
X43411476Y-44278213D01*
X43374936Y-44267128D01*
X43341259Y-44249127D01*
X43311739Y-44224901D01*
X43287513Y-44195381D01*
X43269512Y-44161704D01*
X43258427Y-44125164D01*
X43254080Y-44081022D01*
X43254080Y-42632098D01*
X43258427Y-42587956D01*
X43269512Y-42551416D01*
X43287513Y-42517739D01*
X43311739Y-42488219D01*
X43341259Y-42463993D01*
X43374936Y-42445992D01*
X43411476Y-42434907D01*
X43455618Y-42430560D01*
X44404542Y-42430560D01*
X44448684Y-42434907D01*
G37*
G36*
X41276867Y-42577961D02*
G01*
X41356496Y-42585804D01*
X41509107Y-42632098D01*
X41509750Y-42632293D01*
X41650983Y-42707784D01*
X41774779Y-42809381D01*
X41876376Y-42933177D01*
X41951867Y-43074410D01*
X41951868Y-43074413D01*
X41998356Y-43227664D01*
X42014053Y-43387040D01*
X41998356Y-43546416D01*
X41993883Y-43561160D01*
X41951867Y-43699670D01*
X41876376Y-43840903D01*
X41774779Y-43964699D01*
X41650983Y-44066296D01*
X41509750Y-44141787D01*
X41509747Y-44141788D01*
X41356496Y-44188276D01*
X41284357Y-44195381D01*
X41237054Y-44200040D01*
X40157186Y-44200040D01*
X40109883Y-44195381D01*
X40037744Y-44188276D01*
X39884493Y-44141788D01*
X39884490Y-44141787D01*
X39743257Y-44066296D01*
X39619461Y-43964699D01*
X39517864Y-43840903D01*
X39442373Y-43699670D01*
X39400357Y-43561160D01*
X39395884Y-43546416D01*
X39380187Y-43387040D01*
X39395884Y-43227664D01*
X39442372Y-43074413D01*
X39442373Y-43074410D01*
X39517864Y-42933177D01*
X39619461Y-42809381D01*
X39743257Y-42707784D01*
X39884490Y-42632293D01*
X39885133Y-42632098D01*
X40037744Y-42585804D01*
X40117373Y-42577961D01*
X40157186Y-42574040D01*
X41237054Y-42574040D01*
X41276867Y-42577961D01*
G37*
G36*
X26036867Y-42577961D02*
G01*
X26116496Y-42585804D01*
X26269107Y-42632098D01*
X26269750Y-42632293D01*
X26410983Y-42707784D01*
X26534779Y-42809381D01*
X26636376Y-42933177D01*
X26711867Y-43074410D01*
X26711868Y-43074413D01*
X26758356Y-43227664D01*
X26774053Y-43387040D01*
X26758356Y-43546416D01*
X26753883Y-43561160D01*
X26711867Y-43699670D01*
X26636376Y-43840903D01*
X26534779Y-43964699D01*
X26410983Y-44066296D01*
X26269750Y-44141787D01*
X26269747Y-44141788D01*
X26116496Y-44188276D01*
X26044357Y-44195381D01*
X25997054Y-44200040D01*
X24917186Y-44200040D01*
X24869883Y-44195381D01*
X24797744Y-44188276D01*
X24644493Y-44141788D01*
X24644490Y-44141787D01*
X24503257Y-44066296D01*
X24379461Y-43964699D01*
X24277864Y-43840903D01*
X24202373Y-43699670D01*
X24160357Y-43561160D01*
X24155884Y-43546416D01*
X24140187Y-43387040D01*
X24155884Y-43227664D01*
X24202372Y-43074413D01*
X24202373Y-43074410D01*
X24277864Y-42933177D01*
X24379461Y-42809381D01*
X24503257Y-42707784D01*
X24644490Y-42632293D01*
X24645133Y-42632098D01*
X24797744Y-42585804D01*
X24877373Y-42577961D01*
X24917186Y-42574040D01*
X25997054Y-42574040D01*
X26036867Y-42577961D01*
G37*
G36*
X75560432Y-40179567D02*
G01*
X75709732Y-40209264D01*
X75873704Y-40277184D01*
X76021274Y-40375787D01*
X76146773Y-40501286D01*
X76245376Y-40648856D01*
X76313296Y-40812828D01*
X76347920Y-40986899D01*
X76347920Y-41164381D01*
X76313296Y-41338452D01*
X76245376Y-41502424D01*
X76146773Y-41649994D01*
X76021274Y-41775493D01*
X75873704Y-41874096D01*
X75709732Y-41942016D01*
X75560432Y-41971713D01*
X75535662Y-41976640D01*
X75358178Y-41976640D01*
X75333408Y-41971713D01*
X75184108Y-41942016D01*
X75020136Y-41874096D01*
X74872566Y-41775493D01*
X74747067Y-41649994D01*
X74648464Y-41502424D01*
X74580544Y-41338452D01*
X74545920Y-41164381D01*
X74545920Y-40986899D01*
X74580544Y-40812828D01*
X74648464Y-40648856D01*
X74747067Y-40501286D01*
X74872566Y-40375787D01*
X75020136Y-40277184D01*
X75184108Y-40209264D01*
X75333408Y-40179567D01*
X75358178Y-40174640D01*
X75535662Y-40174640D01*
X75560432Y-40179567D01*
G37*
G36*
X80640432Y-40179567D02*
G01*
X80789732Y-40209264D01*
X80953704Y-40277184D01*
X81101274Y-40375787D01*
X81226773Y-40501286D01*
X81325376Y-40648856D01*
X81393296Y-40812828D01*
X81427920Y-40986899D01*
X81427920Y-41164381D01*
X81393296Y-41338452D01*
X81325376Y-41502424D01*
X81226773Y-41649994D01*
X81101274Y-41775493D01*
X80953704Y-41874096D01*
X80789732Y-41942016D01*
X80640432Y-41971713D01*
X80615662Y-41976640D01*
X80438178Y-41976640D01*
X80413408Y-41971713D01*
X80264108Y-41942016D01*
X80100136Y-41874096D01*
X79952566Y-41775493D01*
X79827067Y-41649994D01*
X79728464Y-41502424D01*
X79660544Y-41338452D01*
X79625920Y-41164381D01*
X79625920Y-40986899D01*
X79660544Y-40812828D01*
X79728464Y-40648856D01*
X79827067Y-40501286D01*
X79952566Y-40375787D01*
X80100136Y-40277184D01*
X80264108Y-40209264D01*
X80413408Y-40179567D01*
X80438178Y-40174640D01*
X80615662Y-40174640D01*
X80640432Y-40179567D01*
G37*
G36*
X78100432Y-40179567D02*
G01*
X78249732Y-40209264D01*
X78413704Y-40277184D01*
X78561274Y-40375787D01*
X78686773Y-40501286D01*
X78785376Y-40648856D01*
X78853296Y-40812828D01*
X78887920Y-40986899D01*
X78887920Y-41164381D01*
X78853296Y-41338452D01*
X78785376Y-41502424D01*
X78686773Y-41649994D01*
X78561274Y-41775493D01*
X78413704Y-41874096D01*
X78249732Y-41942016D01*
X78100432Y-41971713D01*
X78075662Y-41976640D01*
X77898178Y-41976640D01*
X77873408Y-41971713D01*
X77724108Y-41942016D01*
X77560136Y-41874096D01*
X77412566Y-41775493D01*
X77287067Y-41649994D01*
X77188464Y-41502424D01*
X77120544Y-41338452D01*
X77085920Y-41164381D01*
X77085920Y-40986899D01*
X77120544Y-40812828D01*
X77188464Y-40648856D01*
X77287067Y-40501286D01*
X77412566Y-40375787D01*
X77560136Y-40277184D01*
X77724108Y-40209264D01*
X77873408Y-40179567D01*
X77898178Y-40174640D01*
X78075662Y-40174640D01*
X78100432Y-40179567D01*
G37*
G36*
X73807920Y-41976640D02*
G01*
X72005920Y-41976640D01*
X72005920Y-40174640D01*
X73807920Y-40174640D01*
X73807920Y-41976640D01*
G37*
G36*
X22747844Y-39925387D02*
G01*
X22784384Y-39936472D01*
X22818061Y-39954473D01*
X22847581Y-39978699D01*
X22871807Y-40008219D01*
X22889808Y-40041896D01*
X22900893Y-40078436D01*
X22905240Y-40122578D01*
X22905240Y-41571502D01*
X22900893Y-41615644D01*
X22889808Y-41652184D01*
X22871807Y-41685861D01*
X22847581Y-41715381D01*
X22818061Y-41739607D01*
X22784384Y-41757608D01*
X22747844Y-41768693D01*
X22703702Y-41773040D01*
X21754778Y-41773040D01*
X21710636Y-41768693D01*
X21674096Y-41757608D01*
X21640419Y-41739607D01*
X21610899Y-41715381D01*
X21586673Y-41685861D01*
X21568672Y-41652184D01*
X21557587Y-41615644D01*
X21553240Y-41571502D01*
X21553240Y-40122578D01*
X21557587Y-40078436D01*
X21568672Y-40041896D01*
X21586673Y-40008219D01*
X21610899Y-39978699D01*
X21640419Y-39954473D01*
X21674096Y-39936472D01*
X21710636Y-39925387D01*
X21754778Y-39921040D01*
X22703702Y-39921040D01*
X22747844Y-39925387D01*
G37*
G36*
X19947844Y-39925387D02*
G01*
X19984384Y-39936472D01*
X20018061Y-39954473D01*
X20047581Y-39978699D01*
X20071807Y-40008219D01*
X20089808Y-40041896D01*
X20100893Y-40078436D01*
X20105240Y-40122578D01*
X20105240Y-41571502D01*
X20100893Y-41615644D01*
X20089808Y-41652184D01*
X20071807Y-41685861D01*
X20047581Y-41715381D01*
X20018061Y-41739607D01*
X19984384Y-41757608D01*
X19947844Y-41768693D01*
X19903702Y-41773040D01*
X18954778Y-41773040D01*
X18910636Y-41768693D01*
X18874096Y-41757608D01*
X18840419Y-41739607D01*
X18810899Y-41715381D01*
X18786673Y-41685861D01*
X18768672Y-41652184D01*
X18757587Y-41615644D01*
X18753240Y-41571502D01*
X18753240Y-40122578D01*
X18757587Y-40078436D01*
X18768672Y-40041896D01*
X18786673Y-40008219D01*
X18810899Y-39978699D01*
X18840419Y-39954473D01*
X18874096Y-39936472D01*
X18910636Y-39925387D01*
X18954778Y-39921040D01*
X19903702Y-39921040D01*
X19947844Y-39925387D01*
G37*
G36*
X44448684Y-39910147D02*
G01*
X44485224Y-39921232D01*
X44518901Y-39939233D01*
X44548421Y-39963459D01*
X44572647Y-39992979D01*
X44590648Y-40026656D01*
X44601733Y-40063196D01*
X44606080Y-40107338D01*
X44606080Y-41556262D01*
X44601733Y-41600404D01*
X44590648Y-41636944D01*
X44572647Y-41670621D01*
X44548421Y-41700141D01*
X44518901Y-41724367D01*
X44485224Y-41742368D01*
X44448684Y-41753453D01*
X44404542Y-41757800D01*
X43455618Y-41757800D01*
X43411476Y-41753453D01*
X43374936Y-41742368D01*
X43341259Y-41724367D01*
X43311739Y-41700141D01*
X43287513Y-41670621D01*
X43269512Y-41636944D01*
X43258427Y-41600404D01*
X43254080Y-41556262D01*
X43254080Y-40107338D01*
X43258427Y-40063196D01*
X43269512Y-40026656D01*
X43287513Y-39992979D01*
X43311739Y-39963459D01*
X43341259Y-39939233D01*
X43374936Y-39921232D01*
X43411476Y-39910147D01*
X43455618Y-39905800D01*
X44404542Y-39905800D01*
X44448684Y-39910147D01*
G37*
G36*
X47248684Y-39910147D02*
G01*
X47285224Y-39921232D01*
X47318901Y-39939233D01*
X47348421Y-39963459D01*
X47372647Y-39992979D01*
X47390648Y-40026656D01*
X47401733Y-40063196D01*
X47406080Y-40107338D01*
X47406080Y-41556262D01*
X47401733Y-41600404D01*
X47390648Y-41636944D01*
X47372647Y-41670621D01*
X47348421Y-41700141D01*
X47318901Y-41724367D01*
X47285224Y-41742368D01*
X47248684Y-41753453D01*
X47204542Y-41757800D01*
X46255618Y-41757800D01*
X46211476Y-41753453D01*
X46174936Y-41742368D01*
X46141259Y-41724367D01*
X46111739Y-41700141D01*
X46087513Y-41670621D01*
X46069512Y-41636944D01*
X46058427Y-41600404D01*
X46054080Y-41556262D01*
X46054080Y-40107338D01*
X46058427Y-40063196D01*
X46069512Y-40026656D01*
X46087513Y-39992979D01*
X46111739Y-39963459D01*
X46141259Y-39939233D01*
X46174936Y-39921232D01*
X46211476Y-39910147D01*
X46255618Y-39905800D01*
X47204542Y-39905800D01*
X47248684Y-39910147D01*
G37*
G36*
X41276867Y-40037961D02*
G01*
X41356496Y-40045804D01*
X41509747Y-40092292D01*
X41509750Y-40092293D01*
X41650983Y-40167784D01*
X41774779Y-40269381D01*
X41876376Y-40393177D01*
X41951867Y-40534410D01*
X41951868Y-40534413D01*
X41998356Y-40687664D01*
X42014053Y-40847040D01*
X41998356Y-41006416D01*
X41954600Y-41150661D01*
X41951867Y-41159670D01*
X41876376Y-41300903D01*
X41774779Y-41424699D01*
X41650983Y-41526296D01*
X41509750Y-41601787D01*
X41509747Y-41601788D01*
X41356496Y-41648276D01*
X41276867Y-41656119D01*
X41237054Y-41660040D01*
X40157186Y-41660040D01*
X40117373Y-41656119D01*
X40037744Y-41648276D01*
X39884493Y-41601788D01*
X39884490Y-41601787D01*
X39743257Y-41526296D01*
X39619461Y-41424699D01*
X39517864Y-41300903D01*
X39442373Y-41159670D01*
X39439640Y-41150661D01*
X39395884Y-41006416D01*
X39380187Y-40847040D01*
X39395884Y-40687664D01*
X39442372Y-40534413D01*
X39442373Y-40534410D01*
X39517864Y-40393177D01*
X39619461Y-40269381D01*
X39743257Y-40167784D01*
X39884490Y-40092293D01*
X39884493Y-40092292D01*
X40037744Y-40045804D01*
X40117373Y-40037961D01*
X40157186Y-40034040D01*
X41237054Y-40034040D01*
X41276867Y-40037961D01*
G37*
G36*
X26036867Y-40037961D02*
G01*
X26116496Y-40045804D01*
X26269747Y-40092292D01*
X26269750Y-40092293D01*
X26410983Y-40167784D01*
X26534779Y-40269381D01*
X26636376Y-40393177D01*
X26711867Y-40534410D01*
X26711868Y-40534413D01*
X26758356Y-40687664D01*
X26774053Y-40847040D01*
X26758356Y-41006416D01*
X26714600Y-41150661D01*
X26711867Y-41159670D01*
X26636376Y-41300903D01*
X26534779Y-41424699D01*
X26410983Y-41526296D01*
X26269750Y-41601787D01*
X26269747Y-41601788D01*
X26116496Y-41648276D01*
X26036867Y-41656119D01*
X25997054Y-41660040D01*
X24917186Y-41660040D01*
X24877373Y-41656119D01*
X24797744Y-41648276D01*
X24644493Y-41601788D01*
X24644490Y-41601787D01*
X24503257Y-41526296D01*
X24379461Y-41424699D01*
X24277864Y-41300903D01*
X24202373Y-41159670D01*
X24199640Y-41150661D01*
X24155884Y-41006416D01*
X24140187Y-40847040D01*
X24155884Y-40687664D01*
X24202372Y-40534413D01*
X24202373Y-40534410D01*
X24277864Y-40393177D01*
X24379461Y-40269381D01*
X24503257Y-40167784D01*
X24644490Y-40092293D01*
X24644493Y-40092292D01*
X24797744Y-40045804D01*
X24877373Y-40037961D01*
X24917186Y-40034040D01*
X25997054Y-40034040D01*
X26036867Y-40037961D01*
G37*
G36*
X101475113Y-38573051D02*
G01*
X101585309Y-38606479D01*
X101686858Y-38660758D01*
X101775871Y-38733809D01*
X101848922Y-38822822D01*
X101903201Y-38924371D01*
X101936629Y-39034567D01*
X101948520Y-39155300D01*
X101948520Y-40569020D01*
X101936629Y-40689753D01*
X101903201Y-40799949D01*
X101848922Y-40901498D01*
X101775871Y-40990511D01*
X101686858Y-41063562D01*
X101585309Y-41117841D01*
X101475113Y-41151269D01*
X101354380Y-41163160D01*
X99940660Y-41163160D01*
X99819927Y-41151269D01*
X99709731Y-41117841D01*
X99608182Y-41063562D01*
X99519169Y-40990511D01*
X99446118Y-40901498D01*
X99391839Y-40799949D01*
X99358411Y-40689753D01*
X99346520Y-40569020D01*
X99346520Y-39155300D01*
X99358411Y-39034567D01*
X99391839Y-38924371D01*
X99446118Y-38822822D01*
X99519169Y-38733809D01*
X99608182Y-38660758D01*
X99709731Y-38606479D01*
X99819927Y-38573051D01*
X99940660Y-38561160D01*
X101354380Y-38561160D01*
X101475113Y-38573051D01*
G37*
G36*
X55379560Y-36411720D02*
G01*
X53177560Y-36411720D01*
X53177560Y-34909720D01*
X55379560Y-34909720D01*
X55379560Y-36411720D01*
G37*
G36*
X46451527Y-33191916D02*
G01*
X46688293Y-33289988D01*
X46688295Y-33289989D01*
X46780279Y-33351451D01*
X46901379Y-33432367D01*
X47082593Y-33613581D01*
X47224972Y-33826667D01*
X47323044Y-34063433D01*
X47373040Y-34314781D01*
X47373040Y-34571059D01*
X47323044Y-34822407D01*
X47224972Y-35059173D01*
X47224971Y-35059175D01*
X47082593Y-35272259D01*
X46901379Y-35453473D01*
X46688295Y-35595851D01*
X46688294Y-35595852D01*
X46688293Y-35595852D01*
X46451527Y-35693924D01*
X46200179Y-35743920D01*
X45943901Y-35743920D01*
X45692553Y-35693924D01*
X45455787Y-35595852D01*
X45455786Y-35595852D01*
X45455785Y-35595851D01*
X45242701Y-35453473D01*
X45061487Y-35272259D01*
X44919109Y-35059175D01*
X44919108Y-35059173D01*
X44821036Y-34822407D01*
X44771040Y-34571059D01*
X44771040Y-34314781D01*
X44821036Y-34063433D01*
X44919108Y-33826667D01*
X45061487Y-33613581D01*
X45242701Y-33432367D01*
X45363801Y-33351451D01*
X45455785Y-33289989D01*
X45455787Y-33289988D01*
X45692553Y-33191916D01*
X45943901Y-33141920D01*
X46200179Y-33141920D01*
X46451527Y-33191916D01*
G37*
G36*
X34251527Y-33191916D02*
G01*
X34488293Y-33289988D01*
X34488295Y-33289989D01*
X34580279Y-33351451D01*
X34701379Y-33432367D01*
X34882593Y-33613581D01*
X35024972Y-33826667D01*
X35123044Y-34063433D01*
X35173040Y-34314781D01*
X35173040Y-34571059D01*
X35123044Y-34822407D01*
X35024972Y-35059173D01*
X35024971Y-35059175D01*
X34882593Y-35272259D01*
X34701379Y-35453473D01*
X34488295Y-35595851D01*
X34488294Y-35595852D01*
X34488293Y-35595852D01*
X34251527Y-35693924D01*
X34000179Y-35743920D01*
X33743901Y-35743920D01*
X33492553Y-35693924D01*
X33255787Y-35595852D01*
X33255786Y-35595852D01*
X33255785Y-35595851D01*
X33042701Y-35453473D01*
X32861487Y-35272259D01*
X32719109Y-35059175D01*
X32719108Y-35059173D01*
X32621036Y-34822407D01*
X32571040Y-34571059D01*
X32571040Y-34314781D01*
X32621036Y-34063433D01*
X32719108Y-33826667D01*
X32861487Y-33613581D01*
X33042701Y-33432367D01*
X33163801Y-33351451D01*
X33255785Y-33289989D01*
X33255787Y-33289988D01*
X33492553Y-33191916D01*
X33743901Y-33141920D01*
X34000179Y-33141920D01*
X34251527Y-33191916D01*
G37*
G36*
X23211234Y-32753490D02*
G01*
X23243312Y-32763221D01*
X23272875Y-32779023D01*
X23298790Y-32800290D01*
X23320057Y-32826205D01*
X23335859Y-32855768D01*
X23345590Y-32887846D01*
X23349480Y-32927348D01*
X23349480Y-35173852D01*
X23345590Y-35213354D01*
X23335859Y-35245432D01*
X23320057Y-35274995D01*
X23298790Y-35300910D01*
X23272875Y-35322177D01*
X23243312Y-35337979D01*
X23211234Y-35347710D01*
X23171732Y-35351600D01*
X20925228Y-35351600D01*
X20885726Y-35347710D01*
X20853648Y-35337979D01*
X20824085Y-35322177D01*
X20798170Y-35300910D01*
X20776903Y-35274995D01*
X20761101Y-35245432D01*
X20751370Y-35213354D01*
X20747480Y-35173852D01*
X20747480Y-32927348D01*
X20751370Y-32887846D01*
X20761101Y-32855768D01*
X20776903Y-32826205D01*
X20798170Y-32800290D01*
X20824085Y-32779023D01*
X20853648Y-32763221D01*
X20885726Y-32753490D01*
X20925228Y-32749600D01*
X23171732Y-32749600D01*
X23211234Y-32753490D01*
G37*
G36*
X58156124Y-33310227D02*
G01*
X58192664Y-33321312D01*
X58226341Y-33339313D01*
X58255861Y-33363539D01*
X58280087Y-33393059D01*
X58298088Y-33426736D01*
X58309173Y-33463276D01*
X58313520Y-33507418D01*
X58313520Y-34456342D01*
X58309173Y-34500484D01*
X58298088Y-34537024D01*
X58280087Y-34570701D01*
X58255861Y-34600221D01*
X58226341Y-34624447D01*
X58192664Y-34642448D01*
X58156124Y-34653533D01*
X58111982Y-34657880D01*
X56663058Y-34657880D01*
X56618916Y-34653533D01*
X56582376Y-34642448D01*
X56548699Y-34624447D01*
X56519179Y-34600221D01*
X56494953Y-34570701D01*
X56476952Y-34537024D01*
X56465867Y-34500484D01*
X56461520Y-34456342D01*
X56461520Y-33507418D01*
X56465867Y-33463276D01*
X56476952Y-33426736D01*
X56494953Y-33393059D01*
X56519179Y-33363539D01*
X56548699Y-33339313D01*
X56582376Y-33321312D01*
X56618916Y-33310227D01*
X56663058Y-33305880D01*
X58111982Y-33305880D01*
X58156124Y-33310227D01*
G37*
G36*
X86046440Y-33453200D02*
G01*
X84344440Y-33453200D01*
X84344440Y-31751200D01*
X86046440Y-31751200D01*
X86046440Y-33453200D01*
G37*
G36*
X81699840Y-32279820D02*
G01*
X79597840Y-32279820D01*
X79597840Y-30272820D01*
X81699840Y-30272820D01*
X81699840Y-32279820D01*
G37*
G36*
X55379560Y-32011720D02*
G01*
X53177560Y-32011720D01*
X53177560Y-30509720D01*
X55379560Y-30509720D01*
X55379560Y-32011720D01*
G37*
G36*
X58156124Y-30510227D02*
G01*
X58192664Y-30521312D01*
X58226341Y-30539313D01*
X58255861Y-30563539D01*
X58280087Y-30593059D01*
X58298088Y-30626736D01*
X58309173Y-30663276D01*
X58313520Y-30707418D01*
X58313520Y-31656342D01*
X58309173Y-31700484D01*
X58298088Y-31737024D01*
X58280087Y-31770701D01*
X58255861Y-31800221D01*
X58226341Y-31824447D01*
X58192664Y-31842448D01*
X58156124Y-31853533D01*
X58111982Y-31857880D01*
X56663058Y-31857880D01*
X56618916Y-31853533D01*
X56582376Y-31842448D01*
X56548699Y-31824447D01*
X56519179Y-31800221D01*
X56494953Y-31770701D01*
X56476952Y-31737024D01*
X56465867Y-31700484D01*
X56461520Y-31656342D01*
X56461520Y-30707418D01*
X56465867Y-30663276D01*
X56476952Y-30626736D01*
X56494953Y-30593059D01*
X56519179Y-30563539D01*
X56548699Y-30539313D01*
X56582376Y-30521312D01*
X56618916Y-30510227D01*
X56663058Y-30505880D01*
X58111982Y-30505880D01*
X58156124Y-30510227D01*
G37*
G36*
X85443668Y-29783903D02*
G01*
X85598540Y-29848053D01*
X85737921Y-29941185D01*
X85856455Y-30059719D01*
X85949587Y-30199100D01*
X86013737Y-30353972D01*
X86046440Y-30518384D01*
X86046440Y-30686016D01*
X86013737Y-30850428D01*
X85949587Y-31005300D01*
X85856455Y-31144681D01*
X85737921Y-31263215D01*
X85598540Y-31356347D01*
X85443668Y-31420497D01*
X85279256Y-31453200D01*
X85111624Y-31453200D01*
X84947212Y-31420497D01*
X84792340Y-31356347D01*
X84652959Y-31263215D01*
X84534425Y-31144681D01*
X84441293Y-31005300D01*
X84377143Y-30850428D01*
X84344440Y-30686016D01*
X84344440Y-30518384D01*
X84377143Y-30353972D01*
X84441293Y-30199100D01*
X84534425Y-30059719D01*
X84652959Y-29941185D01*
X84792340Y-29848053D01*
X84947212Y-29783903D01*
X85111624Y-29751200D01*
X85279256Y-29751200D01*
X85443668Y-29783903D01*
G37*
G36*
X90044624Y-26410781D02*
G01*
X90260123Y-26476152D01*
X90458721Y-26582304D01*
X90632796Y-26725164D01*
X90775656Y-26899239D01*
X90881808Y-27097837D01*
X90947179Y-27313336D01*
X90963720Y-27481280D01*
X90963720Y-29778000D01*
X90947179Y-29945944D01*
X90881808Y-30161443D01*
X90775656Y-30360041D01*
X90632796Y-30534115D01*
X90458719Y-30676976D01*
X90260122Y-30783128D01*
X90044623Y-30848499D01*
X89820520Y-30870571D01*
X89596416Y-30848499D01*
X89380917Y-30783128D01*
X89182319Y-30676976D01*
X89008245Y-30534116D01*
X88865384Y-30360039D01*
X88759232Y-30161442D01*
X88693861Y-29945943D01*
X88677320Y-29777999D01*
X88677321Y-27481280D01*
X88693862Y-27313336D01*
X88759233Y-27097837D01*
X88865385Y-26899239D01*
X89008245Y-26725164D01*
X89182320Y-26582304D01*
X89380918Y-26476152D01*
X89596417Y-26410781D01*
X89820520Y-26388709D01*
X90044624Y-26410781D01*
G37*
G36*
X96044624Y-26410781D02*
G01*
X96260123Y-26476152D01*
X96458721Y-26582304D01*
X96632796Y-26725164D01*
X96775656Y-26899239D01*
X96881808Y-27097837D01*
X96947179Y-27313336D01*
X96963720Y-27481280D01*
X96963720Y-29778000D01*
X96947179Y-29945944D01*
X96881808Y-30161443D01*
X96775656Y-30360041D01*
X96632796Y-30534115D01*
X96458719Y-30676976D01*
X96260122Y-30783128D01*
X96044623Y-30848499D01*
X95820520Y-30870571D01*
X95596416Y-30848499D01*
X95380917Y-30783128D01*
X95182319Y-30676976D01*
X95008245Y-30534116D01*
X94865384Y-30360039D01*
X94759232Y-30161442D01*
X94693861Y-29945943D01*
X94677320Y-29777999D01*
X94677321Y-27481280D01*
X94693862Y-27313336D01*
X94759233Y-27097837D01*
X94865385Y-26899239D01*
X95008245Y-26725164D01*
X95182320Y-26582304D01*
X95380918Y-26476152D01*
X95596417Y-26410781D01*
X95820520Y-26388709D01*
X96044624Y-26410781D01*
G37*
G36*
X64514171Y-27004531D02*
G01*
X64841932Y-27140294D01*
X65136910Y-27337392D01*
X65387768Y-27588250D01*
X65584866Y-27883228D01*
X65720629Y-28210989D01*
X65789840Y-28558936D01*
X65789840Y-28913704D01*
X65720629Y-29261651D01*
X65584866Y-29589412D01*
X65387768Y-29884390D01*
X65136910Y-30135248D01*
X64841932Y-30332346D01*
X64514171Y-30468109D01*
X64166224Y-30537320D01*
X63811456Y-30537320D01*
X63463509Y-30468109D01*
X63135748Y-30332346D01*
X62840770Y-30135248D01*
X62589912Y-29884390D01*
X62392814Y-29589412D01*
X62257051Y-29261651D01*
X62187840Y-28913704D01*
X62187840Y-28558936D01*
X62257051Y-28210989D01*
X62392814Y-27883228D01*
X62589912Y-27588250D01*
X62840770Y-27337392D01*
X63135748Y-27140294D01*
X63463509Y-27004531D01*
X63811456Y-26935320D01*
X64166224Y-26935320D01*
X64514171Y-27004531D01*
G37*
G36*
X22442552Y-27751518D02*
G01*
X22623045Y-27826280D01*
X22688419Y-27853359D01*
X22755083Y-27897903D01*
X22909691Y-28001209D01*
X23097871Y-28189389D01*
X23171293Y-28299272D01*
X23205482Y-28350439D01*
X23245722Y-28410663D01*
X23347562Y-28656528D01*
X23399480Y-28917537D01*
X23399480Y-29183663D01*
X23347562Y-29444672D01*
X23245722Y-29690537D01*
X23140474Y-29848052D01*
X23097870Y-29911812D01*
X22909692Y-30099990D01*
X22688419Y-30247841D01*
X22688418Y-30247842D01*
X22688417Y-30247842D01*
X22442552Y-30349682D01*
X22181543Y-30401600D01*
X21915417Y-30401600D01*
X21654408Y-30349682D01*
X21408543Y-30247842D01*
X21408542Y-30247842D01*
X21408541Y-30247841D01*
X21187268Y-30099990D01*
X20999090Y-29911812D01*
X20956487Y-29848052D01*
X20851238Y-29690537D01*
X20749398Y-29444672D01*
X20697480Y-29183663D01*
X20697480Y-28917537D01*
X20749398Y-28656528D01*
X20851238Y-28410663D01*
X20891479Y-28350439D01*
X20925667Y-28299272D01*
X20999089Y-28189389D01*
X21187269Y-28001209D01*
X21341877Y-27897903D01*
X21408541Y-27853359D01*
X21473916Y-27826280D01*
X21654408Y-27751518D01*
X21915417Y-27699600D01*
X22181543Y-27699600D01*
X22442552Y-27751518D01*
G37*
G36*
X49373040Y-29743920D02*
G01*
X46771040Y-29743920D01*
X46771040Y-27141920D01*
X49373040Y-27141920D01*
X49373040Y-29743920D01*
G37*
G36*
X80793822Y-27737566D02*
G01*
X80893060Y-27747340D01*
X81082221Y-27804721D01*
X81256552Y-27897903D01*
X81409355Y-28023305D01*
X81534757Y-28176108D01*
X81627939Y-28350439D01*
X81685320Y-28539600D01*
X81704695Y-28736320D01*
X81685320Y-28933040D01*
X81627939Y-29122201D01*
X81534757Y-29296532D01*
X81409355Y-29449335D01*
X81256552Y-29574737D01*
X81082221Y-29667919D01*
X80893060Y-29725300D01*
X80794776Y-29734980D01*
X80745635Y-29739820D01*
X80552045Y-29739820D01*
X80502904Y-29734980D01*
X80404620Y-29725300D01*
X80215459Y-29667919D01*
X80041128Y-29574737D01*
X79888325Y-29449335D01*
X79762923Y-29296532D01*
X79669741Y-29122201D01*
X79612360Y-28933040D01*
X79592985Y-28736320D01*
X79612360Y-28539600D01*
X79669741Y-28350439D01*
X79762923Y-28176108D01*
X79888325Y-28023305D01*
X80041128Y-27897903D01*
X80215459Y-27804721D01*
X80404620Y-27747340D01*
X80503858Y-27737566D01*
X80552045Y-27732820D01*
X80745635Y-27732820D01*
X80793822Y-27737566D01*
G37*
G36*
X55384796Y-25294614D02*
G01*
X55493372Y-25327551D01*
X55493375Y-25327552D01*
X55529481Y-25346851D01*
X55593437Y-25381036D01*
X55681144Y-25453016D01*
X55753124Y-25540723D01*
X55787309Y-25604679D01*
X55806608Y-25640785D01*
X55806609Y-25640788D01*
X55839546Y-25749364D01*
X55850667Y-25862280D01*
X55839546Y-25975196D01*
X55815236Y-26055332D01*
X55806608Y-26083775D01*
X55787309Y-26119881D01*
X55753124Y-26183837D01*
X55681144Y-26271544D01*
X55593437Y-26343524D01*
X55512021Y-26387041D01*
X55491646Y-26400655D01*
X55474319Y-26417982D01*
X55460706Y-26438356D01*
X55451328Y-26460995D01*
X55446548Y-26485028D01*
X55446548Y-26509532D01*
X55451328Y-26533565D01*
X55460706Y-26556204D01*
X55474320Y-26576579D01*
X55491647Y-26593906D01*
X55512021Y-26607519D01*
X55593437Y-26651036D01*
X55681144Y-26723016D01*
X55753124Y-26810723D01*
X55787309Y-26874679D01*
X55806608Y-26910785D01*
X55806609Y-26910788D01*
X55839546Y-27019364D01*
X55850667Y-27132280D01*
X55839546Y-27245196D01*
X55818875Y-27313336D01*
X55806608Y-27353775D01*
X55787309Y-27389881D01*
X55753124Y-27453837D01*
X55681144Y-27541544D01*
X55604234Y-27604663D01*
X55586915Y-27621982D01*
X55573301Y-27642357D01*
X55563923Y-27664996D01*
X55559143Y-27689029D01*
X55559143Y-27713533D01*
X55563923Y-27737566D01*
X55573301Y-27760205D01*
X55586914Y-27780579D01*
X55604241Y-27797906D01*
X55624616Y-27811520D01*
X55647255Y-27820898D01*
X55671288Y-27825678D01*
X55683540Y-27826280D01*
X55847880Y-27826280D01*
X55847880Y-28978280D01*
X54245880Y-28978280D01*
X54245880Y-27826280D01*
X54410220Y-27826280D01*
X54434606Y-27823878D01*
X54458055Y-27816765D01*
X54479666Y-27805214D01*
X54498608Y-27789669D01*
X54514153Y-27770727D01*
X54525704Y-27749116D01*
X54532817Y-27725667D01*
X54535219Y-27701281D01*
X54532817Y-27676895D01*
X54525704Y-27653446D01*
X54514153Y-27631835D01*
X54498608Y-27612893D01*
X54489535Y-27604671D01*
X54412616Y-27541544D01*
X54340636Y-27453837D01*
X54306451Y-27389881D01*
X54287152Y-27353775D01*
X54274885Y-27313336D01*
X54254214Y-27245196D01*
X54243093Y-27132280D01*
X54254214Y-27019364D01*
X54287151Y-26910788D01*
X54287152Y-26910785D01*
X54306451Y-26874679D01*
X54340636Y-26810723D01*
X54412616Y-26723016D01*
X54500323Y-26651036D01*
X54581739Y-26607519D01*
X54602114Y-26593905D01*
X54619441Y-26576578D01*
X54633054Y-26556204D01*
X54642432Y-26533565D01*
X54647212Y-26509532D01*
X54647212Y-26485028D01*
X54642432Y-26460995D01*
X54633054Y-26438356D01*
X54619440Y-26417981D01*
X54602113Y-26400654D01*
X54581739Y-26387041D01*
X54500323Y-26343524D01*
X54412616Y-26271544D01*
X54340636Y-26183837D01*
X54306451Y-26119881D01*
X54287152Y-26083775D01*
X54278524Y-26055332D01*
X54254214Y-25975196D01*
X54243093Y-25862280D01*
X54254214Y-25749364D01*
X54287151Y-25640788D01*
X54287152Y-25640785D01*
X54306451Y-25604679D01*
X54340636Y-25540723D01*
X54412616Y-25453016D01*
X54500323Y-25381036D01*
X54564279Y-25346851D01*
X54600385Y-25327552D01*
X54600388Y-25327551D01*
X54708964Y-25294614D01*
X54793582Y-25286280D01*
X55300178Y-25286280D01*
X55384796Y-25294614D01*
G37*
G36*
X85377628Y-25991183D02*
G01*
X85532500Y-26055333D01*
X85671881Y-26148465D01*
X85790415Y-26266999D01*
X85883547Y-26406380D01*
X85947697Y-26561252D01*
X85980400Y-26725664D01*
X85980400Y-26893296D01*
X85947697Y-27057708D01*
X85883547Y-27212580D01*
X85790415Y-27351961D01*
X85671881Y-27470495D01*
X85532500Y-27563627D01*
X85377628Y-27627777D01*
X85213216Y-27660480D01*
X85045584Y-27660480D01*
X84881172Y-27627777D01*
X84726300Y-27563627D01*
X84586919Y-27470495D01*
X84468385Y-27351961D01*
X84375253Y-27212580D01*
X84311103Y-27057708D01*
X84278400Y-26893296D01*
X84278400Y-26725664D01*
X84311103Y-26561252D01*
X84375253Y-26406380D01*
X84468385Y-26266999D01*
X84586919Y-26148465D01*
X84726300Y-26055333D01*
X84881172Y-25991183D01*
X85045584Y-25958480D01*
X85213216Y-25958480D01*
X85377628Y-25991183D01*
G37*
G36*
X80794776Y-25197660D02*
G01*
X80893060Y-25207340D01*
X81082221Y-25264721D01*
X81256552Y-25357903D01*
X81409355Y-25483305D01*
X81534757Y-25636108D01*
X81627939Y-25810439D01*
X81685320Y-25999600D01*
X81704695Y-26196320D01*
X81685320Y-26393040D01*
X81627939Y-26582201D01*
X81534757Y-26756532D01*
X81409355Y-26909335D01*
X81256552Y-27034737D01*
X81082221Y-27127919D01*
X80893060Y-27185300D01*
X80794776Y-27194980D01*
X80745635Y-27199820D01*
X80552045Y-27199820D01*
X80502904Y-27194980D01*
X80404620Y-27185300D01*
X80215459Y-27127919D01*
X80041128Y-27034737D01*
X79888325Y-26909335D01*
X79762923Y-26756532D01*
X79669741Y-26582201D01*
X79612360Y-26393040D01*
X79592985Y-26196320D01*
X79612360Y-25999600D01*
X79669741Y-25810439D01*
X79762923Y-25636108D01*
X79888325Y-25483305D01*
X80041128Y-25357903D01*
X80215459Y-25264721D01*
X80404620Y-25207340D01*
X80502904Y-25197660D01*
X80552045Y-25192820D01*
X80745635Y-25192820D01*
X80794776Y-25197660D01*
G37*
G36*
X85980400Y-25660480D02*
G01*
X84278400Y-25660480D01*
X84278400Y-23958480D01*
X85980400Y-23958480D01*
X85980400Y-25660480D01*
G37*
G36*
X22442552Y-22751518D02*
G01*
X22613697Y-22822408D01*
X22688419Y-22853359D01*
X22720064Y-22874504D01*
X22909691Y-23001209D01*
X23097871Y-23189389D01*
X23245722Y-23410663D01*
X23347562Y-23656528D01*
X23399480Y-23917537D01*
X23399480Y-24183663D01*
X23347562Y-24444672D01*
X23245722Y-24690537D01*
X23111825Y-24890928D01*
X23097870Y-24911812D01*
X22909692Y-25099990D01*
X22688419Y-25247841D01*
X22688418Y-25247842D01*
X22688417Y-25247842D01*
X22442552Y-25349682D01*
X22181543Y-25401600D01*
X21915417Y-25401600D01*
X21654408Y-25349682D01*
X21408543Y-25247842D01*
X21408542Y-25247842D01*
X21408541Y-25247841D01*
X21187268Y-25099990D01*
X20999090Y-24911812D01*
X20985136Y-24890928D01*
X20851238Y-24690537D01*
X20749398Y-24444672D01*
X20697480Y-24183663D01*
X20697480Y-23917537D01*
X20749398Y-23656528D01*
X20851238Y-23410663D01*
X20999089Y-23189389D01*
X21187269Y-23001209D01*
X21376896Y-22874504D01*
X21408541Y-22853359D01*
X21483264Y-22822408D01*
X21654408Y-22751518D01*
X21915417Y-22699600D01*
X22181543Y-22699600D01*
X22442552Y-22751518D01*
G37*
G36*
X94136824Y-22702981D02*
G01*
X94352323Y-22768352D01*
X94550921Y-22874504D01*
X94724996Y-23017364D01*
X94867856Y-23191439D01*
X94974008Y-23390037D01*
X95039379Y-23605536D01*
X95061451Y-23829640D01*
X95039379Y-24053744D01*
X94974008Y-24269243D01*
X94867856Y-24467841D01*
X94724996Y-24641916D01*
X94550921Y-24784776D01*
X94352323Y-24890928D01*
X94136824Y-24956299D01*
X93968880Y-24972840D01*
X91672160Y-24972840D01*
X91504216Y-24956299D01*
X91288717Y-24890928D01*
X91090119Y-24784776D01*
X90916044Y-24641916D01*
X90773184Y-24467841D01*
X90667032Y-24269243D01*
X90601661Y-24053744D01*
X90579589Y-23829640D01*
X90601661Y-23605536D01*
X90667032Y-23390037D01*
X90773184Y-23191439D01*
X90916044Y-23017364D01*
X91090119Y-22874504D01*
X91288717Y-22768352D01*
X91504216Y-22702981D01*
X91672160Y-22686440D01*
X93968880Y-22686440D01*
X94136824Y-22702981D01*
G37*
G36*
X46451527Y-21191916D02*
G01*
X46688293Y-21289988D01*
X46688295Y-21289989D01*
X46901379Y-21432367D01*
X47082593Y-21613581D01*
X47224972Y-21826667D01*
X47323044Y-22063433D01*
X47373040Y-22314781D01*
X47373040Y-22571059D01*
X47323044Y-22822407D01*
X47248981Y-23001210D01*
X47224971Y-23059175D01*
X47082593Y-23272259D01*
X46901379Y-23453473D01*
X46688295Y-23595851D01*
X46688294Y-23595852D01*
X46688293Y-23595852D01*
X46451527Y-23693924D01*
X46200179Y-23743920D01*
X45943901Y-23743920D01*
X45692553Y-23693924D01*
X45455787Y-23595852D01*
X45455786Y-23595852D01*
X45455785Y-23595851D01*
X45242701Y-23453473D01*
X45061487Y-23272259D01*
X44919109Y-23059175D01*
X44895099Y-23001210D01*
X44821036Y-22822407D01*
X44771040Y-22571059D01*
X44771040Y-22314781D01*
X44821036Y-22063433D01*
X44919108Y-21826667D01*
X45061487Y-21613581D01*
X45242701Y-21432367D01*
X45455785Y-21289989D01*
X45455787Y-21289988D01*
X45692553Y-21191916D01*
X45943901Y-21141920D01*
X46200179Y-21141920D01*
X46451527Y-21191916D01*
G37*
G36*
X34251527Y-21191916D02*
G01*
X34488293Y-21289988D01*
X34488295Y-21289989D01*
X34701379Y-21432367D01*
X34882593Y-21613581D01*
X35024972Y-21826667D01*
X35123044Y-22063433D01*
X35173040Y-22314781D01*
X35173040Y-22571059D01*
X35123044Y-22822407D01*
X35048981Y-23001210D01*
X35024971Y-23059175D01*
X34882593Y-23272259D01*
X34701379Y-23453473D01*
X34488295Y-23595851D01*
X34488294Y-23595852D01*
X34488293Y-23595852D01*
X34251527Y-23693924D01*
X34000179Y-23743920D01*
X33743901Y-23743920D01*
X33492553Y-23693924D01*
X33255787Y-23595852D01*
X33255786Y-23595852D01*
X33255785Y-23595851D01*
X33042701Y-23453473D01*
X32861487Y-23272259D01*
X32719109Y-23059175D01*
X32695099Y-23001210D01*
X32621036Y-22822407D01*
X32571040Y-22571059D01*
X32571040Y-22314781D01*
X32621036Y-22063433D01*
X32719108Y-21826667D01*
X32861487Y-21613581D01*
X33042701Y-21432367D01*
X33255785Y-21289989D01*
X33255787Y-21289988D01*
X33492553Y-21191916D01*
X33743901Y-21141920D01*
X34000179Y-21141920D01*
X34251527Y-21191916D01*
G37*
M02*
