M48
; DRILL file {KiCad (5.1.5)-3} date 27/09/2020 11:43:18
; FORMAT={-:-/ absolute / metric / decimal}
; #@! TF.CreationDate,2020-09-27T11:43:18-03:00
; #@! TF.GenerationSoftware,Kicad,Pcbnew,(5.1.5)-3
; #@! TF.FileFunction,Plated,1,2,PTH
FMAT,2
METRIC
T1C0.400
T2C0.750
T3C0.800
T4C0.900
T5C1.000
T6C1.100
T7C1.200
T8C1.300
T9C1.600
T10C2.500
%
G90
G05
T1
X23.391Y-62.461
X23.404Y-53.381
X23.812Y-71.933
X24.051Y-77.396
X24.351Y-67.056
X24.498Y-54.506
X25.359Y-87.569
X26.614Y-74.732
X26.81Y-87.61
X26.83Y-83.944
X41.745Y-53.835
X44.041Y-80.31
X44.209Y-93.609
X45.309Y-72.705
X48.478Y-53.508
X48.608Y-75.049
X49.939Y-51.719
X49.947Y-48.435
X55.748Y-60.274
X57.465Y-38.344
X58.638Y-54.348
X58.656Y-49.563
X70.602Y-43.678
X71.102Y-89.84
X71.295Y-100.668
X72.941Y-44.77
X74.973Y-52.596
X80.543Y-107.325
X81.719Y-75.656
X86.708Y-100.772
T2
X34.116Y-74.646
X34.116Y-77.186
X34.116Y-79.726
X41.616Y-74.646
X41.616Y-77.186
X41.616Y-79.726
X34.101Y-98.212
X34.101Y-100.752
X34.101Y-103.292
X34.101Y-105.832
X41.601Y-98.212
X41.601Y-100.752
X41.601Y-103.292
X41.601Y-105.832
X34.115Y-85.226
X34.115Y-87.766
X34.115Y-90.306
X34.115Y-92.846
X41.615Y-85.226
X41.615Y-87.766
X41.615Y-90.306
X41.615Y-92.846
X55.047Y-25.862
X55.047Y-27.132
X55.047Y-28.402
T3
X74.4Y-49.153
X74.4Y-56.773
X76.94Y-49.153
X76.94Y-56.773
X79.48Y-49.153
X79.48Y-56.773
X82.02Y-49.153
X82.02Y-56.773
X84.56Y-49.153
X84.56Y-56.773
X87.1Y-49.153
X87.1Y-56.773
X89.64Y-49.153
X89.64Y-56.773
X92.18Y-49.153
X92.18Y-56.773
X89.388Y-105.547
X92.788Y-105.547
X85.129Y-24.809
X85.129Y-26.809
X83.618Y-94.137
X90.118Y-94.137
X85.195Y-30.602
X85.195Y-32.602
X25.457Y-40.847
X25.457Y-43.387
X25.457Y-45.927
X25.457Y-48.467
X25.457Y-51.007
X40.697Y-40.847
X40.697Y-43.387
X40.697Y-45.927
X40.697Y-48.467
X40.697Y-51.007
T4
X26.9Y-65.465
X29.44Y-65.465
X39.818Y-58.988
X42.358Y-58.988
X33.382Y-65.505
X35.922Y-65.505
X18.315Y-59.77
X19.585Y-59.77
X20.855Y-59.77
X22.125Y-59.77
X26.88Y-58.967
X29.42Y-58.967
X39.818Y-65.485
X42.358Y-65.485
X33.357Y-58.988
X35.897Y-58.988
T5
X20.603Y-94.355
X23.143Y-94.355
X25.683Y-94.355
X75.357Y-97.328
X75.357Y-99.868
X75.357Y-102.408
X75.357Y-104.948
X19.131Y-75.532
X19.131Y-78.072
X19.131Y-80.612
X19.131Y-83.152
X20.598Y-91.759
X23.138Y-91.759
X25.678Y-91.759
X72.907Y-41.076
X75.447Y-41.076
X77.987Y-41.076
X80.527Y-41.076
X68.32Y-68.975
X68.32Y-71.515
X68.32Y-74.055
X68.32Y-76.595
X68.32Y-79.135
X68.32Y-81.675
X68.32Y-84.215
X68.32Y-86.755
X68.32Y-89.295
X68.32Y-91.835
X68.32Y-94.375
X68.32Y-96.915
X68.32Y-99.455
X68.32Y-101.995
X68.32Y-104.535
X20.608Y-97.037
X23.148Y-97.037
X25.688Y-97.037
X53.08Y-68.98
X53.08Y-71.52
X53.08Y-74.06
X53.08Y-76.6
X53.08Y-79.14
X53.08Y-81.68
X53.08Y-84.22
X53.08Y-86.76
X53.08Y-89.3
X53.08Y-91.84
X53.08Y-94.38
X53.08Y-96.92
X53.08Y-99.46
X53.08Y-102.0
X53.08Y-104.54
X20.608Y-99.714
X23.148Y-99.714
X25.688Y-99.714
T6
X81.773Y-63.764
X81.773Y-68.264
X88.273Y-63.764
X88.273Y-68.264
X81.737Y-78.664
X81.737Y-83.164
X88.237Y-78.664
X88.237Y-83.164
X80.649Y-26.196
X80.649Y-28.736
X80.649Y-31.276
T7
X103.881Y-68.482
X103.881Y-73.482
X103.881Y-78.482
X103.835Y-90.138
X103.835Y-95.138
X103.835Y-100.138
T8
X33.872Y-22.443
X33.872Y-34.443
X46.072Y-22.443
X46.072Y-34.443
X48.072Y-28.443
T9
X22.048Y-24.051
X22.048Y-29.051
X22.048Y-34.051
X100.648Y-44.862
X100.648Y-49.862
X100.648Y-54.862
X100.648Y-59.862
T10
X18.5Y-18.5
X19.141Y-105.918
X106.5Y-18.5
X106.5Y-106.5
T3
G00X93.921Y-23.83
M15
G01X91.721Y-23.83
M16
G05
G00X95.821Y-29.73
M15
G01X95.821Y-27.53
M16
G05
T5
G00X89.821Y-29.88
M15
G01X89.821Y-27.38
M16
G05
T9
G00X100.648Y-39.862
M15
G01X100.648Y-39.862
M16
G05
T0
M30
