%FSLAX45Y45*%
G04 Gerber Fmt 4.5, Leading zero omitted, Abs format (unit mm)*
G04 Created by KiCad (PCBNEW (5.1.5)-3) date 2020-09-27 11:43:20*
%MOMM*%
%LPD*%
G04 APERTURE LIST*
%TA.AperFunction,Profile*%
%ADD10C,0.050000*%
%TD*%
%ADD11C,0.200000*%
%ADD12C,0.300000*%
G04 APERTURE END LIST*
D10*
X1500124Y-11000232D02*
X11000000Y-11000000D01*
X11000000Y-11000000D02*
X11000000Y-1500000D01*
X11000000Y-1500000D02*
X1500000Y-1500000D01*
X1500000Y-11000000D02*
X1500000Y-1500000D01*
D11*
X2319086Y-6226114D02*
X2359086Y-6266114D01*
X2359086Y-6226114D02*
X2319086Y-6266114D01*
X2320356Y-5318064D02*
X2360356Y-5358064D01*
X2360356Y-5318064D02*
X2320356Y-5358064D01*
X2361250Y-7173280D02*
X2401250Y-7213280D01*
X2401250Y-7173280D02*
X2361250Y-7213280D01*
X2385126Y-7719634D02*
X2425126Y-7759634D01*
X2425126Y-7719634D02*
X2385126Y-7759634D01*
X2415098Y-6685600D02*
X2455098Y-6725600D01*
X2455098Y-6685600D02*
X2415098Y-6725600D01*
X2429830Y-5430586D02*
X2469830Y-5470586D01*
X2469830Y-5430586D02*
X2429830Y-5470586D01*
X2515936Y-8736904D02*
X2555936Y-8776904D01*
X2555936Y-8736904D02*
X2515936Y-8776904D01*
X2641412Y-7453188D02*
X2681412Y-7493188D01*
X2681412Y-7453188D02*
X2641412Y-7493188D01*
X2660970Y-8740968D02*
X2700970Y-8780968D01*
X2700970Y-8740968D02*
X2660970Y-8780968D01*
X2663002Y-8374446D02*
X2703002Y-8414446D01*
X2703002Y-8374446D02*
X2663002Y-8414446D01*
X4154490Y-5363530D02*
X4194490Y-5403530D01*
X4194490Y-5363530D02*
X4154490Y-5403530D01*
X4384106Y-8010972D02*
X4424106Y-8050972D01*
X4424106Y-8010972D02*
X4384106Y-8050972D01*
X4400870Y-9340916D02*
X4440870Y-9380916D01*
X4440870Y-9340916D02*
X4400870Y-9380916D01*
X4510852Y-7250496D02*
X4550852Y-7290496D01*
X4550852Y-7250496D02*
X4510852Y-7290496D01*
X4827844Y-5330764D02*
X4867844Y-5370764D01*
X4867844Y-5330764D02*
X4827844Y-5370764D01*
X4840798Y-7484938D02*
X4880798Y-7524938D01*
X4880798Y-7484938D02*
X4840798Y-7524938D01*
X4973894Y-5151948D02*
X5013894Y-5191948D01*
X5013894Y-5151948D02*
X4973894Y-5191948D01*
X4974656Y-4823526D02*
X5014656Y-4863526D01*
X5014656Y-4823526D02*
X4974656Y-4863526D01*
X5554792Y-6007420D02*
X5594792Y-6047420D01*
X5594792Y-6007420D02*
X5554792Y-6047420D01*
X5726496Y-3814384D02*
X5766496Y-3854384D01*
X5766496Y-3814384D02*
X5726496Y-3854384D01*
X5843844Y-5414838D02*
X5883844Y-5454838D01*
X5883844Y-5414838D02*
X5843844Y-5454838D01*
X5845622Y-4936302D02*
X5885622Y-4976302D01*
X5885622Y-4936302D02*
X5845622Y-4976302D01*
X7040184Y-4347784D02*
X7080184Y-4387784D01*
X7080184Y-4347784D02*
X7040184Y-4387784D01*
X7090222Y-8963980D02*
X7130222Y-9003980D01*
X7130222Y-8963980D02*
X7090222Y-9003980D01*
X7109526Y-10046782D02*
X7149526Y-10086782D01*
X7149526Y-10046782D02*
X7109526Y-10086782D01*
X7274118Y-4457004D02*
X7314118Y-4497004D01*
X7314118Y-4457004D02*
X7274118Y-4497004D01*
X7477281Y-5239615D02*
X7517281Y-5279615D01*
X7517281Y-5239615D02*
X7477281Y-5279615D01*
X8034340Y-10712516D02*
X8074340Y-10752516D01*
X8074340Y-10712516D02*
X8034340Y-10752516D01*
X8151942Y-7545644D02*
X8191942Y-7585644D01*
X8191942Y-7545644D02*
X8151942Y-7585644D01*
X8650798Y-10057196D02*
X8690798Y-10097196D01*
X8690798Y-10057196D02*
X8650798Y-10097196D01*
X3449132Y-7464552D02*
G75*
G03X3449132Y-7464552I-37500J0D01*
G01*
X3449132Y-7718552D02*
G75*
G03X3449132Y-7718552I-37500J0D01*
G01*
X3449132Y-7972552D02*
G75*
G03X3449132Y-7972552I-37500J0D01*
G01*
X4199132Y-7464552D02*
G75*
G03X4199132Y-7464552I-37500J0D01*
G01*
X4199132Y-7718552D02*
G75*
G03X4199132Y-7718552I-37500J0D01*
G01*
X4199132Y-7972552D02*
G75*
G03X4199132Y-7972552I-37500J0D01*
G01*
X3447608Y-9821164D02*
G75*
G03X3447608Y-9821164I-37500J0D01*
G01*
X3447608Y-10075164D02*
G75*
G03X3447608Y-10075164I-37500J0D01*
G01*
X3447608Y-10329164D02*
G75*
G03X3447608Y-10329164I-37500J0D01*
G01*
X3447608Y-10583164D02*
G75*
G03X3447608Y-10583164I-37500J0D01*
G01*
X4197608Y-9821164D02*
G75*
G03X4197608Y-9821164I-37500J0D01*
G01*
X4197608Y-10075164D02*
G75*
G03X4197608Y-10075164I-37500J0D01*
G01*
X4197608Y-10329164D02*
G75*
G03X4197608Y-10329164I-37500J0D01*
G01*
X4197608Y-10583164D02*
G75*
G03X4197608Y-10583164I-37500J0D01*
G01*
X3449008Y-8522592D02*
G75*
G03X3449008Y-8522592I-37500J0D01*
G01*
X3449008Y-8776592D02*
G75*
G03X3449008Y-8776592I-37500J0D01*
G01*
X3449008Y-9030592D02*
G75*
G03X3449008Y-9030592I-37500J0D01*
G01*
X3449008Y-9284592D02*
G75*
G03X3449008Y-9284592I-37500J0D01*
G01*
X4199008Y-8522592D02*
G75*
G03X4199008Y-8522592I-37500J0D01*
G01*
X4199008Y-8776592D02*
G75*
G03X4199008Y-8776592I-37500J0D01*
G01*
X4199008Y-9030592D02*
G75*
G03X4199008Y-9030592I-37500J0D01*
G01*
X4199008Y-9284592D02*
G75*
G03X4199008Y-9284592I-37500J0D01*
G01*
X5542188Y-2586228D02*
G75*
G03X5542188Y-2586228I-37500J0D01*
G01*
X5542188Y-2713228D02*
G75*
G03X5542188Y-2713228I-37500J0D01*
G01*
X5542188Y-2840228D02*
G75*
G03X5542188Y-2840228I-37500J0D01*
G01*
X7440044Y-4875284D02*
X7440044Y-4955284D01*
X7400044Y-4915284D02*
X7480044Y-4915284D01*
X7440044Y-5637284D02*
X7440044Y-5717284D01*
X7400044Y-5677284D02*
X7480044Y-5677284D01*
X7694044Y-4875284D02*
X7694044Y-4955284D01*
X7654044Y-4915284D02*
X7734044Y-4915284D01*
X7694044Y-5637284D02*
X7694044Y-5717284D01*
X7654044Y-5677284D02*
X7734044Y-5677284D01*
X7948044Y-4875284D02*
X7948044Y-4955284D01*
X7908044Y-4915284D02*
X7988044Y-4915284D01*
X7948044Y-5637284D02*
X7948044Y-5717284D01*
X7908044Y-5677284D02*
X7988044Y-5677284D01*
X8202044Y-4875284D02*
X8202044Y-4955284D01*
X8162044Y-4915284D02*
X8242044Y-4915284D01*
X8202044Y-5637284D02*
X8202044Y-5717284D01*
X8162044Y-5677284D02*
X8242044Y-5677284D01*
X8456044Y-4875284D02*
X8456044Y-4955284D01*
X8416044Y-4915284D02*
X8496044Y-4915284D01*
X8456044Y-5637284D02*
X8456044Y-5717284D01*
X8416044Y-5677284D02*
X8496044Y-5677284D01*
X8710044Y-4875284D02*
X8710044Y-4955284D01*
X8670044Y-4915284D02*
X8750044Y-4915284D01*
X8710044Y-5637284D02*
X8710044Y-5717284D01*
X8670044Y-5677284D02*
X8750044Y-5677284D01*
X8964044Y-4875284D02*
X8964044Y-4955284D01*
X8924044Y-4915284D02*
X9004044Y-4915284D01*
X8964044Y-5637284D02*
X8964044Y-5717284D01*
X8924044Y-5677284D02*
X9004044Y-5677284D01*
X9218044Y-4875284D02*
X9218044Y-4955284D01*
X9178044Y-4915284D02*
X9258044Y-4915284D01*
X9218044Y-5637284D02*
X9218044Y-5717284D01*
X9178044Y-5677284D02*
X9258044Y-5677284D01*
X8938768Y-10514716D02*
X8938768Y-10594716D01*
X8898768Y-10554716D02*
X8978768Y-10554716D01*
X9278768Y-10514716D02*
X9278768Y-10594716D01*
X9238768Y-10554716D02*
X9318768Y-10554716D01*
X8512940Y-2440948D02*
X8512940Y-2520948D01*
X8472940Y-2480948D02*
X8552940Y-2480948D01*
X8512940Y-2640948D02*
X8512940Y-2720948D01*
X8472940Y-2680948D02*
X8552940Y-2680948D01*
X8361800Y-9373748D02*
X8361800Y-9453748D01*
X8321800Y-9413748D02*
X8401800Y-9413748D01*
X9011800Y-9373748D02*
X9011800Y-9453748D01*
X8971800Y-9413748D02*
X9051800Y-9413748D01*
X8519544Y-3020220D02*
X8519544Y-3100220D01*
X8479544Y-3060220D02*
X8559544Y-3060220D01*
X8519544Y-3220220D02*
X8519544Y-3300220D01*
X8479544Y-3260220D02*
X8559544Y-3260220D01*
X2545712Y-4044704D02*
X2545712Y-4124704D01*
X2505712Y-4084704D02*
X2585712Y-4084704D01*
X2545712Y-4298704D02*
X2545712Y-4378704D01*
X2505712Y-4338704D02*
X2585712Y-4338704D01*
X2545712Y-4552704D02*
X2545712Y-4632704D01*
X2505712Y-4592704D02*
X2585712Y-4592704D01*
X2545712Y-4806704D02*
X2545712Y-4886704D01*
X2505712Y-4846704D02*
X2585712Y-4846704D01*
X2545712Y-5060704D02*
X2545712Y-5140704D01*
X2505712Y-5100704D02*
X2585712Y-5100704D01*
X4069712Y-4044704D02*
X4069712Y-4124704D01*
X4029712Y-4084704D02*
X4109712Y-4084704D01*
X4069712Y-4298704D02*
X4069712Y-4378704D01*
X4029712Y-4338704D02*
X4109712Y-4338704D01*
X4069712Y-4552704D02*
X4069712Y-4632704D01*
X4029712Y-4592704D02*
X4109712Y-4592704D01*
X4069712Y-4806704D02*
X4069712Y-4886704D01*
X4029712Y-4846704D02*
X4109712Y-4846704D01*
X4069712Y-5060704D02*
X4069712Y-5140704D01*
X4029712Y-5100704D02*
X4109712Y-5100704D01*
X9282052Y-2342964D02*
X9282052Y-2422964D01*
X9242052Y-2382964D02*
X9322052Y-2382964D01*
X9392052Y-2352964D02*
X9172052Y-2352964D01*
X9392052Y-2412964D02*
X9172052Y-2412964D01*
X9172052Y-2352964D02*
G75*
G03X9172052Y-2412964I0J-30000D01*
G01*
X9392052Y-2412964D02*
G75*
G03X9392052Y-2352964I0J30000D01*
G01*
X9582052Y-2822964D02*
X9582052Y-2902964D01*
X9542052Y-2862964D02*
X9622052Y-2862964D01*
X9612052Y-2972964D02*
X9612052Y-2752964D01*
X9552052Y-2972964D02*
X9552052Y-2752964D01*
X9612052Y-2752964D02*
G75*
G03X9552052Y-2752964I-30000J0D01*
G01*
X9552052Y-2972964D02*
G75*
G03X9612052Y-2972964I30000J0D01*
G01*
X2721804Y-6578292D02*
X2721804Y-6514652D01*
X2658164Y-6514652D01*
X2658164Y-6578292D01*
X2721804Y-6578292D01*
X2975804Y-6578292D02*
X2975804Y-6514652D01*
X2912164Y-6514652D01*
X2912164Y-6578292D01*
X2975804Y-6578292D01*
X4013648Y-5930592D02*
X4013648Y-5866952D01*
X3950008Y-5866952D01*
X3950008Y-5930592D01*
X4013648Y-5930592D01*
X4267648Y-5930592D02*
X4267648Y-5866952D01*
X4204008Y-5866952D01*
X4204008Y-5930592D01*
X4267648Y-5930592D01*
X3370012Y-6582356D02*
X3370012Y-6518716D01*
X3306372Y-6518716D01*
X3306372Y-6582356D01*
X3370012Y-6582356D01*
X3624012Y-6582356D02*
X3624012Y-6518716D01*
X3560372Y-6518716D01*
X3560372Y-6582356D01*
X3624012Y-6582356D01*
X1863284Y-6008824D02*
X1863284Y-5945184D01*
X1799644Y-5945184D01*
X1799644Y-6008824D01*
X1863284Y-6008824D01*
X1990284Y-6008824D02*
X1990284Y-5945184D01*
X1926644Y-5945184D01*
X1926644Y-6008824D01*
X1990284Y-6008824D01*
X2117284Y-6008824D02*
X2117284Y-5945184D01*
X2053644Y-5945184D01*
X2053644Y-6008824D01*
X2117284Y-6008824D01*
X2244284Y-6008824D02*
X2244284Y-5945184D01*
X2180644Y-5945184D01*
X2180644Y-6008824D01*
X2244284Y-6008824D01*
X2719772Y-5928560D02*
X2719772Y-5864920D01*
X2656132Y-5864920D01*
X2656132Y-5928560D01*
X2719772Y-5928560D01*
X2973772Y-5928560D02*
X2973772Y-5864920D01*
X2910132Y-5864920D01*
X2910132Y-5928560D01*
X2973772Y-5928560D01*
X4013648Y-6580324D02*
X4013648Y-6516684D01*
X3950008Y-6516684D01*
X3950008Y-6580324D01*
X4013648Y-6580324D01*
X4267648Y-6580324D02*
X4267648Y-6516684D01*
X4204008Y-6516684D01*
X4204008Y-6580324D01*
X4267648Y-6580324D01*
X3367472Y-5930592D02*
X3367472Y-5866952D01*
X3303832Y-5866952D01*
X3303832Y-5930592D01*
X3367472Y-5930592D01*
X3621472Y-5930592D02*
X3621472Y-5866952D01*
X3557832Y-5866952D01*
X3557832Y-5930592D01*
X3621472Y-5930592D01*
X2060324Y-9485468D02*
X2110324Y-9435468D01*
X2060324Y-9385468D01*
X2010324Y-9435468D01*
X2060324Y-9485468D01*
X2314324Y-9485468D02*
X2364324Y-9435468D01*
X2314324Y-9385468D01*
X2264324Y-9435468D01*
X2314324Y-9485468D01*
X2568324Y-9485468D02*
X2618324Y-9435468D01*
X2568324Y-9385468D01*
X2518324Y-9435468D01*
X2568324Y-9485468D01*
X7535672Y-9782772D02*
X7585672Y-9732772D01*
X7535672Y-9682772D01*
X7485672Y-9732772D01*
X7535672Y-9782772D01*
X7535672Y-10036772D02*
X7585672Y-9986772D01*
X7535672Y-9936772D01*
X7485672Y-9986772D01*
X7535672Y-10036772D01*
X7535672Y-10290772D02*
X7585672Y-10240772D01*
X7535672Y-10190772D01*
X7485672Y-10240772D01*
X7535672Y-10290772D01*
X7535672Y-10544772D02*
X7585672Y-10494772D01*
X7535672Y-10444772D01*
X7485672Y-10494772D01*
X7535672Y-10544772D01*
X1913128Y-7603198D02*
X1963128Y-7553198D01*
X1913128Y-7503198D01*
X1863128Y-7553198D01*
X1913128Y-7603198D01*
X1913128Y-7857198D02*
X1963128Y-7807198D01*
X1913128Y-7757198D01*
X1863128Y-7807198D01*
X1913128Y-7857198D01*
X1913128Y-8111198D02*
X1963128Y-8061198D01*
X1913128Y-8011198D01*
X1863128Y-8061198D01*
X1913128Y-8111198D01*
X1913128Y-8365198D02*
X1963128Y-8315198D01*
X1913128Y-8265198D01*
X1863128Y-8315198D01*
X1913128Y-8365198D01*
X2059816Y-9225880D02*
X2109816Y-9175880D01*
X2059816Y-9125880D01*
X2009816Y-9175880D01*
X2059816Y-9225880D01*
X2313816Y-9225880D02*
X2363816Y-9175880D01*
X2313816Y-9125880D01*
X2263816Y-9175880D01*
X2313816Y-9225880D01*
X2567816Y-9225880D02*
X2617816Y-9175880D01*
X2567816Y-9125880D01*
X2517816Y-9175880D01*
X2567816Y-9225880D01*
X7290692Y-4157564D02*
X7340692Y-4107564D01*
X7290692Y-4057564D01*
X7240692Y-4107564D01*
X7290692Y-4157564D01*
X7544692Y-4157564D02*
X7594692Y-4107564D01*
X7544692Y-4057564D01*
X7494692Y-4107564D01*
X7544692Y-4157564D01*
X7798692Y-4157564D02*
X7848692Y-4107564D01*
X7798692Y-4057564D01*
X7748692Y-4107564D01*
X7798692Y-4157564D01*
X8052692Y-4157564D02*
X8102692Y-4107564D01*
X8052692Y-4057564D01*
X8002692Y-4107564D01*
X8052692Y-4157564D01*
X6831968Y-6947500D02*
X6881968Y-6897500D01*
X6831968Y-6847500D01*
X6781968Y-6897500D01*
X6831968Y-6947500D01*
X6831968Y-7201500D02*
X6881968Y-7151500D01*
X6831968Y-7101500D01*
X6781968Y-7151500D01*
X6831968Y-7201500D01*
X6831968Y-7455500D02*
X6881968Y-7405500D01*
X6831968Y-7355500D01*
X6781968Y-7405500D01*
X6831968Y-7455500D01*
X6831968Y-7709500D02*
X6881968Y-7659500D01*
X6831968Y-7609500D01*
X6781968Y-7659500D01*
X6831968Y-7709500D01*
X6831968Y-7963500D02*
X6881968Y-7913500D01*
X6831968Y-7863500D01*
X6781968Y-7913500D01*
X6831968Y-7963500D01*
X6831968Y-8217500D02*
X6881968Y-8167500D01*
X6831968Y-8117500D01*
X6781968Y-8167500D01*
X6831968Y-8217500D01*
X6831968Y-8471500D02*
X6881968Y-8421500D01*
X6831968Y-8371500D01*
X6781968Y-8421500D01*
X6831968Y-8471500D01*
X6831968Y-8725500D02*
X6881968Y-8675500D01*
X6831968Y-8625500D01*
X6781968Y-8675500D01*
X6831968Y-8725500D01*
X6831968Y-8979500D02*
X6881968Y-8929500D01*
X6831968Y-8879500D01*
X6781968Y-8929500D01*
X6831968Y-8979500D01*
X6831968Y-9233500D02*
X6881968Y-9183500D01*
X6831968Y-9133500D01*
X6781968Y-9183500D01*
X6831968Y-9233500D01*
X6831968Y-9487500D02*
X6881968Y-9437500D01*
X6831968Y-9387500D01*
X6781968Y-9437500D01*
X6831968Y-9487500D01*
X6831968Y-9741500D02*
X6881968Y-9691500D01*
X6831968Y-9641500D01*
X6781968Y-9691500D01*
X6831968Y-9741500D01*
X6831968Y-9995500D02*
X6881968Y-9945500D01*
X6831968Y-9895500D01*
X6781968Y-9945500D01*
X6831968Y-9995500D01*
X6831968Y-10249500D02*
X6881968Y-10199500D01*
X6831968Y-10149500D01*
X6781968Y-10199500D01*
X6831968Y-10249500D01*
X6831968Y-10503500D02*
X6881968Y-10453500D01*
X6831968Y-10403500D01*
X6781968Y-10453500D01*
X6831968Y-10503500D01*
X2060832Y-9753692D02*
X2110832Y-9703692D01*
X2060832Y-9653692D01*
X2010832Y-9703692D01*
X2060832Y-9753692D01*
X2314832Y-9753692D02*
X2364832Y-9703692D01*
X2314832Y-9653692D01*
X2264832Y-9703692D01*
X2314832Y-9753692D01*
X2568832Y-9753692D02*
X2618832Y-9703692D01*
X2568832Y-9653692D01*
X2518832Y-9703692D01*
X2568832Y-9753692D01*
X5307968Y-6948008D02*
X5357968Y-6898008D01*
X5307968Y-6848008D01*
X5257968Y-6898008D01*
X5307968Y-6948008D01*
X5307968Y-7202008D02*
X5357968Y-7152008D01*
X5307968Y-7102008D01*
X5257968Y-7152008D01*
X5307968Y-7202008D01*
X5307968Y-7456008D02*
X5357968Y-7406008D01*
X5307968Y-7356008D01*
X5257968Y-7406008D01*
X5307968Y-7456008D01*
X5307968Y-7710008D02*
X5357968Y-7660008D01*
X5307968Y-7610008D01*
X5257968Y-7660008D01*
X5307968Y-7710008D01*
X5307968Y-7964008D02*
X5357968Y-7914008D01*
X5307968Y-7864008D01*
X5257968Y-7914008D01*
X5307968Y-7964008D01*
X5307968Y-8218008D02*
X5357968Y-8168008D01*
X5307968Y-8118008D01*
X5257968Y-8168008D01*
X5307968Y-8218008D01*
X5307968Y-8472008D02*
X5357968Y-8422008D01*
X5307968Y-8372008D01*
X5257968Y-8422008D01*
X5307968Y-8472008D01*
X5307968Y-8726008D02*
X5357968Y-8676008D01*
X5307968Y-8626008D01*
X5257968Y-8676008D01*
X5307968Y-8726008D01*
X5307968Y-8980008D02*
X5357968Y-8930008D01*
X5307968Y-8880008D01*
X5257968Y-8930008D01*
X5307968Y-8980008D01*
X5307968Y-9234008D02*
X5357968Y-9184008D01*
X5307968Y-9134008D01*
X5257968Y-9184008D01*
X5307968Y-9234008D01*
X5307968Y-9488008D02*
X5357968Y-9438008D01*
X5307968Y-9388008D01*
X5257968Y-9438008D01*
X5307968Y-9488008D01*
X5307968Y-9742008D02*
X5357968Y-9692008D01*
X5307968Y-9642008D01*
X5257968Y-9692008D01*
X5307968Y-9742008D01*
X5307968Y-9996008D02*
X5357968Y-9946008D01*
X5307968Y-9896008D01*
X5257968Y-9946008D01*
X5307968Y-9996008D01*
X5307968Y-10250008D02*
X5357968Y-10200008D01*
X5307968Y-10150008D01*
X5257968Y-10200008D01*
X5307968Y-10250008D01*
X5307968Y-10504008D02*
X5357968Y-10454008D01*
X5307968Y-10404008D01*
X5257968Y-10454008D01*
X5307968Y-10504008D01*
X8982052Y-2912964D02*
X9032052Y-2862964D01*
X8982052Y-2812964D01*
X8932052Y-2862964D01*
X8982052Y-2912964D01*
X9022052Y-2987964D02*
X9022052Y-2737964D01*
X8942052Y-2987964D02*
X8942052Y-2737964D01*
X9022052Y-2737964D02*
G75*
G03X8942052Y-2737964I-40000J0D01*
G01*
X8942052Y-2987964D02*
G75*
G03X9022052Y-2987964I40000J0D01*
G01*
X2060832Y-10021408D02*
X2110832Y-9971408D01*
X2060832Y-9921408D01*
X2010832Y-9971408D01*
X2060832Y-10021408D01*
X2314832Y-10021408D02*
X2364832Y-9971408D01*
X2314832Y-9921408D01*
X2264832Y-9971408D01*
X2314832Y-10021408D01*
X2568832Y-10021408D02*
X2618832Y-9971408D01*
X2568832Y-9921408D01*
X2518832Y-9971408D01*
X2568832Y-10021408D01*
X8122276Y-6321416D02*
X8232276Y-6431416D01*
X8232276Y-6321416D02*
X8122276Y-6431416D01*
X8232276Y-6376416D02*
G75*
G03X8232276Y-6376416I-55000J0D01*
G01*
X8122276Y-6771416D02*
X8232276Y-6881416D01*
X8232276Y-6771416D02*
X8122276Y-6881416D01*
X8232276Y-6826416D02*
G75*
G03X8232276Y-6826416I-55000J0D01*
G01*
X8772276Y-6321416D02*
X8882276Y-6431416D01*
X8882276Y-6321416D02*
X8772276Y-6431416D01*
X8882276Y-6376416D02*
G75*
G03X8882276Y-6376416I-55000J0D01*
G01*
X8772276Y-6771416D02*
X8882276Y-6881416D01*
X8882276Y-6771416D02*
X8772276Y-6881416D01*
X8882276Y-6826416D02*
G75*
G03X8882276Y-6826416I-55000J0D01*
G01*
X8118720Y-7811380D02*
X8228720Y-7921380D01*
X8228720Y-7811380D02*
X8118720Y-7921380D01*
X8228720Y-7866380D02*
G75*
G03X8228720Y-7866380I-55000J0D01*
G01*
X8118720Y-8261380D02*
X8228720Y-8371380D01*
X8228720Y-8261380D02*
X8118720Y-8371380D01*
X8228720Y-8316380D02*
G75*
G03X8228720Y-8316380I-55000J0D01*
G01*
X8768720Y-7811380D02*
X8878720Y-7921380D01*
X8878720Y-7811380D02*
X8768720Y-7921380D01*
X8878720Y-7866380D02*
G75*
G03X8878720Y-7866380I-55000J0D01*
G01*
X8768720Y-8261380D02*
X8878720Y-8371380D01*
X8878720Y-8261380D02*
X8768720Y-8371380D01*
X8878720Y-8316380D02*
G75*
G03X8878720Y-8316380I-55000J0D01*
G01*
X8009884Y-2564632D02*
X8119884Y-2674632D01*
X8119884Y-2564632D02*
X8009884Y-2674632D01*
X8119884Y-2619632D02*
G75*
G03X8119884Y-2619632I-55000J0D01*
G01*
X8009884Y-2818632D02*
X8119884Y-2928632D01*
X8119884Y-2818632D02*
X8009884Y-2928632D01*
X8119884Y-2873632D02*
G75*
G03X8119884Y-2873632I-55000J0D01*
G01*
X8009884Y-3072632D02*
X8119884Y-3182632D01*
X8119884Y-3072632D02*
X8009884Y-3182632D01*
X8119884Y-3127632D02*
G75*
G03X8119884Y-3127632I-55000J0D01*
G01*
X10328092Y-6788220D02*
X10448092Y-6908220D01*
X10448092Y-6788220D02*
X10328092Y-6908220D01*
X10388092Y-6788220D02*
X10388092Y-6908220D01*
X10328092Y-6848220D02*
X10448092Y-6848220D01*
X10328092Y-7288220D02*
X10448092Y-7408220D01*
X10448092Y-7288220D02*
X10328092Y-7408220D01*
X10388092Y-7288220D02*
X10388092Y-7408220D01*
X10328092Y-7348220D02*
X10448092Y-7348220D01*
X10328092Y-7788220D02*
X10448092Y-7908220D01*
X10448092Y-7788220D02*
X10328092Y-7908220D01*
X10388092Y-7788220D02*
X10388092Y-7908220D01*
X10328092Y-7848220D02*
X10448092Y-7848220D01*
X10323520Y-8953824D02*
X10443520Y-9073824D01*
X10443520Y-8953824D02*
X10323520Y-9073824D01*
X10383520Y-8953824D02*
X10383520Y-9073824D01*
X10323520Y-9013824D02*
X10443520Y-9013824D01*
X10323520Y-9453824D02*
X10443520Y-9573824D01*
X10443520Y-9453824D02*
X10323520Y-9573824D01*
X10383520Y-9453824D02*
X10383520Y-9573824D01*
X10323520Y-9513824D02*
X10443520Y-9513824D01*
X10323520Y-9953824D02*
X10443520Y-10073824D01*
X10443520Y-9953824D02*
X10323520Y-10073824D01*
X10383520Y-9953824D02*
X10383520Y-10073824D01*
X10323520Y-10013824D02*
X10443520Y-10013824D01*
X3322204Y-2179292D02*
X3452204Y-2309292D01*
X3452204Y-2179292D02*
X3322204Y-2309292D01*
X3433166Y-2290254D02*
X3433166Y-2198330D01*
X3341242Y-2198330D01*
X3341242Y-2290254D01*
X3433166Y-2290254D01*
X3322204Y-3379292D02*
X3452204Y-3509292D01*
X3452204Y-3379292D02*
X3322204Y-3509292D01*
X3433166Y-3490254D02*
X3433166Y-3398330D01*
X3341242Y-3398330D01*
X3341242Y-3490254D01*
X3433166Y-3490254D01*
X4542204Y-2179292D02*
X4672204Y-2309292D01*
X4672204Y-2179292D02*
X4542204Y-2309292D01*
X4653166Y-2290254D02*
X4653166Y-2198330D01*
X4561242Y-2198330D01*
X4561242Y-2290254D01*
X4653166Y-2290254D01*
X4542204Y-3379292D02*
X4672204Y-3509292D01*
X4672204Y-3379292D02*
X4542204Y-3509292D01*
X4653166Y-3490254D02*
X4653166Y-3398330D01*
X4561242Y-3398330D01*
X4561242Y-3490254D01*
X4653166Y-3490254D01*
X4742204Y-2779292D02*
X4872204Y-2909292D01*
X4872204Y-2779292D02*
X4742204Y-2909292D01*
X4853166Y-2890254D02*
X4853166Y-2798330D01*
X4761242Y-2798330D01*
X4761242Y-2890254D01*
X4853166Y-2890254D01*
X2124848Y-2325060D02*
X2284848Y-2485060D01*
X2284848Y-2325060D02*
X2124848Y-2485060D01*
X2204848Y-2485060D02*
X2284848Y-2405060D01*
X2204848Y-2325060D01*
X2124848Y-2405060D01*
X2204848Y-2485060D01*
X2124848Y-2825060D02*
X2284848Y-2985060D01*
X2284848Y-2825060D02*
X2124848Y-2985060D01*
X2204848Y-2985060D02*
X2284848Y-2905060D01*
X2204848Y-2825060D01*
X2124848Y-2905060D01*
X2204848Y-2985060D01*
X2124848Y-3325060D02*
X2284848Y-3485060D01*
X2284848Y-3325060D02*
X2124848Y-3485060D01*
X2204848Y-3485060D02*
X2284848Y-3405060D01*
X2204848Y-3325060D01*
X2124848Y-3405060D01*
X2204848Y-3485060D01*
X9984752Y-3906216D02*
X10144752Y-4066216D01*
X10144752Y-3906216D02*
X9984752Y-4066216D01*
X10064752Y-4066216D02*
X10144752Y-3986216D01*
X10064752Y-3906216D01*
X9984752Y-3986216D01*
X10064752Y-4066216D01*
X10064752Y-3916216D02*
X10064752Y-3916216D01*
X10064752Y-4056216D02*
X10064752Y-4056216D01*
X10064752Y-3916216D02*
G75*
G03X10064752Y-4056216I0J-70000D01*
G01*
X10064752Y-4056216D02*
G75*
G03X10064752Y-3916216I0J70000D01*
G01*
X9984752Y-4406216D02*
X10144752Y-4566216D01*
X10144752Y-4406216D02*
X9984752Y-4566216D01*
X10064752Y-4566216D02*
X10144752Y-4486216D01*
X10064752Y-4406216D01*
X9984752Y-4486216D01*
X10064752Y-4566216D01*
X9984752Y-4906216D02*
X10144752Y-5066216D01*
X10144752Y-4906216D02*
X9984752Y-5066216D01*
X10064752Y-5066216D02*
X10144752Y-4986216D01*
X10064752Y-4906216D01*
X9984752Y-4986216D01*
X10064752Y-5066216D01*
X9984752Y-5406216D02*
X10144752Y-5566216D01*
X10144752Y-5406216D02*
X9984752Y-5566216D01*
X10064752Y-5566216D02*
X10144752Y-5486216D01*
X10064752Y-5406216D01*
X9984752Y-5486216D01*
X10064752Y-5566216D01*
X9984752Y-5906216D02*
X10144752Y-6066216D01*
X10144752Y-5906216D02*
X9984752Y-6066216D01*
X10064752Y-6066216D02*
X10144752Y-5986216D01*
X10064752Y-5906216D01*
X9984752Y-5986216D01*
X10064752Y-6066216D01*
X1850000Y-1725000D02*
X1850000Y-1975000D01*
X1725000Y-1850000D02*
X1975000Y-1850000D01*
X1975000Y-1850000D02*
G75*
G03X1975000Y-1850000I-125000J0D01*
G01*
X1914144Y-10466800D02*
X1914144Y-10716800D01*
X1789144Y-10591800D02*
X2039144Y-10591800D01*
X2039144Y-10591800D02*
G75*
G03X2039144Y-10591800I-125000J0D01*
G01*
X10650000Y-1725000D02*
X10650000Y-1975000D01*
X10525000Y-1850000D02*
X10775000Y-1850000D01*
X10775000Y-1850000D02*
G75*
G03X10775000Y-1850000I-125000J0D01*
G01*
X10650000Y-10525000D02*
X10650000Y-10775000D01*
X10525000Y-10650000D02*
X10775000Y-10650000D01*
X10775000Y-10650000D02*
G75*
G03X10775000Y-10650000I-125000J0D01*
G01*
D12*
X1783928Y-11468446D02*
X1783928Y-11168446D01*
X1855357Y-11168446D01*
X1898214Y-11182732D01*
X1926786Y-11211303D01*
X1941071Y-11239875D01*
X1955357Y-11297018D01*
X1955357Y-11339875D01*
X1941071Y-11397018D01*
X1926786Y-11425589D01*
X1898214Y-11454161D01*
X1855357Y-11468446D01*
X1783928Y-11468446D01*
X2083928Y-11468446D02*
X2083928Y-11268446D01*
X2083928Y-11325589D02*
X2098214Y-11297018D01*
X2112500Y-11282732D01*
X2141071Y-11268446D01*
X2169643Y-11268446D01*
X2269643Y-11468446D02*
X2269643Y-11268446D01*
X2269643Y-11168446D02*
X2255357Y-11182732D01*
X2269643Y-11197018D01*
X2283928Y-11182732D01*
X2269643Y-11168446D01*
X2269643Y-11197018D01*
X2455357Y-11468446D02*
X2426786Y-11454161D01*
X2412500Y-11425589D01*
X2412500Y-11168446D01*
X2612500Y-11468446D02*
X2583928Y-11454161D01*
X2569643Y-11425589D01*
X2569643Y-11168446D01*
X2955357Y-11468446D02*
X2955357Y-11168446D01*
X3055357Y-11382732D01*
X3155357Y-11168446D01*
X3155357Y-11468446D01*
X3426786Y-11468446D02*
X3426786Y-11311303D01*
X3412500Y-11282732D01*
X3383928Y-11268446D01*
X3326786Y-11268446D01*
X3298214Y-11282732D01*
X3426786Y-11454161D02*
X3398214Y-11468446D01*
X3326786Y-11468446D01*
X3298214Y-11454161D01*
X3283928Y-11425589D01*
X3283928Y-11397018D01*
X3298214Y-11368446D01*
X3326786Y-11354161D01*
X3398214Y-11354161D01*
X3426786Y-11339875D01*
X3569643Y-11268446D02*
X3569643Y-11568446D01*
X3569643Y-11282732D02*
X3598214Y-11268446D01*
X3655357Y-11268446D01*
X3683928Y-11282732D01*
X3698214Y-11297018D01*
X3712500Y-11325589D01*
X3712500Y-11411303D01*
X3698214Y-11439875D01*
X3683928Y-11454161D01*
X3655357Y-11468446D01*
X3598214Y-11468446D01*
X3569643Y-11454161D01*
X3841071Y-11439875D02*
X3855357Y-11454161D01*
X3841071Y-11468446D01*
X3826786Y-11454161D01*
X3841071Y-11439875D01*
X3841071Y-11468446D01*
X3841071Y-11282732D02*
X3855357Y-11297018D01*
X3841071Y-11311303D01*
X3826786Y-11297018D01*
X3841071Y-11282732D01*
X3841071Y-11311303D01*
X1457500Y-11942732D02*
X1497500Y-11982732D01*
X1497500Y-11942732D02*
X1457500Y-11982732D01*
X1841071Y-11798446D02*
X1869643Y-11798446D01*
X1898214Y-11812732D01*
X1912500Y-11827018D01*
X1926786Y-11855589D01*
X1941071Y-11912732D01*
X1941071Y-11984161D01*
X1926786Y-12041303D01*
X1912500Y-12069875D01*
X1898214Y-12084161D01*
X1869643Y-12098446D01*
X1841071Y-12098446D01*
X1812500Y-12084161D01*
X1798214Y-12069875D01*
X1783928Y-12041303D01*
X1769643Y-11984161D01*
X1769643Y-11912732D01*
X1783928Y-11855589D01*
X1798214Y-11827018D01*
X1812500Y-11812732D01*
X1841071Y-11798446D01*
X2069643Y-12069875D02*
X2083928Y-12084161D01*
X2069643Y-12098446D01*
X2055357Y-12084161D01*
X2069643Y-12069875D01*
X2069643Y-12098446D01*
X2341071Y-11898446D02*
X2341071Y-12098446D01*
X2269643Y-11784161D02*
X2198214Y-11998446D01*
X2383928Y-11998446D01*
X2555357Y-11798446D02*
X2583928Y-11798446D01*
X2612500Y-11812732D01*
X2626786Y-11827018D01*
X2641071Y-11855589D01*
X2655357Y-11912732D01*
X2655357Y-11984161D01*
X2641071Y-12041303D01*
X2626786Y-12069875D01*
X2612500Y-12084161D01*
X2583928Y-12098446D01*
X2555357Y-12098446D01*
X2526786Y-12084161D01*
X2512500Y-12069875D01*
X2498214Y-12041303D01*
X2483928Y-11984161D01*
X2483928Y-11912732D01*
X2498214Y-11855589D01*
X2512500Y-11827018D01*
X2526786Y-11812732D01*
X2555357Y-11798446D01*
X2783928Y-12098446D02*
X2783928Y-11898446D01*
X2783928Y-11927018D02*
X2798214Y-11912732D01*
X2826786Y-11898446D01*
X2869643Y-11898446D01*
X2898214Y-11912732D01*
X2912500Y-11941303D01*
X2912500Y-12098446D01*
X2912500Y-11941303D02*
X2926786Y-11912732D01*
X2955357Y-11898446D01*
X2998214Y-11898446D01*
X3026786Y-11912732D01*
X3041071Y-11941303D01*
X3041071Y-12098446D01*
X3183928Y-12098446D02*
X3183928Y-11898446D01*
X3183928Y-11927018D02*
X3198214Y-11912732D01*
X3226786Y-11898446D01*
X3269643Y-11898446D01*
X3298214Y-11912732D01*
X3312500Y-11941303D01*
X3312500Y-12098446D01*
X3312500Y-11941303D02*
X3326786Y-11912732D01*
X3355357Y-11898446D01*
X3398214Y-11898446D01*
X3426786Y-11912732D01*
X3441071Y-11941303D01*
X3441071Y-12098446D01*
X4026786Y-11784161D02*
X3769643Y-12169875D01*
X4412500Y-11798446D02*
X4441071Y-11798446D01*
X4469643Y-11812732D01*
X4483928Y-11827018D01*
X4498214Y-11855589D01*
X4512500Y-11912732D01*
X4512500Y-11984161D01*
X4498214Y-12041303D01*
X4483928Y-12069875D01*
X4469643Y-12084161D01*
X4441071Y-12098446D01*
X4412500Y-12098446D01*
X4383928Y-12084161D01*
X4369643Y-12069875D01*
X4355357Y-12041303D01*
X4341071Y-11984161D01*
X4341071Y-11912732D01*
X4355357Y-11855589D01*
X4369643Y-11827018D01*
X4383928Y-11812732D01*
X4412500Y-11798446D01*
X4641071Y-12069875D02*
X4655357Y-12084161D01*
X4641071Y-12098446D01*
X4626786Y-12084161D01*
X4641071Y-12069875D01*
X4641071Y-12098446D01*
X4841071Y-11798446D02*
X4869643Y-11798446D01*
X4898214Y-11812732D01*
X4912500Y-11827018D01*
X4926786Y-11855589D01*
X4941071Y-11912732D01*
X4941071Y-11984161D01*
X4926786Y-12041303D01*
X4912500Y-12069875D01*
X4898214Y-12084161D01*
X4869643Y-12098446D01*
X4841071Y-12098446D01*
X4812500Y-12084161D01*
X4798214Y-12069875D01*
X4783928Y-12041303D01*
X4769643Y-11984161D01*
X4769643Y-11912732D01*
X4783928Y-11855589D01*
X4798214Y-11827018D01*
X4812500Y-11812732D01*
X4841071Y-11798446D01*
X5226786Y-12098446D02*
X5055357Y-12098446D01*
X5141071Y-12098446D02*
X5141071Y-11798446D01*
X5112500Y-11841303D01*
X5083928Y-11869875D01*
X5055357Y-11884161D01*
X5483928Y-11798446D02*
X5426786Y-11798446D01*
X5398214Y-11812732D01*
X5383928Y-11827018D01*
X5355357Y-11869875D01*
X5341071Y-11927018D01*
X5341071Y-12041303D01*
X5355357Y-12069875D01*
X5369643Y-12084161D01*
X5398214Y-12098446D01*
X5455357Y-12098446D01*
X5483928Y-12084161D01*
X5498214Y-12069875D01*
X5512500Y-12041303D01*
X5512500Y-11969875D01*
X5498214Y-11941303D01*
X5483928Y-11927018D01*
X5455357Y-11912732D01*
X5398214Y-11912732D01*
X5369643Y-11927018D01*
X5355357Y-11941303D01*
X5341071Y-11969875D01*
X5626786Y-11798446D02*
X5626786Y-11855589D01*
X5741071Y-11798446D02*
X5741071Y-11855589D01*
X6183928Y-12212732D02*
X6169643Y-12198446D01*
X6141071Y-12155589D01*
X6126786Y-12127018D01*
X6112500Y-12084161D01*
X6098214Y-12012732D01*
X6098214Y-11955589D01*
X6112500Y-11884161D01*
X6126786Y-11841303D01*
X6141071Y-11812732D01*
X6169643Y-11769875D01*
X6183928Y-11755589D01*
X6269643Y-11798446D02*
X6455357Y-11798446D01*
X6355357Y-11912732D01*
X6398214Y-11912732D01*
X6426786Y-11927018D01*
X6441071Y-11941303D01*
X6455357Y-11969875D01*
X6455357Y-12041303D01*
X6441071Y-12069875D01*
X6426786Y-12084161D01*
X6398214Y-12098446D01*
X6312500Y-12098446D01*
X6283928Y-12084161D01*
X6269643Y-12069875D01*
X6641071Y-11798446D02*
X6669643Y-11798446D01*
X6698214Y-11812732D01*
X6712500Y-11827018D01*
X6726786Y-11855589D01*
X6741071Y-11912732D01*
X6741071Y-11984161D01*
X6726786Y-12041303D01*
X6712500Y-12069875D01*
X6698214Y-12084161D01*
X6669643Y-12098446D01*
X6641071Y-12098446D01*
X6612500Y-12084161D01*
X6598214Y-12069875D01*
X6583928Y-12041303D01*
X6569643Y-11984161D01*
X6569643Y-11912732D01*
X6583928Y-11855589D01*
X6598214Y-11827018D01*
X6612500Y-11812732D01*
X6641071Y-11798446D01*
X7098214Y-12098446D02*
X7098214Y-11798446D01*
X7226786Y-12098446D02*
X7226786Y-11941303D01*
X7212500Y-11912732D01*
X7183928Y-11898446D01*
X7141071Y-11898446D01*
X7112500Y-11912732D01*
X7098214Y-11927018D01*
X7412500Y-12098446D02*
X7383928Y-12084161D01*
X7369643Y-12069875D01*
X7355357Y-12041303D01*
X7355357Y-11955589D01*
X7369643Y-11927018D01*
X7383928Y-11912732D01*
X7412500Y-11898446D01*
X7455357Y-11898446D01*
X7483928Y-11912732D01*
X7498214Y-11927018D01*
X7512500Y-11955589D01*
X7512500Y-12041303D01*
X7498214Y-12069875D01*
X7483928Y-12084161D01*
X7455357Y-12098446D01*
X7412500Y-12098446D01*
X7683928Y-12098446D02*
X7655357Y-12084161D01*
X7641071Y-12055589D01*
X7641071Y-11798446D01*
X7912500Y-12084161D02*
X7883928Y-12098446D01*
X7826786Y-12098446D01*
X7798214Y-12084161D01*
X7783928Y-12055589D01*
X7783928Y-11941303D01*
X7798214Y-11912732D01*
X7826786Y-11898446D01*
X7883928Y-11898446D01*
X7912500Y-11912732D01*
X7926786Y-11941303D01*
X7926786Y-11969875D01*
X7783928Y-11998446D01*
X8041071Y-12084161D02*
X8069643Y-12098446D01*
X8126786Y-12098446D01*
X8155357Y-12084161D01*
X8169643Y-12055589D01*
X8169643Y-12041303D01*
X8155357Y-12012732D01*
X8126786Y-11998446D01*
X8083928Y-11998446D01*
X8055357Y-11984161D01*
X8041071Y-11955589D01*
X8041071Y-11941303D01*
X8055357Y-11912732D01*
X8083928Y-11898446D01*
X8126786Y-11898446D01*
X8155357Y-11912732D01*
X8269643Y-12212732D02*
X8283928Y-12198446D01*
X8312500Y-12155589D01*
X8326786Y-12127018D01*
X8341071Y-12084161D01*
X8355357Y-12012732D01*
X8355357Y-11955589D01*
X8341071Y-11884161D01*
X8326786Y-11841303D01*
X8312500Y-11812732D01*
X8283928Y-11769875D01*
X8269643Y-11755589D01*
X1497500Y-12358732D02*
G75*
G03X1497500Y-12358732I-37500J0D01*
G01*
X1841071Y-12194446D02*
X1869643Y-12194446D01*
X1898214Y-12208732D01*
X1912500Y-12223018D01*
X1926786Y-12251589D01*
X1941071Y-12308732D01*
X1941071Y-12380161D01*
X1926786Y-12437303D01*
X1912500Y-12465875D01*
X1898214Y-12480161D01*
X1869643Y-12494446D01*
X1841071Y-12494446D01*
X1812500Y-12480161D01*
X1798214Y-12465875D01*
X1783928Y-12437303D01*
X1769643Y-12380161D01*
X1769643Y-12308732D01*
X1783928Y-12251589D01*
X1798214Y-12223018D01*
X1812500Y-12208732D01*
X1841071Y-12194446D01*
X2069643Y-12465875D02*
X2083928Y-12480161D01*
X2069643Y-12494446D01*
X2055357Y-12480161D01*
X2069643Y-12465875D01*
X2069643Y-12494446D01*
X2183928Y-12194446D02*
X2383928Y-12194446D01*
X2255357Y-12494446D01*
X2641071Y-12194446D02*
X2498214Y-12194446D01*
X2483928Y-12337303D01*
X2498214Y-12323018D01*
X2526786Y-12308732D01*
X2598214Y-12308732D01*
X2626786Y-12323018D01*
X2641071Y-12337303D01*
X2655357Y-12365875D01*
X2655357Y-12437303D01*
X2641071Y-12465875D01*
X2626786Y-12480161D01*
X2598214Y-12494446D01*
X2526786Y-12494446D01*
X2498214Y-12480161D01*
X2483928Y-12465875D01*
X2783928Y-12494446D02*
X2783928Y-12294446D01*
X2783928Y-12323018D02*
X2798214Y-12308732D01*
X2826786Y-12294446D01*
X2869643Y-12294446D01*
X2898214Y-12308732D01*
X2912500Y-12337303D01*
X2912500Y-12494446D01*
X2912500Y-12337303D02*
X2926786Y-12308732D01*
X2955357Y-12294446D01*
X2998214Y-12294446D01*
X3026786Y-12308732D01*
X3041071Y-12337303D01*
X3041071Y-12494446D01*
X3183928Y-12494446D02*
X3183928Y-12294446D01*
X3183928Y-12323018D02*
X3198214Y-12308732D01*
X3226786Y-12294446D01*
X3269643Y-12294446D01*
X3298214Y-12308732D01*
X3312500Y-12337303D01*
X3312500Y-12494446D01*
X3312500Y-12337303D02*
X3326786Y-12308732D01*
X3355357Y-12294446D01*
X3398214Y-12294446D01*
X3426786Y-12308732D01*
X3441071Y-12337303D01*
X3441071Y-12494446D01*
X4026786Y-12180161D02*
X3769643Y-12565875D01*
X4412500Y-12194446D02*
X4441071Y-12194446D01*
X4469643Y-12208732D01*
X4483928Y-12223018D01*
X4498214Y-12251589D01*
X4512500Y-12308732D01*
X4512500Y-12380161D01*
X4498214Y-12437303D01*
X4483928Y-12465875D01*
X4469643Y-12480161D01*
X4441071Y-12494446D01*
X4412500Y-12494446D01*
X4383928Y-12480161D01*
X4369643Y-12465875D01*
X4355357Y-12437303D01*
X4341071Y-12380161D01*
X4341071Y-12308732D01*
X4355357Y-12251589D01*
X4369643Y-12223018D01*
X4383928Y-12208732D01*
X4412500Y-12194446D01*
X4641071Y-12465875D02*
X4655357Y-12480161D01*
X4641071Y-12494446D01*
X4626786Y-12480161D01*
X4641071Y-12465875D01*
X4641071Y-12494446D01*
X4841071Y-12194446D02*
X4869643Y-12194446D01*
X4898214Y-12208732D01*
X4912500Y-12223018D01*
X4926786Y-12251589D01*
X4941071Y-12308732D01*
X4941071Y-12380161D01*
X4926786Y-12437303D01*
X4912500Y-12465875D01*
X4898214Y-12480161D01*
X4869643Y-12494446D01*
X4841071Y-12494446D01*
X4812500Y-12480161D01*
X4798214Y-12465875D01*
X4783928Y-12437303D01*
X4769643Y-12380161D01*
X4769643Y-12308732D01*
X4783928Y-12251589D01*
X4798214Y-12223018D01*
X4812500Y-12208732D01*
X4841071Y-12194446D01*
X5041071Y-12194446D02*
X5226786Y-12194446D01*
X5126786Y-12308732D01*
X5169643Y-12308732D01*
X5198214Y-12323018D01*
X5212500Y-12337303D01*
X5226786Y-12365875D01*
X5226786Y-12437303D01*
X5212500Y-12465875D01*
X5198214Y-12480161D01*
X5169643Y-12494446D01*
X5083928Y-12494446D01*
X5055357Y-12480161D01*
X5041071Y-12465875D01*
X5412500Y-12194446D02*
X5441071Y-12194446D01*
X5469643Y-12208732D01*
X5483928Y-12223018D01*
X5498214Y-12251589D01*
X5512500Y-12308732D01*
X5512500Y-12380161D01*
X5498214Y-12437303D01*
X5483928Y-12465875D01*
X5469643Y-12480161D01*
X5441071Y-12494446D01*
X5412500Y-12494446D01*
X5383928Y-12480161D01*
X5369643Y-12465875D01*
X5355357Y-12437303D01*
X5341071Y-12380161D01*
X5341071Y-12308732D01*
X5355357Y-12251589D01*
X5369643Y-12223018D01*
X5383928Y-12208732D01*
X5412500Y-12194446D01*
X5626786Y-12194446D02*
X5626786Y-12251589D01*
X5741071Y-12194446D02*
X5741071Y-12251589D01*
X6183928Y-12608732D02*
X6169643Y-12594446D01*
X6141071Y-12551589D01*
X6126786Y-12523018D01*
X6112500Y-12480161D01*
X6098214Y-12408732D01*
X6098214Y-12351589D01*
X6112500Y-12280161D01*
X6126786Y-12237303D01*
X6141071Y-12208732D01*
X6169643Y-12165875D01*
X6183928Y-12151589D01*
X6283928Y-12223018D02*
X6298214Y-12208732D01*
X6326786Y-12194446D01*
X6398214Y-12194446D01*
X6426786Y-12208732D01*
X6441071Y-12223018D01*
X6455357Y-12251589D01*
X6455357Y-12280161D01*
X6441071Y-12323018D01*
X6269643Y-12494446D01*
X6455357Y-12494446D01*
X6726786Y-12194446D02*
X6583928Y-12194446D01*
X6569643Y-12337303D01*
X6583928Y-12323018D01*
X6612500Y-12308732D01*
X6683928Y-12308732D01*
X6712500Y-12323018D01*
X6726786Y-12337303D01*
X6741071Y-12365875D01*
X6741071Y-12437303D01*
X6726786Y-12465875D01*
X6712500Y-12480161D01*
X6683928Y-12494446D01*
X6612500Y-12494446D01*
X6583928Y-12480161D01*
X6569643Y-12465875D01*
X7098214Y-12494446D02*
X7098214Y-12194446D01*
X7226786Y-12494446D02*
X7226786Y-12337303D01*
X7212500Y-12308732D01*
X7183928Y-12294446D01*
X7141071Y-12294446D01*
X7112500Y-12308732D01*
X7098214Y-12323018D01*
X7412500Y-12494446D02*
X7383928Y-12480161D01*
X7369643Y-12465875D01*
X7355357Y-12437303D01*
X7355357Y-12351589D01*
X7369643Y-12323018D01*
X7383928Y-12308732D01*
X7412500Y-12294446D01*
X7455357Y-12294446D01*
X7483928Y-12308732D01*
X7498214Y-12323018D01*
X7512500Y-12351589D01*
X7512500Y-12437303D01*
X7498214Y-12465875D01*
X7483928Y-12480161D01*
X7455357Y-12494446D01*
X7412500Y-12494446D01*
X7683928Y-12494446D02*
X7655357Y-12480161D01*
X7641071Y-12451589D01*
X7641071Y-12194446D01*
X7912500Y-12480161D02*
X7883928Y-12494446D01*
X7826786Y-12494446D01*
X7798214Y-12480161D01*
X7783928Y-12451589D01*
X7783928Y-12337303D01*
X7798214Y-12308732D01*
X7826786Y-12294446D01*
X7883928Y-12294446D01*
X7912500Y-12308732D01*
X7926786Y-12337303D01*
X7926786Y-12365875D01*
X7783928Y-12394446D01*
X8041071Y-12480161D02*
X8069643Y-12494446D01*
X8126786Y-12494446D01*
X8155357Y-12480161D01*
X8169643Y-12451589D01*
X8169643Y-12437303D01*
X8155357Y-12408732D01*
X8126786Y-12394446D01*
X8083928Y-12394446D01*
X8055357Y-12380161D01*
X8041071Y-12351589D01*
X8041071Y-12337303D01*
X8055357Y-12308732D01*
X8083928Y-12294446D01*
X8126786Y-12294446D01*
X8155357Y-12308732D01*
X8269643Y-12608732D02*
X8283928Y-12594446D01*
X8312500Y-12551589D01*
X8326786Y-12523018D01*
X8341071Y-12480161D01*
X8355357Y-12408732D01*
X8355357Y-12351589D01*
X8341071Y-12280161D01*
X8326786Y-12237303D01*
X8312500Y-12208732D01*
X8283928Y-12165875D01*
X8269643Y-12151589D01*
X1457500Y-12714732D02*
X1457500Y-12794732D01*
X1417500Y-12754732D02*
X1497500Y-12754732D01*
X1841071Y-12590446D02*
X1869643Y-12590446D01*
X1898214Y-12604732D01*
X1912500Y-12619018D01*
X1926786Y-12647589D01*
X1941071Y-12704732D01*
X1941071Y-12776161D01*
X1926786Y-12833303D01*
X1912500Y-12861875D01*
X1898214Y-12876161D01*
X1869643Y-12890446D01*
X1841071Y-12890446D01*
X1812500Y-12876161D01*
X1798214Y-12861875D01*
X1783928Y-12833303D01*
X1769643Y-12776161D01*
X1769643Y-12704732D01*
X1783928Y-12647589D01*
X1798214Y-12619018D01*
X1812500Y-12604732D01*
X1841071Y-12590446D01*
X2069643Y-12861875D02*
X2083928Y-12876161D01*
X2069643Y-12890446D01*
X2055357Y-12876161D01*
X2069643Y-12861875D01*
X2069643Y-12890446D01*
X2255357Y-12719018D02*
X2226786Y-12704732D01*
X2212500Y-12690446D01*
X2198214Y-12661875D01*
X2198214Y-12647589D01*
X2212500Y-12619018D01*
X2226786Y-12604732D01*
X2255357Y-12590446D01*
X2312500Y-12590446D01*
X2341071Y-12604732D01*
X2355357Y-12619018D01*
X2369643Y-12647589D01*
X2369643Y-12661875D01*
X2355357Y-12690446D01*
X2341071Y-12704732D01*
X2312500Y-12719018D01*
X2255357Y-12719018D01*
X2226786Y-12733303D01*
X2212500Y-12747589D01*
X2198214Y-12776161D01*
X2198214Y-12833303D01*
X2212500Y-12861875D01*
X2226786Y-12876161D01*
X2255357Y-12890446D01*
X2312500Y-12890446D01*
X2341071Y-12876161D01*
X2355357Y-12861875D01*
X2369643Y-12833303D01*
X2369643Y-12776161D01*
X2355357Y-12747589D01*
X2341071Y-12733303D01*
X2312500Y-12719018D01*
X2555357Y-12590446D02*
X2583928Y-12590446D01*
X2612500Y-12604732D01*
X2626786Y-12619018D01*
X2641071Y-12647589D01*
X2655357Y-12704732D01*
X2655357Y-12776161D01*
X2641071Y-12833303D01*
X2626786Y-12861875D01*
X2612500Y-12876161D01*
X2583928Y-12890446D01*
X2555357Y-12890446D01*
X2526786Y-12876161D01*
X2512500Y-12861875D01*
X2498214Y-12833303D01*
X2483928Y-12776161D01*
X2483928Y-12704732D01*
X2498214Y-12647589D01*
X2512500Y-12619018D01*
X2526786Y-12604732D01*
X2555357Y-12590446D01*
X2783928Y-12890446D02*
X2783928Y-12690446D01*
X2783928Y-12719018D02*
X2798214Y-12704732D01*
X2826786Y-12690446D01*
X2869643Y-12690446D01*
X2898214Y-12704732D01*
X2912500Y-12733303D01*
X2912500Y-12890446D01*
X2912500Y-12733303D02*
X2926786Y-12704732D01*
X2955357Y-12690446D01*
X2998214Y-12690446D01*
X3026786Y-12704732D01*
X3041071Y-12733303D01*
X3041071Y-12890446D01*
X3183928Y-12890446D02*
X3183928Y-12690446D01*
X3183928Y-12719018D02*
X3198214Y-12704732D01*
X3226786Y-12690446D01*
X3269643Y-12690446D01*
X3298214Y-12704732D01*
X3312500Y-12733303D01*
X3312500Y-12890446D01*
X3312500Y-12733303D02*
X3326786Y-12704732D01*
X3355357Y-12690446D01*
X3398214Y-12690446D01*
X3426786Y-12704732D01*
X3441071Y-12733303D01*
X3441071Y-12890446D01*
X4026786Y-12576161D02*
X3769643Y-12961875D01*
X4412500Y-12590446D02*
X4441071Y-12590446D01*
X4469643Y-12604732D01*
X4483928Y-12619018D01*
X4498214Y-12647589D01*
X4512500Y-12704732D01*
X4512500Y-12776161D01*
X4498214Y-12833303D01*
X4483928Y-12861875D01*
X4469643Y-12876161D01*
X4441071Y-12890446D01*
X4412500Y-12890446D01*
X4383928Y-12876161D01*
X4369643Y-12861875D01*
X4355357Y-12833303D01*
X4341071Y-12776161D01*
X4341071Y-12704732D01*
X4355357Y-12647589D01*
X4369643Y-12619018D01*
X4383928Y-12604732D01*
X4412500Y-12590446D01*
X4641071Y-12861875D02*
X4655357Y-12876161D01*
X4641071Y-12890446D01*
X4626786Y-12876161D01*
X4641071Y-12861875D01*
X4641071Y-12890446D01*
X4841071Y-12590446D02*
X4869643Y-12590446D01*
X4898214Y-12604732D01*
X4912500Y-12619018D01*
X4926786Y-12647589D01*
X4941071Y-12704732D01*
X4941071Y-12776161D01*
X4926786Y-12833303D01*
X4912500Y-12861875D01*
X4898214Y-12876161D01*
X4869643Y-12890446D01*
X4841071Y-12890446D01*
X4812500Y-12876161D01*
X4798214Y-12861875D01*
X4783928Y-12833303D01*
X4769643Y-12776161D01*
X4769643Y-12704732D01*
X4783928Y-12647589D01*
X4798214Y-12619018D01*
X4812500Y-12604732D01*
X4841071Y-12590446D01*
X5041071Y-12590446D02*
X5226786Y-12590446D01*
X5126786Y-12704732D01*
X5169643Y-12704732D01*
X5198214Y-12719018D01*
X5212500Y-12733303D01*
X5226786Y-12761875D01*
X5226786Y-12833303D01*
X5212500Y-12861875D01*
X5198214Y-12876161D01*
X5169643Y-12890446D01*
X5083928Y-12890446D01*
X5055357Y-12876161D01*
X5041071Y-12861875D01*
X5512500Y-12890446D02*
X5341071Y-12890446D01*
X5426786Y-12890446D02*
X5426786Y-12590446D01*
X5398214Y-12633303D01*
X5369643Y-12661875D01*
X5341071Y-12676161D01*
X5626786Y-12590446D02*
X5626786Y-12647589D01*
X5741071Y-12590446D02*
X5741071Y-12647589D01*
X6183928Y-13004732D02*
X6169643Y-12990446D01*
X6141071Y-12947589D01*
X6126786Y-12919018D01*
X6112500Y-12876161D01*
X6098214Y-12804732D01*
X6098214Y-12747589D01*
X6112500Y-12676161D01*
X6126786Y-12633303D01*
X6141071Y-12604732D01*
X6169643Y-12561875D01*
X6183928Y-12547589D01*
X6269643Y-12590446D02*
X6455357Y-12590446D01*
X6355357Y-12704732D01*
X6398214Y-12704732D01*
X6426786Y-12719018D01*
X6441071Y-12733303D01*
X6455357Y-12761875D01*
X6455357Y-12833303D01*
X6441071Y-12861875D01*
X6426786Y-12876161D01*
X6398214Y-12890446D01*
X6312500Y-12890446D01*
X6283928Y-12876161D01*
X6269643Y-12861875D01*
X6712500Y-12690446D02*
X6712500Y-12890446D01*
X6641071Y-12576161D02*
X6569643Y-12790446D01*
X6755357Y-12790446D01*
X7098214Y-12890446D02*
X7098214Y-12590446D01*
X7226786Y-12890446D02*
X7226786Y-12733303D01*
X7212500Y-12704732D01*
X7183928Y-12690446D01*
X7141071Y-12690446D01*
X7112500Y-12704732D01*
X7098214Y-12719018D01*
X7412500Y-12890446D02*
X7383928Y-12876161D01*
X7369643Y-12861875D01*
X7355357Y-12833303D01*
X7355357Y-12747589D01*
X7369643Y-12719018D01*
X7383928Y-12704732D01*
X7412500Y-12690446D01*
X7455357Y-12690446D01*
X7483928Y-12704732D01*
X7498214Y-12719018D01*
X7512500Y-12747589D01*
X7512500Y-12833303D01*
X7498214Y-12861875D01*
X7483928Y-12876161D01*
X7455357Y-12890446D01*
X7412500Y-12890446D01*
X7683928Y-12890446D02*
X7655357Y-12876161D01*
X7641071Y-12847589D01*
X7641071Y-12590446D01*
X7912500Y-12876161D02*
X7883928Y-12890446D01*
X7826786Y-12890446D01*
X7798214Y-12876161D01*
X7783928Y-12847589D01*
X7783928Y-12733303D01*
X7798214Y-12704732D01*
X7826786Y-12690446D01*
X7883928Y-12690446D01*
X7912500Y-12704732D01*
X7926786Y-12733303D01*
X7926786Y-12761875D01*
X7783928Y-12790446D01*
X8041071Y-12876161D02*
X8069643Y-12890446D01*
X8126786Y-12890446D01*
X8155357Y-12876161D01*
X8169643Y-12847589D01*
X8169643Y-12833303D01*
X8155357Y-12804732D01*
X8126786Y-12790446D01*
X8083928Y-12790446D01*
X8055357Y-12776161D01*
X8041071Y-12747589D01*
X8041071Y-12733303D01*
X8055357Y-12704732D01*
X8083928Y-12690446D01*
X8126786Y-12690446D01*
X8155357Y-12704732D01*
X8526786Y-12776161D02*
X8755357Y-12776161D01*
X8641071Y-12890446D02*
X8641071Y-12661875D01*
X9112500Y-12619018D02*
X9126786Y-12604732D01*
X9155357Y-12590446D01*
X9226786Y-12590446D01*
X9255357Y-12604732D01*
X9269643Y-12619018D01*
X9283928Y-12647589D01*
X9283928Y-12676161D01*
X9269643Y-12719018D01*
X9098214Y-12890446D01*
X9283928Y-12890446D01*
X9626786Y-12876161D02*
X9655357Y-12890446D01*
X9712500Y-12890446D01*
X9741071Y-12876161D01*
X9755357Y-12847589D01*
X9755357Y-12833303D01*
X9741071Y-12804732D01*
X9712500Y-12790446D01*
X9669643Y-12790446D01*
X9641071Y-12776161D01*
X9626786Y-12747589D01*
X9626786Y-12733303D01*
X9641071Y-12704732D01*
X9669643Y-12690446D01*
X9712500Y-12690446D01*
X9741071Y-12704732D01*
X9926786Y-12890446D02*
X9898214Y-12876161D01*
X9883928Y-12847589D01*
X9883928Y-12590446D01*
X10083928Y-12890446D02*
X10055357Y-12876161D01*
X10041071Y-12861875D01*
X10026786Y-12833303D01*
X10026786Y-12747589D01*
X10041071Y-12719018D01*
X10055357Y-12704732D01*
X10083928Y-12690446D01*
X10126786Y-12690446D01*
X10155357Y-12704732D01*
X10169643Y-12719018D01*
X10183928Y-12747589D01*
X10183928Y-12833303D01*
X10169643Y-12861875D01*
X10155357Y-12876161D01*
X10126786Y-12890446D01*
X10083928Y-12890446D01*
X10269643Y-12690446D02*
X10383928Y-12690446D01*
X10312500Y-12590446D02*
X10312500Y-12847589D01*
X10326786Y-12876161D01*
X10355357Y-12890446D01*
X10383928Y-12890446D01*
X10469643Y-12876161D02*
X10498214Y-12890446D01*
X10555357Y-12890446D01*
X10583928Y-12876161D01*
X10598214Y-12847589D01*
X10598214Y-12833303D01*
X10583928Y-12804732D01*
X10555357Y-12790446D01*
X10512500Y-12790446D01*
X10483928Y-12776161D01*
X10469643Y-12747589D01*
X10469643Y-12733303D01*
X10483928Y-12704732D01*
X10512500Y-12690446D01*
X10555357Y-12690446D01*
X10583928Y-12704732D01*
X10698214Y-13004732D02*
X10712500Y-12990446D01*
X10741071Y-12947589D01*
X10755357Y-12919018D01*
X10769643Y-12876161D01*
X10783928Y-12804732D01*
X10783928Y-12747589D01*
X10769643Y-12676161D01*
X10755357Y-12633303D01*
X10741071Y-12604732D01*
X10712500Y-12561875D01*
X10698214Y-12547589D01*
X1484320Y-13182552D02*
X1484320Y-13118912D01*
X1420680Y-13118912D01*
X1420680Y-13182552D01*
X1484320Y-13182552D01*
X1841071Y-12986446D02*
X1869643Y-12986446D01*
X1898214Y-13000732D01*
X1912500Y-13015018D01*
X1926786Y-13043589D01*
X1941071Y-13100732D01*
X1941071Y-13172161D01*
X1926786Y-13229303D01*
X1912500Y-13257875D01*
X1898214Y-13272161D01*
X1869643Y-13286446D01*
X1841071Y-13286446D01*
X1812500Y-13272161D01*
X1798214Y-13257875D01*
X1783928Y-13229303D01*
X1769643Y-13172161D01*
X1769643Y-13100732D01*
X1783928Y-13043589D01*
X1798214Y-13015018D01*
X1812500Y-13000732D01*
X1841071Y-12986446D01*
X2069643Y-13257875D02*
X2083928Y-13272161D01*
X2069643Y-13286446D01*
X2055357Y-13272161D01*
X2069643Y-13257875D01*
X2069643Y-13286446D01*
X2226786Y-13286446D02*
X2283928Y-13286446D01*
X2312500Y-13272161D01*
X2326786Y-13257875D01*
X2355357Y-13215018D01*
X2369643Y-13157875D01*
X2369643Y-13043589D01*
X2355357Y-13015018D01*
X2341071Y-13000732D01*
X2312500Y-12986446D01*
X2255357Y-12986446D01*
X2226786Y-13000732D01*
X2212500Y-13015018D01*
X2198214Y-13043589D01*
X2198214Y-13115018D01*
X2212500Y-13143589D01*
X2226786Y-13157875D01*
X2255357Y-13172161D01*
X2312500Y-13172161D01*
X2341071Y-13157875D01*
X2355357Y-13143589D01*
X2369643Y-13115018D01*
X2555357Y-12986446D02*
X2583928Y-12986446D01*
X2612500Y-13000732D01*
X2626786Y-13015018D01*
X2641071Y-13043589D01*
X2655357Y-13100732D01*
X2655357Y-13172161D01*
X2641071Y-13229303D01*
X2626786Y-13257875D01*
X2612500Y-13272161D01*
X2583928Y-13286446D01*
X2555357Y-13286446D01*
X2526786Y-13272161D01*
X2512500Y-13257875D01*
X2498214Y-13229303D01*
X2483928Y-13172161D01*
X2483928Y-13100732D01*
X2498214Y-13043589D01*
X2512500Y-13015018D01*
X2526786Y-13000732D01*
X2555357Y-12986446D01*
X2783928Y-13286446D02*
X2783928Y-13086446D01*
X2783928Y-13115018D02*
X2798214Y-13100732D01*
X2826786Y-13086446D01*
X2869643Y-13086446D01*
X2898214Y-13100732D01*
X2912500Y-13129303D01*
X2912500Y-13286446D01*
X2912500Y-13129303D02*
X2926786Y-13100732D01*
X2955357Y-13086446D01*
X2998214Y-13086446D01*
X3026786Y-13100732D01*
X3041071Y-13129303D01*
X3041071Y-13286446D01*
X3183928Y-13286446D02*
X3183928Y-13086446D01*
X3183928Y-13115018D02*
X3198214Y-13100732D01*
X3226786Y-13086446D01*
X3269643Y-13086446D01*
X3298214Y-13100732D01*
X3312500Y-13129303D01*
X3312500Y-13286446D01*
X3312500Y-13129303D02*
X3326786Y-13100732D01*
X3355357Y-13086446D01*
X3398214Y-13086446D01*
X3426786Y-13100732D01*
X3441071Y-13129303D01*
X3441071Y-13286446D01*
X4026786Y-12972161D02*
X3769643Y-13357875D01*
X4412500Y-12986446D02*
X4441071Y-12986446D01*
X4469643Y-13000732D01*
X4483928Y-13015018D01*
X4498214Y-13043589D01*
X4512500Y-13100732D01*
X4512500Y-13172161D01*
X4498214Y-13229303D01*
X4483928Y-13257875D01*
X4469643Y-13272161D01*
X4441071Y-13286446D01*
X4412500Y-13286446D01*
X4383928Y-13272161D01*
X4369643Y-13257875D01*
X4355357Y-13229303D01*
X4341071Y-13172161D01*
X4341071Y-13100732D01*
X4355357Y-13043589D01*
X4369643Y-13015018D01*
X4383928Y-13000732D01*
X4412500Y-12986446D01*
X4641071Y-13257875D02*
X4655357Y-13272161D01*
X4641071Y-13286446D01*
X4626786Y-13272161D01*
X4641071Y-13257875D01*
X4641071Y-13286446D01*
X4841071Y-12986446D02*
X4869643Y-12986446D01*
X4898214Y-13000732D01*
X4912500Y-13015018D01*
X4926786Y-13043589D01*
X4941071Y-13100732D01*
X4941071Y-13172161D01*
X4926786Y-13229303D01*
X4912500Y-13257875D01*
X4898214Y-13272161D01*
X4869643Y-13286446D01*
X4841071Y-13286446D01*
X4812500Y-13272161D01*
X4798214Y-13257875D01*
X4783928Y-13229303D01*
X4769643Y-13172161D01*
X4769643Y-13100732D01*
X4783928Y-13043589D01*
X4798214Y-13015018D01*
X4812500Y-13000732D01*
X4841071Y-12986446D01*
X5041071Y-12986446D02*
X5226786Y-12986446D01*
X5126786Y-13100732D01*
X5169643Y-13100732D01*
X5198214Y-13115018D01*
X5212500Y-13129303D01*
X5226786Y-13157875D01*
X5226786Y-13229303D01*
X5212500Y-13257875D01*
X5198214Y-13272161D01*
X5169643Y-13286446D01*
X5083928Y-13286446D01*
X5055357Y-13272161D01*
X5041071Y-13257875D01*
X5498214Y-12986446D02*
X5355357Y-12986446D01*
X5341071Y-13129303D01*
X5355357Y-13115018D01*
X5383928Y-13100732D01*
X5455357Y-13100732D01*
X5483928Y-13115018D01*
X5498214Y-13129303D01*
X5512500Y-13157875D01*
X5512500Y-13229303D01*
X5498214Y-13257875D01*
X5483928Y-13272161D01*
X5455357Y-13286446D01*
X5383928Y-13286446D01*
X5355357Y-13272161D01*
X5341071Y-13257875D01*
X5626786Y-12986446D02*
X5626786Y-13043589D01*
X5741071Y-12986446D02*
X5741071Y-13043589D01*
X6183928Y-13400732D02*
X6169643Y-13386446D01*
X6141071Y-13343589D01*
X6126786Y-13315018D01*
X6112500Y-13272161D01*
X6098214Y-13200732D01*
X6098214Y-13143589D01*
X6112500Y-13072161D01*
X6126786Y-13029303D01*
X6141071Y-13000732D01*
X6169643Y-12957875D01*
X6183928Y-12943589D01*
X6455357Y-13286446D02*
X6283928Y-13286446D01*
X6369643Y-13286446D02*
X6369643Y-12986446D01*
X6341071Y-13029303D01*
X6312500Y-13057875D01*
X6283928Y-13072161D01*
X6712500Y-12986446D02*
X6655357Y-12986446D01*
X6626786Y-13000732D01*
X6612500Y-13015018D01*
X6583928Y-13057875D01*
X6569643Y-13115018D01*
X6569643Y-13229303D01*
X6583928Y-13257875D01*
X6598214Y-13272161D01*
X6626786Y-13286446D01*
X6683928Y-13286446D01*
X6712500Y-13272161D01*
X6726786Y-13257875D01*
X6741071Y-13229303D01*
X6741071Y-13157875D01*
X6726786Y-13129303D01*
X6712500Y-13115018D01*
X6683928Y-13100732D01*
X6626786Y-13100732D01*
X6598214Y-13115018D01*
X6583928Y-13129303D01*
X6569643Y-13157875D01*
X7098214Y-13286446D02*
X7098214Y-12986446D01*
X7226786Y-13286446D02*
X7226786Y-13129303D01*
X7212500Y-13100732D01*
X7183928Y-13086446D01*
X7141071Y-13086446D01*
X7112500Y-13100732D01*
X7098214Y-13115018D01*
X7412500Y-13286446D02*
X7383928Y-13272161D01*
X7369643Y-13257875D01*
X7355357Y-13229303D01*
X7355357Y-13143589D01*
X7369643Y-13115018D01*
X7383928Y-13100732D01*
X7412500Y-13086446D01*
X7455357Y-13086446D01*
X7483928Y-13100732D01*
X7498214Y-13115018D01*
X7512500Y-13143589D01*
X7512500Y-13229303D01*
X7498214Y-13257875D01*
X7483928Y-13272161D01*
X7455357Y-13286446D01*
X7412500Y-13286446D01*
X7683928Y-13286446D02*
X7655357Y-13272161D01*
X7641071Y-13243589D01*
X7641071Y-12986446D01*
X7912500Y-13272161D02*
X7883928Y-13286446D01*
X7826786Y-13286446D01*
X7798214Y-13272161D01*
X7783928Y-13243589D01*
X7783928Y-13129303D01*
X7798214Y-13100732D01*
X7826786Y-13086446D01*
X7883928Y-13086446D01*
X7912500Y-13100732D01*
X7926786Y-13129303D01*
X7926786Y-13157875D01*
X7783928Y-13186446D01*
X8041071Y-13272161D02*
X8069643Y-13286446D01*
X8126786Y-13286446D01*
X8155357Y-13272161D01*
X8169643Y-13243589D01*
X8169643Y-13229303D01*
X8155357Y-13200732D01*
X8126786Y-13186446D01*
X8083928Y-13186446D01*
X8055357Y-13172161D01*
X8041071Y-13143589D01*
X8041071Y-13129303D01*
X8055357Y-13100732D01*
X8083928Y-13086446D01*
X8126786Y-13086446D01*
X8155357Y-13100732D01*
X8269643Y-13400732D02*
X8283928Y-13386446D01*
X8312500Y-13343589D01*
X8326786Y-13315018D01*
X8341071Y-13272161D01*
X8355357Y-13200732D01*
X8355357Y-13143589D01*
X8341071Y-13072161D01*
X8326786Y-13029303D01*
X8312500Y-13000732D01*
X8283928Y-12957875D01*
X8269643Y-12943589D01*
X1447500Y-13596732D02*
X1497500Y-13546732D01*
X1447500Y-13496732D01*
X1397500Y-13546732D01*
X1447500Y-13596732D01*
X1941071Y-13682446D02*
X1769643Y-13682446D01*
X1855357Y-13682446D02*
X1855357Y-13382446D01*
X1826786Y-13425303D01*
X1798214Y-13453875D01*
X1769643Y-13468161D01*
X2069643Y-13653875D02*
X2083928Y-13668161D01*
X2069643Y-13682446D01*
X2055357Y-13668161D01*
X2069643Y-13653875D01*
X2069643Y-13682446D01*
X2269643Y-13382446D02*
X2298214Y-13382446D01*
X2326786Y-13396732D01*
X2341071Y-13411018D01*
X2355357Y-13439589D01*
X2369643Y-13496732D01*
X2369643Y-13568161D01*
X2355357Y-13625303D01*
X2341071Y-13653875D01*
X2326786Y-13668161D01*
X2298214Y-13682446D01*
X2269643Y-13682446D01*
X2241071Y-13668161D01*
X2226786Y-13653875D01*
X2212500Y-13625303D01*
X2198214Y-13568161D01*
X2198214Y-13496732D01*
X2212500Y-13439589D01*
X2226786Y-13411018D01*
X2241071Y-13396732D01*
X2269643Y-13382446D01*
X2555357Y-13382446D02*
X2583928Y-13382446D01*
X2612500Y-13396732D01*
X2626786Y-13411018D01*
X2641071Y-13439589D01*
X2655357Y-13496732D01*
X2655357Y-13568161D01*
X2641071Y-13625303D01*
X2626786Y-13653875D01*
X2612500Y-13668161D01*
X2583928Y-13682446D01*
X2555357Y-13682446D01*
X2526786Y-13668161D01*
X2512500Y-13653875D01*
X2498214Y-13625303D01*
X2483928Y-13568161D01*
X2483928Y-13496732D01*
X2498214Y-13439589D01*
X2512500Y-13411018D01*
X2526786Y-13396732D01*
X2555357Y-13382446D01*
X2783928Y-13682446D02*
X2783928Y-13482446D01*
X2783928Y-13511018D02*
X2798214Y-13496732D01*
X2826786Y-13482446D01*
X2869643Y-13482446D01*
X2898214Y-13496732D01*
X2912500Y-13525303D01*
X2912500Y-13682446D01*
X2912500Y-13525303D02*
X2926786Y-13496732D01*
X2955357Y-13482446D01*
X2998214Y-13482446D01*
X3026786Y-13496732D01*
X3041071Y-13525303D01*
X3041071Y-13682446D01*
X3183928Y-13682446D02*
X3183928Y-13482446D01*
X3183928Y-13511018D02*
X3198214Y-13496732D01*
X3226786Y-13482446D01*
X3269643Y-13482446D01*
X3298214Y-13496732D01*
X3312500Y-13525303D01*
X3312500Y-13682446D01*
X3312500Y-13525303D02*
X3326786Y-13496732D01*
X3355357Y-13482446D01*
X3398214Y-13482446D01*
X3426786Y-13496732D01*
X3441071Y-13525303D01*
X3441071Y-13682446D01*
X4026786Y-13368161D02*
X3769643Y-13753875D01*
X4412500Y-13382446D02*
X4441071Y-13382446D01*
X4469643Y-13396732D01*
X4483928Y-13411018D01*
X4498214Y-13439589D01*
X4512500Y-13496732D01*
X4512500Y-13568161D01*
X4498214Y-13625303D01*
X4483928Y-13653875D01*
X4469643Y-13668161D01*
X4441071Y-13682446D01*
X4412500Y-13682446D01*
X4383928Y-13668161D01*
X4369643Y-13653875D01*
X4355357Y-13625303D01*
X4341071Y-13568161D01*
X4341071Y-13496732D01*
X4355357Y-13439589D01*
X4369643Y-13411018D01*
X4383928Y-13396732D01*
X4412500Y-13382446D01*
X4641071Y-13653875D02*
X4655357Y-13668161D01*
X4641071Y-13682446D01*
X4626786Y-13668161D01*
X4641071Y-13653875D01*
X4641071Y-13682446D01*
X4841071Y-13382446D02*
X4869643Y-13382446D01*
X4898214Y-13396732D01*
X4912500Y-13411018D01*
X4926786Y-13439589D01*
X4941071Y-13496732D01*
X4941071Y-13568161D01*
X4926786Y-13625303D01*
X4912500Y-13653875D01*
X4898214Y-13668161D01*
X4869643Y-13682446D01*
X4841071Y-13682446D01*
X4812500Y-13668161D01*
X4798214Y-13653875D01*
X4783928Y-13625303D01*
X4769643Y-13568161D01*
X4769643Y-13496732D01*
X4783928Y-13439589D01*
X4798214Y-13411018D01*
X4812500Y-13396732D01*
X4841071Y-13382446D01*
X5041071Y-13382446D02*
X5226786Y-13382446D01*
X5126786Y-13496732D01*
X5169643Y-13496732D01*
X5198214Y-13511018D01*
X5212500Y-13525303D01*
X5226786Y-13553875D01*
X5226786Y-13625303D01*
X5212500Y-13653875D01*
X5198214Y-13668161D01*
X5169643Y-13682446D01*
X5083928Y-13682446D01*
X5055357Y-13668161D01*
X5041071Y-13653875D01*
X5369643Y-13682446D02*
X5426786Y-13682446D01*
X5455357Y-13668161D01*
X5469643Y-13653875D01*
X5498214Y-13611018D01*
X5512500Y-13553875D01*
X5512500Y-13439589D01*
X5498214Y-13411018D01*
X5483928Y-13396732D01*
X5455357Y-13382446D01*
X5398214Y-13382446D01*
X5369643Y-13396732D01*
X5355357Y-13411018D01*
X5341071Y-13439589D01*
X5341071Y-13511018D01*
X5355357Y-13539589D01*
X5369643Y-13553875D01*
X5398214Y-13568161D01*
X5455357Y-13568161D01*
X5483928Y-13553875D01*
X5498214Y-13539589D01*
X5512500Y-13511018D01*
X5626786Y-13382446D02*
X5626786Y-13439589D01*
X5741071Y-13382446D02*
X5741071Y-13439589D01*
X6183928Y-13796732D02*
X6169643Y-13782446D01*
X6141071Y-13739589D01*
X6126786Y-13711018D01*
X6112500Y-13668161D01*
X6098214Y-13596732D01*
X6098214Y-13539589D01*
X6112500Y-13468161D01*
X6126786Y-13425303D01*
X6141071Y-13396732D01*
X6169643Y-13353875D01*
X6183928Y-13339589D01*
X6441071Y-13382446D02*
X6298214Y-13382446D01*
X6283928Y-13525303D01*
X6298214Y-13511018D01*
X6326786Y-13496732D01*
X6398214Y-13496732D01*
X6426786Y-13511018D01*
X6441071Y-13525303D01*
X6455357Y-13553875D01*
X6455357Y-13625303D01*
X6441071Y-13653875D01*
X6426786Y-13668161D01*
X6398214Y-13682446D01*
X6326786Y-13682446D01*
X6298214Y-13668161D01*
X6283928Y-13653875D01*
X6712500Y-13482446D02*
X6712500Y-13682446D01*
X6641071Y-13368161D02*
X6569643Y-13582446D01*
X6755357Y-13582446D01*
X7098214Y-13682446D02*
X7098214Y-13382446D01*
X7226786Y-13682446D02*
X7226786Y-13525303D01*
X7212500Y-13496732D01*
X7183928Y-13482446D01*
X7141071Y-13482446D01*
X7112500Y-13496732D01*
X7098214Y-13511018D01*
X7412500Y-13682446D02*
X7383928Y-13668161D01*
X7369643Y-13653875D01*
X7355357Y-13625303D01*
X7355357Y-13539589D01*
X7369643Y-13511018D01*
X7383928Y-13496732D01*
X7412500Y-13482446D01*
X7455357Y-13482446D01*
X7483928Y-13496732D01*
X7498214Y-13511018D01*
X7512500Y-13539589D01*
X7512500Y-13625303D01*
X7498214Y-13653875D01*
X7483928Y-13668161D01*
X7455357Y-13682446D01*
X7412500Y-13682446D01*
X7683928Y-13682446D02*
X7655357Y-13668161D01*
X7641071Y-13639589D01*
X7641071Y-13382446D01*
X7912500Y-13668161D02*
X7883928Y-13682446D01*
X7826786Y-13682446D01*
X7798214Y-13668161D01*
X7783928Y-13639589D01*
X7783928Y-13525303D01*
X7798214Y-13496732D01*
X7826786Y-13482446D01*
X7883928Y-13482446D01*
X7912500Y-13496732D01*
X7926786Y-13525303D01*
X7926786Y-13553875D01*
X7783928Y-13582446D01*
X8041071Y-13668161D02*
X8069643Y-13682446D01*
X8126786Y-13682446D01*
X8155357Y-13668161D01*
X8169643Y-13639589D01*
X8169643Y-13625303D01*
X8155357Y-13596732D01*
X8126786Y-13582446D01*
X8083928Y-13582446D01*
X8055357Y-13568161D01*
X8041071Y-13539589D01*
X8041071Y-13525303D01*
X8055357Y-13496732D01*
X8083928Y-13482446D01*
X8126786Y-13482446D01*
X8155357Y-13496732D01*
X8526786Y-13568161D02*
X8755357Y-13568161D01*
X8641071Y-13682446D02*
X8641071Y-13453875D01*
X9283928Y-13682446D02*
X9112500Y-13682446D01*
X9198214Y-13682446D02*
X9198214Y-13382446D01*
X9169643Y-13425303D01*
X9141071Y-13453875D01*
X9112500Y-13468161D01*
X9626786Y-13668161D02*
X9655357Y-13682446D01*
X9712500Y-13682446D01*
X9741071Y-13668161D01*
X9755357Y-13639589D01*
X9755357Y-13625303D01*
X9741071Y-13596732D01*
X9712500Y-13582446D01*
X9669643Y-13582446D01*
X9641071Y-13568161D01*
X9626786Y-13539589D01*
X9626786Y-13525303D01*
X9641071Y-13496732D01*
X9669643Y-13482446D01*
X9712500Y-13482446D01*
X9741071Y-13496732D01*
X9926786Y-13682446D02*
X9898214Y-13668161D01*
X9883928Y-13639589D01*
X9883928Y-13382446D01*
X10083928Y-13682446D02*
X10055357Y-13668161D01*
X10041071Y-13653875D01*
X10026786Y-13625303D01*
X10026786Y-13539589D01*
X10041071Y-13511018D01*
X10055357Y-13496732D01*
X10083928Y-13482446D01*
X10126786Y-13482446D01*
X10155357Y-13496732D01*
X10169643Y-13511018D01*
X10183928Y-13539589D01*
X10183928Y-13625303D01*
X10169643Y-13653875D01*
X10155357Y-13668161D01*
X10126786Y-13682446D01*
X10083928Y-13682446D01*
X10269643Y-13482446D02*
X10383928Y-13482446D01*
X10312500Y-13382446D02*
X10312500Y-13639589D01*
X10326786Y-13668161D01*
X10355357Y-13682446D01*
X10383928Y-13682446D01*
X10455357Y-13796732D02*
X10469643Y-13782446D01*
X10498214Y-13739589D01*
X10512500Y-13711018D01*
X10526786Y-13668161D01*
X10541071Y-13596732D01*
X10541071Y-13539589D01*
X10526786Y-13468161D01*
X10512500Y-13425303D01*
X10498214Y-13396732D01*
X10469643Y-13353875D01*
X10455357Y-13339589D01*
X1387500Y-13887732D02*
X1497500Y-13997732D01*
X1497500Y-13887732D02*
X1387500Y-13997732D01*
X1497500Y-13942732D02*
G75*
G03X1497500Y-13942732I-55000J0D01*
G01*
X1941071Y-14078446D02*
X1769643Y-14078446D01*
X1855357Y-14078446D02*
X1855357Y-13778446D01*
X1826786Y-13821303D01*
X1798214Y-13849875D01*
X1769643Y-13864161D01*
X2069643Y-14049875D02*
X2083928Y-14064161D01*
X2069643Y-14078446D01*
X2055357Y-14064161D01*
X2069643Y-14049875D01*
X2069643Y-14078446D01*
X2369643Y-14078446D02*
X2198214Y-14078446D01*
X2283928Y-14078446D02*
X2283928Y-13778446D01*
X2255357Y-13821303D01*
X2226786Y-13849875D01*
X2198214Y-13864161D01*
X2555357Y-13778446D02*
X2583928Y-13778446D01*
X2612500Y-13792732D01*
X2626786Y-13807018D01*
X2641071Y-13835589D01*
X2655357Y-13892732D01*
X2655357Y-13964161D01*
X2641071Y-14021303D01*
X2626786Y-14049875D01*
X2612500Y-14064161D01*
X2583928Y-14078446D01*
X2555357Y-14078446D01*
X2526786Y-14064161D01*
X2512500Y-14049875D01*
X2498214Y-14021303D01*
X2483928Y-13964161D01*
X2483928Y-13892732D01*
X2498214Y-13835589D01*
X2512500Y-13807018D01*
X2526786Y-13792732D01*
X2555357Y-13778446D01*
X2783928Y-14078446D02*
X2783928Y-13878446D01*
X2783928Y-13907018D02*
X2798214Y-13892732D01*
X2826786Y-13878446D01*
X2869643Y-13878446D01*
X2898214Y-13892732D01*
X2912500Y-13921303D01*
X2912500Y-14078446D01*
X2912500Y-13921303D02*
X2926786Y-13892732D01*
X2955357Y-13878446D01*
X2998214Y-13878446D01*
X3026786Y-13892732D01*
X3041071Y-13921303D01*
X3041071Y-14078446D01*
X3183928Y-14078446D02*
X3183928Y-13878446D01*
X3183928Y-13907018D02*
X3198214Y-13892732D01*
X3226786Y-13878446D01*
X3269643Y-13878446D01*
X3298214Y-13892732D01*
X3312500Y-13921303D01*
X3312500Y-14078446D01*
X3312500Y-13921303D02*
X3326786Y-13892732D01*
X3355357Y-13878446D01*
X3398214Y-13878446D01*
X3426786Y-13892732D01*
X3441071Y-13921303D01*
X3441071Y-14078446D01*
X4026786Y-13764161D02*
X3769643Y-14149875D01*
X4412500Y-13778446D02*
X4441071Y-13778446D01*
X4469643Y-13792732D01*
X4483928Y-13807018D01*
X4498214Y-13835589D01*
X4512500Y-13892732D01*
X4512500Y-13964161D01*
X4498214Y-14021303D01*
X4483928Y-14049875D01*
X4469643Y-14064161D01*
X4441071Y-14078446D01*
X4412500Y-14078446D01*
X4383928Y-14064161D01*
X4369643Y-14049875D01*
X4355357Y-14021303D01*
X4341071Y-13964161D01*
X4341071Y-13892732D01*
X4355357Y-13835589D01*
X4369643Y-13807018D01*
X4383928Y-13792732D01*
X4412500Y-13778446D01*
X4641071Y-14049875D02*
X4655357Y-14064161D01*
X4641071Y-14078446D01*
X4626786Y-14064161D01*
X4641071Y-14049875D01*
X4641071Y-14078446D01*
X4841071Y-13778446D02*
X4869643Y-13778446D01*
X4898214Y-13792732D01*
X4912500Y-13807018D01*
X4926786Y-13835589D01*
X4941071Y-13892732D01*
X4941071Y-13964161D01*
X4926786Y-14021303D01*
X4912500Y-14049875D01*
X4898214Y-14064161D01*
X4869643Y-14078446D01*
X4841071Y-14078446D01*
X4812500Y-14064161D01*
X4798214Y-14049875D01*
X4783928Y-14021303D01*
X4769643Y-13964161D01*
X4769643Y-13892732D01*
X4783928Y-13835589D01*
X4798214Y-13807018D01*
X4812500Y-13792732D01*
X4841071Y-13778446D01*
X5198214Y-13878446D02*
X5198214Y-14078446D01*
X5126786Y-13764161D02*
X5055357Y-13978446D01*
X5241071Y-13978446D01*
X5326786Y-13778446D02*
X5512500Y-13778446D01*
X5412500Y-13892732D01*
X5455357Y-13892732D01*
X5483928Y-13907018D01*
X5498214Y-13921303D01*
X5512500Y-13949875D01*
X5512500Y-14021303D01*
X5498214Y-14049875D01*
X5483928Y-14064161D01*
X5455357Y-14078446D01*
X5369643Y-14078446D01*
X5341071Y-14064161D01*
X5326786Y-14049875D01*
X5626786Y-13778446D02*
X5626786Y-13835589D01*
X5741071Y-13778446D02*
X5741071Y-13835589D01*
X6183928Y-14192732D02*
X6169643Y-14178446D01*
X6141071Y-14135589D01*
X6126786Y-14107018D01*
X6112500Y-14064161D01*
X6098214Y-13992732D01*
X6098214Y-13935589D01*
X6112500Y-13864161D01*
X6126786Y-13821303D01*
X6141071Y-13792732D01*
X6169643Y-13749875D01*
X6183928Y-13735589D01*
X6455357Y-14078446D02*
X6283928Y-14078446D01*
X6369643Y-14078446D02*
X6369643Y-13778446D01*
X6341071Y-13821303D01*
X6312500Y-13849875D01*
X6283928Y-13864161D01*
X6741071Y-14078446D02*
X6569643Y-14078446D01*
X6655357Y-14078446D02*
X6655357Y-13778446D01*
X6626786Y-13821303D01*
X6598214Y-13849875D01*
X6569643Y-13864161D01*
X7098214Y-14078446D02*
X7098214Y-13778446D01*
X7226786Y-14078446D02*
X7226786Y-13921303D01*
X7212500Y-13892732D01*
X7183928Y-13878446D01*
X7141071Y-13878446D01*
X7112500Y-13892732D01*
X7098214Y-13907018D01*
X7412500Y-14078446D02*
X7383928Y-14064161D01*
X7369643Y-14049875D01*
X7355357Y-14021303D01*
X7355357Y-13935589D01*
X7369643Y-13907018D01*
X7383928Y-13892732D01*
X7412500Y-13878446D01*
X7455357Y-13878446D01*
X7483928Y-13892732D01*
X7498214Y-13907018D01*
X7512500Y-13935589D01*
X7512500Y-14021303D01*
X7498214Y-14049875D01*
X7483928Y-14064161D01*
X7455357Y-14078446D01*
X7412500Y-14078446D01*
X7683928Y-14078446D02*
X7655357Y-14064161D01*
X7641071Y-14035589D01*
X7641071Y-13778446D01*
X7912500Y-14064161D02*
X7883928Y-14078446D01*
X7826786Y-14078446D01*
X7798214Y-14064161D01*
X7783928Y-14035589D01*
X7783928Y-13921303D01*
X7798214Y-13892732D01*
X7826786Y-13878446D01*
X7883928Y-13878446D01*
X7912500Y-13892732D01*
X7926786Y-13921303D01*
X7926786Y-13949875D01*
X7783928Y-13978446D01*
X8041071Y-14064161D02*
X8069643Y-14078446D01*
X8126786Y-14078446D01*
X8155357Y-14064161D01*
X8169643Y-14035589D01*
X8169643Y-14021303D01*
X8155357Y-13992732D01*
X8126786Y-13978446D01*
X8083928Y-13978446D01*
X8055357Y-13964161D01*
X8041071Y-13935589D01*
X8041071Y-13921303D01*
X8055357Y-13892732D01*
X8083928Y-13878446D01*
X8126786Y-13878446D01*
X8155357Y-13892732D01*
X8269643Y-14192732D02*
X8283928Y-14178446D01*
X8312500Y-14135589D01*
X8326786Y-14107018D01*
X8341071Y-14064161D01*
X8355357Y-13992732D01*
X8355357Y-13935589D01*
X8341071Y-13864161D01*
X8326786Y-13821303D01*
X8312500Y-13792732D01*
X8283928Y-13749875D01*
X8269643Y-13735589D01*
X1377500Y-14278732D02*
X1497500Y-14398732D01*
X1497500Y-14278732D02*
X1377500Y-14398732D01*
X1437500Y-14278732D02*
X1437500Y-14398732D01*
X1377500Y-14338732D02*
X1497500Y-14338732D01*
X1941071Y-14474446D02*
X1769643Y-14474446D01*
X1855357Y-14474446D02*
X1855357Y-14174446D01*
X1826786Y-14217303D01*
X1798214Y-14245875D01*
X1769643Y-14260161D01*
X2069643Y-14445875D02*
X2083928Y-14460161D01*
X2069643Y-14474446D01*
X2055357Y-14460161D01*
X2069643Y-14445875D01*
X2069643Y-14474446D01*
X2198214Y-14203018D02*
X2212500Y-14188732D01*
X2241071Y-14174446D01*
X2312500Y-14174446D01*
X2341071Y-14188732D01*
X2355357Y-14203018D01*
X2369643Y-14231589D01*
X2369643Y-14260161D01*
X2355357Y-14303018D01*
X2183928Y-14474446D01*
X2369643Y-14474446D01*
X2555357Y-14174446D02*
X2583928Y-14174446D01*
X2612500Y-14188732D01*
X2626786Y-14203018D01*
X2641071Y-14231589D01*
X2655357Y-14288732D01*
X2655357Y-14360161D01*
X2641071Y-14417303D01*
X2626786Y-14445875D01*
X2612500Y-14460161D01*
X2583928Y-14474446D01*
X2555357Y-14474446D01*
X2526786Y-14460161D01*
X2512500Y-14445875D01*
X2498214Y-14417303D01*
X2483928Y-14360161D01*
X2483928Y-14288732D01*
X2498214Y-14231589D01*
X2512500Y-14203018D01*
X2526786Y-14188732D01*
X2555357Y-14174446D01*
X2783928Y-14474446D02*
X2783928Y-14274446D01*
X2783928Y-14303018D02*
X2798214Y-14288732D01*
X2826786Y-14274446D01*
X2869643Y-14274446D01*
X2898214Y-14288732D01*
X2912500Y-14317303D01*
X2912500Y-14474446D01*
X2912500Y-14317303D02*
X2926786Y-14288732D01*
X2955357Y-14274446D01*
X2998214Y-14274446D01*
X3026786Y-14288732D01*
X3041071Y-14317303D01*
X3041071Y-14474446D01*
X3183928Y-14474446D02*
X3183928Y-14274446D01*
X3183928Y-14303018D02*
X3198214Y-14288732D01*
X3226786Y-14274446D01*
X3269643Y-14274446D01*
X3298214Y-14288732D01*
X3312500Y-14317303D01*
X3312500Y-14474446D01*
X3312500Y-14317303D02*
X3326786Y-14288732D01*
X3355357Y-14274446D01*
X3398214Y-14274446D01*
X3426786Y-14288732D01*
X3441071Y-14317303D01*
X3441071Y-14474446D01*
X4026786Y-14160161D02*
X3769643Y-14545875D01*
X4412500Y-14174446D02*
X4441071Y-14174446D01*
X4469643Y-14188732D01*
X4483928Y-14203018D01*
X4498214Y-14231589D01*
X4512500Y-14288732D01*
X4512500Y-14360161D01*
X4498214Y-14417303D01*
X4483928Y-14445875D01*
X4469643Y-14460161D01*
X4441071Y-14474446D01*
X4412500Y-14474446D01*
X4383928Y-14460161D01*
X4369643Y-14445875D01*
X4355357Y-14417303D01*
X4341071Y-14360161D01*
X4341071Y-14288732D01*
X4355357Y-14231589D01*
X4369643Y-14203018D01*
X4383928Y-14188732D01*
X4412500Y-14174446D01*
X4641071Y-14445875D02*
X4655357Y-14460161D01*
X4641071Y-14474446D01*
X4626786Y-14460161D01*
X4641071Y-14445875D01*
X4641071Y-14474446D01*
X4841071Y-14174446D02*
X4869643Y-14174446D01*
X4898214Y-14188732D01*
X4912500Y-14203018D01*
X4926786Y-14231589D01*
X4941071Y-14288732D01*
X4941071Y-14360161D01*
X4926786Y-14417303D01*
X4912500Y-14445875D01*
X4898214Y-14460161D01*
X4869643Y-14474446D01*
X4841071Y-14474446D01*
X4812500Y-14460161D01*
X4798214Y-14445875D01*
X4783928Y-14417303D01*
X4769643Y-14360161D01*
X4769643Y-14288732D01*
X4783928Y-14231589D01*
X4798214Y-14203018D01*
X4812500Y-14188732D01*
X4841071Y-14174446D01*
X5198214Y-14274446D02*
X5198214Y-14474446D01*
X5126786Y-14160161D02*
X5055357Y-14374446D01*
X5241071Y-14374446D01*
X5326786Y-14174446D02*
X5526786Y-14174446D01*
X5398214Y-14474446D01*
X5626786Y-14174446D02*
X5626786Y-14231589D01*
X5741071Y-14174446D02*
X5741071Y-14231589D01*
X6183928Y-14588732D02*
X6169643Y-14574446D01*
X6141071Y-14531589D01*
X6126786Y-14503018D01*
X6112500Y-14460161D01*
X6098214Y-14388732D01*
X6098214Y-14331589D01*
X6112500Y-14260161D01*
X6126786Y-14217303D01*
X6141071Y-14188732D01*
X6169643Y-14145875D01*
X6183928Y-14131589D01*
X6426786Y-14174446D02*
X6369643Y-14174446D01*
X6341071Y-14188732D01*
X6326786Y-14203018D01*
X6298214Y-14245875D01*
X6283928Y-14303018D01*
X6283928Y-14417303D01*
X6298214Y-14445875D01*
X6312500Y-14460161D01*
X6341071Y-14474446D01*
X6398214Y-14474446D01*
X6426786Y-14460161D01*
X6441071Y-14445875D01*
X6455357Y-14417303D01*
X6455357Y-14345875D01*
X6441071Y-14317303D01*
X6426786Y-14303018D01*
X6398214Y-14288732D01*
X6341071Y-14288732D01*
X6312500Y-14303018D01*
X6298214Y-14317303D01*
X6283928Y-14345875D01*
X6812500Y-14474446D02*
X6812500Y-14174446D01*
X6941071Y-14474446D02*
X6941071Y-14317303D01*
X6926786Y-14288732D01*
X6898214Y-14274446D01*
X6855357Y-14274446D01*
X6826786Y-14288732D01*
X6812500Y-14303018D01*
X7126786Y-14474446D02*
X7098214Y-14460161D01*
X7083928Y-14445875D01*
X7069643Y-14417303D01*
X7069643Y-14331589D01*
X7083928Y-14303018D01*
X7098214Y-14288732D01*
X7126786Y-14274446D01*
X7169643Y-14274446D01*
X7198214Y-14288732D01*
X7212500Y-14303018D01*
X7226786Y-14331589D01*
X7226786Y-14417303D01*
X7212500Y-14445875D01*
X7198214Y-14460161D01*
X7169643Y-14474446D01*
X7126786Y-14474446D01*
X7398214Y-14474446D02*
X7369643Y-14460161D01*
X7355357Y-14431589D01*
X7355357Y-14174446D01*
X7626786Y-14460161D02*
X7598214Y-14474446D01*
X7541071Y-14474446D01*
X7512500Y-14460161D01*
X7498214Y-14431589D01*
X7498214Y-14317303D01*
X7512500Y-14288732D01*
X7541071Y-14274446D01*
X7598214Y-14274446D01*
X7626786Y-14288732D01*
X7641071Y-14317303D01*
X7641071Y-14345875D01*
X7498214Y-14374446D01*
X7755357Y-14460161D02*
X7783928Y-14474446D01*
X7841071Y-14474446D01*
X7869643Y-14460161D01*
X7883928Y-14431589D01*
X7883928Y-14417303D01*
X7869643Y-14388732D01*
X7841071Y-14374446D01*
X7798214Y-14374446D01*
X7769643Y-14360161D01*
X7755357Y-14331589D01*
X7755357Y-14317303D01*
X7769643Y-14288732D01*
X7798214Y-14274446D01*
X7841071Y-14274446D01*
X7869643Y-14288732D01*
X7983928Y-14588732D02*
X7998214Y-14574446D01*
X8026786Y-14531589D01*
X8041071Y-14503018D01*
X8055357Y-14460161D01*
X8069643Y-14388732D01*
X8069643Y-14331589D01*
X8055357Y-14260161D01*
X8041071Y-14217303D01*
X8026786Y-14188732D01*
X7998214Y-14145875D01*
X7983928Y-14131589D01*
X1367500Y-14669732D02*
X1497500Y-14799732D01*
X1497500Y-14669732D02*
X1367500Y-14799732D01*
X1478462Y-14780694D02*
X1478462Y-14688770D01*
X1386538Y-14688770D01*
X1386538Y-14780694D01*
X1478462Y-14780694D01*
X1941071Y-14870446D02*
X1769643Y-14870446D01*
X1855357Y-14870446D02*
X1855357Y-14570446D01*
X1826786Y-14613303D01*
X1798214Y-14641875D01*
X1769643Y-14656161D01*
X2069643Y-14841875D02*
X2083928Y-14856161D01*
X2069643Y-14870446D01*
X2055357Y-14856161D01*
X2069643Y-14841875D01*
X2069643Y-14870446D01*
X2183928Y-14570446D02*
X2369643Y-14570446D01*
X2269643Y-14684732D01*
X2312500Y-14684732D01*
X2341071Y-14699018D01*
X2355357Y-14713303D01*
X2369643Y-14741875D01*
X2369643Y-14813303D01*
X2355357Y-14841875D01*
X2341071Y-14856161D01*
X2312500Y-14870446D01*
X2226786Y-14870446D01*
X2198214Y-14856161D01*
X2183928Y-14841875D01*
X2555357Y-14570446D02*
X2583928Y-14570446D01*
X2612500Y-14584732D01*
X2626786Y-14599018D01*
X2641071Y-14627589D01*
X2655357Y-14684732D01*
X2655357Y-14756161D01*
X2641071Y-14813303D01*
X2626786Y-14841875D01*
X2612500Y-14856161D01*
X2583928Y-14870446D01*
X2555357Y-14870446D01*
X2526786Y-14856161D01*
X2512500Y-14841875D01*
X2498214Y-14813303D01*
X2483928Y-14756161D01*
X2483928Y-14684732D01*
X2498214Y-14627589D01*
X2512500Y-14599018D01*
X2526786Y-14584732D01*
X2555357Y-14570446D01*
X2783928Y-14870446D02*
X2783928Y-14670446D01*
X2783928Y-14699018D02*
X2798214Y-14684732D01*
X2826786Y-14670446D01*
X2869643Y-14670446D01*
X2898214Y-14684732D01*
X2912500Y-14713303D01*
X2912500Y-14870446D01*
X2912500Y-14713303D02*
X2926786Y-14684732D01*
X2955357Y-14670446D01*
X2998214Y-14670446D01*
X3026786Y-14684732D01*
X3041071Y-14713303D01*
X3041071Y-14870446D01*
X3183928Y-14870446D02*
X3183928Y-14670446D01*
X3183928Y-14699018D02*
X3198214Y-14684732D01*
X3226786Y-14670446D01*
X3269643Y-14670446D01*
X3298214Y-14684732D01*
X3312500Y-14713303D01*
X3312500Y-14870446D01*
X3312500Y-14713303D02*
X3326786Y-14684732D01*
X3355357Y-14670446D01*
X3398214Y-14670446D01*
X3426786Y-14684732D01*
X3441071Y-14713303D01*
X3441071Y-14870446D01*
X4026786Y-14556161D02*
X3769643Y-14941875D01*
X4412500Y-14570446D02*
X4441071Y-14570446D01*
X4469643Y-14584732D01*
X4483928Y-14599018D01*
X4498214Y-14627589D01*
X4512500Y-14684732D01*
X4512500Y-14756161D01*
X4498214Y-14813303D01*
X4483928Y-14841875D01*
X4469643Y-14856161D01*
X4441071Y-14870446D01*
X4412500Y-14870446D01*
X4383928Y-14856161D01*
X4369643Y-14841875D01*
X4355357Y-14813303D01*
X4341071Y-14756161D01*
X4341071Y-14684732D01*
X4355357Y-14627589D01*
X4369643Y-14599018D01*
X4383928Y-14584732D01*
X4412500Y-14570446D01*
X4641071Y-14841875D02*
X4655357Y-14856161D01*
X4641071Y-14870446D01*
X4626786Y-14856161D01*
X4641071Y-14841875D01*
X4641071Y-14870446D01*
X4841071Y-14570446D02*
X4869643Y-14570446D01*
X4898214Y-14584732D01*
X4912500Y-14599018D01*
X4926786Y-14627589D01*
X4941071Y-14684732D01*
X4941071Y-14756161D01*
X4926786Y-14813303D01*
X4912500Y-14841875D01*
X4898214Y-14856161D01*
X4869643Y-14870446D01*
X4841071Y-14870446D01*
X4812500Y-14856161D01*
X4798214Y-14841875D01*
X4783928Y-14813303D01*
X4769643Y-14756161D01*
X4769643Y-14684732D01*
X4783928Y-14627589D01*
X4798214Y-14599018D01*
X4812500Y-14584732D01*
X4841071Y-14570446D01*
X5212500Y-14570446D02*
X5069643Y-14570446D01*
X5055357Y-14713303D01*
X5069643Y-14699018D01*
X5098214Y-14684732D01*
X5169643Y-14684732D01*
X5198214Y-14699018D01*
X5212500Y-14713303D01*
X5226786Y-14741875D01*
X5226786Y-14813303D01*
X5212500Y-14841875D01*
X5198214Y-14856161D01*
X5169643Y-14870446D01*
X5098214Y-14870446D01*
X5069643Y-14856161D01*
X5055357Y-14841875D01*
X5512500Y-14870446D02*
X5341071Y-14870446D01*
X5426786Y-14870446D02*
X5426786Y-14570446D01*
X5398214Y-14613303D01*
X5369643Y-14641875D01*
X5341071Y-14656161D01*
X5626786Y-14570446D02*
X5626786Y-14627589D01*
X5741071Y-14570446D02*
X5741071Y-14627589D01*
X6183928Y-14984732D02*
X6169643Y-14970446D01*
X6141071Y-14927589D01*
X6126786Y-14899018D01*
X6112500Y-14856161D01*
X6098214Y-14784732D01*
X6098214Y-14727589D01*
X6112500Y-14656161D01*
X6126786Y-14613303D01*
X6141071Y-14584732D01*
X6169643Y-14541875D01*
X6183928Y-14527589D01*
X6441071Y-14570446D02*
X6298214Y-14570446D01*
X6283928Y-14713303D01*
X6298214Y-14699018D01*
X6326786Y-14684732D01*
X6398214Y-14684732D01*
X6426786Y-14699018D01*
X6441071Y-14713303D01*
X6455357Y-14741875D01*
X6455357Y-14813303D01*
X6441071Y-14841875D01*
X6426786Y-14856161D01*
X6398214Y-14870446D01*
X6326786Y-14870446D01*
X6298214Y-14856161D01*
X6283928Y-14841875D01*
X6812500Y-14870446D02*
X6812500Y-14570446D01*
X6941071Y-14870446D02*
X6941071Y-14713303D01*
X6926786Y-14684732D01*
X6898214Y-14670446D01*
X6855357Y-14670446D01*
X6826786Y-14684732D01*
X6812500Y-14699018D01*
X7126786Y-14870446D02*
X7098214Y-14856161D01*
X7083928Y-14841875D01*
X7069643Y-14813303D01*
X7069643Y-14727589D01*
X7083928Y-14699018D01*
X7098214Y-14684732D01*
X7126786Y-14670446D01*
X7169643Y-14670446D01*
X7198214Y-14684732D01*
X7212500Y-14699018D01*
X7226786Y-14727589D01*
X7226786Y-14813303D01*
X7212500Y-14841875D01*
X7198214Y-14856161D01*
X7169643Y-14870446D01*
X7126786Y-14870446D01*
X7398214Y-14870446D02*
X7369643Y-14856161D01*
X7355357Y-14827589D01*
X7355357Y-14570446D01*
X7626786Y-14856161D02*
X7598214Y-14870446D01*
X7541071Y-14870446D01*
X7512500Y-14856161D01*
X7498214Y-14827589D01*
X7498214Y-14713303D01*
X7512500Y-14684732D01*
X7541071Y-14670446D01*
X7598214Y-14670446D01*
X7626786Y-14684732D01*
X7641071Y-14713303D01*
X7641071Y-14741875D01*
X7498214Y-14770446D01*
X7755357Y-14856161D02*
X7783928Y-14870446D01*
X7841071Y-14870446D01*
X7869643Y-14856161D01*
X7883928Y-14827589D01*
X7883928Y-14813303D01*
X7869643Y-14784732D01*
X7841071Y-14770446D01*
X7798214Y-14770446D01*
X7769643Y-14756161D01*
X7755357Y-14727589D01*
X7755357Y-14713303D01*
X7769643Y-14684732D01*
X7798214Y-14670446D01*
X7841071Y-14670446D01*
X7869643Y-14684732D01*
X7983928Y-14984732D02*
X7998214Y-14970446D01*
X8026786Y-14927589D01*
X8041071Y-14899018D01*
X8055357Y-14856161D01*
X8069643Y-14784732D01*
X8069643Y-14727589D01*
X8055357Y-14656161D01*
X8041071Y-14613303D01*
X8026786Y-14584732D01*
X7998214Y-14541875D01*
X7983928Y-14527589D01*
X1337500Y-15050732D02*
X1497500Y-15210732D01*
X1497500Y-15050732D02*
X1337500Y-15210732D01*
X1417500Y-15210732D02*
X1497500Y-15130732D01*
X1417500Y-15050732D01*
X1337500Y-15130732D01*
X1417500Y-15210732D01*
X1941071Y-15266446D02*
X1769643Y-15266446D01*
X1855357Y-15266446D02*
X1855357Y-14966446D01*
X1826786Y-15009303D01*
X1798214Y-15037875D01*
X1769643Y-15052161D01*
X2069643Y-15237875D02*
X2083928Y-15252161D01*
X2069643Y-15266446D01*
X2055357Y-15252161D01*
X2069643Y-15237875D01*
X2069643Y-15266446D01*
X2341071Y-14966446D02*
X2283928Y-14966446D01*
X2255357Y-14980732D01*
X2241071Y-14995018D01*
X2212500Y-15037875D01*
X2198214Y-15095018D01*
X2198214Y-15209303D01*
X2212500Y-15237875D01*
X2226786Y-15252161D01*
X2255357Y-15266446D01*
X2312500Y-15266446D01*
X2341071Y-15252161D01*
X2355357Y-15237875D01*
X2369643Y-15209303D01*
X2369643Y-15137875D01*
X2355357Y-15109303D01*
X2341071Y-15095018D01*
X2312500Y-15080732D01*
X2255357Y-15080732D01*
X2226786Y-15095018D01*
X2212500Y-15109303D01*
X2198214Y-15137875D01*
X2555357Y-14966446D02*
X2583928Y-14966446D01*
X2612500Y-14980732D01*
X2626786Y-14995018D01*
X2641071Y-15023589D01*
X2655357Y-15080732D01*
X2655357Y-15152161D01*
X2641071Y-15209303D01*
X2626786Y-15237875D01*
X2612500Y-15252161D01*
X2583928Y-15266446D01*
X2555357Y-15266446D01*
X2526786Y-15252161D01*
X2512500Y-15237875D01*
X2498214Y-15209303D01*
X2483928Y-15152161D01*
X2483928Y-15080732D01*
X2498214Y-15023589D01*
X2512500Y-14995018D01*
X2526786Y-14980732D01*
X2555357Y-14966446D01*
X2783928Y-15266446D02*
X2783928Y-15066446D01*
X2783928Y-15095018D02*
X2798214Y-15080732D01*
X2826786Y-15066446D01*
X2869643Y-15066446D01*
X2898214Y-15080732D01*
X2912500Y-15109303D01*
X2912500Y-15266446D01*
X2912500Y-15109303D02*
X2926786Y-15080732D01*
X2955357Y-15066446D01*
X2998214Y-15066446D01*
X3026786Y-15080732D01*
X3041071Y-15109303D01*
X3041071Y-15266446D01*
X3183928Y-15266446D02*
X3183928Y-15066446D01*
X3183928Y-15095018D02*
X3198214Y-15080732D01*
X3226786Y-15066446D01*
X3269643Y-15066446D01*
X3298214Y-15080732D01*
X3312500Y-15109303D01*
X3312500Y-15266446D01*
X3312500Y-15109303D02*
X3326786Y-15080732D01*
X3355357Y-15066446D01*
X3398214Y-15066446D01*
X3426786Y-15080732D01*
X3441071Y-15109303D01*
X3441071Y-15266446D01*
X4026786Y-14952161D02*
X3769643Y-15337875D01*
X4412500Y-14966446D02*
X4441071Y-14966446D01*
X4469643Y-14980732D01*
X4483928Y-14995018D01*
X4498214Y-15023589D01*
X4512500Y-15080732D01*
X4512500Y-15152161D01*
X4498214Y-15209303D01*
X4483928Y-15237875D01*
X4469643Y-15252161D01*
X4441071Y-15266446D01*
X4412500Y-15266446D01*
X4383928Y-15252161D01*
X4369643Y-15237875D01*
X4355357Y-15209303D01*
X4341071Y-15152161D01*
X4341071Y-15080732D01*
X4355357Y-15023589D01*
X4369643Y-14995018D01*
X4383928Y-14980732D01*
X4412500Y-14966446D01*
X4641071Y-15237875D02*
X4655357Y-15252161D01*
X4641071Y-15266446D01*
X4626786Y-15252161D01*
X4641071Y-15237875D01*
X4641071Y-15266446D01*
X4841071Y-14966446D02*
X4869643Y-14966446D01*
X4898214Y-14980732D01*
X4912500Y-14995018D01*
X4926786Y-15023589D01*
X4941071Y-15080732D01*
X4941071Y-15152161D01*
X4926786Y-15209303D01*
X4912500Y-15237875D01*
X4898214Y-15252161D01*
X4869643Y-15266446D01*
X4841071Y-15266446D01*
X4812500Y-15252161D01*
X4798214Y-15237875D01*
X4783928Y-15209303D01*
X4769643Y-15152161D01*
X4769643Y-15080732D01*
X4783928Y-15023589D01*
X4798214Y-14995018D01*
X4812500Y-14980732D01*
X4841071Y-14966446D01*
X5198214Y-14966446D02*
X5141071Y-14966446D01*
X5112500Y-14980732D01*
X5098214Y-14995018D01*
X5069643Y-15037875D01*
X5055357Y-15095018D01*
X5055357Y-15209303D01*
X5069643Y-15237875D01*
X5083928Y-15252161D01*
X5112500Y-15266446D01*
X5169643Y-15266446D01*
X5198214Y-15252161D01*
X5212500Y-15237875D01*
X5226786Y-15209303D01*
X5226786Y-15137875D01*
X5212500Y-15109303D01*
X5198214Y-15095018D01*
X5169643Y-15080732D01*
X5112500Y-15080732D01*
X5083928Y-15095018D01*
X5069643Y-15109303D01*
X5055357Y-15137875D01*
X5326786Y-14966446D02*
X5512500Y-14966446D01*
X5412500Y-15080732D01*
X5455357Y-15080732D01*
X5483928Y-15095018D01*
X5498214Y-15109303D01*
X5512500Y-15137875D01*
X5512500Y-15209303D01*
X5498214Y-15237875D01*
X5483928Y-15252161D01*
X5455357Y-15266446D01*
X5369643Y-15266446D01*
X5341071Y-15252161D01*
X5326786Y-15237875D01*
X5626786Y-14966446D02*
X5626786Y-15023589D01*
X5741071Y-14966446D02*
X5741071Y-15023589D01*
X6183928Y-15380732D02*
X6169643Y-15366446D01*
X6141071Y-15323589D01*
X6126786Y-15295018D01*
X6112500Y-15252161D01*
X6098214Y-15180732D01*
X6098214Y-15123589D01*
X6112500Y-15052161D01*
X6126786Y-15009303D01*
X6141071Y-14980732D01*
X6169643Y-14937875D01*
X6183928Y-14923589D01*
X6269643Y-14966446D02*
X6469643Y-14966446D01*
X6341071Y-15266446D01*
X6812500Y-15266446D02*
X6812500Y-14966446D01*
X6941071Y-15266446D02*
X6941071Y-15109303D01*
X6926786Y-15080732D01*
X6898214Y-15066446D01*
X6855357Y-15066446D01*
X6826786Y-15080732D01*
X6812500Y-15095018D01*
X7126786Y-15266446D02*
X7098214Y-15252161D01*
X7083928Y-15237875D01*
X7069643Y-15209303D01*
X7069643Y-15123589D01*
X7083928Y-15095018D01*
X7098214Y-15080732D01*
X7126786Y-15066446D01*
X7169643Y-15066446D01*
X7198214Y-15080732D01*
X7212500Y-15095018D01*
X7226786Y-15123589D01*
X7226786Y-15209303D01*
X7212500Y-15237875D01*
X7198214Y-15252161D01*
X7169643Y-15266446D01*
X7126786Y-15266446D01*
X7398214Y-15266446D02*
X7369643Y-15252161D01*
X7355357Y-15223589D01*
X7355357Y-14966446D01*
X7626786Y-15252161D02*
X7598214Y-15266446D01*
X7541071Y-15266446D01*
X7512500Y-15252161D01*
X7498214Y-15223589D01*
X7498214Y-15109303D01*
X7512500Y-15080732D01*
X7541071Y-15066446D01*
X7598214Y-15066446D01*
X7626786Y-15080732D01*
X7641071Y-15109303D01*
X7641071Y-15137875D01*
X7498214Y-15166446D01*
X7755357Y-15252161D02*
X7783928Y-15266446D01*
X7841071Y-15266446D01*
X7869643Y-15252161D01*
X7883928Y-15223589D01*
X7883928Y-15209303D01*
X7869643Y-15180732D01*
X7841071Y-15166446D01*
X7798214Y-15166446D01*
X7769643Y-15152161D01*
X7755357Y-15123589D01*
X7755357Y-15109303D01*
X7769643Y-15080732D01*
X7798214Y-15066446D01*
X7841071Y-15066446D01*
X7869643Y-15080732D01*
X8241071Y-15152161D02*
X8469643Y-15152161D01*
X8355357Y-15266446D02*
X8355357Y-15037875D01*
X8998214Y-15266446D02*
X8826786Y-15266446D01*
X8912500Y-15266446D02*
X8912500Y-14966446D01*
X8883928Y-15009303D01*
X8855357Y-15037875D01*
X8826786Y-15052161D01*
X9341071Y-15252161D02*
X9369643Y-15266446D01*
X9426786Y-15266446D01*
X9455357Y-15252161D01*
X9469643Y-15223589D01*
X9469643Y-15209303D01*
X9455357Y-15180732D01*
X9426786Y-15166446D01*
X9383928Y-15166446D01*
X9355357Y-15152161D01*
X9341071Y-15123589D01*
X9341071Y-15109303D01*
X9355357Y-15080732D01*
X9383928Y-15066446D01*
X9426786Y-15066446D01*
X9455357Y-15080732D01*
X9641071Y-15266446D02*
X9612500Y-15252161D01*
X9598214Y-15223589D01*
X9598214Y-14966446D01*
X9798214Y-15266446D02*
X9769643Y-15252161D01*
X9755357Y-15237875D01*
X9741071Y-15209303D01*
X9741071Y-15123589D01*
X9755357Y-15095018D01*
X9769643Y-15080732D01*
X9798214Y-15066446D01*
X9841071Y-15066446D01*
X9869643Y-15080732D01*
X9883928Y-15095018D01*
X9898214Y-15123589D01*
X9898214Y-15209303D01*
X9883928Y-15237875D01*
X9869643Y-15252161D01*
X9841071Y-15266446D01*
X9798214Y-15266446D01*
X9983928Y-15066446D02*
X10098214Y-15066446D01*
X10026786Y-14966446D02*
X10026786Y-15223589D01*
X10041071Y-15252161D01*
X10069643Y-15266446D01*
X10098214Y-15266446D01*
X10169643Y-15380732D02*
X10183928Y-15366446D01*
X10212500Y-15323589D01*
X10226786Y-15295018D01*
X10241071Y-15252161D01*
X10255357Y-15180732D01*
X10255357Y-15123589D01*
X10241071Y-15052161D01*
X10226786Y-15009303D01*
X10212500Y-14980732D01*
X10183928Y-14937875D01*
X10169643Y-14923589D01*
X1372500Y-15401732D02*
X1372500Y-15651732D01*
X1247500Y-15526732D02*
X1497500Y-15526732D01*
X1497500Y-15526732D02*
G75*
G03X1497500Y-15526732I-125000J0D01*
G01*
X1769643Y-15391018D02*
X1783928Y-15376732D01*
X1812500Y-15362446D01*
X1883928Y-15362446D01*
X1912500Y-15376732D01*
X1926786Y-15391018D01*
X1941071Y-15419589D01*
X1941071Y-15448161D01*
X1926786Y-15491018D01*
X1755357Y-15662446D01*
X1941071Y-15662446D01*
X2069643Y-15633875D02*
X2083928Y-15648161D01*
X2069643Y-15662446D01*
X2055357Y-15648161D01*
X2069643Y-15633875D01*
X2069643Y-15662446D01*
X2355357Y-15362446D02*
X2212500Y-15362446D01*
X2198214Y-15505303D01*
X2212500Y-15491018D01*
X2241071Y-15476732D01*
X2312500Y-15476732D01*
X2341071Y-15491018D01*
X2355357Y-15505303D01*
X2369643Y-15533875D01*
X2369643Y-15605303D01*
X2355357Y-15633875D01*
X2341071Y-15648161D01*
X2312500Y-15662446D01*
X2241071Y-15662446D01*
X2212500Y-15648161D01*
X2198214Y-15633875D01*
X2555357Y-15362446D02*
X2583928Y-15362446D01*
X2612500Y-15376732D01*
X2626786Y-15391018D01*
X2641071Y-15419589D01*
X2655357Y-15476732D01*
X2655357Y-15548161D01*
X2641071Y-15605303D01*
X2626786Y-15633875D01*
X2612500Y-15648161D01*
X2583928Y-15662446D01*
X2555357Y-15662446D01*
X2526786Y-15648161D01*
X2512500Y-15633875D01*
X2498214Y-15605303D01*
X2483928Y-15548161D01*
X2483928Y-15476732D01*
X2498214Y-15419589D01*
X2512500Y-15391018D01*
X2526786Y-15376732D01*
X2555357Y-15362446D01*
X2783928Y-15662446D02*
X2783928Y-15462446D01*
X2783928Y-15491018D02*
X2798214Y-15476732D01*
X2826786Y-15462446D01*
X2869643Y-15462446D01*
X2898214Y-15476732D01*
X2912500Y-15505303D01*
X2912500Y-15662446D01*
X2912500Y-15505303D02*
X2926786Y-15476732D01*
X2955357Y-15462446D01*
X2998214Y-15462446D01*
X3026786Y-15476732D01*
X3041071Y-15505303D01*
X3041071Y-15662446D01*
X3183928Y-15662446D02*
X3183928Y-15462446D01*
X3183928Y-15491018D02*
X3198214Y-15476732D01*
X3226786Y-15462446D01*
X3269643Y-15462446D01*
X3298214Y-15476732D01*
X3312500Y-15505303D01*
X3312500Y-15662446D01*
X3312500Y-15505303D02*
X3326786Y-15476732D01*
X3355357Y-15462446D01*
X3398214Y-15462446D01*
X3426786Y-15476732D01*
X3441071Y-15505303D01*
X3441071Y-15662446D01*
X4026786Y-15348161D02*
X3769643Y-15733875D01*
X4412500Y-15362446D02*
X4441071Y-15362446D01*
X4469643Y-15376732D01*
X4483928Y-15391018D01*
X4498214Y-15419589D01*
X4512500Y-15476732D01*
X4512500Y-15548161D01*
X4498214Y-15605303D01*
X4483928Y-15633875D01*
X4469643Y-15648161D01*
X4441071Y-15662446D01*
X4412500Y-15662446D01*
X4383928Y-15648161D01*
X4369643Y-15633875D01*
X4355357Y-15605303D01*
X4341071Y-15548161D01*
X4341071Y-15476732D01*
X4355357Y-15419589D01*
X4369643Y-15391018D01*
X4383928Y-15376732D01*
X4412500Y-15362446D01*
X4641071Y-15633875D02*
X4655357Y-15648161D01*
X4641071Y-15662446D01*
X4626786Y-15648161D01*
X4641071Y-15633875D01*
X4641071Y-15662446D01*
X4841071Y-15362446D02*
X4869643Y-15362446D01*
X4898214Y-15376732D01*
X4912500Y-15391018D01*
X4926786Y-15419589D01*
X4941071Y-15476732D01*
X4941071Y-15548161D01*
X4926786Y-15605303D01*
X4912500Y-15633875D01*
X4898214Y-15648161D01*
X4869643Y-15662446D01*
X4841071Y-15662446D01*
X4812500Y-15648161D01*
X4798214Y-15633875D01*
X4783928Y-15605303D01*
X4769643Y-15548161D01*
X4769643Y-15476732D01*
X4783928Y-15419589D01*
X4798214Y-15391018D01*
X4812500Y-15376732D01*
X4841071Y-15362446D01*
X5083928Y-15662446D02*
X5141071Y-15662446D01*
X5169643Y-15648161D01*
X5183928Y-15633875D01*
X5212500Y-15591018D01*
X5226786Y-15533875D01*
X5226786Y-15419589D01*
X5212500Y-15391018D01*
X5198214Y-15376732D01*
X5169643Y-15362446D01*
X5112500Y-15362446D01*
X5083928Y-15376732D01*
X5069643Y-15391018D01*
X5055357Y-15419589D01*
X5055357Y-15491018D01*
X5069643Y-15519589D01*
X5083928Y-15533875D01*
X5112500Y-15548161D01*
X5169643Y-15548161D01*
X5198214Y-15533875D01*
X5212500Y-15519589D01*
X5226786Y-15491018D01*
X5398214Y-15491018D02*
X5369643Y-15476732D01*
X5355357Y-15462446D01*
X5341071Y-15433875D01*
X5341071Y-15419589D01*
X5355357Y-15391018D01*
X5369643Y-15376732D01*
X5398214Y-15362446D01*
X5455357Y-15362446D01*
X5483928Y-15376732D01*
X5498214Y-15391018D01*
X5512500Y-15419589D01*
X5512500Y-15433875D01*
X5498214Y-15462446D01*
X5483928Y-15476732D01*
X5455357Y-15491018D01*
X5398214Y-15491018D01*
X5369643Y-15505303D01*
X5355357Y-15519589D01*
X5341071Y-15548161D01*
X5341071Y-15605303D01*
X5355357Y-15633875D01*
X5369643Y-15648161D01*
X5398214Y-15662446D01*
X5455357Y-15662446D01*
X5483928Y-15648161D01*
X5498214Y-15633875D01*
X5512500Y-15605303D01*
X5512500Y-15548161D01*
X5498214Y-15519589D01*
X5483928Y-15505303D01*
X5455357Y-15491018D01*
X5626786Y-15362446D02*
X5626786Y-15419589D01*
X5741071Y-15362446D02*
X5741071Y-15419589D01*
X6183928Y-15776732D02*
X6169643Y-15762446D01*
X6141071Y-15719589D01*
X6126786Y-15691018D01*
X6112500Y-15648161D01*
X6098214Y-15576732D01*
X6098214Y-15519589D01*
X6112500Y-15448161D01*
X6126786Y-15405303D01*
X6141071Y-15376732D01*
X6169643Y-15333875D01*
X6183928Y-15319589D01*
X6426786Y-15462446D02*
X6426786Y-15662446D01*
X6355357Y-15348161D02*
X6283928Y-15562446D01*
X6469643Y-15562446D01*
X6812500Y-15662446D02*
X6812500Y-15362446D01*
X6941071Y-15662446D02*
X6941071Y-15505303D01*
X6926786Y-15476732D01*
X6898214Y-15462446D01*
X6855357Y-15462446D01*
X6826786Y-15476732D01*
X6812500Y-15491018D01*
X7126786Y-15662446D02*
X7098214Y-15648161D01*
X7083928Y-15633875D01*
X7069643Y-15605303D01*
X7069643Y-15519589D01*
X7083928Y-15491018D01*
X7098214Y-15476732D01*
X7126786Y-15462446D01*
X7169643Y-15462446D01*
X7198214Y-15476732D01*
X7212500Y-15491018D01*
X7226786Y-15519589D01*
X7226786Y-15605303D01*
X7212500Y-15633875D01*
X7198214Y-15648161D01*
X7169643Y-15662446D01*
X7126786Y-15662446D01*
X7398214Y-15662446D02*
X7369643Y-15648161D01*
X7355357Y-15619589D01*
X7355357Y-15362446D01*
X7626786Y-15648161D02*
X7598214Y-15662446D01*
X7541071Y-15662446D01*
X7512500Y-15648161D01*
X7498214Y-15619589D01*
X7498214Y-15505303D01*
X7512500Y-15476732D01*
X7541071Y-15462446D01*
X7598214Y-15462446D01*
X7626786Y-15476732D01*
X7641071Y-15505303D01*
X7641071Y-15533875D01*
X7498214Y-15562446D01*
X7755357Y-15648161D02*
X7783928Y-15662446D01*
X7841071Y-15662446D01*
X7869643Y-15648161D01*
X7883928Y-15619589D01*
X7883928Y-15605303D01*
X7869643Y-15576732D01*
X7841071Y-15562446D01*
X7798214Y-15562446D01*
X7769643Y-15548161D01*
X7755357Y-15519589D01*
X7755357Y-15505303D01*
X7769643Y-15476732D01*
X7798214Y-15462446D01*
X7841071Y-15462446D01*
X7869643Y-15476732D01*
X7983928Y-15776732D02*
X7998214Y-15762446D01*
X8026786Y-15719589D01*
X8041071Y-15691018D01*
X8055357Y-15648161D01*
X8069643Y-15576732D01*
X8069643Y-15519589D01*
X8055357Y-15448161D01*
X8041071Y-15405303D01*
X8026786Y-15376732D01*
X7998214Y-15333875D01*
X7983928Y-15319589D01*
M02*
